G75*
%MOIN*%
%OFA0B0*%
%FSLAX24Y24*%
%IPPOS*%
%LPD*%
%AMOC8*
5,1,8,0,0,1.08239X$1,22.5*
%
%ADD10C,0.0160*%
%ADD11C,0.0120*%
%ADD12C,0.0100*%
%ADD13C,0.0040*%
%ADD14C,0.0080*%
D10*
X020850Y018600D02*
X022950Y016500D01*
X024350Y017850D01*
X022200Y020000D01*
X020850Y018650D01*
X009250Y020750D02*
X009250Y022750D01*
X006250Y022750D01*
X006250Y020750D01*
X009250Y020750D01*
D11*
X011400Y012150D02*
X011400Y011600D01*
D12*
X000150Y000450D02*
X000450Y000150D01*
X006250Y000150D01*
X006750Y000650D01*
X006750Y005250D01*
X007250Y005750D01*
X017500Y005750D01*
X018000Y006250D01*
X018000Y008900D01*
X018600Y009500D01*
X026425Y009500D01*
X027000Y010050D01*
X027000Y012200D01*
X026450Y012750D01*
X025850Y012750D01*
X025000Y013600D01*
X025000Y018250D01*
X021750Y021500D01*
X021750Y027250D01*
X021250Y027750D01*
X019500Y027750D01*
X019000Y027250D01*
X019000Y023500D01*
X018500Y023000D01*
X006200Y023000D01*
X005750Y022550D01*
X005750Y020750D01*
X006750Y019750D01*
X006750Y009250D01*
X004250Y006750D01*
X004250Y003250D01*
X003550Y002550D01*
X000600Y002550D01*
X000150Y002100D01*
X000150Y000450D01*
D13*
X005172Y007020D02*
X005172Y007540D01*
X004825Y007540D01*
X004998Y007280D02*
X005172Y007280D01*
X005341Y007540D02*
X005688Y007540D01*
X005688Y007020D01*
X005856Y007107D02*
X005856Y007454D01*
X005943Y007540D01*
X006116Y007540D01*
X006203Y007454D01*
X006203Y007107D01*
X006116Y007020D01*
X005943Y007020D01*
X005856Y007107D01*
X005688Y007280D02*
X005514Y007280D01*
X006372Y007280D02*
X006372Y007107D01*
X006459Y007020D01*
X006632Y007020D01*
X006719Y007107D01*
X006719Y007454D01*
X006632Y007540D01*
X006459Y007540D01*
X006372Y007454D01*
X006372Y007280D02*
X006545Y007280D01*
X007403Y007020D02*
X007750Y007020D01*
X007750Y007540D01*
X007403Y007540D01*
X007577Y007280D02*
X007750Y007280D01*
X007919Y007020D02*
X008266Y007020D01*
X008266Y007540D01*
X008952Y007367D02*
X009125Y007367D01*
X009038Y007454D02*
X009038Y007107D01*
X008952Y007020D01*
X009294Y007020D02*
X009294Y007280D01*
X009381Y007367D01*
X009641Y007367D01*
X009641Y007020D01*
X009809Y007193D02*
X010156Y007193D01*
X010156Y007107D02*
X010156Y007280D01*
X010070Y007367D01*
X009896Y007367D01*
X009809Y007280D01*
X009809Y007193D01*
X009896Y007020D02*
X010070Y007020D01*
X010156Y007107D01*
X010326Y007367D02*
X010413Y007367D01*
X010586Y007193D01*
X010586Y007020D02*
X010586Y007367D01*
X010755Y007367D02*
X010755Y007020D01*
X011015Y007020D01*
X011102Y007107D01*
X011102Y007367D01*
X011270Y007280D02*
X011270Y007020D01*
X011531Y007020D01*
X011617Y007107D01*
X011531Y007193D01*
X011270Y007193D01*
X011270Y007280D02*
X011357Y007367D01*
X011531Y007367D01*
X011786Y007020D02*
X012133Y007020D01*
X012133Y007540D01*
X012817Y007367D02*
X012817Y006933D01*
X012904Y006847D01*
X012991Y006847D01*
X013078Y007020D02*
X012817Y007020D01*
X013078Y007020D02*
X013164Y007107D01*
X013164Y007367D01*
X013333Y007280D02*
X013333Y007107D01*
X013420Y007020D01*
X013680Y007020D01*
X013680Y007540D01*
X013680Y007367D02*
X013420Y007367D01*
X013333Y007280D01*
D14*
X014400Y006925D02*
X014400Y006425D01*
X014650Y006175D01*
X015150Y006175D01*
X015400Y006425D01*
X015650Y006175D01*
X016150Y006175D01*
X016400Y006425D01*
X016650Y006175D01*
X017150Y006175D01*
X017400Y006425D01*
X017400Y006925D01*
X017150Y007175D01*
X016650Y007175D01*
X016400Y006925D01*
X016150Y007175D01*
X015650Y007175D01*
X015400Y006925D01*
X015150Y007175D01*
X014650Y007175D01*
X014400Y006925D01*
X013125Y011375D02*
X012625Y011375D01*
X012375Y011625D01*
X012125Y011375D01*
X011625Y011375D01*
X011375Y011625D01*
X011125Y011375D01*
X010625Y011375D01*
X010375Y011625D01*
X010125Y011375D01*
X009625Y011375D01*
X009375Y011625D01*
X009125Y011375D01*
X008625Y011375D01*
X008375Y011625D01*
X008375Y012125D01*
X008625Y012375D01*
X009125Y012375D01*
X009375Y012125D01*
X009625Y012375D01*
X010125Y012375D01*
X010375Y012125D01*
X010625Y012375D01*
X011125Y012375D01*
X011375Y012125D01*
X011625Y012375D01*
X012125Y012375D01*
X012375Y012125D01*
X012625Y012375D01*
X013125Y012375D01*
X013375Y012125D01*
X013375Y011625D01*
X013125Y011375D01*
X023625Y010750D02*
X023625Y010250D01*
X023875Y010000D01*
X024375Y010000D01*
X024625Y010250D01*
X024875Y010000D01*
X025375Y010000D01*
X025625Y010250D01*
X025875Y010000D01*
X026375Y010000D01*
X026625Y010250D01*
X026625Y010750D01*
X026375Y011000D01*
X025875Y011000D01*
X025625Y010750D01*
X025375Y011000D01*
X024875Y011000D01*
X024625Y010750D01*
X024375Y011000D01*
X023875Y011000D01*
X023625Y010750D01*
X020175Y024450D02*
X019675Y024450D01*
X019425Y024700D01*
X019425Y025200D01*
X019675Y025450D01*
X019425Y025700D01*
X019425Y026200D01*
X019675Y026450D01*
X019425Y026700D01*
X019425Y027200D01*
X019675Y027450D01*
X020175Y027450D01*
X020425Y027200D01*
X020425Y026700D01*
X020175Y026450D01*
X020425Y026200D01*
X020425Y025700D01*
X020175Y025450D01*
X020425Y025200D01*
X020425Y024700D01*
X020175Y024450D01*
X006050Y002300D02*
X005550Y002300D01*
X005300Y002050D01*
X005050Y002300D01*
X004550Y002300D01*
X004300Y002050D01*
X004050Y002300D01*
X003550Y002300D01*
X003300Y002050D01*
X003300Y001550D01*
X003550Y001300D01*
X004050Y001300D01*
X004300Y001550D01*
X004550Y001300D01*
X005050Y001300D01*
X005300Y001550D01*
X005550Y001300D01*
X006050Y001300D01*
X006300Y001550D01*
X006300Y002050D01*
X006050Y002300D01*
X003300Y002050D02*
X003300Y001550D01*
X003050Y001300D01*
X002550Y001300D01*
X002300Y001550D01*
X002050Y001300D01*
X001550Y001300D01*
X001300Y001550D01*
X001050Y001300D01*
X000550Y001300D01*
X000300Y001550D01*
X000300Y002050D01*
X000550Y002300D01*
X001050Y002300D01*
X001300Y002050D01*
X001550Y002300D01*
X002050Y002300D01*
X002300Y002050D01*
X002550Y002300D01*
X003050Y002300D01*
X003300Y002050D01*
M02*
