%
M48
M72
T01C0.0236
T02C0.0360
T03C0.0400
T04C0.0433
%
T01
X11800Y8500
X12450Y7850
X15000Y11250
X14650Y11850
X12150Y14800
X11450Y15400
X11250Y16600
X7450Y16600
T02
X6650Y13600
X7650Y13600
X7650Y14600
X6650Y14600
X8650Y14600
X9650Y14600
X10650Y14600
X10650Y13600
X9650Y13600
X8650Y13600
X15550Y13600
X16550Y13600
X17550Y13600
X17550Y14600
X16550Y14600
X15550Y14600
X18550Y14600
X19550Y14600
X19550Y13600
X18550Y13600
T03
X6650Y7750
X7650Y7750
X8650Y7750
X9025Y11025
X10025Y11025
X8025Y11025
X7025Y11025
X6025Y11025
X950Y950
X1950Y950
X2950Y950
X12050Y5825
X13050Y5825
X14050Y5825
X21275Y9650
X22275Y9650
X23275Y9650
X24275Y9650
X20089Y16386
X20775Y17000
X20068Y17707
X19382Y17093
X18675Y17800
X19361Y18414
X17075Y24100
X17075Y25100
X17075Y26100
X9150Y19900
X9150Y18900
X9150Y17900
X5900Y20400
X4900Y20400
X3900Y20400
X3900Y21400
X4900Y21400
X5900Y21400
T04
X2700Y2450
X2700Y5450
M30
