G75*
%MOIN*%
%OFA0B0*%
%FSLAX24Y24*%
%IPPOS*%
%LPD*%
%AMOC8*
5,1,8,0,0,1.08239X$1,22.5*
%
%ADD10C,0.0100*%
%ADD11C,0.0740*%
%ADD12R,0.0500X0.0250*%
%ADD13C,0.0669*%
%ADD14OC8,0.0560*%
%ADD15C,0.0600*%
%ADD16R,0.0740X0.0740*%
%ADD17C,0.0320*%
%ADD18C,0.0160*%
%ADD19C,0.0356*%
D10*
X000450Y000150D02*
X000150Y000450D01*
X000150Y002100D01*
X000600Y002550D01*
X003550Y002550D01*
X004250Y003250D01*
X004250Y006750D01*
X006750Y009250D01*
X006750Y019750D01*
X005750Y020750D01*
X005750Y022550D01*
X006200Y023000D01*
X018500Y023000D01*
X019000Y023500D01*
X019000Y027250D01*
X019500Y027750D01*
X021250Y027750D01*
X021750Y027250D01*
X021750Y021500D01*
X025000Y018250D01*
X025000Y013600D01*
X025850Y012750D01*
X026450Y012750D01*
X027000Y012200D01*
X027000Y010050D01*
X026425Y009500D01*
X018600Y009500D01*
X018000Y008900D01*
X018000Y006250D01*
X017500Y005750D01*
X007250Y005750D01*
X006750Y005250D01*
X006750Y000650D01*
X006250Y000150D01*
X000450Y000150D01*
X008850Y019450D02*
X008850Y019800D01*
D11*
X010100Y019500D03*
X010100Y018500D03*
X010100Y020500D03*
X008750Y021250D03*
X008750Y022250D03*
X007750Y022250D03*
X006750Y022250D03*
X006750Y021250D03*
X007750Y021250D03*
X015600Y021350D03*
X015600Y020350D03*
X016600Y020350D03*
X016600Y021350D03*
X017600Y021350D03*
X017600Y020350D03*
X021525Y018650D03*
X022211Y019264D03*
X022918Y018557D03*
X022232Y017943D03*
X022939Y017236D03*
X023625Y017850D03*
X019925Y024950D03*
X019925Y025950D03*
X019925Y026950D03*
X012875Y011875D03*
X011875Y011875D03*
X010875Y011875D03*
X009875Y011875D03*
X008875Y011875D03*
X014900Y006675D03*
X015900Y006675D03*
X016900Y006675D03*
X024125Y010500D03*
X025125Y010500D03*
X026125Y010500D03*
X005800Y001800D03*
X005800Y000800D03*
X004800Y000800D03*
X004800Y001800D03*
X003800Y001800D03*
X003800Y000800D03*
X002800Y000800D03*
X002800Y001800D03*
X001800Y001800D03*
X001800Y000800D03*
X000800Y000800D03*
X000800Y001800D03*
D12*
X008850Y019100D03*
X008850Y019450D03*
X008850Y019800D03*
D13*
X005550Y006300D03*
X005550Y003300D03*
D14*
X009500Y014450D03*
X010500Y014450D03*
X010500Y015450D03*
X009500Y015450D03*
X011500Y015450D03*
X012500Y015450D03*
X013500Y015450D03*
X013500Y014450D03*
X012500Y014450D03*
X011500Y014450D03*
X018400Y014450D03*
X019400Y014450D03*
X020400Y014450D03*
X021400Y014450D03*
X022400Y014450D03*
X022400Y015450D03*
X021400Y015450D03*
X020400Y015450D03*
X019400Y015450D03*
X018400Y015450D03*
D15*
X011500Y008900D02*
X011500Y008300D01*
X010500Y008300D02*
X010500Y008900D01*
X009500Y008900D02*
X009500Y008300D01*
D16*
X014600Y020350D03*
X014600Y021350D03*
D17*
X019550Y017450D02*
X009050Y017450D01*
X007750Y016150D01*
X007750Y009150D01*
X008300Y008600D01*
X009500Y008600D01*
X010500Y008600D02*
X010500Y009650D01*
X008875Y011275D01*
X008875Y011875D01*
X008850Y011900D01*
X008850Y015100D01*
X009200Y015450D01*
X009500Y015450D01*
X009500Y016350D01*
X010000Y016850D01*
X017650Y016850D01*
X019850Y016850D01*
X020450Y017450D01*
X020450Y018750D01*
X021337Y019637D01*
X021838Y019637D01*
X022211Y019264D01*
X020875Y020575D02*
X020875Y020625D01*
X021400Y021150D01*
X021400Y026050D01*
X020500Y026950D01*
X019925Y026950D01*
X021050Y020750D02*
X020875Y020575D01*
X019850Y019550D01*
X019850Y017750D01*
X019550Y017450D01*
X017650Y016850D02*
X017650Y016200D01*
X018400Y015450D01*
X018400Y014450D02*
X018450Y014400D01*
X018450Y013950D01*
X018900Y013500D01*
X018900Y012100D01*
X016800Y010000D01*
X012150Y010000D01*
X011500Y009350D01*
X011500Y008600D01*
X011450Y008550D01*
X011450Y007000D01*
X010750Y006300D01*
X005550Y006300D01*
X005550Y003300D02*
X004950Y003300D01*
X003800Y002150D01*
X003800Y001800D01*
X003800Y000800D01*
X005800Y000800D02*
X005800Y001800D01*
D18*
X004800Y001800D02*
X004800Y000800D01*
X002800Y000800D02*
X002800Y001800D01*
X001800Y001800D02*
X001800Y000800D01*
X000800Y000800D02*
X000800Y001800D01*
X010300Y013350D02*
X010050Y013600D01*
X010050Y014950D01*
X010500Y015400D01*
X010500Y015450D01*
X011500Y015450D02*
X011500Y016100D01*
X011750Y016350D01*
X015350Y016350D01*
X015450Y016250D01*
X015000Y015650D02*
X014200Y015650D01*
X013900Y015950D01*
X012650Y015950D01*
X012500Y015800D01*
X012500Y015450D01*
X012500Y014450D02*
X013200Y013750D01*
X016250Y013750D01*
X017300Y012700D01*
X017500Y012700D01*
X017150Y012100D02*
X015900Y013350D01*
X010300Y013350D01*
X014650Y009350D02*
X017100Y009350D01*
X021200Y013450D01*
X022300Y013450D01*
X022450Y013600D01*
X022450Y014400D01*
X022400Y014450D01*
X022500Y015350D02*
X022400Y015450D01*
X022500Y015350D02*
X022950Y015350D01*
X023200Y015100D01*
X023200Y013350D01*
X022800Y012950D01*
X021350Y012950D01*
X017100Y008700D01*
X015300Y008700D01*
X017150Y012100D02*
X017850Y012100D01*
X020900Y014950D02*
X021400Y014450D01*
X020900Y014950D02*
X020900Y016611D01*
X022232Y017943D01*
X022918Y018557D02*
X023261Y018900D01*
X023600Y018900D01*
X024300Y018200D01*
X024300Y017500D01*
X023050Y016250D01*
X021700Y016250D01*
X021400Y015950D01*
X021400Y015450D01*
X018350Y018050D02*
X017300Y018050D01*
X018150Y019050D02*
X020288Y021187D01*
X018700Y022650D02*
X015150Y022650D01*
X014600Y022100D01*
X014600Y021350D01*
X014600Y020350D02*
X014600Y019850D01*
X015400Y019050D01*
X018150Y019050D01*
X018700Y022650D02*
X020800Y024750D01*
X020800Y025500D01*
X020350Y025950D01*
X019925Y025950D01*
X011450Y018100D02*
X011200Y017850D01*
X007200Y017850D01*
X007900Y019100D02*
X008850Y019100D01*
X009250Y018700D01*
X009900Y018700D01*
X010100Y018500D01*
X010100Y019500D02*
X009500Y019500D01*
X009450Y019450D01*
X008850Y019450D01*
X008850Y019800D02*
X008850Y020100D01*
X009050Y020300D01*
X009900Y020300D01*
X010100Y020500D01*
X010100Y020900D01*
X008750Y022250D01*
X006750Y022250D02*
X006150Y021650D01*
X006150Y020850D01*
X007900Y019100D01*
D19*
X007200Y017850D03*
X011450Y018100D03*
X015000Y015650D03*
X015450Y016250D03*
X017300Y018050D03*
X018350Y018050D03*
X020288Y021187D03*
X017500Y012700D03*
X017850Y012100D03*
X014650Y009350D03*
X015300Y008700D03*
M02*
