G75*
%MOIN*%
%OFA0B0*%
%FSLAX24Y24*%
%IPPOS*%
%LPD*%
%AMOC8*
5,1,8,0,0,1.08239X$1,22.5*
%
%ADD10C,0.0040*%
%ADD11C,0.0060*%
%ADD12C,0.0020*%
%ADD13C,0.0030*%
%ADD14C,0.0070*%
%ADD15C,0.0050*%
%ADD16C,0.0100*%
%ADD17C,0.0080*%
%ADD18R,0.0736X0.0200*%
%ADD19R,0.0335X0.0250*%
%ADD20R,0.4200X0.0300*%
%ADD21R,0.0750X0.0200*%
%ADD22R,0.0300X0.0200*%
%ADD23C,0.0000*%
%ADD24R,0.0020X0.0002*%
%ADD25R,0.0025X0.0003*%
%ADD26R,0.0030X0.0002*%
%ADD27R,0.0035X0.0003*%
%ADD28R,0.0042X0.0002*%
%ADD29R,0.0050X0.0003*%
%ADD30R,0.0060X0.0002*%
%ADD31R,0.0065X0.0003*%
%ADD32R,0.0067X0.0002*%
%ADD33R,0.0070X0.0003*%
%ADD34R,0.0072X0.0002*%
%ADD35R,0.0072X0.0003*%
%ADD36R,0.0075X0.0002*%
%ADD37R,0.0075X0.0003*%
%ADD38R,0.0012X0.0002*%
%ADD39R,0.0003X0.0002*%
%ADD40R,0.0010X0.0002*%
%ADD41R,0.0008X0.0002*%
%ADD42R,0.0002X0.0002*%
%ADD43R,0.0005X0.0002*%
%ADD44R,0.0007X0.0002*%
%ADD45R,0.0007X0.0003*%
%ADD46R,0.0083X0.0003*%
%ADD47R,0.0068X0.0003*%
%ADD48R,0.0078X0.0003*%
%ADD49R,0.0010X0.0003*%
%ADD50R,0.0005X0.0003*%
%ADD51R,0.0080X0.0003*%
%ADD52R,0.0038X0.0002*%
%ADD53R,0.0033X0.0002*%
%ADD54R,0.0043X0.0002*%
%ADD55R,0.0015X0.0002*%
%ADD56R,0.0093X0.0002*%
%ADD57R,0.0080X0.0002*%
%ADD58R,0.0090X0.0002*%
%ADD59R,0.0052X0.0003*%
%ADD60R,0.0077X0.0003*%
%ADD61R,0.0053X0.0003*%
%ADD62R,0.0018X0.0003*%
%ADD63R,0.0020X0.0003*%
%ADD64R,0.0097X0.0003*%
%ADD65R,0.0100X0.0003*%
%ADD66R,0.0085X0.0003*%
%ADD67R,0.0098X0.0003*%
%ADD68R,0.0023X0.0003*%
%ADD69R,0.0068X0.0002*%
%ADD70R,0.0077X0.0002*%
%ADD71R,0.0063X0.0002*%
%ADD72R,0.0023X0.0002*%
%ADD73R,0.0022X0.0002*%
%ADD74R,0.0105X0.0002*%
%ADD75R,0.0028X0.0002*%
%ADD76R,0.0025X0.0002*%
%ADD77R,0.0110X0.0002*%
%ADD78R,0.0092X0.0002*%
%ADD79R,0.0082X0.0003*%
%ADD80R,0.0017X0.0003*%
%ADD81R,0.0030X0.0003*%
%ADD82R,0.0027X0.0003*%
%ADD83R,0.0108X0.0003*%
%ADD84R,0.0033X0.0003*%
%ADD85R,0.0118X0.0003*%
%ADD86R,0.0113X0.0003*%
%ADD87R,0.0028X0.0003*%
%ADD88R,0.0102X0.0002*%
%ADD89R,0.0085X0.0002*%
%ADD90R,0.0103X0.0002*%
%ADD91R,0.0100X0.0002*%
%ADD92R,0.0037X0.0002*%
%ADD93R,0.0035X0.0002*%
%ADD94R,0.0117X0.0002*%
%ADD95R,0.0132X0.0002*%
%ADD96R,0.0108X0.0002*%
%ADD97R,0.0118X0.0002*%
%ADD98R,0.0128X0.0002*%
%ADD99R,0.0122X0.0003*%
%ADD100R,0.0205X0.0003*%
%ADD101R,0.0120X0.0003*%
%ADD102R,0.0040X0.0003*%
%ADD103R,0.0042X0.0003*%
%ADD104R,0.0043X0.0003*%
%ADD105R,0.0125X0.0003*%
%ADD106R,0.0142X0.0003*%
%ADD107R,0.0123X0.0003*%
%ADD108R,0.0128X0.0003*%
%ADD109R,0.0045X0.0003*%
%ADD110R,0.0135X0.0002*%
%ADD111R,0.0210X0.0002*%
%ADD112R,0.0048X0.0002*%
%ADD113R,0.0047X0.0002*%
%ADD114R,0.0045X0.0002*%
%ADD115R,0.0133X0.0002*%
%ADD116R,0.0055X0.0002*%
%ADD117R,0.0150X0.0002*%
%ADD118R,0.0262X0.0002*%
%ADD119R,0.0130X0.0002*%
%ADD120R,0.0050X0.0002*%
%ADD121R,0.0152X0.0002*%
%ADD122R,0.0215X0.0003*%
%ADD123R,0.0143X0.0003*%
%ADD124R,0.0055X0.0003*%
%ADD125R,0.0047X0.0003*%
%ADD126R,0.0135X0.0003*%
%ADD127R,0.0058X0.0003*%
%ADD128R,0.0158X0.0003*%
%ADD129R,0.0268X0.0003*%
%ADD130R,0.0132X0.0003*%
%ADD131R,0.0148X0.0002*%
%ADD132R,0.0217X0.0002*%
%ADD133R,0.0147X0.0002*%
%ADD134R,0.0058X0.0002*%
%ADD135R,0.0053X0.0002*%
%ADD136R,0.0138X0.0002*%
%ADD137R,0.0052X0.0002*%
%ADD138R,0.0162X0.0002*%
%ADD139R,0.0272X0.0002*%
%ADD140R,0.0152X0.0003*%
%ADD141R,0.0220X0.0003*%
%ADD142R,0.0153X0.0003*%
%ADD143R,0.0062X0.0003*%
%ADD144R,0.0063X0.0003*%
%ADD145R,0.0140X0.0003*%
%ADD146R,0.0060X0.0003*%
%ADD147R,0.0168X0.0003*%
%ADD148R,0.0278X0.0003*%
%ADD149R,0.0137X0.0003*%
%ADD150R,0.0165X0.0003*%
%ADD151R,0.0160X0.0002*%
%ADD152R,0.0222X0.0002*%
%ADD153R,0.0140X0.0002*%
%ADD154R,0.0172X0.0002*%
%ADD155R,0.0282X0.0002*%
%ADD156R,0.0170X0.0003*%
%ADD157R,0.0227X0.0003*%
%ADD158R,0.0167X0.0003*%
%ADD159R,0.0073X0.0003*%
%ADD160R,0.0180X0.0003*%
%ADD161R,0.0288X0.0003*%
%ADD162R,0.0178X0.0003*%
%ADD163R,0.0180X0.0002*%
%ADD164R,0.0235X0.0002*%
%ADD165R,0.0177X0.0002*%
%ADD166R,0.0078X0.0002*%
%ADD167R,0.0145X0.0002*%
%ADD168R,0.0057X0.0002*%
%ADD169R,0.0185X0.0002*%
%ADD170R,0.0292X0.0002*%
%ADD171R,0.0182X0.0002*%
%ADD172R,0.0188X0.0003*%
%ADD173R,0.0237X0.0003*%
%ADD174R,0.0183X0.0003*%
%ADD175R,0.0148X0.0003*%
%ADD176R,0.0057X0.0003*%
%ADD177R,0.0190X0.0003*%
%ADD178R,0.0295X0.0003*%
%ADD179R,0.0192X0.0002*%
%ADD180R,0.0240X0.0002*%
%ADD181R,0.0187X0.0002*%
%ADD182R,0.0195X0.0002*%
%ADD183R,0.0298X0.0002*%
%ADD184R,0.0198X0.0003*%
%ADD185R,0.0242X0.0003*%
%ADD186R,0.0193X0.0003*%
%ADD187R,0.0147X0.0003*%
%ADD188R,0.0200X0.0003*%
%ADD189R,0.0300X0.0003*%
%ADD190R,0.0150X0.0003*%
%ADD191R,0.0202X0.0002*%
%ADD192R,0.0242X0.0002*%
%ADD193R,0.0197X0.0002*%
%ADD194R,0.0205X0.0002*%
%ADD195R,0.0302X0.0002*%
%ADD196R,0.0200X0.0002*%
%ADD197R,0.0208X0.0003*%
%ADD198R,0.0245X0.0003*%
%ADD199R,0.0203X0.0003*%
%ADD200R,0.0210X0.0003*%
%ADD201R,0.0302X0.0003*%
%ADD202R,0.0202X0.0003*%
%ADD203R,0.0247X0.0002*%
%ADD204R,0.0207X0.0002*%
%ADD205R,0.0155X0.0002*%
%ADD206R,0.0215X0.0002*%
%ADD207R,0.0308X0.0002*%
%ADD208R,0.0252X0.0003*%
%ADD209R,0.0213X0.0003*%
%ADD210R,0.0155X0.0003*%
%ADD211R,0.0312X0.0003*%
%ADD212R,0.0220X0.0002*%
%ADD213R,0.0255X0.0002*%
%ADD214R,0.0158X0.0002*%
%ADD215R,0.0315X0.0002*%
%ADD216R,0.0153X0.0002*%
%ADD217R,0.0222X0.0003*%
%ADD218R,0.0257X0.0003*%
%ADD219R,0.0095X0.0003*%
%ADD220R,0.0102X0.0003*%
%ADD221R,0.0318X0.0003*%
%ADD222R,0.0107X0.0003*%
%ADD223R,0.0228X0.0002*%
%ADD224R,0.0257X0.0002*%
%ADD225R,0.0223X0.0002*%
%ADD226R,0.0095X0.0002*%
%ADD227R,0.0122X0.0002*%
%ADD228R,0.0082X0.0002*%
%ADD229R,0.0087X0.0002*%
%ADD230R,0.0098X0.0002*%
%ADD231R,0.0232X0.0003*%
%ADD232R,0.0260X0.0003*%
%ADD233R,0.0087X0.0003*%
%ADD234R,0.0238X0.0002*%
%ADD235R,0.0260X0.0002*%
%ADD236R,0.0233X0.0002*%
%ADD237R,0.0083X0.0002*%
%ADD238R,0.0073X0.0002*%
%ADD239R,0.0240X0.0003*%
%ADD240R,0.0262X0.0003*%
%ADD241R,0.0088X0.0003*%
%ADD242R,0.0245X0.0002*%
%ADD243R,0.0265X0.0002*%
%ADD244R,0.0243X0.0002*%
%ADD245R,0.0070X0.0002*%
%ADD246R,0.0065X0.0002*%
%ADD247R,0.0247X0.0003*%
%ADD248R,0.0265X0.0003*%
%ADD249R,0.0243X0.0003*%
%ADD250R,0.0250X0.0002*%
%ADD251R,0.0267X0.0002*%
%ADD252R,0.0250X0.0003*%
%ADD253R,0.0270X0.0003*%
%ADD254R,0.0067X0.0003*%
%ADD255R,0.0253X0.0002*%
%ADD256R,0.0062X0.0002*%
%ADD257R,0.0115X0.0003*%
%ADD258R,0.0130X0.0003*%
%ADD259R,0.0107X0.0002*%
%ADD260R,0.0105X0.0003*%
%ADD261R,0.0117X0.0003*%
%ADD262R,0.0115X0.0002*%
%ADD263R,0.0097X0.0002*%
%ADD264R,0.0103X0.0003*%
%ADD265R,0.0112X0.0003*%
%ADD266R,0.0090X0.0003*%
%ADD267R,0.0093X0.0003*%
%ADD268R,0.0092X0.0003*%
%ADD269R,0.0088X0.0002*%
%ADD270R,0.0012X0.0003*%
%ADD271R,0.0120X0.0002*%
%ADD272R,0.0125X0.0002*%
%ADD273R,0.0127X0.0002*%
%ADD274R,0.0127X0.0003*%
%ADD275R,0.0160X0.0003*%
%ADD276R,0.0163X0.0002*%
%ADD277R,0.0170X0.0002*%
%ADD278R,0.0145X0.0003*%
%ADD279R,0.0175X0.0002*%
%ADD280R,0.0188X0.0002*%
%ADD281R,0.0185X0.0003*%
%ADD282R,0.0207X0.0003*%
%ADD283R,0.0195X0.0003*%
%ADD284R,0.0208X0.0002*%
%ADD285R,0.0190X0.0002*%
%ADD286R,0.0187X0.0003*%
%ADD287R,0.0175X0.0003*%
%ADD288R,0.0173X0.0003*%
%ADD289R,0.0165X0.0002*%
%ADD290R,0.0235X0.0003*%
%ADD291R,0.0248X0.0003*%
%ADD292R,0.0143X0.0002*%
%ADD293R,0.0255X0.0003*%
%ADD294R,0.0275X0.0002*%
%ADD295R,0.0113X0.0002*%
%ADD296R,0.0110X0.0003*%
%ADD297R,0.0013X0.0002*%
%ADD298R,0.0178X0.0002*%
%ADD299R,0.0015X0.0003*%
%ADD300R,0.0040X0.0002*%
%ADD301R,0.0027X0.0002*%
%ADD302R,0.0048X0.0003*%
%ADD303R,0.0032X0.0003*%
%ADD304R,0.0038X0.0003*%
%ADD305R,0.0138X0.0003*%
%ADD306R,0.0123X0.0002*%
%ADD307R,0.0212X0.0002*%
%ADD308R,0.0238X0.0003*%
%ADD309R,0.0252X0.0002*%
%ADD310R,0.0258X0.0002*%
%ADD311R,0.0203X0.0002*%
%ADD312R,0.0197X0.0003*%
%ADD313R,0.0198X0.0002*%
%ADD314R,0.0230X0.0003*%
%ADD315R,0.0233X0.0003*%
%ADD316R,0.0193X0.0002*%
%ADD317R,0.0230X0.0002*%
%ADD318R,0.0223X0.0003*%
%ADD319R,0.0228X0.0003*%
%ADD320R,0.0182X0.0003*%
%ADD321R,0.0218X0.0003*%
%ADD322R,0.0172X0.0003*%
%ADD323R,0.0227X0.0002*%
%ADD324R,0.0167X0.0002*%
%ADD325R,0.0218X0.0002*%
%ADD326R,0.0168X0.0002*%
%ADD327R,0.0225X0.0003*%
%ADD328R,0.0163X0.0003*%
%ADD329R,0.0162X0.0003*%
%ADD330R,0.0157X0.0002*%
%ADD331R,0.0213X0.0002*%
%ADD332R,0.0137X0.0002*%
%ADD333R,0.0112X0.0002*%
%ADD334R,0.0192X0.0003*%
%ADD335R,0.0017X0.0002*%
%ADD336R,0.0013X0.0003*%
%ADD337R,0.0022X0.0003*%
%ADD338R,0.0037X0.0003*%
%ADD339R,0.0032X0.0002*%
%ADD340R,0.0157X0.0003*%
%ADD341R,0.0217X0.0003*%
%ADD342R,0.0177X0.0003*%
%ADD343R,0.0183X0.0002*%
%ADD344R,0.0272X0.0003*%
%ADD345R,0.0280X0.0002*%
%ADD346R,0.0285X0.0003*%
%ADD347R,0.0287X0.0002*%
%ADD348R,0.0293X0.0003*%
%ADD349R,0.0212X0.0003*%
%ADD350R,0.0300X0.0002*%
%ADD351R,0.0310X0.0003*%
%ADD352R,0.0318X0.0002*%
%ADD353R,0.0322X0.0003*%
%ADD354R,0.0328X0.0002*%
%ADD355R,0.0332X0.0003*%
%ADD356R,0.0253X0.0003*%
%ADD357R,0.0340X0.0002*%
%ADD358R,0.0345X0.0003*%
%ADD359R,0.0263X0.0003*%
%ADD360R,0.0353X0.0002*%
%ADD361R,0.0270X0.0002*%
%ADD362R,0.0360X0.0003*%
%ADD363R,0.0365X0.0002*%
%ADD364R,0.0370X0.0003*%
%ADD365R,0.0372X0.0002*%
%ADD366R,0.0380X0.0003*%
%ADD367R,0.0298X0.0003*%
%ADD368R,0.0390X0.0002*%
%ADD369R,0.0305X0.0002*%
%ADD370R,0.0397X0.0003*%
%ADD371R,0.0008X0.0003*%
%ADD372R,0.0315X0.0003*%
%ADD373R,0.0403X0.0002*%
%ADD374R,0.0320X0.0002*%
%ADD375R,0.0405X0.0003*%
%ADD376R,0.0323X0.0003*%
%ADD377R,0.0410X0.0002*%
%ADD378R,0.0327X0.0002*%
%ADD379R,0.0418X0.0003*%
%ADD380R,0.0335X0.0003*%
%ADD381R,0.0422X0.0002*%
%ADD382R,0.0430X0.0003*%
%ADD383R,0.0348X0.0003*%
%ADD384R,0.0437X0.0002*%
%ADD385R,0.0355X0.0002*%
%ADD386R,0.0445X0.0003*%
%ADD387R,0.0450X0.0002*%
%ADD388R,0.0452X0.0003*%
%ADD389R,0.0367X0.0003*%
%ADD390R,0.0458X0.0002*%
%ADD391R,0.0373X0.0002*%
%ADD392R,0.0462X0.0003*%
%ADD393R,0.0470X0.0002*%
%ADD394R,0.0385X0.0002*%
%ADD395R,0.0480X0.0003*%
%ADD396R,0.0392X0.0003*%
%ADD397R,0.0483X0.0002*%
%ADD398R,0.0398X0.0002*%
%ADD399R,0.0487X0.0003*%
%ADD400R,0.0402X0.0003*%
%ADD401R,0.0495X0.0002*%
%ADD402R,0.0405X0.0002*%
%ADD403R,0.0500X0.0003*%
%ADD404R,0.0410X0.0003*%
%ADD405R,0.0508X0.0002*%
%ADD406R,0.0417X0.0002*%
%ADD407R,0.0515X0.0003*%
%ADD408R,0.0425X0.0003*%
%ADD409R,0.0523X0.0002*%
%ADD410R,0.0430X0.0002*%
%ADD411R,0.0527X0.0003*%
%ADD412R,0.0438X0.0003*%
%ADD413R,0.0533X0.0002*%
%ADD414R,0.0442X0.0002*%
%ADD415R,0.0535X0.0003*%
%ADD416R,0.0540X0.0002*%
%ADD417R,0.0548X0.0003*%
%ADD418R,0.0457X0.0003*%
%ADD419R,0.0555X0.0002*%
%ADD420R,0.0465X0.0002*%
%ADD421R,0.0560X0.0003*%
%ADD422R,0.0472X0.0003*%
%ADD423R,0.0565X0.0002*%
%ADD424R,0.0478X0.0002*%
%ADD425R,0.0570X0.0003*%
%ADD426R,0.0817X0.0002*%
%ADD427R,0.0482X0.0002*%
%ADD428R,0.0820X0.0003*%
%ADD429R,0.0490X0.0003*%
%ADD430R,0.0825X0.0002*%
%ADD431R,0.0497X0.0002*%
%ADD432R,0.0828X0.0003*%
%ADD433R,0.0502X0.0003*%
%ADD434R,0.0830X0.0002*%
%ADD435R,0.0835X0.0003*%
%ADD436R,0.0512X0.0003*%
%ADD437R,0.0835X0.0002*%
%ADD438R,0.0225X0.0002*%
%ADD439R,0.0518X0.0002*%
%ADD440R,0.0840X0.0003*%
%ADD441R,0.0522X0.0003*%
%ADD442R,0.0840X0.0002*%
%ADD443R,0.0530X0.0002*%
%ADD444R,0.0845X0.0003*%
%ADD445R,0.0537X0.0003*%
%ADD446R,0.0845X0.0002*%
%ADD447R,0.0542X0.0002*%
%ADD448R,0.0848X0.0003*%
%ADD449R,0.0550X0.0003*%
%ADD450R,0.0850X0.0002*%
%ADD451R,0.0850X0.0003*%
%ADD452R,0.0823X0.0003*%
%ADD453R,0.0852X0.0002*%
%ADD454R,0.0852X0.0003*%
%ADD455R,0.0832X0.0002*%
%ADD456R,0.0855X0.0003*%
%ADD457R,0.0855X0.0002*%
%ADD458R,0.0837X0.0003*%
%ADD459R,0.0843X0.0003*%
%ADD460R,0.0848X0.0002*%
%ADD461R,0.0858X0.0003*%
%ADD462R,0.0860X0.0002*%
%ADD463R,0.0857X0.0003*%
%ADD464R,0.0860X0.0003*%
%ADD465R,0.0865X0.0002*%
%ADD466R,0.0865X0.0003*%
%ADD467R,0.0853X0.0002*%
%ADD468R,0.0867X0.0003*%
%ADD469R,0.0867X0.0002*%
%ADD470R,0.0870X0.0003*%
%ADD471R,0.0870X0.0002*%
%ADD472R,0.0847X0.0002*%
%ADD473R,0.0868X0.0002*%
%ADD474R,0.0842X0.0002*%
%ADD475R,0.0838X0.0002*%
%ADD476R,0.0868X0.0003*%
%ADD477R,0.0838X0.0003*%
%ADD478R,0.0837X0.0002*%
%ADD479R,0.0833X0.0003*%
%ADD480R,0.0833X0.0002*%
%ADD481R,0.0863X0.0002*%
%ADD482R,0.0830X0.0003*%
%ADD483R,0.0863X0.0003*%
%ADD484R,0.0862X0.0002*%
%ADD485R,0.0827X0.0002*%
%ADD486R,0.0857X0.0002*%
%ADD487R,0.0827X0.0003*%
%ADD488R,0.0858X0.0002*%
%ADD489R,0.0825X0.0003*%
%ADD490R,0.0823X0.0002*%
%ADD491R,0.0822X0.0002*%
%ADD492R,0.0853X0.0003*%
%ADD493R,0.0820X0.0002*%
%ADD494R,0.0817X0.0003*%
%ADD495R,0.0818X0.0002*%
%ADD496R,0.0815X0.0003*%
%ADD497R,0.0847X0.0003*%
%ADD498R,0.0815X0.0002*%
%ADD499R,0.0812X0.0003*%
%ADD500R,0.0813X0.0003*%
%ADD501R,0.0808X0.0002*%
%ADD502R,0.0805X0.0003*%
%ADD503R,0.0805X0.0002*%
%ADD504R,0.0842X0.0003*%
%ADD505R,0.0802X0.0003*%
%ADD506R,0.0803X0.0003*%
%ADD507R,0.0802X0.0002*%
%ADD508R,0.0800X0.0002*%
%ADD509R,0.0800X0.0003*%
%ADD510R,0.0797X0.0003*%
%ADD511R,0.0798X0.0003*%
%ADD512R,0.0832X0.0003*%
%ADD513R,0.0798X0.0002*%
%ADD514R,0.0795X0.0003*%
%ADD515R,0.0795X0.0002*%
%ADD516R,0.0792X0.0003*%
%ADD517R,0.0790X0.0002*%
%ADD518R,0.0787X0.0003*%
%ADD519R,0.0788X0.0002*%
%ADD520R,0.0788X0.0003*%
%ADD521R,0.0785X0.0002*%
%ADD522R,0.0785X0.0003*%
%ADD523R,0.0783X0.0002*%
%ADD524R,0.0782X0.0003*%
%ADD525R,0.0822X0.0003*%
%ADD526R,0.0780X0.0002*%
%ADD527R,0.0783X0.0003*%
%ADD528R,0.0780X0.0003*%
%ADD529R,0.0777X0.0003*%
%ADD530R,0.0777X0.0002*%
%ADD531R,0.0775X0.0003*%
%ADD532R,0.0818X0.0003*%
%ADD533R,0.0772X0.0002*%
%ADD534R,0.0773X0.0003*%
%ADD535R,0.0770X0.0002*%
%ADD536R,0.0770X0.0003*%
%ADD537R,0.0767X0.0002*%
%ADD538R,0.0812X0.0002*%
%ADD539R,0.0768X0.0003*%
%ADD540R,0.0807X0.0002*%
%ADD541R,0.0765X0.0003*%
%ADD542R,0.0765X0.0002*%
%ADD543R,0.0763X0.0002*%
%ADD544R,0.0762X0.0002*%
%ADD545R,0.0760X0.0003*%
%ADD546R,0.0760X0.0002*%
%ADD547R,0.0758X0.0003*%
%ADD548R,0.0755X0.0002*%
%ADD549R,0.0803X0.0002*%
%ADD550R,0.0755X0.0003*%
%ADD551R,0.0753X0.0002*%
%ADD552R,0.0752X0.0002*%
%ADD553R,0.0750X0.0003*%
%ADD554R,0.0750X0.0002*%
%ADD555R,0.0747X0.0003*%
%ADD556R,0.0748X0.0002*%
%ADD557R,0.0792X0.0002*%
%ADD558R,0.0745X0.0003*%
%ADD559R,0.0747X0.0002*%
%ADD560R,0.0793X0.0002*%
%ADD561R,0.0790X0.0003*%
%ADD562R,0.0745X0.0002*%
%ADD563R,0.0748X0.0003*%
%ADD564R,0.0752X0.0003*%
%ADD565R,0.0758X0.0002*%
%ADD566R,0.0782X0.0002*%
%ADD567R,0.0778X0.0003*%
%ADD568R,0.0775X0.0002*%
%ADD569R,0.0778X0.0002*%
%ADD570R,0.0787X0.0002*%
%ADD571R,0.0808X0.0003*%
%ADD572R,0.0810X0.0002*%
%ADD573R,0.0797X0.0002*%
%ADD574R,0.0828X0.0002*%
%ADD575R,0.0872X0.0002*%
%ADD576R,0.0872X0.0003*%
%ADD577R,0.0875X0.0002*%
%ADD578R,0.0880X0.0003*%
%ADD579R,0.0880X0.0002*%
%ADD580R,0.0883X0.0003*%
%ADD581R,0.0887X0.0002*%
%ADD582R,0.0887X0.0003*%
%ADD583R,0.0890X0.0002*%
%ADD584R,0.0873X0.0002*%
%ADD585R,0.0893X0.0003*%
%ADD586R,0.0875X0.0003*%
%ADD587R,0.0895X0.0002*%
%ADD588R,0.0877X0.0002*%
%ADD589R,0.0895X0.0003*%
%ADD590R,0.0898X0.0002*%
%ADD591R,0.0898X0.0003*%
%ADD592R,0.0900X0.0002*%
%ADD593R,0.0883X0.0002*%
%ADD594R,0.0902X0.0003*%
%ADD595R,0.0885X0.0003*%
%ADD596R,0.0902X0.0002*%
%ADD597R,0.0885X0.0002*%
%ADD598R,0.0905X0.0003*%
%ADD599R,0.0905X0.0002*%
%ADD600R,0.0907X0.0003*%
%ADD601R,0.0890X0.0003*%
%ADD602R,0.0910X0.0002*%
%ADD603R,0.0893X0.0002*%
%ADD604R,0.0913X0.0003*%
%ADD605R,0.0913X0.0002*%
%ADD606R,0.0897X0.0002*%
%ADD607R,0.0917X0.0003*%
%ADD608R,0.0900X0.0003*%
%ADD609R,0.0917X0.0002*%
%ADD610R,0.0903X0.0002*%
%ADD611R,0.0920X0.0003*%
%ADD612R,0.0920X0.0002*%
%ADD613R,0.0907X0.0002*%
%ADD614R,0.0923X0.0003*%
%ADD615R,0.0923X0.0002*%
%ADD616R,0.0925X0.0003*%
%ADD617R,0.0925X0.0002*%
%ADD618R,0.0922X0.0003*%
%ADD619R,0.0915X0.0002*%
%ADD620R,0.0912X0.0003*%
%ADD621R,0.0892X0.0002*%
%ADD622R,0.0878X0.0002*%
%ADD623R,0.0877X0.0003*%
%ADD624R,0.0843X0.0002*%
%ADD625R,0.0810X0.0003*%
%ADD626R,0.0793X0.0003*%
%ADD627R,0.0773X0.0002*%
%ADD628R,0.0935X0.0002*%
%ADD629R,0.0950X0.0003*%
%ADD630R,0.0960X0.0002*%
%ADD631R,0.0967X0.0003*%
%ADD632R,0.0975X0.0002*%
%ADD633R,0.0983X0.0003*%
%ADD634R,0.1000X0.0002*%
%ADD635R,0.1022X0.0003*%
%ADD636R,0.1037X0.0002*%
%ADD637R,0.1050X0.0003*%
%ADD638R,0.0878X0.0003*%
%ADD639R,0.1055X0.0002*%
%ADD640R,0.1063X0.0003*%
%ADD641R,0.0892X0.0003*%
%ADD642R,0.1075X0.0002*%
%ADD643R,0.1095X0.0003*%
%ADD644R,0.0928X0.0003*%
%ADD645R,0.1115X0.0002*%
%ADD646R,0.0950X0.0002*%
%ADD647R,0.1122X0.0003*%
%ADD648R,0.0965X0.0003*%
%ADD649R,0.1128X0.0002*%
%ADD650R,0.1130X0.0003*%
%ADD651R,0.0982X0.0003*%
%ADD652R,0.1132X0.0002*%
%ADD653R,0.0992X0.0002*%
%ADD654R,0.1135X0.0003*%
%ADD655R,0.1010X0.0003*%
%ADD656R,0.1135X0.0002*%
%ADD657R,0.1033X0.0002*%
%ADD658R,0.1138X0.0003*%
%ADD659R,0.1055X0.0003*%
%ADD660R,0.1140X0.0002*%
%ADD661R,0.1065X0.0002*%
%ADD662R,0.1140X0.0003*%
%ADD663R,0.1075X0.0003*%
%ADD664R,0.1083X0.0002*%
%ADD665R,0.1092X0.0003*%
%ADD666R,0.1137X0.0002*%
%ADD667R,0.1108X0.0002*%
%ADD668R,0.1137X0.0003*%
%ADD669R,0.1118X0.0003*%
%ADD670R,0.1138X0.0002*%
%ADD671R,0.1117X0.0002*%
%ADD672R,0.1120X0.0003*%
%ADD673R,0.1122X0.0002*%
%ADD674R,0.1123X0.0003*%
%ADD675R,0.1133X0.0002*%
%ADD676R,0.1125X0.0002*%
%ADD677R,0.1133X0.0003*%
%ADD678R,0.1128X0.0003*%
%ADD679R,0.1130X0.0002*%
%ADD680R,0.1125X0.0003*%
%ADD681R,0.1123X0.0002*%
%ADD682R,0.1127X0.0003*%
%ADD683R,0.1120X0.0002*%
%ADD684R,0.1118X0.0002*%
%ADD685R,0.1117X0.0003*%
%ADD686R,0.1115X0.0003*%
%ADD687R,0.1112X0.0003*%
%ADD688R,0.1112X0.0002*%
%ADD689R,0.1110X0.0002*%
%ADD690R,0.1110X0.0003*%
%ADD691R,0.1107X0.0002*%
%ADD692R,0.1107X0.0003*%
%ADD693R,0.1105X0.0003*%
%ADD694R,0.1105X0.0002*%
%ADD695R,0.1108X0.0003*%
%ADD696R,0.1113X0.0003*%
%ADD697R,0.1113X0.0002*%
%ADD698R,0.1127X0.0002*%
%ADD699R,0.1132X0.0003*%
%ADD700R,0.1143X0.0003*%
%ADD701R,0.1143X0.0002*%
%ADD702R,0.1145X0.0003*%
%ADD703R,0.1148X0.0002*%
%ADD704R,0.1088X0.0003*%
%ADD705R,0.1067X0.0002*%
%ADD706R,0.1147X0.0002*%
%ADD707R,0.1042X0.0003*%
%ADD708R,0.1147X0.0003*%
%ADD709R,0.1027X0.0002*%
%ADD710R,0.1145X0.0002*%
%ADD711R,0.1020X0.0003*%
%ADD712R,0.1148X0.0003*%
%ADD713R,0.1010X0.0002*%
%ADD714R,0.1002X0.0003*%
%ADD715R,0.0985X0.0002*%
%ADD716R,0.0960X0.0003*%
%ADD717R,0.1142X0.0003*%
%ADD718R,0.0945X0.0002*%
%ADD719R,0.0932X0.0003*%
%ADD720R,0.0918X0.0003*%
%ADD721R,0.1097X0.0003*%
%ADD722R,0.1065X0.0003*%
%ADD723R,0.1042X0.0002*%
%ADD724R,0.1033X0.0003*%
%ADD725R,0.1012X0.0002*%
%ADD726R,0.0992X0.0003*%
%ADD727R,0.0983X0.0002*%
%ADD728R,0.0975X0.0003*%
%ADD729R,0.0970X0.0002*%
%ADD730R,0.0962X0.0003*%
%ADD731R,0.0948X0.0002*%
%ADD732R,0.0927X0.0003*%
%ADD733R,0.0903X0.0003*%
%ADD734R,0.0862X0.0003*%
%ADD735R,0.0882X0.0003*%
%ADD736R,0.0888X0.0003*%
%ADD737R,0.0897X0.0003*%
%ADD738R,0.0912X0.0002*%
%ADD739R,0.0933X0.0003*%
%ADD740R,0.0940X0.0002*%
%ADD741R,0.0945X0.0003*%
%ADD742R,0.0947X0.0003*%
%ADD743R,0.0952X0.0002*%
%ADD744R,0.0952X0.0003*%
%ADD745R,0.0955X0.0003*%
%ADD746R,0.0957X0.0002*%
%ADD747R,0.0970X0.0003*%
%ADD748R,0.1018X0.0003*%
%ADD749R,0.1030X0.0003*%
%ADD750R,0.1035X0.0002*%
%ADD751R,0.1050X0.0002*%
%ADD752R,0.2115X0.0003*%
%ADD753R,0.2113X0.0002*%
%ADD754R,0.2110X0.0003*%
%ADD755R,0.2110X0.0002*%
%ADD756R,0.2107X0.0003*%
%ADD757R,0.2103X0.0002*%
%ADD758R,0.2100X0.0003*%
%ADD759R,0.2097X0.0002*%
%ADD760R,0.2093X0.0003*%
%ADD761R,0.2093X0.0002*%
%ADD762R,0.2090X0.0003*%
%ADD763R,0.2087X0.0002*%
%ADD764R,0.2085X0.0003*%
%ADD765R,0.2085X0.0002*%
%ADD766R,0.2080X0.0002*%
%ADD767R,0.2080X0.0003*%
%ADD768R,0.2075X0.0003*%
%ADD769R,0.2073X0.0002*%
%ADD770R,0.2070X0.0003*%
%ADD771R,0.2065X0.0002*%
%ADD772R,0.2063X0.0003*%
%ADD773R,0.2060X0.0002*%
%ADD774R,0.2055X0.0003*%
%ADD775R,0.2055X0.0002*%
%ADD776R,0.2050X0.0003*%
%ADD777R,0.2050X0.0002*%
%ADD778R,0.2047X0.0002*%
%ADD779R,0.2045X0.0003*%
%ADD780R,0.2043X0.0002*%
%ADD781R,0.2040X0.0003*%
%ADD782R,0.2037X0.0002*%
%ADD783R,0.2033X0.0003*%
%ADD784R,0.2033X0.0002*%
%ADD785R,0.2027X0.0003*%
%ADD786R,0.2025X0.0002*%
%ADD787R,0.2023X0.0003*%
%ADD788R,0.2020X0.0002*%
%ADD789R,0.2020X0.0003*%
%ADD790R,0.2015X0.0002*%
%ADD791R,0.2015X0.0003*%
%ADD792R,0.2013X0.0002*%
%ADD793R,0.2010X0.0003*%
%ADD794R,0.2007X0.0002*%
%ADD795R,0.2003X0.0003*%
%ADD796R,0.2000X0.0002*%
%ADD797R,0.1997X0.0003*%
%ADD798R,0.1993X0.0002*%
%ADD799R,0.1990X0.0003*%
%ADD800R,0.1987X0.0002*%
%ADD801R,0.1985X0.0003*%
%ADD802R,0.1985X0.0002*%
%ADD803R,0.1980X0.0003*%
%ADD804R,0.1980X0.0002*%
%ADD805R,0.1975X0.0003*%
%ADD806R,0.1973X0.0002*%
%ADD807R,0.1967X0.0003*%
%ADD808R,0.1963X0.0002*%
%ADD809R,0.1960X0.0003*%
%ADD810R,0.1957X0.0002*%
%ADD811R,0.1955X0.0003*%
%ADD812R,0.1950X0.0002*%
%ADD813R,0.1950X0.0003*%
%ADD814R,0.1947X0.0002*%
%ADD815R,0.1947X0.0003*%
%ADD816R,0.1943X0.0002*%
%ADD817R,0.1943X0.0003*%
%ADD818R,0.1940X0.0002*%
%ADD819R,0.1940X0.0003*%
%ADD820R,0.1937X0.0003*%
%ADD821R,0.1937X0.0002*%
%ADD822R,0.1945X0.0003*%
%ADD823R,0.1953X0.0002*%
%ADD824R,0.1957X0.0003*%
%ADD825R,0.1960X0.0002*%
%ADD826R,0.1965X0.0003*%
%ADD827R,0.1965X0.0002*%
%ADD828R,0.1970X0.0003*%
%ADD829R,0.1970X0.0002*%
%ADD830R,0.1983X0.0003*%
%ADD831R,0.1993X0.0003*%
%ADD832R,0.1995X0.0002*%
%ADD833R,0.2007X0.0003*%
%ADD834R,0.2017X0.0003*%
%ADD835R,0.2023X0.0002*%
%ADD836R,0.2030X0.0002*%
%ADD837R,0.2035X0.0002*%
%ADD838R,0.2037X0.0003*%
%ADD839R,0.2047X0.0003*%
%ADD840R,0.2067X0.0003*%
%ADD841R,0.2095X0.0002*%
%ADD842R,0.2097X0.0003*%
%ADD843R,0.2100X0.0002*%
%ADD844R,0.2103X0.0003*%
%ADD845R,0.2105X0.0002*%
%ADD846R,0.2112X0.0002*%
%ADD847R,0.2118X0.0003*%
%ADD848R,0.2122X0.0002*%
%ADD849R,0.2125X0.0003*%
%ADD850R,0.2130X0.0002*%
%ADD851R,0.2133X0.0003*%
%ADD852R,0.2135X0.0002*%
%ADD853R,0.2140X0.0003*%
%ADD854R,0.2142X0.0002*%
%ADD855R,0.2148X0.0003*%
%ADD856R,0.2150X0.0002*%
%ADD857R,0.2152X0.0003*%
%ADD858R,0.2158X0.0002*%
%ADD859R,0.2160X0.0003*%
%ADD860R,0.2165X0.0002*%
%ADD861R,0.2168X0.0003*%
%ADD862R,0.2170X0.0002*%
%ADD863R,0.2172X0.0003*%
%ADD864R,0.2178X0.0002*%
%ADD865R,0.2180X0.0003*%
%ADD866R,0.2185X0.0002*%
%ADD867R,0.2188X0.0003*%
%ADD868R,0.2192X0.0002*%
%ADD869R,0.2195X0.0003*%
%ADD870R,0.2200X0.0002*%
%ADD871R,0.2200X0.0003*%
%ADD872R,0.2205X0.0002*%
%ADD873R,0.2210X0.0003*%
%ADD874R,0.2215X0.0002*%
%ADD875R,0.2215X0.0003*%
%ADD876R,0.2220X0.0002*%
%ADD877R,0.2225X0.0003*%
%ADD878R,0.2228X0.0002*%
%ADD879R,0.2232X0.0003*%
%ADD880R,0.2232X0.0002*%
%ADD881R,0.2238X0.0003*%
%ADD882R,0.2242X0.0002*%
%ADD883R,0.2245X0.0003*%
%ADD884R,0.2250X0.0002*%
%ADD885R,0.2250X0.0003*%
%ADD886R,0.2255X0.0002*%
%ADD887R,0.2260X0.0003*%
%ADD888R,0.2262X0.0002*%
%ADD889R,0.2268X0.0003*%
%ADD890R,0.2268X0.0002*%
%ADD891R,0.2272X0.0003*%
%ADD892R,0.2275X0.0002*%
%ADD893R,0.2280X0.0003*%
%ADD894R,0.2283X0.0002*%
%ADD895R,0.2287X0.0003*%
%ADD896R,0.2290X0.0002*%
%ADD897R,0.2295X0.0003*%
%ADD898R,0.2298X0.0002*%
%ADD899R,0.2300X0.0003*%
%ADD900R,0.2305X0.0002*%
%ADD901R,0.2310X0.0003*%
%ADD902R,0.2313X0.0002*%
%ADD903R,0.2317X0.0003*%
%ADD904R,0.2317X0.0002*%
%ADD905R,0.2323X0.0003*%
%ADD906R,0.2325X0.0002*%
%ADD907R,0.2330X0.0003*%
%ADD908R,0.2335X0.0002*%
%ADD909R,0.2337X0.0003*%
%ADD910R,0.2343X0.0002*%
%ADD911R,0.2345X0.0003*%
%ADD912R,0.2347X0.0002*%
%ADD913R,0.2353X0.0003*%
%ADD914R,0.2353X0.0002*%
%ADD915R,0.2357X0.0003*%
%ADD916R,0.2360X0.0002*%
%ADD917R,0.2365X0.0003*%
%ADD918R,0.2367X0.0002*%
%ADD919R,0.2370X0.0003*%
%ADD920R,0.2373X0.0002*%
%ADD921R,0.2377X0.0003*%
%ADD922R,0.2380X0.0002*%
%ADD923R,0.2380X0.0003*%
%ADD924R,0.2382X0.0002*%
%ADD925R,0.2382X0.0003*%
%ADD926R,0.2378X0.0003*%
%ADD927R,0.2375X0.0002*%
%ADD928R,0.2368X0.0002*%
%ADD929R,0.2362X0.0003*%
%ADD930R,0.2355X0.0003*%
%ADD931R,0.2350X0.0002*%
%ADD932R,0.2348X0.0003*%
%ADD933R,0.2342X0.0002*%
%ADD934R,0.2340X0.0003*%
%ADD935R,0.0577X0.0003*%
%ADD936R,0.1740X0.0003*%
%ADD937R,0.0570X0.0002*%
%ADD938R,0.1732X0.0002*%
%ADD939R,0.0562X0.0003*%
%ADD940R,0.1723X0.0003*%
%ADD941R,0.0595X0.0002*%
%ADD942R,0.1100X0.0003*%
%ADD943R,0.0587X0.0003*%
%ADD944R,0.0545X0.0002*%
%ADD945R,0.1095X0.0002*%
%ADD946R,0.0583X0.0002*%
%ADD947R,0.0543X0.0003*%
%ADD948R,0.1087X0.0003*%
%ADD949R,0.0535X0.0002*%
%ADD950R,0.1080X0.0002*%
%ADD951R,0.0573X0.0002*%
%ADD952R,0.1067X0.0003*%
%ADD953R,0.0565X0.0003*%
%ADD954R,0.0520X0.0002*%
%ADD955R,0.1053X0.0002*%
%ADD956R,0.0558X0.0002*%
%ADD957R,0.1043X0.0003*%
%ADD958R,0.0512X0.0002*%
%ADD959R,0.0508X0.0003*%
%ADD960R,0.0545X0.0003*%
%ADD961R,0.0502X0.0002*%
%ADD962R,0.1023X0.0002*%
%ADD963R,0.0537X0.0002*%
%ADD964R,0.0495X0.0003*%
%ADD965R,0.1013X0.0003*%
%ADD966R,0.0533X0.0003*%
%ADD967R,0.0487X0.0002*%
%ADD968R,0.0997X0.0002*%
%ADD969R,0.0475X0.0002*%
%ADD970R,0.0973X0.0002*%
%ADD971R,0.0470X0.0003*%
%ADD972R,0.0505X0.0003*%
%ADD973R,0.0468X0.0002*%
%ADD974R,0.0500X0.0002*%
%ADD975R,0.0953X0.0003*%
%ADD976R,0.0455X0.0002*%
%ADD977R,0.0937X0.0002*%
%ADD978R,0.0440X0.0002*%
%ADD979R,0.0472X0.0002*%
%ADD980R,0.0437X0.0003*%
%ADD981R,0.0468X0.0003*%
%ADD982R,0.0433X0.0002*%
%ADD983R,0.0462X0.0002*%
%ADD984R,0.0427X0.0003*%
%ADD985R,0.0460X0.0003*%
%ADD986R,0.0420X0.0002*%
%ADD987R,0.0412X0.0003*%
%ADD988R,0.0447X0.0003*%
%ADD989R,0.0408X0.0002*%
%ADD990R,0.0400X0.0003*%
%ADD991R,0.0395X0.0002*%
%ADD992R,0.0813X0.0002*%
%ADD993R,0.0428X0.0002*%
%ADD994R,0.0390X0.0003*%
%ADD995R,0.0422X0.0003*%
%ADD996R,0.0387X0.0002*%
%ADD997R,0.0418X0.0002*%
%ADD998R,0.0365X0.0003*%
%ADD999R,0.0740X0.0003*%
%ADD1000R,0.0395X0.0003*%
%ADD1001R,0.0358X0.0002*%
%ADD1002R,0.0727X0.0002*%
%ADD1003R,0.0355X0.0003*%
%ADD1004R,0.0720X0.0003*%
%ADD1005R,0.0385X0.0003*%
%ADD1006R,0.0350X0.0002*%
%ADD1007R,0.0710X0.0002*%
%ADD1008R,0.0380X0.0002*%
%ADD1009R,0.0700X0.0003*%
%ADD1010R,0.0378X0.0003*%
%ADD1011R,0.0683X0.0002*%
%ADD1012R,0.0370X0.0002*%
%ADD1013R,0.0333X0.0003*%
%ADD1014R,0.0652X0.0003*%
%ADD1015R,0.0363X0.0003*%
%ADD1016R,0.0323X0.0002*%
%ADD1017R,0.0628X0.0002*%
%ADD1018R,0.0317X0.0003*%
%ADD1019R,0.0612X0.0003*%
%ADD1020R,0.0347X0.0003*%
%ADD1021R,0.0602X0.0002*%
%ADD1022R,0.0343X0.0002*%
%ADD1023R,0.0592X0.0003*%
%ADD1024R,0.0340X0.0003*%
%ADD1025R,0.0575X0.0002*%
%ADD1026R,0.0335X0.0002*%
%ADD1027R,0.0328X0.0003*%
%ADD1028R,0.0288X0.0002*%
%ADD1029R,0.0553X0.0002*%
%ADD1030R,0.0280X0.0003*%
%ADD1031R,0.0547X0.0003*%
%ADD1032R,0.0295X0.0002*%
%ADD1033R,0.0540X0.0003*%
%ADD1034R,0.0290X0.0003*%
%ADD1035R,0.0277X0.0002*%
%ADD1036R,0.0273X0.0003*%
%ADD1037R,0.0538X0.0002*%
%ADD1038R,0.0538X0.0003*%
%ADD1039R,0.0532X0.0003*%
%ADD1040R,0.0532X0.0002*%
%ADD1041R,0.0528X0.0003*%
%ADD1042R,0.0528X0.0002*%
%ADD1043R,0.0525X0.0003*%
%ADD1044R,0.0525X0.0002*%
%ADD1045R,0.0133X0.0003*%
%ADD1046R,0.0523X0.0003*%
%ADD1047R,0.0517X0.0003*%
%ADD1048R,0.0517X0.0002*%
%ADD1049R,0.0515X0.0002*%
%ADD1050R,0.0513X0.0002*%
%ADD1051R,0.0513X0.0003*%
%ADD1052R,0.0510X0.0002*%
%ADD1053R,0.0507X0.0003*%
%ADD1054R,0.0507X0.0002*%
%ADD1055R,0.0505X0.0002*%
%ADD1056R,0.0497X0.0003*%
%ADD1057R,0.0493X0.0003*%
%ADD1058R,0.0493X0.0002*%
%ADD1059R,0.0490X0.0002*%
%ADD1060R,0.0485X0.0003*%
%ADD1061R,0.0485X0.0002*%
%ADD1062R,0.0480X0.0002*%
%ADD1063R,0.0477X0.0002*%
%ADD1064R,0.0477X0.0003*%
%ADD1065R,0.0475X0.0003*%
%ADD1066R,0.0473X0.0003*%
%ADD1067R,0.0473X0.0002*%
%ADD1068R,0.0467X0.0003*%
%ADD1069R,0.0467X0.0002*%
%ADD1070R,0.0465X0.0003*%
%ADD1071R,0.0463X0.0003*%
%ADD1072R,0.0460X0.0002*%
%ADD1073R,0.0455X0.0003*%
%ADD1074R,0.0452X0.0002*%
%ADD1075R,0.0450X0.0003*%
%ADD1076R,0.0448X0.0003*%
%ADD1077R,0.0448X0.0002*%
%ADD1078R,0.0445X0.0002*%
%ADD1079R,0.0442X0.0003*%
%ADD1080R,0.0438X0.0002*%
%ADD1081R,0.0435X0.0002*%
%ADD1082R,0.0432X0.0003*%
%ADD1083R,0.0432X0.0002*%
%ADD1084R,0.0428X0.0003*%
%ADD1085R,0.0425X0.0002*%
%ADD1086R,0.0412X0.0002*%
%ADD1087R,0.0388X0.0003*%
%ADD1088R,0.0373X0.0003*%
%ADD1089R,0.0363X0.0002*%
%ADD1090R,0.0350X0.0003*%
%ADD1091R,0.0322X0.0002*%
D10*
X006020Y006170D02*
X006020Y006630D01*
X006250Y006630D01*
X006327Y006554D01*
X006327Y006400D01*
X006250Y006323D01*
X006020Y006323D01*
X006173Y006323D02*
X006327Y006170D01*
X006480Y006400D02*
X006787Y006400D01*
X006941Y006247D02*
X006941Y006170D01*
X006941Y006247D02*
X007248Y006554D01*
X007248Y006630D01*
X006941Y006630D01*
X007401Y006554D02*
X007401Y006477D01*
X007478Y006400D01*
X007631Y006400D01*
X007708Y006323D01*
X007708Y006247D01*
X007631Y006170D01*
X007478Y006170D01*
X007401Y006247D01*
X007401Y006323D01*
X007478Y006400D01*
X007631Y006400D02*
X007708Y006477D01*
X007708Y006554D01*
X007631Y006630D01*
X007478Y006630D01*
X007401Y006554D01*
X007862Y006630D02*
X007862Y006170D01*
X008168Y006170D01*
X008015Y006400D02*
X007862Y006400D01*
X007862Y006630D02*
X008168Y006630D01*
X008322Y006400D02*
X008629Y006400D01*
X008782Y006247D02*
X008782Y006554D01*
X008859Y006630D01*
X009013Y006630D01*
X009089Y006554D01*
X008782Y006247D01*
X008859Y006170D01*
X009013Y006170D01*
X009089Y006247D01*
X009089Y006554D01*
X009243Y006630D02*
X009243Y006400D01*
X009396Y006477D01*
X009473Y006477D01*
X009550Y006400D01*
X009550Y006247D01*
X009473Y006170D01*
X009319Y006170D01*
X009243Y006247D01*
X009243Y006630D02*
X009550Y006630D01*
X011495Y006675D02*
X011495Y006495D01*
X011855Y006495D01*
X011735Y006495D02*
X011735Y006675D01*
X011675Y006735D01*
X011555Y006735D01*
X011495Y006675D01*
X011555Y006863D02*
X011495Y006923D01*
X011495Y007043D01*
X011555Y007104D01*
X011615Y007104D01*
X011855Y006863D01*
X011855Y007104D01*
X011855Y007232D02*
X011855Y007292D01*
X011795Y007292D01*
X011795Y007232D01*
X011855Y007232D01*
X011855Y007416D02*
X011855Y007656D01*
X011855Y007536D02*
X011495Y007536D01*
X011615Y007416D01*
X011615Y007784D02*
X011495Y007904D01*
X011855Y007904D01*
X011855Y007784D02*
X011855Y008024D01*
X012115Y008028D02*
X012115Y008148D01*
X012175Y008208D01*
X012235Y008208D01*
X012235Y007968D01*
X012295Y007968D02*
X012175Y007968D01*
X012115Y008028D01*
X012115Y007840D02*
X012115Y007660D01*
X012175Y007600D01*
X012235Y007660D01*
X012235Y007780D01*
X012295Y007840D01*
X012355Y007780D01*
X012355Y007600D01*
X012355Y007472D02*
X012115Y007472D01*
X012355Y007472D02*
X012355Y007292D01*
X012295Y007232D01*
X012115Y007232D01*
X012175Y007104D02*
X012355Y007104D01*
X012355Y006923D01*
X012295Y006863D01*
X012235Y006923D01*
X012235Y007104D01*
X012175Y007104D02*
X012115Y007043D01*
X012115Y006923D01*
X012175Y006735D02*
X012235Y006675D01*
X012235Y006495D01*
X012355Y006495D02*
X011995Y006495D01*
X011995Y006675D01*
X012055Y006735D01*
X012175Y006735D01*
X012545Y006675D02*
X012545Y006495D01*
X012905Y006495D01*
X012785Y006495D02*
X012785Y006675D01*
X012725Y006735D01*
X012605Y006735D01*
X012545Y006675D01*
X012605Y006863D02*
X012545Y006923D01*
X012545Y007043D01*
X012605Y007104D01*
X012665Y007104D01*
X012725Y007043D01*
X012785Y007104D01*
X012845Y007104D01*
X012905Y007043D01*
X012905Y006923D01*
X012845Y006863D01*
X012725Y006983D02*
X012725Y007043D01*
X012845Y007232D02*
X012845Y007292D01*
X012905Y007292D01*
X012905Y007232D01*
X012845Y007232D01*
X012905Y007416D02*
X012665Y007656D01*
X012605Y007656D01*
X012545Y007596D01*
X012545Y007476D01*
X012605Y007416D01*
X012905Y007416D02*
X012905Y007656D01*
X012845Y007784D02*
X012905Y007844D01*
X012905Y007964D01*
X012845Y008024D01*
X012785Y008024D01*
X012725Y007964D01*
X012725Y007784D01*
X012845Y007784D01*
X012725Y007784D02*
X012605Y007904D01*
X012545Y008024D01*
X012355Y008028D02*
X012355Y008148D01*
X012355Y008028D02*
X012295Y007968D01*
X013045Y007968D02*
X013045Y008148D01*
X013105Y008208D01*
X013165Y008208D01*
X013225Y008148D01*
X013225Y007968D01*
X013225Y007840D02*
X013225Y007600D01*
X013345Y007472D02*
X013405Y007412D01*
X013405Y007292D01*
X013345Y007232D01*
X013105Y007232D01*
X013045Y007292D01*
X013045Y007412D01*
X013105Y007472D01*
X013045Y007104D02*
X013405Y007104D01*
X013045Y006863D01*
X013405Y006863D01*
X013405Y006735D02*
X013405Y006495D01*
X013045Y006495D01*
X013045Y006735D01*
X013225Y006615D02*
X013225Y006495D01*
X013570Y006520D02*
X013570Y006700D01*
X013630Y006760D01*
X013750Y006760D01*
X013810Y006700D01*
X013810Y006520D01*
X013930Y006520D02*
X013570Y006520D01*
X013630Y006888D02*
X013570Y006948D01*
X013570Y007068D01*
X013630Y007129D01*
X013690Y007129D01*
X013750Y007068D01*
X013810Y007129D01*
X013870Y007129D01*
X013930Y007068D01*
X013930Y006948D01*
X013870Y006888D01*
X013750Y007008D02*
X013750Y007068D01*
X013870Y007257D02*
X013870Y007317D01*
X013930Y007317D01*
X013930Y007257D01*
X013870Y007257D01*
X014045Y007292D02*
X014105Y007232D01*
X014345Y007232D01*
X014405Y007292D01*
X014405Y007412D01*
X014345Y007472D01*
X014225Y007600D02*
X014225Y007840D01*
X014225Y007968D02*
X014225Y008208D01*
X014165Y008208D02*
X014405Y008208D01*
X014405Y007968D02*
X014165Y007968D01*
X014045Y008088D01*
X014165Y008208D01*
X013930Y007989D02*
X013930Y007869D01*
X013870Y007809D01*
X013750Y007809D02*
X013690Y007929D01*
X013690Y007989D01*
X013750Y008049D01*
X013870Y008049D01*
X013930Y007989D01*
X013750Y007809D02*
X013570Y007809D01*
X013570Y008049D01*
X013405Y007968D02*
X013405Y008148D01*
X013345Y008208D01*
X013285Y008208D01*
X013225Y008148D01*
X013405Y007968D02*
X013045Y007968D01*
X013570Y007621D02*
X013570Y007501D01*
X013630Y007441D01*
X013570Y007621D02*
X013630Y007681D01*
X013690Y007681D01*
X013930Y007441D01*
X013930Y007681D01*
X014105Y007472D02*
X014045Y007412D01*
X014045Y007292D01*
X014045Y007104D02*
X014405Y007104D01*
X014045Y006863D01*
X014405Y006863D01*
X014405Y006735D02*
X014405Y006495D01*
X014045Y006495D01*
X014045Y006735D01*
X014225Y006615D02*
X014225Y006495D01*
X020720Y010270D02*
X020720Y010450D01*
X020780Y010510D01*
X020900Y010510D01*
X020960Y010450D01*
X020960Y010270D01*
X021080Y010270D02*
X020720Y010270D01*
X020780Y010638D02*
X020720Y010698D01*
X020720Y010818D01*
X020780Y010879D01*
X021020Y010638D01*
X021080Y010698D01*
X021080Y010818D01*
X021020Y010879D01*
X020780Y010879D01*
X020780Y010638D02*
X021020Y010638D01*
X021220Y010638D02*
X021220Y010818D01*
X021280Y010879D01*
X021520Y010879D01*
X021580Y010818D01*
X021580Y010638D01*
X021220Y010638D01*
X021280Y010510D02*
X021220Y010450D01*
X021220Y010330D01*
X021280Y010270D01*
X021340Y010270D01*
X021400Y010330D01*
X021400Y010450D01*
X021460Y010510D01*
X021520Y010510D01*
X021580Y010450D01*
X021580Y010330D01*
X021520Y010270D01*
X021895Y010270D02*
X021895Y010450D01*
X021955Y010510D01*
X022075Y010510D01*
X022135Y010450D01*
X022135Y010270D01*
X022255Y010270D02*
X021895Y010270D01*
X021955Y010638D02*
X021895Y010698D01*
X021895Y010818D01*
X021955Y010879D01*
X022195Y010638D01*
X022255Y010698D01*
X022255Y010818D01*
X022195Y010879D01*
X021955Y010879D01*
X021955Y010638D02*
X022195Y010638D01*
X022370Y010638D02*
X022370Y010818D01*
X022430Y010879D01*
X022670Y010879D01*
X022730Y010818D01*
X022730Y010638D01*
X022370Y010638D01*
X022430Y010510D02*
X022370Y010450D01*
X022370Y010330D01*
X022430Y010270D01*
X022490Y010270D01*
X022550Y010330D01*
X022550Y010450D01*
X022610Y010510D01*
X022670Y010510D01*
X022730Y010450D01*
X022730Y010330D01*
X022670Y010270D01*
X023095Y010330D02*
X023155Y010270D01*
X023395Y010270D01*
X023455Y010330D01*
X023455Y010450D01*
X023395Y010510D01*
X023275Y010510D01*
X023275Y010390D01*
X023155Y010510D02*
X023095Y010450D01*
X023095Y010330D01*
X023095Y010638D02*
X023455Y010879D01*
X023095Y010879D01*
X023095Y011007D02*
X023095Y011187D01*
X023155Y011247D01*
X023395Y011247D01*
X023455Y011187D01*
X023455Y011007D01*
X023095Y011007D01*
X022790Y011007D02*
X022790Y011247D01*
X022670Y011375D02*
X022730Y011435D01*
X022730Y011555D01*
X022670Y011615D01*
X022730Y011743D02*
X022730Y011923D01*
X022670Y011983D01*
X022430Y011983D01*
X022370Y011923D01*
X022370Y011743D01*
X022730Y011743D01*
X022430Y011615D02*
X022370Y011555D01*
X022370Y011435D01*
X022430Y011375D01*
X022670Y011375D01*
X022255Y011431D02*
X022255Y011191D01*
X022015Y011431D01*
X021955Y011431D01*
X021895Y011371D01*
X021895Y011251D01*
X021955Y011191D01*
X022195Y011067D02*
X022255Y011067D01*
X022255Y011007D01*
X022195Y011007D01*
X022195Y011067D01*
X022195Y011559D02*
X022255Y011559D01*
X022195Y011559D02*
X021955Y011799D01*
X021895Y011799D01*
X021895Y011559D01*
X021580Y011555D02*
X021520Y011615D01*
X021580Y011555D02*
X021580Y011435D01*
X021520Y011375D01*
X021280Y011375D01*
X021220Y011435D01*
X021220Y011555D01*
X021280Y011615D01*
X021280Y011743D02*
X021340Y011743D01*
X021400Y011803D01*
X021400Y011923D01*
X021460Y011983D01*
X021520Y011983D01*
X021580Y011923D01*
X021580Y011803D01*
X021520Y011743D01*
X021280Y011743D02*
X021220Y011803D01*
X021220Y011923D01*
X021280Y011983D01*
X021080Y011739D02*
X021080Y011619D01*
X021020Y011559D01*
X020960Y011559D01*
X020900Y011619D01*
X020900Y011739D01*
X020960Y011799D01*
X021020Y011799D01*
X021080Y011739D01*
X020900Y011739D02*
X020840Y011799D01*
X020780Y011799D01*
X020720Y011739D01*
X020720Y011619D01*
X020780Y011559D01*
X020840Y011559D01*
X020900Y011619D01*
X020840Y011431D02*
X020780Y011431D01*
X020720Y011371D01*
X020720Y011251D01*
X020780Y011191D01*
X020840Y011431D02*
X021080Y011191D01*
X021080Y011431D01*
X021080Y011067D02*
X021020Y011067D01*
X021020Y011007D01*
X021080Y011007D01*
X021080Y011067D01*
X021640Y011007D02*
X021640Y011247D01*
X023095Y010638D02*
X023455Y010638D01*
X024070Y010450D02*
X024130Y010510D01*
X024190Y010510D01*
X024250Y010450D01*
X024310Y010510D01*
X024370Y010510D01*
X024430Y010450D01*
X024430Y010330D01*
X024370Y010270D01*
X024250Y010390D02*
X024250Y010450D01*
X024070Y010450D02*
X024070Y010330D01*
X024130Y010270D01*
X024190Y010638D02*
X024430Y010758D01*
X024190Y010879D01*
X024130Y011007D02*
X024070Y011067D01*
X024070Y011187D01*
X024130Y011247D01*
X024190Y011247D01*
X024250Y011187D01*
X024310Y011247D01*
X024370Y011247D01*
X024430Y011187D01*
X024430Y011067D01*
X024370Y011007D01*
X024250Y011127D02*
X024250Y011187D01*
X021622Y016120D02*
X021442Y016300D01*
X021382Y016240D02*
X021622Y016480D01*
X021382Y016480D02*
X021382Y016120D01*
X021254Y016180D02*
X021193Y016120D01*
X021073Y016120D01*
X021013Y016180D01*
X021013Y016420D01*
X021073Y016480D01*
X021193Y016480D01*
X021254Y016420D01*
X020885Y016420D02*
X020825Y016480D01*
X020705Y016480D01*
X020645Y016420D01*
X020645Y016360D01*
X020705Y016300D01*
X020825Y016300D01*
X020885Y016240D01*
X020885Y016180D01*
X020825Y016120D01*
X020705Y016120D01*
X020645Y016180D01*
X021362Y017141D02*
X021277Y017226D01*
X021320Y017184D02*
X021574Y017438D01*
X021532Y017481D02*
X021617Y017396D01*
X021441Y017572D02*
X021187Y017317D01*
X021017Y017487D02*
X021271Y017741D01*
X021271Y017572D01*
X021441Y017572D01*
X020946Y017982D02*
X020946Y018067D01*
X020861Y018152D01*
X020776Y018152D01*
X020606Y017982D01*
X020606Y017897D01*
X020691Y017812D01*
X020776Y017812D01*
X020946Y017982D01*
X020728Y018285D02*
X020473Y018030D01*
X020303Y018200D02*
X020558Y018455D01*
X020558Y018285D01*
X020728Y018285D01*
X020281Y018622D02*
X020281Y018707D01*
X020154Y018834D01*
X019899Y018579D01*
X020027Y018452D01*
X020111Y018452D01*
X020281Y018622D01*
X020063Y018924D02*
X019809Y018670D01*
X019893Y019094D01*
X019639Y018840D01*
X019591Y018973D02*
X019676Y019058D01*
X019591Y019142D01*
X019591Y018973D02*
X019506Y018973D01*
X019421Y019058D01*
X019421Y019142D01*
X019591Y019312D01*
X019676Y019312D01*
X019760Y019227D01*
X019760Y019142D01*
X018926Y016937D02*
X018841Y016937D01*
X018671Y016767D01*
X018671Y016683D01*
X018756Y016598D01*
X018841Y016598D01*
X018931Y016507D02*
X018931Y016422D01*
X019016Y016337D01*
X019101Y016337D01*
X019143Y016380D01*
X019143Y016465D01*
X019059Y016549D01*
X019059Y016634D01*
X019101Y016677D01*
X019186Y016677D01*
X019271Y016592D01*
X019271Y016507D01*
X019010Y016767D02*
X019010Y016852D01*
X018926Y016937D01*
X018462Y023920D02*
X018282Y023920D01*
X018282Y024280D01*
X018462Y024280D01*
X018522Y024220D01*
X018522Y023980D01*
X018462Y023920D01*
X018154Y023920D02*
X018154Y024280D01*
X017913Y024280D02*
X018154Y023920D01*
X017913Y023920D02*
X017913Y024280D01*
X017785Y024220D02*
X017725Y024280D01*
X017605Y024280D01*
X017545Y024220D01*
X017545Y023980D01*
X017605Y023920D01*
X017725Y023920D01*
X017785Y023980D01*
X017785Y024100D01*
X017665Y024100D01*
X017746Y024885D02*
X017686Y024945D01*
X017746Y024885D02*
X017867Y024885D01*
X017927Y024945D01*
X017927Y025005D01*
X017867Y025065D01*
X017807Y025065D01*
X017867Y025065D02*
X017927Y025125D01*
X017927Y025185D01*
X017867Y025245D01*
X017746Y025245D01*
X017686Y025185D01*
X018055Y024945D02*
X018115Y024945D01*
X018115Y024885D01*
X018055Y024885D01*
X018055Y024945D01*
X018239Y024945D02*
X018299Y024885D01*
X018419Y024885D01*
X018479Y024945D01*
X018479Y025005D01*
X018419Y025065D01*
X018359Y025065D01*
X018419Y025065D02*
X018479Y025125D01*
X018479Y025185D01*
X018419Y025245D01*
X018299Y025245D01*
X018239Y025185D01*
X018607Y025245D02*
X018607Y025005D01*
X018727Y024885D01*
X018847Y025005D01*
X018847Y025245D01*
X018603Y025885D02*
X018423Y025885D01*
X018423Y026245D01*
X018603Y026245D01*
X018663Y026185D01*
X018663Y026125D01*
X018603Y026065D01*
X018423Y026065D01*
X018295Y026125D02*
X018235Y026065D01*
X018055Y026065D01*
X017927Y026005D02*
X017927Y026245D01*
X018055Y026245D02*
X018055Y025885D01*
X018235Y025885D01*
X018295Y025945D01*
X018295Y026005D01*
X018235Y026065D01*
X018295Y026125D02*
X018295Y026185D01*
X018235Y026245D01*
X018055Y026245D01*
X017927Y026005D02*
X017807Y025885D01*
X017686Y026005D01*
X017686Y026245D01*
X018603Y026065D02*
X018663Y026005D01*
X018663Y025945D01*
X018603Y025885D01*
X006708Y022080D02*
X006588Y022080D01*
X006648Y022080D02*
X006648Y021720D01*
X006588Y021720D02*
X006708Y021720D01*
X006460Y021720D02*
X006460Y022080D01*
X006340Y021960D01*
X006220Y022080D01*
X006220Y021720D01*
X005729Y021780D02*
X005729Y022020D01*
X005668Y022080D01*
X005548Y022080D01*
X005488Y022020D01*
X005488Y021780D01*
X005548Y021720D01*
X005668Y021720D01*
X005729Y021780D01*
X005360Y021720D02*
X005360Y022080D01*
X005240Y021960D01*
X005120Y022080D01*
X005120Y021720D01*
X005068Y019980D02*
X004948Y019980D01*
X004888Y019920D01*
X004888Y019860D01*
X004948Y019800D01*
X005068Y019800D01*
X005129Y019740D01*
X005129Y019680D01*
X005068Y019620D01*
X004948Y019620D01*
X004888Y019680D01*
X004760Y019680D02*
X004700Y019620D01*
X004580Y019620D01*
X004520Y019680D01*
X004520Y019920D01*
X004580Y019980D01*
X004700Y019980D01*
X004760Y019920D01*
X005068Y019980D02*
X005129Y019920D01*
X005570Y019920D02*
X005570Y019860D01*
X005630Y019800D01*
X005750Y019800D01*
X005810Y019740D01*
X005810Y019680D01*
X005750Y019620D01*
X005630Y019620D01*
X005570Y019680D01*
X005570Y019920D02*
X005630Y019980D01*
X005750Y019980D01*
X005810Y019920D01*
X005938Y019920D02*
X005938Y019680D01*
X005998Y019620D01*
X006118Y019620D01*
X006179Y019680D01*
X006307Y019620D02*
X006307Y019980D01*
X006179Y019920D02*
X006118Y019980D01*
X005998Y019980D01*
X005938Y019920D01*
X006307Y019740D02*
X006547Y019980D01*
X006367Y019800D02*
X006547Y019620D01*
D11*
X007750Y019400D02*
X007750Y018400D01*
X007752Y018383D01*
X007756Y018366D01*
X007763Y018350D01*
X007773Y018336D01*
X007786Y018323D01*
X007800Y018313D01*
X007816Y018306D01*
X007833Y018302D01*
X007850Y018300D01*
X008450Y018300D01*
X008467Y018302D01*
X008484Y018306D01*
X008500Y018313D01*
X008514Y018323D01*
X008527Y018336D01*
X008537Y018350D01*
X008544Y018366D01*
X008548Y018383D01*
X008550Y018400D01*
X008550Y019400D01*
X008548Y019417D01*
X008544Y019434D01*
X008537Y019450D01*
X008527Y019464D01*
X008514Y019477D01*
X008500Y019487D01*
X008484Y019494D01*
X008467Y019498D01*
X008450Y019500D01*
X007850Y019500D01*
X007833Y019498D01*
X007816Y019494D01*
X007800Y019487D01*
X007786Y019477D01*
X007773Y019464D01*
X007763Y019450D01*
X007756Y019434D01*
X007752Y019417D01*
X007750Y019400D01*
X008400Y015950D02*
X008400Y015850D01*
X005650Y015850D01*
X005650Y015950D01*
X005150Y015950D01*
X005150Y015850D01*
X004650Y015850D01*
X004650Y012350D01*
X006400Y012350D01*
X006400Y012400D01*
X006900Y012400D01*
X006900Y012350D01*
X007850Y012350D01*
X007850Y012750D01*
X007850Y012850D01*
X005150Y012850D01*
X005150Y015350D01*
X012150Y015350D01*
X012150Y012850D01*
X010450Y012850D01*
X009850Y012850D01*
X009450Y012850D01*
X009450Y012750D01*
X009450Y012350D01*
X007850Y012350D01*
X007850Y012850D02*
X007850Y013150D01*
X009450Y013150D01*
X009450Y012850D01*
X009650Y012550D02*
X009850Y012550D01*
X010450Y012550D01*
X010450Y012750D01*
X010450Y012850D01*
X010450Y012550D02*
X010650Y012550D01*
X010800Y012350D01*
X012650Y012350D01*
X012650Y015850D01*
X012150Y015850D01*
X012150Y015950D01*
X011650Y015950D01*
X011650Y015850D01*
X008900Y015850D01*
X008900Y015950D01*
X008400Y015950D01*
X009850Y012850D02*
X009850Y012750D01*
X009850Y012550D01*
X009650Y012550D02*
X009500Y012350D01*
X009450Y012350D01*
X013550Y012350D02*
X015300Y012350D01*
X015300Y012400D01*
X015800Y012400D01*
X015800Y012350D01*
X016750Y012350D01*
X016750Y012750D01*
X016750Y012850D01*
X014050Y012850D01*
X014050Y015350D01*
X021050Y015350D01*
X021050Y012850D01*
X019350Y012850D01*
X018750Y012850D01*
X018350Y012850D01*
X018350Y012750D01*
X018350Y012350D01*
X016750Y012350D01*
X016750Y012850D02*
X016750Y013150D01*
X018350Y013150D01*
X018350Y012850D01*
X018550Y012550D02*
X018400Y012350D01*
X018350Y012350D01*
X018550Y012550D02*
X018750Y012550D01*
X019350Y012550D01*
X019350Y012750D01*
X019350Y012850D01*
X019350Y012550D02*
X019550Y012550D01*
X019700Y012350D01*
X021550Y012350D01*
X021550Y015850D01*
X021050Y015850D01*
X021050Y015950D01*
X020550Y015950D01*
X020550Y015850D01*
X017800Y015850D01*
X017800Y015950D01*
X017300Y015950D01*
X017300Y015850D01*
X014550Y015850D01*
X014550Y015950D01*
X014050Y015950D01*
X014050Y015850D01*
X013550Y015850D01*
X013550Y012350D01*
X018750Y012550D02*
X018750Y012750D01*
X018750Y012850D01*
X003062Y004770D02*
X003062Y003130D01*
X002338Y003130D01*
X002338Y004770D01*
X003062Y004770D01*
X002700Y004200D02*
X002700Y003950D01*
X002450Y003950D01*
X002700Y003950D02*
X002450Y003550D01*
X002950Y003550D01*
X002700Y003950D01*
X002950Y003950D01*
X002700Y003950D02*
X002700Y003350D01*
X002773Y001995D02*
X003000Y001655D01*
X003000Y001995D01*
X003142Y001995D02*
X003142Y001655D01*
X003312Y001655D01*
X003368Y001712D01*
X003368Y001939D01*
X003312Y001995D01*
X003142Y001995D01*
X002773Y001995D02*
X002773Y001655D01*
X002632Y001712D02*
X002632Y001825D01*
X002518Y001825D01*
X002405Y001712D02*
X002462Y001655D01*
X002575Y001655D01*
X002632Y001712D01*
X002632Y001939D02*
X002575Y001995D01*
X002462Y001995D01*
X002405Y001939D01*
X002405Y001712D01*
X001275Y001693D02*
X001275Y001920D01*
X001275Y001693D02*
X001162Y001580D01*
X001048Y001693D01*
X001048Y001920D01*
X000907Y001920D02*
X000680Y001920D01*
X000680Y001750D01*
X000793Y001807D01*
X000850Y001807D01*
X000907Y001750D01*
X000907Y001637D01*
X000850Y001580D01*
X000737Y001580D01*
X000680Y001637D01*
D12*
X006550Y011489D02*
X006394Y011645D01*
X006472Y011723D01*
X006524Y011723D01*
X006576Y011671D01*
X006576Y011619D01*
X006498Y011541D01*
X006602Y011749D02*
X006602Y011853D01*
X006758Y011697D01*
X006706Y011645D02*
X006810Y011749D01*
X006863Y011802D02*
X006888Y011828D01*
X006863Y011854D01*
X006837Y011828D01*
X006863Y011802D01*
X006915Y011906D02*
X006967Y011906D01*
X007018Y011958D01*
X007018Y012010D01*
X006993Y012035D01*
X006941Y012035D01*
X006915Y012010D01*
X006941Y012035D02*
X006941Y012087D01*
X006915Y012113D01*
X006863Y012113D01*
X006811Y012061D01*
X006811Y012010D01*
X006967Y012166D02*
X006967Y012218D01*
X007019Y012270D01*
X007071Y012270D01*
X007071Y012062D01*
X007123Y012062D01*
X007175Y012114D01*
X007175Y012166D01*
X007071Y012270D01*
X006967Y012166D02*
X007071Y012062D01*
X007098Y011849D02*
X006994Y011745D01*
X007150Y011589D01*
X007254Y011693D01*
X007124Y011719D02*
X007072Y011667D01*
X007228Y011823D02*
X007332Y011927D01*
X007359Y012005D02*
X007411Y012005D01*
X007463Y012057D01*
X007514Y012057D01*
X007540Y012031D01*
X007540Y011980D01*
X007488Y011928D01*
X007437Y011928D01*
X007359Y012005D02*
X007333Y012031D01*
X007333Y012083D01*
X007385Y012135D01*
X007437Y012135D01*
X007463Y012214D02*
X007619Y012058D01*
X007619Y012162D01*
X007723Y012162D01*
X007567Y012317D01*
X007861Y012061D02*
X007913Y012113D01*
X007965Y012113D01*
X007991Y012087D01*
X007991Y012035D01*
X008043Y012035D01*
X008068Y012010D01*
X008068Y011958D01*
X008017Y011906D01*
X007965Y011906D01*
X007913Y011854D02*
X007938Y011828D01*
X007913Y011802D01*
X007887Y011828D01*
X007913Y011854D01*
X007860Y011749D02*
X007756Y011645D01*
X007808Y011697D02*
X007652Y011853D01*
X007652Y011749D01*
X007574Y011723D02*
X007626Y011671D01*
X007626Y011619D01*
X007548Y011541D01*
X007600Y011489D02*
X007444Y011645D01*
X007522Y011723D01*
X007574Y011723D01*
X007861Y012010D02*
X007861Y012061D01*
X007965Y012010D02*
X007991Y012035D01*
X008043Y012140D02*
X008043Y012244D01*
X008199Y012088D01*
X008147Y012036D02*
X008251Y012140D01*
X008357Y012057D02*
X008461Y012161D01*
X008487Y012135D01*
X008487Y011928D01*
X008513Y011902D01*
X008616Y012005D01*
X008669Y012058D02*
X008773Y012162D01*
X008861Y012086D02*
X008861Y012035D01*
X008861Y012086D02*
X008913Y012138D01*
X008965Y012138D01*
X008991Y012112D01*
X008991Y011905D01*
X009094Y012009D01*
X009121Y012087D02*
X009173Y012087D01*
X009225Y012139D01*
X009225Y012191D01*
X009199Y012217D01*
X009147Y012217D01*
X009121Y012191D01*
X009147Y012217D02*
X009147Y012269D01*
X009121Y012295D01*
X009069Y012295D01*
X009017Y012243D01*
X009017Y012191D01*
X008913Y011879D02*
X008938Y011853D01*
X008913Y011827D01*
X008887Y011853D01*
X008913Y011879D01*
X008860Y011774D02*
X008756Y011670D01*
X008808Y011722D02*
X008652Y011878D01*
X008652Y011774D01*
X008574Y011748D02*
X008626Y011696D01*
X008626Y011644D01*
X008548Y011566D01*
X008600Y011514D02*
X008444Y011670D01*
X008522Y011748D01*
X008574Y011748D01*
X008434Y011823D02*
X008382Y011771D01*
X008330Y011771D01*
X008201Y011901D01*
X008174Y011823D02*
X008200Y011797D01*
X008200Y011745D01*
X008122Y011667D01*
X008044Y011745D02*
X008122Y011823D01*
X008174Y011823D01*
X008200Y011745D02*
X008252Y011745D01*
X008278Y011719D01*
X008278Y011667D01*
X008200Y011589D01*
X008044Y011745D01*
X008304Y012005D02*
X008434Y011875D01*
X008434Y011823D01*
X008669Y012058D02*
X008643Y012084D01*
X008643Y012291D01*
X008617Y012317D01*
X008513Y012214D01*
X007850Y012750D02*
X005050Y012750D01*
X005050Y015450D01*
X012250Y015450D01*
X012250Y012750D01*
X010450Y012750D01*
X010121Y012295D02*
X010069Y012295D01*
X010017Y012243D01*
X010017Y012191D01*
X009965Y012138D02*
X009913Y012138D01*
X009861Y012086D01*
X009861Y012035D01*
X009965Y012138D02*
X009991Y012112D01*
X009991Y011905D01*
X010094Y012009D01*
X010147Y012061D02*
X010147Y012269D01*
X010121Y012295D01*
X010251Y012165D02*
X010147Y012061D01*
X009938Y011853D02*
X009913Y011827D01*
X009887Y011853D01*
X009913Y011879D01*
X009938Y011853D01*
X009860Y011774D02*
X009756Y011670D01*
X009808Y011722D02*
X009652Y011878D01*
X009652Y011774D01*
X009574Y011748D02*
X009626Y011696D01*
X009626Y011644D01*
X009548Y011566D01*
X009600Y011514D02*
X009444Y011670D01*
X009522Y011748D01*
X009574Y011748D01*
X009450Y012750D02*
X009850Y012750D01*
X013950Y012750D02*
X016750Y012750D01*
X018350Y012750D02*
X018750Y012750D01*
X019350Y012750D02*
X021150Y012750D01*
X021150Y015450D01*
X013950Y015450D01*
X013950Y012750D01*
D13*
X006219Y012184D02*
X006219Y012116D01*
X006117Y012013D01*
X005911Y012218D01*
X006014Y012321D01*
X006082Y012321D01*
X006219Y012184D01*
X006045Y011941D02*
X005703Y012010D01*
X005908Y011805D01*
X005803Y011767D02*
X005734Y011836D01*
X005666Y011767D01*
X005666Y011630D02*
X005734Y011630D01*
X005803Y011699D01*
X005803Y011767D01*
X005666Y011630D02*
X005529Y011767D01*
X005529Y011836D01*
X005597Y011904D01*
X005666Y011904D01*
X005840Y012147D02*
X006045Y011941D01*
X001826Y006003D02*
X002073Y005757D01*
X002135Y005757D01*
X002135Y005635D02*
X002135Y005388D01*
X002135Y005512D02*
X001765Y005512D01*
X001888Y005388D01*
X001888Y005267D02*
X001950Y005205D01*
X001950Y005082D01*
X001888Y005020D01*
X001826Y005020D01*
X001765Y005082D01*
X001765Y005205D01*
X001826Y005267D01*
X001888Y005267D01*
X001950Y005205D02*
X002012Y005267D01*
X002073Y005267D01*
X002135Y005205D01*
X002135Y005082D01*
X002073Y005020D01*
X002012Y005020D01*
X001950Y005082D01*
X001950Y004899D02*
X002073Y004899D01*
X002135Y004837D01*
X002135Y004713D01*
X002073Y004652D01*
X001950Y004652D02*
X001888Y004775D01*
X001888Y004837D01*
X001950Y004899D01*
X001765Y004899D02*
X001765Y004652D01*
X001950Y004652D01*
X002135Y004530D02*
X001765Y004530D01*
X001765Y004283D02*
X002135Y004530D01*
X002135Y004283D02*
X001765Y004283D01*
X001765Y004038D02*
X002135Y004038D01*
X002135Y003915D02*
X002135Y004162D01*
X001888Y003915D02*
X001765Y004038D01*
X001765Y005757D02*
X001765Y006003D01*
X001826Y006003D01*
D14*
X017337Y020022D02*
X017634Y019725D01*
X017867Y019641D02*
X017867Y019492D01*
X018016Y019344D01*
X018165Y019344D01*
X018249Y019111D02*
X018472Y018888D01*
X018620Y018888D01*
X018918Y019185D01*
X018918Y019334D01*
X018695Y019557D01*
X018249Y019111D01*
X018462Y019641D02*
X018462Y019789D01*
X018313Y019938D01*
X018165Y019938D01*
X017867Y019641D01*
X017337Y020022D02*
X017783Y020468D01*
X007750Y020540D02*
X007750Y020960D01*
X007645Y021066D01*
X007330Y021066D01*
X007330Y020435D01*
X007645Y020435D01*
X007750Y020540D01*
X007105Y020540D02*
X007000Y020435D01*
X006790Y020435D01*
X006685Y020540D01*
X006790Y020750D02*
X007000Y020750D01*
X007105Y020645D01*
X007105Y020540D01*
X006790Y020750D02*
X006685Y020855D01*
X006685Y020960D01*
X006790Y021066D01*
X007000Y021066D01*
X007105Y020960D01*
D15*
X009925Y020225D02*
X009925Y019858D01*
X010108Y019675D01*
X010292Y019858D01*
X010292Y020225D01*
X010477Y020042D02*
X010661Y020225D01*
X010661Y019675D01*
X010844Y019675D02*
X010477Y019675D01*
X010550Y019425D02*
X010367Y019425D01*
X010275Y019334D01*
X010275Y019242D01*
X010367Y019150D01*
X010550Y019150D01*
X010642Y019058D01*
X010642Y018967D01*
X010550Y018875D01*
X010367Y018875D01*
X010275Y018967D01*
X010375Y018642D02*
X010558Y018275D01*
X010742Y018642D01*
X010927Y018550D02*
X011019Y018642D01*
X011203Y018642D01*
X011294Y018550D01*
X011294Y018458D01*
X010927Y018458D01*
X010927Y018367D02*
X010927Y018550D01*
X010927Y018367D02*
X011019Y018275D01*
X011203Y018275D01*
X011480Y018275D02*
X011480Y018642D01*
X011663Y018642D02*
X011480Y018458D01*
X011663Y018642D02*
X011755Y018642D01*
X011940Y018550D02*
X012032Y018642D01*
X012307Y018642D01*
X012493Y018642D02*
X012585Y018642D01*
X012585Y018275D01*
X012676Y018275D02*
X012493Y018275D01*
X012307Y018367D02*
X012216Y018458D01*
X012032Y018458D01*
X011940Y018550D01*
X011940Y018275D02*
X012216Y018275D01*
X012307Y018367D01*
X012861Y018367D02*
X012861Y018550D01*
X012953Y018642D01*
X013136Y018642D01*
X013228Y018550D01*
X013228Y018367D01*
X013136Y018275D01*
X012953Y018275D01*
X012861Y018367D01*
X012853Y018875D02*
X012853Y019425D01*
X012945Y019242D02*
X012853Y019150D01*
X012945Y019242D02*
X013128Y019242D01*
X013220Y019150D01*
X013220Y018875D01*
X013406Y018875D02*
X013589Y018875D01*
X013497Y018875D02*
X013497Y019242D01*
X013406Y019242D01*
X013497Y019425D02*
X013497Y019517D01*
X013147Y019767D02*
X013147Y020134D01*
X012964Y019950D02*
X013331Y019950D01*
X012778Y019858D02*
X012595Y019675D01*
X012503Y019675D01*
X012411Y019767D01*
X012411Y019858D01*
X012595Y020042D01*
X012595Y020134D01*
X012503Y020225D01*
X012411Y020134D01*
X012411Y020042D01*
X012778Y019675D01*
X012577Y019334D02*
X012577Y018967D01*
X012668Y018875D01*
X012585Y018917D02*
X012585Y018825D01*
X012299Y018967D02*
X012299Y019150D01*
X012208Y019242D01*
X012024Y019242D01*
X011932Y019150D01*
X011932Y018967D01*
X012024Y018875D01*
X012208Y018875D01*
X012299Y018967D01*
X012485Y019242D02*
X012668Y019242D01*
X012226Y019675D02*
X011950Y019675D01*
X011859Y019767D01*
X011950Y019858D01*
X012226Y019858D01*
X012226Y019950D02*
X012226Y019675D01*
X012226Y019950D02*
X012134Y020042D01*
X011950Y020042D01*
X011673Y020134D02*
X011306Y019767D01*
X011398Y019675D01*
X011581Y019675D01*
X011673Y019767D01*
X011673Y020134D01*
X011581Y020225D01*
X011398Y020225D01*
X011306Y020134D01*
X011306Y019767D01*
X011122Y019767D02*
X011122Y019675D01*
X011030Y019675D01*
X011030Y019767D01*
X011122Y019767D01*
X011103Y019242D02*
X011194Y019150D01*
X011194Y018875D01*
X011011Y018875D02*
X011011Y019150D01*
X011103Y019242D01*
X011011Y019150D02*
X010919Y019242D01*
X010827Y019242D01*
X010827Y018875D01*
X010642Y019334D02*
X010550Y019425D01*
X011380Y019150D02*
X011380Y018967D01*
X011472Y018875D01*
X011655Y018875D01*
X011747Y018967D01*
X011747Y019150D01*
X011655Y019242D01*
X011472Y019242D01*
X011380Y019150D01*
X011398Y017975D02*
X011581Y017975D01*
X011673Y017884D01*
X011306Y017517D01*
X011398Y017425D01*
X011581Y017425D01*
X011673Y017517D01*
X011673Y017884D01*
X011398Y017975D02*
X011306Y017884D01*
X011306Y017517D01*
X011122Y017517D02*
X011122Y017425D01*
X011030Y017425D01*
X011030Y017517D01*
X011122Y017517D01*
X010844Y017425D02*
X010477Y017425D01*
X010661Y017425D02*
X010661Y017975D01*
X010477Y017792D01*
X010292Y017608D02*
X010292Y017975D01*
X010292Y017608D02*
X010108Y017425D01*
X009925Y017608D01*
X009925Y017975D01*
X013414Y018275D02*
X013414Y018642D01*
X013689Y018642D01*
X013781Y018550D01*
X013781Y018275D01*
X013866Y018875D02*
X013774Y018967D01*
X013774Y019150D01*
X013866Y019242D01*
X014049Y019242D01*
X014141Y019150D01*
X014141Y019058D01*
X013774Y019058D01*
X013866Y018875D02*
X014049Y018875D01*
X014326Y018875D02*
X014326Y019425D01*
X014326Y019242D02*
X014602Y019242D01*
X014693Y019150D01*
X014693Y018967D01*
X014602Y018875D01*
X014326Y018875D01*
X014879Y018967D02*
X014879Y019150D01*
X014971Y019242D01*
X015154Y019242D01*
X015246Y019150D01*
X015246Y018967D01*
X015154Y018875D01*
X014971Y018875D01*
X014879Y018967D01*
X015431Y018967D02*
X015523Y019058D01*
X015798Y019058D01*
X015798Y019150D02*
X015798Y018875D01*
X015523Y018875D01*
X015431Y018967D01*
X015523Y019242D02*
X015707Y019242D01*
X015798Y019150D01*
X015984Y019058D02*
X016167Y019242D01*
X016259Y019242D01*
X016444Y019150D02*
X016444Y018967D01*
X016536Y018875D01*
X016811Y018875D01*
X016811Y019425D01*
X016811Y019242D02*
X016536Y019242D01*
X016444Y019150D01*
X015984Y019242D02*
X015984Y018875D01*
X014800Y014825D02*
X014650Y014825D01*
X014575Y014750D01*
X014800Y014825D02*
X014875Y014750D01*
X014875Y014675D01*
X014575Y014375D01*
X014875Y014375D01*
X014725Y013825D02*
X014575Y013675D01*
X014725Y013825D02*
X014725Y013375D01*
X014575Y013375D02*
X014875Y013375D01*
X017175Y012825D02*
X017325Y012975D01*
X017325Y012525D01*
X017175Y012525D02*
X017475Y012525D01*
X017635Y012600D02*
X017936Y012900D01*
X017936Y012600D01*
X017861Y012525D01*
X017710Y012525D01*
X017635Y012600D01*
X017635Y012900D01*
X017710Y012975D01*
X017861Y012975D01*
X017936Y012900D01*
X009650Y008300D02*
X009600Y007150D01*
X009500Y007050D01*
X005800Y007050D01*
X005700Y007150D01*
X005650Y008300D01*
X005780Y007290D02*
X005782Y007310D01*
X005788Y007328D01*
X005797Y007346D01*
X005809Y007361D01*
X005824Y007373D01*
X005842Y007382D01*
X005860Y007388D01*
X005880Y007390D01*
X005900Y007388D01*
X005918Y007382D01*
X005936Y007373D01*
X005951Y007361D01*
X005963Y007346D01*
X005972Y007328D01*
X005978Y007310D01*
X005980Y007290D01*
X005978Y007270D01*
X005972Y007252D01*
X005963Y007234D01*
X005951Y007219D01*
X005936Y007207D01*
X005918Y007198D01*
X005900Y007192D01*
X005880Y007190D01*
X005860Y007192D01*
X005842Y007198D01*
X005824Y007207D01*
X005809Y007219D01*
X005797Y007234D01*
X005788Y007252D01*
X005782Y007270D01*
X005780Y007290D01*
X008275Y012525D02*
X008575Y012525D01*
X008425Y012525D02*
X008425Y012975D01*
X008275Y012825D01*
X008735Y012900D02*
X008810Y012975D01*
X008961Y012975D01*
X009036Y012900D01*
X008735Y012600D01*
X008810Y012525D01*
X008961Y012525D01*
X009036Y012600D01*
X009036Y012900D01*
X008735Y012900D02*
X008735Y012600D01*
X005975Y013375D02*
X005675Y013375D01*
X005825Y013375D02*
X005825Y013825D01*
X005675Y013675D01*
X005675Y014375D02*
X005975Y014675D01*
X005975Y014750D01*
X005900Y014825D01*
X005750Y014825D01*
X005675Y014750D01*
X005675Y014375D02*
X005975Y014375D01*
D16*
X000150Y001650D02*
X000150Y000650D01*
X000650Y000150D01*
X003400Y000150D01*
X003900Y000650D01*
X003900Y004400D01*
X004400Y004900D01*
X014650Y004900D01*
X015150Y005400D01*
X015150Y008050D01*
X015750Y008650D01*
X024400Y008650D01*
X024900Y009150D01*
X024900Y011400D01*
X024400Y011900D01*
X023000Y011900D01*
X022150Y012750D01*
X022150Y017400D01*
X018900Y020650D01*
X018900Y026400D01*
X018400Y026900D01*
X016650Y026900D01*
X016150Y026400D01*
X016150Y022650D01*
X015650Y022150D01*
X003350Y022150D01*
X002900Y021700D01*
X002900Y019900D01*
X003900Y018900D01*
X003900Y008400D01*
X001400Y005900D01*
X001400Y002400D01*
X001150Y002150D01*
X000650Y002150D01*
X000150Y001650D01*
X005650Y005750D02*
X009650Y005750D01*
X009650Y008200D01*
X005650Y008200D02*
X005650Y005750D01*
D17*
X008900Y017400D02*
X009400Y017400D01*
X009650Y017650D01*
X009650Y018150D01*
X009400Y018400D01*
X009650Y018650D01*
X009650Y019150D01*
X009400Y019400D01*
X009650Y019650D01*
X009650Y020150D01*
X009400Y020400D01*
X008900Y020400D01*
X008650Y020150D01*
X008650Y019650D01*
X008900Y019400D01*
X008650Y019150D01*
X008650Y018650D01*
X008900Y018400D01*
X008650Y018150D01*
X008650Y017650D01*
X008900Y017400D01*
D18*
X002694Y004500D03*
D19*
X002700Y004895D03*
X002700Y003005D03*
D20*
X007650Y008600D03*
D21*
X005925Y008350D03*
X009375Y008350D03*
D22*
X008150Y008350D03*
X007150Y008350D03*
D23*
X010550Y008137D02*
X010553Y008142D01*
X010555Y008142D02*
X010555Y008138D01*
X010555Y008137D01*
X010557Y008137D01*
X010558Y008138D01*
X010558Y008142D01*
X010560Y008141D02*
X010562Y008141D01*
X010562Y008139D02*
X010560Y008139D01*
X010559Y008140D01*
X010560Y008141D01*
X010562Y008139D02*
X010562Y008138D01*
X010562Y008137D01*
X010559Y008137D01*
X010564Y008138D02*
X010564Y008140D01*
X010565Y008141D01*
X010566Y008141D01*
X010567Y008140D01*
X010567Y008139D01*
X010564Y008139D01*
X010564Y008138D02*
X010565Y008137D01*
X010566Y008137D01*
X010568Y008137D02*
X010568Y008141D01*
X010568Y008139D02*
X010570Y008141D01*
X010571Y008141D01*
X010572Y008140D02*
X010573Y008141D01*
X010575Y008141D01*
X010575Y008139D02*
X010573Y008139D01*
X010572Y008140D01*
X010572Y008137D02*
X010575Y008137D01*
X010575Y008138D01*
X010575Y008139D01*
X010577Y008137D02*
X010580Y008142D01*
X010582Y008141D02*
X010581Y008140D01*
X010581Y008138D01*
X010582Y008137D01*
X010585Y008137D01*
X010585Y008141D01*
X010582Y008141D01*
X010586Y008140D02*
X010587Y008141D01*
X010588Y008141D01*
X010589Y008140D01*
X010589Y008139D01*
X010586Y008139D01*
X010586Y008138D02*
X010586Y008140D01*
X010586Y008138D02*
X010587Y008137D01*
X010588Y008137D01*
X010590Y008138D02*
X010591Y008137D01*
X010593Y008137D01*
X010594Y008138D01*
X010594Y008140D01*
X010593Y008141D01*
X010591Y008141D01*
X010590Y008140D01*
X010590Y008138D01*
X010595Y008137D02*
X010595Y008141D01*
X010597Y008141D02*
X010597Y008141D01*
X010595Y008139D01*
X010599Y008138D02*
X010600Y008137D01*
X010602Y008137D01*
X010602Y008141D01*
X010600Y008141D01*
X010599Y008140D01*
X010599Y008138D01*
X010600Y008136D02*
X010601Y008136D01*
X010602Y008137D01*
X010603Y008138D02*
X010603Y008140D01*
X010604Y008141D01*
X010606Y008141D01*
X010607Y008140D01*
X010607Y008139D01*
X010603Y008139D01*
X010603Y008138D02*
X010604Y008137D01*
X010606Y008137D01*
X010608Y008137D02*
X010608Y008142D01*
X010609Y008141D02*
X010610Y008141D01*
X010611Y008140D01*
X010611Y008137D01*
X010612Y008138D02*
X010613Y008139D01*
X010616Y008139D01*
X010616Y008140D02*
X010616Y008137D01*
X010613Y008137D01*
X010612Y008138D01*
X010613Y008141D02*
X010615Y008141D01*
X010616Y008140D01*
X010617Y008140D02*
X010618Y008141D01*
X010620Y008141D01*
X010620Y008142D02*
X010620Y008137D01*
X010618Y008137D01*
X010617Y008138D01*
X010617Y008140D01*
X010622Y008142D02*
X010622Y008142D01*
X010622Y008137D01*
X010623Y008137D01*
X010625Y008138D02*
X010625Y008140D01*
X010625Y008141D01*
X010627Y008141D01*
X010628Y008140D01*
X010628Y008139D01*
X010625Y008139D01*
X010625Y008138D02*
X010625Y008137D01*
X010627Y008137D01*
X010629Y008138D02*
X010630Y008137D01*
X010632Y008137D01*
X010632Y008136D01*
X010631Y008136D01*
X010632Y008137D02*
X010632Y008141D01*
X010629Y008141D02*
X010629Y008138D01*
X010634Y008137D02*
X010637Y008142D01*
X010638Y008142D02*
X010641Y008142D01*
X010642Y008142D01*
X010642Y008138D01*
X010641Y008137D01*
X010638Y008137D01*
X010638Y008142D01*
X010643Y008140D02*
X010643Y008138D01*
X010644Y008137D01*
X010645Y008137D01*
X010646Y008138D01*
X010646Y008140D01*
X010645Y008141D01*
X010644Y008141D01*
X010643Y008140D01*
X010647Y008140D02*
X010647Y008138D01*
X010648Y008137D01*
X010651Y008137D01*
X010652Y008138D02*
X010653Y008137D01*
X010655Y008137D01*
X010655Y008141D01*
X010657Y008141D02*
X010657Y008141D01*
X010658Y008140D01*
X010659Y008141D01*
X010660Y008140D01*
X010660Y008137D01*
X010661Y008138D02*
X010661Y008140D01*
X010662Y008141D01*
X010664Y008141D01*
X010664Y008140D01*
X010664Y008139D01*
X010661Y008139D01*
X010661Y008138D02*
X010662Y008137D01*
X010664Y008137D01*
X010666Y008137D02*
X010666Y008141D01*
X010668Y008141D01*
X010669Y008140D01*
X010669Y008137D01*
X010671Y008138D02*
X010672Y008137D01*
X010673Y008137D02*
X010676Y008137D01*
X010677Y008138D01*
X010676Y008139D01*
X010674Y008139D01*
X010673Y008140D01*
X010674Y008141D01*
X010677Y008141D01*
X010678Y008137D02*
X010681Y008142D01*
X010682Y008142D02*
X010686Y008137D01*
X010686Y008142D01*
X010687Y008142D02*
X010689Y008142D01*
X010690Y008142D01*
X010690Y008141D01*
X010689Y008140D01*
X010687Y008140D01*
X010687Y008142D02*
X010687Y008137D01*
X010689Y008137D01*
X010690Y008138D01*
X010690Y008139D01*
X010689Y008140D01*
X010692Y008141D02*
X010692Y008141D01*
X010692Y008137D01*
X010693Y008137D01*
X010695Y008138D02*
X010696Y008137D01*
X010695Y008138D02*
X010695Y008142D01*
X010695Y008141D02*
X010696Y008141D01*
X010698Y008142D02*
X010698Y008137D01*
X010699Y008139D01*
X010701Y008137D01*
X010701Y008142D01*
X010702Y008140D02*
X010702Y008138D01*
X010703Y008137D01*
X010705Y008137D01*
X010706Y008138D01*
X010706Y008140D01*
X010705Y008141D01*
X010703Y008141D01*
X010702Y008140D01*
X010707Y008141D02*
X010709Y008141D01*
X010710Y008140D01*
X010710Y008137D01*
X010711Y008138D02*
X010711Y008140D01*
X010712Y008141D01*
X010715Y008141D01*
X010716Y008140D02*
X010717Y008141D01*
X010718Y008141D01*
X010719Y008140D01*
X010719Y008139D01*
X010716Y008139D01*
X010716Y008138D02*
X010716Y008140D01*
X010716Y008138D02*
X010717Y008137D01*
X010718Y008137D01*
X010720Y008137D02*
X010720Y008141D01*
X010720Y008139D02*
X010722Y008141D01*
X010723Y008141D01*
X010724Y008137D02*
X010728Y008142D01*
X010729Y008142D02*
X010731Y008141D01*
X010732Y008142D01*
X010732Y008137D01*
X010733Y008138D02*
X010733Y008140D01*
X010734Y008141D01*
X010736Y008141D01*
X010737Y008140D01*
X010737Y008139D01*
X010733Y008139D01*
X010733Y008138D02*
X010734Y008137D01*
X010736Y008137D01*
X010738Y008138D02*
X010738Y008140D01*
X010739Y008141D01*
X010741Y008141D01*
X010741Y008142D02*
X010741Y008137D01*
X010739Y008137D01*
X010738Y008138D01*
X010743Y008137D02*
X010744Y008137D01*
X010743Y008137D02*
X010743Y008141D01*
X010743Y008141D01*
X010743Y008142D02*
X010743Y008143D01*
X010746Y008141D02*
X010748Y008141D01*
X010749Y008140D01*
X010749Y008137D01*
X010746Y008137D01*
X010746Y008138D01*
X010746Y008139D01*
X010749Y008139D01*
X010750Y008137D02*
X010753Y008142D01*
X010755Y008142D02*
X010755Y008137D01*
X010758Y008137D01*
X010759Y008138D02*
X010760Y008139D01*
X010763Y008139D01*
X010763Y008140D02*
X010763Y008137D01*
X010760Y008137D01*
X010759Y008138D01*
X010760Y008141D02*
X010762Y008141D01*
X010763Y008140D01*
X010764Y008140D02*
X010764Y008138D01*
X010765Y008137D01*
X010767Y008137D01*
X010767Y008141D01*
X010765Y008141D01*
X010764Y008140D01*
X010766Y008136D02*
X010766Y008136D01*
X010767Y008137D01*
X010768Y008137D02*
X010770Y008137D01*
X010769Y008137D02*
X010769Y008142D01*
X010768Y008142D01*
X010771Y008140D02*
X010772Y008141D01*
X010774Y008141D01*
X010775Y008140D01*
X010775Y008139D01*
X010771Y008139D01*
X010771Y008138D02*
X010771Y008140D01*
X010771Y008138D02*
X010772Y008137D01*
X010774Y008137D01*
X010776Y008137D02*
X010779Y008142D01*
X010781Y008142D02*
X010781Y008138D01*
X010781Y008137D01*
X010783Y008137D01*
X010784Y008138D01*
X010784Y008142D01*
X010783Y008142D01*
X010781Y008142D01*
X010781Y008142D01*
X010785Y008142D02*
X010785Y008141D01*
X010786Y008140D01*
X010788Y008140D01*
X010789Y008139D01*
X010789Y008138D01*
X010788Y008137D01*
X010786Y008137D01*
X010785Y008138D01*
X010786Y008142D02*
X010785Y008142D01*
X010786Y008142D02*
X010788Y008142D01*
X010789Y008142D01*
X010790Y008142D02*
X010790Y008137D01*
X010790Y008140D02*
X010793Y008140D01*
X010793Y008142D02*
X010793Y008137D01*
X010794Y008137D02*
X010796Y008139D01*
X010798Y008137D01*
X010798Y008142D01*
X010799Y008142D02*
X010799Y008137D01*
X010802Y008137D01*
X010803Y008138D02*
X010804Y008137D01*
X010806Y008137D01*
X010807Y008138D01*
X010807Y008140D01*
X010806Y008141D01*
X010804Y008141D01*
X010803Y008140D01*
X010803Y008138D01*
X010808Y008138D02*
X010809Y008137D01*
X010811Y008137D01*
X010811Y008141D01*
X010809Y008141D01*
X010808Y008140D01*
X010808Y008138D01*
X010810Y008136D02*
X010811Y008136D01*
X010811Y008137D01*
X010813Y008138D02*
X010813Y008137D01*
X010815Y008137D01*
X010816Y008138D01*
X010816Y008140D01*
X010815Y008141D01*
X010813Y008141D01*
X010813Y008140D01*
X010813Y008138D01*
X010817Y008138D02*
X010818Y008138D01*
X010818Y008137D01*
X010817Y008137D01*
X010817Y008138D01*
X010819Y008137D02*
X010822Y008137D01*
X010823Y008138D01*
X010823Y008140D01*
X010822Y008141D01*
X010819Y008141D01*
X010819Y008142D02*
X010819Y008137D01*
X010824Y008137D02*
X010824Y008141D01*
X010825Y008141D01*
X010826Y008140D01*
X010826Y008141D01*
X010827Y008140D01*
X010827Y008137D01*
X010826Y008137D02*
X010826Y008140D01*
X010829Y008141D02*
X010831Y008141D01*
X010832Y008140D01*
X010832Y008138D01*
X010831Y008137D01*
X010829Y008137D01*
X010829Y008136D02*
X010829Y008141D01*
X010794Y008142D02*
X010794Y008137D01*
X010758Y008142D02*
X010755Y008142D01*
X010755Y008140D02*
X010756Y008140D01*
X010729Y008137D02*
X010729Y008142D01*
X010715Y008142D02*
X010715Y008137D01*
X010712Y008137D01*
X010711Y008138D01*
X010707Y008137D02*
X010707Y008141D01*
X010692Y008143D02*
X010692Y008142D01*
X010682Y008142D02*
X010682Y008137D01*
X010672Y008141D02*
X010670Y008141D01*
X010671Y008142D02*
X010671Y008138D01*
X010658Y008140D02*
X010658Y008137D01*
X010657Y008137D02*
X010657Y008141D01*
X010652Y008141D02*
X010652Y008138D01*
X010651Y008141D02*
X010648Y008141D01*
X010647Y008140D01*
X010609Y008141D02*
X010608Y008140D01*
X010585Y008137D02*
X010584Y008136D01*
X010583Y008136D01*
D24*
X011189Y008828D03*
X013491Y009893D03*
X014251Y009348D03*
X015291Y009113D03*
X012141Y012158D03*
D25*
X013491Y009895D03*
X014024Y009775D03*
X013861Y009485D03*
X014114Y009345D03*
X014251Y009345D03*
X014814Y009355D03*
X015166Y009355D03*
X013031Y009355D03*
X011189Y008830D03*
D26*
X011189Y008833D03*
X011814Y009138D03*
X014466Y009018D03*
X015289Y009108D03*
X013964Y012168D03*
D27*
X013494Y009900D03*
X015286Y009105D03*
X011191Y008835D03*
D28*
X011193Y008838D03*
X012573Y009478D03*
X013488Y009218D03*
X013963Y012163D03*
D29*
X013961Y012160D03*
X014024Y009785D03*
X014239Y009330D03*
X014346Y009215D03*
X014559Y008985D03*
X014559Y008980D03*
X014704Y008980D03*
X015279Y009100D03*
X013276Y008980D03*
X013129Y008975D03*
X012776Y008985D03*
X012776Y008990D03*
X012776Y008995D03*
X012564Y008980D03*
X012569Y009470D03*
X012646Y009890D03*
X011806Y009130D03*
X011196Y008840D03*
D30*
X011201Y008843D03*
X011801Y009123D03*
X011951Y008983D03*
X012569Y009248D03*
X012569Y009253D03*
X012569Y009343D03*
X012769Y009258D03*
X012771Y009253D03*
X012929Y009253D03*
X012924Y009078D03*
X012924Y009053D03*
X013134Y009053D03*
X013134Y009058D03*
X013134Y009063D03*
X013134Y009068D03*
X013134Y009073D03*
X013134Y009078D03*
X013134Y009083D03*
X013134Y009088D03*
X013134Y009093D03*
X013134Y009098D03*
X013134Y009103D03*
X013134Y009108D03*
X013134Y009113D03*
X013134Y009118D03*
X013134Y009123D03*
X013134Y009128D03*
X013134Y009133D03*
X013134Y009138D03*
X013134Y009228D03*
X013134Y009233D03*
X013134Y009238D03*
X013131Y009243D03*
X013131Y009248D03*
X013281Y009243D03*
X013281Y009238D03*
X013281Y009233D03*
X013484Y009253D03*
X013486Y009248D03*
X013634Y009218D03*
X013634Y009213D03*
X013634Y009208D03*
X013634Y009203D03*
X013634Y009198D03*
X013634Y009193D03*
X013634Y009188D03*
X013634Y009183D03*
X013634Y009178D03*
X013634Y009173D03*
X013634Y009168D03*
X013634Y009163D03*
X013634Y009158D03*
X013634Y009153D03*
X013634Y009148D03*
X013634Y009143D03*
X013634Y009138D03*
X013634Y009133D03*
X013634Y009128D03*
X013634Y009123D03*
X013634Y009118D03*
X013634Y009113D03*
X013634Y009108D03*
X013634Y009103D03*
X013634Y009098D03*
X013634Y009093D03*
X013841Y009058D03*
X013844Y009063D03*
X013846Y009068D03*
X013846Y009073D03*
X013846Y009078D03*
X013846Y009083D03*
X013846Y009098D03*
X013846Y009118D03*
X013846Y009153D03*
X013846Y009178D03*
X013846Y009183D03*
X013846Y009228D03*
X013846Y009233D03*
X013846Y009238D03*
X013846Y009243D03*
X013846Y009248D03*
X013846Y009348D03*
X013846Y009353D03*
X013846Y009358D03*
X013846Y009363D03*
X013846Y009378D03*
X013846Y009393D03*
X013846Y009398D03*
X013846Y009408D03*
X013846Y009418D03*
X013846Y009428D03*
X013846Y009433D03*
X013846Y009448D03*
X013846Y009453D03*
X013846Y009458D03*
X014024Y009788D03*
X014351Y009243D03*
X014351Y009238D03*
X014554Y009258D03*
X014556Y009253D03*
X014556Y009218D03*
X014556Y009153D03*
X014714Y009258D03*
X014914Y009253D03*
X014916Y009243D03*
X014916Y009238D03*
X014916Y009233D03*
X015064Y009233D03*
X015064Y009238D03*
X015066Y009248D03*
X015066Y009253D03*
X015064Y009228D03*
X015064Y009223D03*
X015064Y009218D03*
X015064Y009213D03*
X015064Y009208D03*
X015064Y009203D03*
X015064Y009198D03*
X015064Y009193D03*
X015064Y009188D03*
X015064Y009183D03*
X015064Y009178D03*
X015064Y009083D03*
X015064Y009078D03*
X015064Y009073D03*
X015066Y009063D03*
X015274Y009228D03*
X015269Y009253D03*
X014234Y009053D03*
X014234Y009048D03*
X014096Y009063D03*
X014096Y009083D03*
X014096Y009108D03*
X014096Y009113D03*
X014096Y009133D03*
X014096Y009138D03*
X014096Y009143D03*
X013964Y009048D03*
X013964Y009043D03*
X013134Y009043D03*
X013134Y009048D03*
X013134Y009038D03*
X013134Y009033D03*
X013134Y009028D03*
X013134Y009023D03*
X013134Y009018D03*
X013134Y009013D03*
X013134Y009008D03*
X013134Y009003D03*
X013134Y008998D03*
X013134Y008993D03*
X013134Y008988D03*
X012141Y012148D03*
D31*
X012141Y012145D03*
X013961Y012155D03*
X013649Y009270D03*
X013481Y009265D03*
X013479Y009270D03*
X013289Y009265D03*
X013131Y009220D03*
X013124Y009265D03*
X013131Y009145D03*
X012929Y009040D03*
X012766Y009265D03*
X012764Y009270D03*
X012571Y009260D03*
X013646Y009050D03*
X013649Y009045D03*
X013834Y009045D03*
X013966Y009030D03*
X013969Y009025D03*
X014099Y009045D03*
X014231Y009035D03*
X014231Y009030D03*
X014351Y009045D03*
X014354Y009040D03*
X014351Y009085D03*
X014364Y009270D03*
X014549Y009270D03*
X014716Y009265D03*
X014904Y009270D03*
X014909Y009265D03*
X015076Y009270D03*
X015264Y009265D03*
X015266Y009260D03*
X015264Y009045D03*
X015261Y009040D03*
X015071Y009050D03*
X015069Y009055D03*
X013844Y009255D03*
X011204Y008845D03*
D32*
X011205Y008848D03*
X011315Y008968D03*
X011690Y009378D03*
X011955Y008988D03*
X012930Y009038D03*
X013130Y009218D03*
X013295Y009273D03*
X013480Y009268D03*
X013650Y009273D03*
X013830Y009038D03*
X013970Y009023D03*
X014230Y009028D03*
X014355Y009038D03*
X015080Y009038D03*
D33*
X015081Y009035D03*
X015069Y009165D03*
X015084Y009280D03*
X014896Y009280D03*
X014551Y009210D03*
X014544Y009275D03*
X014356Y009090D03*
X014356Y009035D03*
X014359Y009030D03*
X014364Y009025D03*
X014099Y009035D03*
X014029Y008960D03*
X013829Y009035D03*
X013654Y009035D03*
X013654Y009275D03*
X013474Y009275D03*
X013296Y009275D03*
X013129Y009215D03*
X013116Y009275D03*
X013129Y009150D03*
X012934Y009095D03*
X012939Y009275D03*
X012944Y009280D03*
X012761Y009275D03*
X012574Y009265D03*
X011796Y009110D03*
X011796Y009105D03*
X011796Y009100D03*
X011584Y009210D03*
X011584Y009215D03*
X011584Y009220D03*
X011584Y009225D03*
X011584Y009230D03*
X011206Y008850D03*
X015251Y009030D03*
D34*
X014543Y009278D03*
X014373Y009283D03*
X014358Y009093D03*
X014098Y009033D03*
X013828Y009033D03*
X013473Y009278D03*
X013468Y009283D03*
X013128Y009213D03*
X013028Y009353D03*
X012938Y009023D03*
X012068Y009378D03*
X011208Y008853D03*
X010938Y009378D03*
D35*
X011208Y008855D03*
X011958Y008990D03*
X012758Y009280D03*
X012948Y009285D03*
X013113Y009280D03*
X014023Y009790D03*
X014363Y009100D03*
X014723Y009275D03*
X015088Y009285D03*
X015268Y009220D03*
X015248Y009025D03*
D36*
X015071Y009103D03*
X015256Y009278D03*
X014891Y009288D03*
X014811Y009353D03*
X014734Y009288D03*
X014729Y009283D03*
X014539Y009283D03*
X014549Y009208D03*
X014376Y009288D03*
X014361Y009098D03*
X014366Y009023D03*
X013824Y009028D03*
X013656Y009033D03*
X013659Y009283D03*
X013741Y009353D03*
X013839Y009268D03*
X013464Y009288D03*
X013301Y009283D03*
X013111Y009283D03*
X012756Y009283D03*
X012751Y009288D03*
X012576Y009273D03*
X011961Y009253D03*
X011794Y009093D03*
X011959Y008993D03*
X011586Y009243D03*
X011421Y009243D03*
X011421Y009238D03*
X011421Y009233D03*
X011421Y009228D03*
X011421Y009223D03*
X011421Y009218D03*
X011421Y009213D03*
X011421Y009208D03*
X011421Y009203D03*
X011421Y009198D03*
X011421Y009193D03*
X011421Y009188D03*
X011421Y009183D03*
X011421Y009178D03*
X011421Y009173D03*
X011421Y009168D03*
X011421Y009163D03*
X011421Y009158D03*
X011421Y009153D03*
X011421Y009148D03*
X011421Y009143D03*
X011421Y009138D03*
X011421Y009133D03*
X011421Y009128D03*
X011421Y009123D03*
X011421Y009118D03*
X011421Y009113D03*
X011421Y009108D03*
X011421Y009103D03*
X011209Y009103D03*
X011209Y009108D03*
X011209Y009113D03*
X011209Y009118D03*
X011209Y009123D03*
X011209Y009128D03*
X011209Y009133D03*
X011209Y009138D03*
X011209Y009143D03*
X011209Y009148D03*
X011209Y009153D03*
X011209Y009158D03*
X011209Y009163D03*
X011209Y009168D03*
X011209Y009173D03*
X011209Y009178D03*
X011209Y009183D03*
X011209Y009188D03*
X011209Y009193D03*
X011209Y009198D03*
X011209Y009203D03*
X011209Y009208D03*
X011209Y009213D03*
X011209Y009218D03*
X011209Y009223D03*
X011209Y009228D03*
X011209Y009233D03*
X011209Y009238D03*
X011209Y009243D03*
X011209Y009248D03*
X011209Y009098D03*
X011209Y008963D03*
X011209Y008958D03*
X011209Y008953D03*
X011209Y008948D03*
X011209Y008943D03*
X011209Y008938D03*
X011209Y008933D03*
X011209Y008928D03*
X011209Y008923D03*
X011209Y008918D03*
X011209Y008913D03*
X011209Y008908D03*
X011209Y008903D03*
X011209Y008898D03*
X011209Y008893D03*
X011209Y008888D03*
X011209Y008883D03*
X011209Y008878D03*
X011209Y008873D03*
X011209Y008868D03*
X011209Y008863D03*
X011209Y008858D03*
X010834Y009093D03*
X010831Y009098D03*
X010831Y009103D03*
X010831Y009108D03*
X010831Y009113D03*
X010831Y009118D03*
X010831Y009123D03*
X010831Y009128D03*
X010831Y009133D03*
X010831Y009138D03*
X010831Y009143D03*
X010831Y009148D03*
X010831Y009153D03*
X010831Y009158D03*
X010831Y009163D03*
X010831Y009168D03*
X010831Y009173D03*
X010831Y009178D03*
X010831Y009183D03*
X010831Y009188D03*
X010831Y009193D03*
X010831Y009198D03*
X010831Y009203D03*
X010831Y009208D03*
X010831Y009213D03*
X010831Y009218D03*
X010831Y009223D03*
X010831Y009228D03*
X010831Y009233D03*
X010831Y009238D03*
X010831Y009243D03*
X010831Y009248D03*
X010834Y009253D03*
X013506Y009913D03*
X013961Y012153D03*
D37*
X013839Y009270D03*
X013656Y009280D03*
X013304Y009285D03*
X013126Y009210D03*
X013109Y009285D03*
X012954Y009290D03*
X012754Y009285D03*
X011959Y008995D03*
X011794Y009090D03*
X011586Y009200D03*
X011586Y009245D03*
X011421Y009240D03*
X011421Y009235D03*
X011421Y009230D03*
X011421Y009225D03*
X011421Y009220D03*
X011421Y009215D03*
X011421Y009210D03*
X011421Y009205D03*
X011421Y009200D03*
X011421Y009195D03*
X011421Y009190D03*
X011421Y009185D03*
X011421Y009180D03*
X011421Y009175D03*
X011421Y009170D03*
X011421Y009165D03*
X011421Y009160D03*
X011421Y009155D03*
X011421Y009150D03*
X011421Y009145D03*
X011421Y009140D03*
X011421Y009135D03*
X011421Y009130D03*
X011421Y009125D03*
X011421Y009120D03*
X011421Y009115D03*
X011421Y009110D03*
X011421Y009105D03*
X011421Y009100D03*
X011209Y009100D03*
X011209Y009105D03*
X011209Y009110D03*
X011209Y009115D03*
X011209Y009120D03*
X011209Y009125D03*
X011209Y009130D03*
X011209Y009135D03*
X011209Y009140D03*
X011209Y009145D03*
X011209Y009150D03*
X011209Y009155D03*
X011209Y009160D03*
X011209Y009165D03*
X011209Y009170D03*
X011209Y009175D03*
X011209Y009180D03*
X011209Y009185D03*
X011209Y009190D03*
X011209Y009195D03*
X011209Y009200D03*
X011209Y009205D03*
X011209Y009210D03*
X011209Y009215D03*
X011209Y009220D03*
X011209Y009225D03*
X011209Y009230D03*
X011209Y009235D03*
X011209Y009240D03*
X011209Y009245D03*
X011209Y009250D03*
X011209Y009095D03*
X011209Y008960D03*
X011209Y008955D03*
X011209Y008950D03*
X011209Y008945D03*
X011209Y008940D03*
X011209Y008935D03*
X011209Y008930D03*
X011209Y008925D03*
X011209Y008920D03*
X011209Y008915D03*
X011209Y008910D03*
X011209Y008905D03*
X011209Y008900D03*
X011209Y008895D03*
X011209Y008890D03*
X011209Y008885D03*
X011209Y008880D03*
X011209Y008875D03*
X011209Y008870D03*
X011209Y008865D03*
X011209Y008860D03*
X010834Y009095D03*
X010831Y009100D03*
X010831Y009105D03*
X010831Y009110D03*
X010831Y009115D03*
X010831Y009120D03*
X010831Y009125D03*
X010831Y009130D03*
X010831Y009135D03*
X010831Y009140D03*
X010831Y009145D03*
X010831Y009150D03*
X010831Y009155D03*
X010831Y009160D03*
X010831Y009165D03*
X010831Y009170D03*
X010831Y009175D03*
X010831Y009180D03*
X010831Y009185D03*
X010831Y009190D03*
X010831Y009195D03*
X010831Y009200D03*
X010831Y009205D03*
X010831Y009210D03*
X010831Y009215D03*
X010831Y009220D03*
X010831Y009225D03*
X010831Y009230D03*
X010831Y009235D03*
X010831Y009240D03*
X010831Y009245D03*
X010834Y009250D03*
X013974Y009020D03*
X014374Y009285D03*
X014541Y009280D03*
X014726Y009280D03*
X014731Y009285D03*
X014894Y009285D03*
X015086Y009030D03*
X015259Y009275D03*
X015251Y009285D03*
D38*
X012998Y008958D03*
D39*
X013010Y008958D03*
X013730Y008958D03*
X013740Y008958D03*
D40*
X014016Y008958D03*
X014181Y008958D03*
X014329Y009198D03*
X013864Y009488D03*
X013021Y008958D03*
X012546Y008963D03*
X012581Y009488D03*
X011941Y008968D03*
X015149Y008958D03*
D41*
X015183Y008958D03*
X014433Y008958D03*
X013753Y008958D03*
X013033Y008958D03*
X014023Y009773D03*
D42*
X014038Y008958D03*
X015163Y008958D03*
D43*
X014451Y008958D03*
X014441Y008958D03*
D44*
X015170Y008958D03*
X011820Y009143D03*
D45*
X012125Y009745D03*
X012760Y008960D03*
X013260Y008960D03*
D46*
X013015Y008960D03*
X012580Y009280D03*
X011790Y009270D03*
X011790Y009265D03*
X011790Y009245D03*
X011690Y009375D03*
X011590Y009265D03*
X011590Y009105D03*
X011415Y009075D03*
X011415Y009270D03*
X011315Y009375D03*
X011215Y009270D03*
X010840Y009275D03*
X010840Y009075D03*
X013740Y008960D03*
X014370Y009020D03*
X014545Y009205D03*
X014530Y009290D03*
D47*
X014368Y009275D03*
X014228Y009025D03*
X014168Y008960D03*
X014098Y009040D03*
X013833Y009040D03*
X013843Y009260D03*
X013843Y009340D03*
X013293Y009270D03*
X012933Y009030D03*
X011798Y009115D03*
X014718Y009270D03*
X015068Y009095D03*
X015078Y009040D03*
X015263Y009270D03*
D48*
X014538Y009285D03*
X014368Y009105D03*
X014443Y008960D03*
X014223Y009020D03*
X014098Y009030D03*
X013658Y009030D03*
X012578Y009275D03*
X012173Y009255D03*
X011963Y009255D03*
X011963Y009260D03*
X011793Y009085D03*
X011588Y009090D03*
X011588Y009095D03*
X011588Y009250D03*
X012173Y008995D03*
X011043Y009090D03*
X011043Y009095D03*
X011043Y009100D03*
X011043Y009105D03*
X011043Y009110D03*
X011043Y009115D03*
X011043Y009120D03*
X011043Y009125D03*
X011043Y009130D03*
X011043Y009135D03*
X011043Y009140D03*
X011043Y009145D03*
X011043Y009150D03*
X011043Y009155D03*
X011043Y009160D03*
X011043Y009165D03*
X011043Y009170D03*
X011043Y009175D03*
X011043Y009180D03*
X011043Y009185D03*
X011043Y009190D03*
X011043Y009195D03*
X011043Y009200D03*
X011043Y009205D03*
X011043Y009210D03*
X011043Y009215D03*
X011043Y009220D03*
X011043Y009225D03*
X011043Y009230D03*
X011043Y009235D03*
X011043Y009240D03*
X011043Y009245D03*
X011043Y009250D03*
X012143Y012140D03*
D49*
X014116Y009350D03*
X014471Y009020D03*
X014544Y008960D03*
X013044Y009020D03*
D50*
X014689Y008960D03*
D51*
X014889Y009290D03*
X015074Y009105D03*
X015171Y008960D03*
X015241Y009020D03*
X015244Y009290D03*
X014381Y009290D03*
X013836Y009275D03*
X013666Y009290D03*
X013459Y009290D03*
X013309Y009290D03*
X012941Y009105D03*
X012941Y009020D03*
X012746Y009290D03*
X012174Y009250D03*
X012174Y009245D03*
X012174Y009240D03*
X012174Y009235D03*
X012174Y009230D03*
X012174Y009225D03*
X012174Y009220D03*
X012174Y009215D03*
X012174Y009210D03*
X012174Y009205D03*
X012174Y009200D03*
X012174Y009195D03*
X012174Y009190D03*
X012174Y009185D03*
X012174Y009180D03*
X012174Y009175D03*
X012174Y009170D03*
X012174Y009165D03*
X012174Y009160D03*
X012174Y009155D03*
X012174Y009150D03*
X012174Y009145D03*
X012174Y009140D03*
X012174Y009135D03*
X012174Y009130D03*
X012174Y009125D03*
X012174Y009120D03*
X012174Y009115D03*
X012174Y009110D03*
X012174Y009105D03*
X012174Y009100D03*
X012174Y009095D03*
X012174Y009090D03*
X012174Y009085D03*
X012174Y009080D03*
X012174Y009075D03*
X012174Y009070D03*
X012174Y009065D03*
X012174Y009060D03*
X012174Y009055D03*
X012174Y009050D03*
X012174Y009045D03*
X012174Y009040D03*
X012174Y009035D03*
X012174Y009030D03*
X012174Y009025D03*
X012174Y009020D03*
X012174Y009015D03*
X012174Y009010D03*
X012174Y009005D03*
X012174Y009000D03*
X012171Y009260D03*
X012171Y009265D03*
X011969Y009270D03*
X011966Y009265D03*
X011791Y009260D03*
X011791Y009255D03*
X011791Y009250D03*
X011791Y009080D03*
X011791Y009075D03*
X011691Y008970D03*
X011591Y009075D03*
X011589Y009080D03*
X011589Y009085D03*
X011589Y009100D03*
X011589Y009255D03*
X011589Y009260D03*
X011591Y009270D03*
X011419Y009260D03*
X011419Y009085D03*
X011211Y009080D03*
X011211Y008970D03*
X011039Y009075D03*
X011039Y009080D03*
X011041Y009085D03*
X011041Y009255D03*
X011041Y009260D03*
X011039Y009265D03*
X011039Y009270D03*
X011211Y009265D03*
X010839Y009270D03*
X010836Y009265D03*
X010836Y009085D03*
X010839Y009080D03*
X013506Y009915D03*
X013661Y009025D03*
X013821Y009025D03*
X013961Y012150D03*
D52*
X014553Y008973D03*
X013123Y008973D03*
X010938Y008963D03*
D53*
X011315Y008963D03*
X012155Y008973D03*
X012575Y009483D03*
X013040Y009018D03*
D54*
X013855Y009478D03*
X014910Y009213D03*
X012070Y009383D03*
X011690Y008963D03*
D55*
X012761Y008963D03*
X013114Y008963D03*
X013261Y008963D03*
X014544Y008963D03*
X014689Y008963D03*
D56*
X014540Y009203D03*
X014395Y009298D03*
X013740Y008963D03*
X013015Y008963D03*
X012585Y009288D03*
X011600Y009288D03*
X011600Y009058D03*
X011030Y009288D03*
X013960Y012143D03*
X015170Y008963D03*
D57*
X014166Y008963D03*
X014096Y009028D03*
X014029Y008963D03*
X013819Y009023D03*
X013124Y009208D03*
X012579Y009278D03*
X012174Y009253D03*
X012174Y009248D03*
X012174Y009243D03*
X012174Y009238D03*
X012174Y009233D03*
X012174Y009228D03*
X012174Y009223D03*
X012174Y009218D03*
X012174Y009213D03*
X012174Y009208D03*
X012174Y009203D03*
X012174Y009198D03*
X012174Y009193D03*
X012174Y009188D03*
X012174Y009183D03*
X012174Y009178D03*
X012174Y009173D03*
X012174Y009168D03*
X012174Y009163D03*
X012174Y009158D03*
X012174Y009153D03*
X012174Y009148D03*
X012174Y009143D03*
X012174Y009138D03*
X012174Y009133D03*
X012174Y009128D03*
X012174Y009123D03*
X012174Y009118D03*
X012174Y009113D03*
X012174Y009108D03*
X012174Y009103D03*
X012174Y009098D03*
X012174Y009093D03*
X012174Y009088D03*
X012174Y009083D03*
X012174Y009078D03*
X012174Y009073D03*
X012174Y009068D03*
X012174Y009063D03*
X012174Y009058D03*
X012174Y009053D03*
X012174Y009048D03*
X012174Y009043D03*
X012174Y009038D03*
X012174Y009033D03*
X012174Y009028D03*
X012174Y009023D03*
X012174Y009018D03*
X012174Y009013D03*
X012174Y009008D03*
X012174Y009003D03*
X012174Y008998D03*
X012171Y009263D03*
X011791Y009258D03*
X011791Y009253D03*
X011791Y009078D03*
X011589Y009083D03*
X011589Y009088D03*
X011589Y009103D03*
X011589Y009258D03*
X011589Y009263D03*
X011419Y009263D03*
X011416Y009268D03*
X011419Y009083D03*
X011416Y009078D03*
X011211Y009083D03*
X011041Y009083D03*
X011041Y009088D03*
X011039Y009078D03*
X011041Y009258D03*
X011041Y009263D03*
X011039Y009268D03*
X011211Y009263D03*
X010839Y009268D03*
X010839Y009273D03*
X010836Y009263D03*
X010836Y009088D03*
X010839Y009083D03*
X010839Y009078D03*
X012639Y009903D03*
D58*
X013099Y009293D03*
X013314Y009293D03*
X012946Y009018D03*
X011781Y009058D03*
X011596Y009063D03*
X011596Y009283D03*
X011784Y009283D03*
X011786Y009278D03*
X011224Y009288D03*
X011034Y009283D03*
X010846Y009288D03*
X010846Y009063D03*
X011031Y009063D03*
X011034Y009068D03*
X011216Y009068D03*
X014441Y008963D03*
X014884Y009293D03*
X015239Y009293D03*
X015236Y009018D03*
D59*
X015278Y009095D03*
X014708Y009240D03*
X014348Y009220D03*
X014238Y009220D03*
X014238Y009225D03*
X014238Y009230D03*
X014238Y009235D03*
X014238Y009240D03*
X014238Y009245D03*
X014238Y009250D03*
X014238Y009255D03*
X014238Y009260D03*
X014238Y009265D03*
X014238Y009270D03*
X014238Y009275D03*
X014238Y009280D03*
X014238Y009285D03*
X014238Y009290D03*
X014238Y009295D03*
X014238Y009300D03*
X014238Y009305D03*
X014238Y009310D03*
X014238Y009315D03*
X014238Y009320D03*
X014238Y009325D03*
X014238Y009215D03*
X014238Y009210D03*
X014238Y009205D03*
X014238Y009200D03*
X014238Y009195D03*
X014238Y009190D03*
X014238Y009185D03*
X014238Y009180D03*
X014238Y009175D03*
X014238Y009170D03*
X014238Y009165D03*
X014238Y009160D03*
X014238Y009155D03*
X014238Y009150D03*
X014238Y009145D03*
X014238Y009140D03*
X014238Y009135D03*
X014238Y009130D03*
X014238Y009125D03*
X014238Y009120D03*
X014238Y009115D03*
X014238Y009110D03*
X014238Y009105D03*
X014238Y009100D03*
X014238Y009095D03*
X014238Y009090D03*
X014238Y009085D03*
X014238Y009080D03*
X014238Y009075D03*
X014238Y009070D03*
X014238Y009065D03*
X012923Y009235D03*
X012778Y009220D03*
X012778Y009215D03*
X012778Y009210D03*
X012778Y009205D03*
X012778Y009200D03*
X012778Y009195D03*
X012778Y009190D03*
X012778Y009185D03*
X012778Y009180D03*
X012778Y009175D03*
X012778Y009170D03*
X012778Y009165D03*
X012778Y009160D03*
X012778Y009155D03*
X012778Y009150D03*
X012778Y009145D03*
X012778Y009140D03*
X012778Y009135D03*
X012778Y009130D03*
X012778Y009125D03*
X012778Y009120D03*
X012778Y009115D03*
X012778Y009110D03*
X012778Y009105D03*
X012778Y009100D03*
X012778Y009095D03*
X012778Y009090D03*
X012778Y009085D03*
X012778Y009080D03*
X012778Y009075D03*
X012778Y009070D03*
X012778Y009065D03*
X012778Y009060D03*
X012778Y009055D03*
X012778Y009050D03*
X012778Y009045D03*
X012778Y009040D03*
X012778Y009035D03*
X012778Y009030D03*
X012778Y009025D03*
X012778Y009020D03*
X012778Y009015D03*
X012778Y009010D03*
X012778Y009005D03*
X012778Y009000D03*
X010938Y008965D03*
D60*
X010835Y009090D03*
X010835Y009255D03*
X010835Y009260D03*
X011210Y009260D03*
X011210Y009255D03*
X011210Y009090D03*
X011210Y009085D03*
X011210Y008965D03*
X011420Y009090D03*
X011420Y009095D03*
X011420Y009245D03*
X011420Y009250D03*
X011420Y009255D03*
X011960Y009250D03*
X011960Y009245D03*
X011960Y009240D03*
X011960Y009235D03*
X011960Y009230D03*
X011960Y009225D03*
X011960Y009220D03*
X011960Y009215D03*
X011960Y009210D03*
X011960Y009205D03*
X011960Y009200D03*
X011960Y009195D03*
X011960Y009190D03*
X011960Y009185D03*
X011960Y009180D03*
X011960Y009175D03*
X011960Y009170D03*
X011960Y009165D03*
X011960Y009160D03*
X011960Y009155D03*
X011960Y009150D03*
X011960Y009145D03*
X011960Y009140D03*
X011960Y009135D03*
X011960Y009130D03*
X011960Y009125D03*
X011960Y009120D03*
X011960Y009115D03*
X011960Y009110D03*
X011960Y009105D03*
X011960Y009100D03*
X011960Y009095D03*
X011960Y009090D03*
X011960Y009085D03*
X011960Y009080D03*
X011960Y009075D03*
X011960Y009070D03*
X011960Y009065D03*
X011960Y009060D03*
X011960Y009055D03*
X011960Y009050D03*
X011960Y009045D03*
X011960Y009040D03*
X011960Y009035D03*
X011960Y009030D03*
X011960Y009025D03*
X011960Y009020D03*
X011960Y009015D03*
X011960Y009010D03*
X011960Y009005D03*
X011960Y009000D03*
X012125Y009765D03*
X013660Y009285D03*
X013825Y009030D03*
X015090Y009025D03*
X015255Y009280D03*
D61*
X014915Y009220D03*
X014705Y009220D03*
X014705Y009225D03*
X014705Y009230D03*
X014705Y009215D03*
X014705Y009210D03*
X014705Y009205D03*
X014705Y009200D03*
X014705Y009195D03*
X014705Y009190D03*
X014705Y009185D03*
X014705Y009180D03*
X014705Y009175D03*
X014705Y009170D03*
X014705Y009165D03*
X014705Y009160D03*
X014705Y009155D03*
X014705Y009150D03*
X014705Y009145D03*
X014705Y009140D03*
X014705Y009135D03*
X014705Y009130D03*
X014705Y009125D03*
X014705Y009120D03*
X014705Y009115D03*
X014705Y009110D03*
X014705Y009105D03*
X014705Y009100D03*
X014705Y009095D03*
X014705Y009090D03*
X014705Y009085D03*
X014705Y009080D03*
X014705Y009075D03*
X014705Y009070D03*
X014705Y009065D03*
X014705Y009060D03*
X014705Y009055D03*
X014705Y009050D03*
X014705Y009045D03*
X014705Y009040D03*
X014705Y009035D03*
X014705Y009030D03*
X014705Y009025D03*
X014705Y009020D03*
X014705Y009015D03*
X014705Y009010D03*
X014705Y009005D03*
X014705Y009000D03*
X014705Y008995D03*
X014705Y008990D03*
X014705Y008985D03*
X014560Y008990D03*
X014560Y008995D03*
X014560Y009000D03*
X014560Y009005D03*
X014560Y009010D03*
X014560Y009015D03*
X014560Y009020D03*
X014560Y009025D03*
X014560Y009030D03*
X014560Y009035D03*
X014560Y009040D03*
X014560Y009045D03*
X014560Y009050D03*
X014560Y009055D03*
X014560Y009060D03*
X014560Y009065D03*
X014560Y009070D03*
X014560Y009075D03*
X014560Y009080D03*
X014560Y009085D03*
X014560Y009090D03*
X014560Y009095D03*
X014560Y009100D03*
X014560Y009105D03*
X014560Y009110D03*
X014560Y009115D03*
X014560Y009120D03*
X014560Y009125D03*
X014560Y009130D03*
X014560Y009135D03*
X014560Y009140D03*
X014560Y009230D03*
X014560Y009235D03*
X014100Y009330D03*
X013960Y009330D03*
X013960Y009325D03*
X013490Y009230D03*
X013490Y009225D03*
X012920Y009220D03*
X012920Y009215D03*
X012565Y008990D03*
X012565Y008985D03*
X011690Y008965D03*
X011315Y008965D03*
D62*
X012548Y008965D03*
D63*
X012761Y008965D03*
X013116Y008965D03*
X013261Y008965D03*
X012151Y008970D03*
X011819Y009140D03*
X014901Y009205D03*
D64*
X015230Y009015D03*
X013095Y009295D03*
X013015Y008965D03*
X012150Y009295D03*
X011780Y009290D03*
X010850Y009055D03*
D65*
X010854Y009295D03*
X011021Y009295D03*
X011231Y009295D03*
X011399Y009295D03*
X011399Y009050D03*
X011599Y009115D03*
X011984Y009295D03*
X012954Y009115D03*
X013684Y009300D03*
X013826Y009290D03*
X013741Y008965D03*
X014029Y008970D03*
X014166Y008970D03*
X014399Y009300D03*
X014536Y009200D03*
X015109Y009300D03*
X015169Y008965D03*
D66*
X015096Y009020D03*
X014166Y008965D03*
X014029Y008965D03*
X013834Y009280D03*
X013104Y009290D03*
X012066Y009375D03*
X011974Y009280D03*
X011971Y009275D03*
X011789Y009070D03*
X011786Y009065D03*
X011411Y009070D03*
X011409Y009065D03*
X011314Y008970D03*
X011214Y009075D03*
X011036Y009070D03*
X010841Y009070D03*
X010841Y009280D03*
X011036Y009275D03*
X011409Y009280D03*
X011411Y009275D03*
D67*
X011773Y009050D03*
X012588Y009290D03*
X014383Y009115D03*
X014443Y008965D03*
X015083Y009110D03*
D68*
X015290Y009110D03*
X014690Y008965D03*
X014545Y008965D03*
X013975Y009345D03*
X013740Y009355D03*
D69*
X014098Y009038D03*
X014553Y009213D03*
X014548Y009273D03*
X014903Y009273D03*
X015083Y009278D03*
X015168Y009353D03*
X015068Y009098D03*
X015073Y009048D03*
X015078Y009043D03*
X015258Y009038D03*
X013503Y009908D03*
X013118Y009273D03*
X012938Y009273D03*
X012763Y009273D03*
X012573Y009263D03*
X012933Y009033D03*
X012168Y008988D03*
X011798Y009118D03*
X010938Y008968D03*
X012643Y009898D03*
D70*
X013305Y009288D03*
X013660Y009028D03*
X014535Y009288D03*
X015090Y009288D03*
X015265Y009218D03*
X011965Y009263D03*
X011960Y009248D03*
X011960Y009243D03*
X011960Y009238D03*
X011960Y009233D03*
X011960Y009228D03*
X011960Y009223D03*
X011960Y009218D03*
X011960Y009213D03*
X011960Y009208D03*
X011960Y009203D03*
X011960Y009198D03*
X011960Y009193D03*
X011960Y009188D03*
X011960Y009183D03*
X011960Y009178D03*
X011960Y009173D03*
X011960Y009168D03*
X011960Y009163D03*
X011960Y009158D03*
X011960Y009153D03*
X011960Y009148D03*
X011960Y009143D03*
X011960Y009138D03*
X011960Y009133D03*
X011960Y009128D03*
X011960Y009123D03*
X011960Y009118D03*
X011960Y009113D03*
X011960Y009108D03*
X011960Y009103D03*
X011960Y009098D03*
X011960Y009093D03*
X011960Y009088D03*
X011960Y009083D03*
X011960Y009078D03*
X011960Y009073D03*
X011960Y009068D03*
X011960Y009063D03*
X011960Y009058D03*
X011960Y009053D03*
X011960Y009048D03*
X011960Y009043D03*
X011960Y009038D03*
X011960Y009033D03*
X011960Y009028D03*
X011960Y009023D03*
X011960Y009018D03*
X011960Y009013D03*
X011960Y009008D03*
X011960Y009003D03*
X011960Y008998D03*
X011420Y009088D03*
X011420Y009093D03*
X011420Y009098D03*
X011420Y009248D03*
X011420Y009253D03*
X011420Y009258D03*
X011210Y009258D03*
X011210Y009253D03*
X011210Y009093D03*
X011210Y009088D03*
X011210Y008968D03*
X010835Y009258D03*
D71*
X011690Y008968D03*
X012570Y009258D03*
X012765Y009268D03*
X012930Y009258D03*
X013125Y009263D03*
X013130Y009253D03*
X013285Y009258D03*
X013645Y009258D03*
X013845Y009253D03*
X013845Y009343D03*
X013840Y009053D03*
X013965Y009038D03*
X013965Y009033D03*
X013645Y009053D03*
X012925Y009048D03*
X014350Y009048D03*
X014350Y009053D03*
X014350Y009058D03*
X014350Y009063D03*
X014350Y009068D03*
X014350Y009073D03*
X014350Y009078D03*
X014360Y009263D03*
X014715Y009263D03*
X014910Y009263D03*
X014915Y009248D03*
X015065Y009243D03*
X015070Y009263D03*
X015065Y009173D03*
X015065Y009088D03*
X015065Y009068D03*
X015265Y009053D03*
X015265Y009048D03*
D72*
X014115Y009348D03*
X013480Y009208D03*
X012550Y008968D03*
X012655Y009883D03*
D73*
X012908Y009203D03*
X012763Y008968D03*
D74*
X013014Y008968D03*
X012591Y009293D03*
X012144Y009303D03*
X011986Y009298D03*
X011771Y009298D03*
X011601Y009118D03*
X011611Y009048D03*
X011236Y009303D03*
X011014Y009043D03*
X010861Y009303D03*
X014441Y008968D03*
X014534Y009198D03*
X014811Y009348D03*
D75*
X014113Y009343D03*
X013118Y008968D03*
X011943Y008973D03*
D76*
X013264Y008968D03*
X013974Y009343D03*
X014334Y009203D03*
X014546Y008968D03*
X014691Y008968D03*
D77*
X014391Y009123D03*
X014166Y008973D03*
X013741Y008968D03*
X013741Y009343D03*
X013519Y009928D03*
X013109Y009198D03*
X012966Y009123D03*
X012626Y009913D03*
X011991Y009303D03*
X011766Y009303D03*
X011391Y009303D03*
X011391Y009043D03*
X010864Y009043D03*
X012144Y012128D03*
X013959Y012138D03*
X015249Y009203D03*
X015089Y009118D03*
X015169Y008968D03*
D78*
X014168Y008968D03*
X014098Y009023D03*
X014028Y008968D03*
X011978Y009288D03*
X011218Y009063D03*
D79*
X011418Y009080D03*
X011593Y009070D03*
X011593Y009275D03*
X011418Y009265D03*
X010938Y008970D03*
X012168Y009270D03*
X014023Y009795D03*
X014738Y009290D03*
X015093Y009290D03*
X015263Y009215D03*
D80*
X014455Y009355D03*
X014330Y009200D03*
X012905Y009200D03*
X012670Y009355D03*
X012655Y009880D03*
X011940Y008970D03*
D81*
X012551Y008970D03*
X012909Y009205D03*
X013266Y008970D03*
X013971Y009340D03*
X014336Y009205D03*
X014549Y008970D03*
X012651Y009885D03*
D82*
X012125Y009750D03*
X012765Y008970D03*
D83*
X013013Y008970D03*
X013328Y009300D03*
X013518Y009925D03*
X012673Y009345D03*
X012128Y009775D03*
X011778Y009235D03*
X011763Y009040D03*
X011613Y009045D03*
X011603Y009120D03*
X015088Y009115D03*
X015168Y009345D03*
D84*
X014110Y009340D03*
X013120Y008970D03*
D85*
X012973Y009125D03*
X013743Y008970D03*
X013818Y009295D03*
X014528Y009190D03*
X015168Y008970D03*
X012128Y009780D03*
X011998Y009305D03*
D86*
X011620Y009040D03*
X011010Y009040D03*
X012595Y009295D03*
X012625Y009915D03*
X014440Y008970D03*
D87*
X014693Y008970D03*
X012578Y009485D03*
D88*
X012958Y009118D03*
X013323Y009298D03*
X011018Y009298D03*
X010938Y009373D03*
X011018Y009048D03*
X010938Y008973D03*
D89*
X011214Y008973D03*
X011409Y009063D03*
X011411Y009068D03*
X011594Y009068D03*
X011594Y009278D03*
X011409Y009283D03*
X011219Y009278D03*
X011216Y009273D03*
X010844Y009283D03*
X011789Y009273D03*
X011789Y009243D03*
X011971Y009278D03*
X011974Y009283D03*
X012164Y009278D03*
X012166Y009273D03*
X012581Y009283D03*
X012741Y009293D03*
X012959Y009293D03*
X013671Y009293D03*
X013509Y009918D03*
X014386Y009293D03*
X014371Y009108D03*
D90*
X014875Y009298D03*
X015085Y009113D03*
X013385Y009348D03*
X011765Y009043D03*
X011610Y009298D03*
X011690Y009373D03*
X011395Y009048D03*
X011315Y008973D03*
X010855Y009298D03*
D91*
X011024Y009053D03*
X011234Y009298D03*
X011316Y009373D03*
X011396Y009298D03*
X011604Y009053D03*
X011691Y008973D03*
X012066Y009373D03*
X012149Y009298D03*
X012951Y009113D03*
X013091Y009298D03*
X013029Y009348D03*
X013741Y009348D03*
X014021Y009803D03*
X014456Y009348D03*
X014516Y009298D03*
X014384Y009118D03*
X014749Y009298D03*
X015231Y009298D03*
X012144Y012133D03*
D92*
X012125Y009753D03*
X011690Y009383D03*
X010940Y009383D03*
X012555Y008973D03*
X013485Y009213D03*
X014340Y009208D03*
D93*
X014696Y008973D03*
X013859Y009483D03*
X013269Y008973D03*
X012769Y008973D03*
D94*
X013010Y008973D03*
X013105Y009193D03*
X014810Y009343D03*
D95*
X013743Y008973D03*
X013098Y009188D03*
D96*
X013823Y009293D03*
X014028Y008973D03*
X011013Y009303D03*
X010858Y009048D03*
D97*
X011773Y009228D03*
X012598Y009298D03*
X012623Y009918D03*
X013523Y009933D03*
X014438Y008973D03*
D98*
X014418Y009138D03*
X014523Y009188D03*
X015168Y008973D03*
X012983Y009133D03*
X011768Y009223D03*
D99*
X010938Y009370D03*
X010938Y008975D03*
X015168Y009340D03*
D100*
X014014Y009845D03*
X012641Y009335D03*
X012066Y009340D03*
X012134Y009815D03*
X011314Y009340D03*
X011274Y008975D03*
X010939Y009340D03*
X012149Y012090D03*
D101*
X013959Y012135D03*
X014019Y009810D03*
X014399Y009125D03*
X011691Y008975D03*
X011006Y009305D03*
D102*
X011811Y009135D03*
X011946Y008975D03*
X013486Y009215D03*
X014024Y009780D03*
D103*
X014343Y009210D03*
X013273Y008975D03*
X012773Y008975D03*
X012158Y008975D03*
D104*
X012560Y008975D03*
X014555Y008975D03*
D105*
X014434Y008975D03*
X014406Y009130D03*
X014811Y009340D03*
X013524Y009935D03*
X013029Y009340D03*
X013101Y009190D03*
X012979Y009130D03*
X013009Y008975D03*
X012601Y009300D03*
X011611Y009125D03*
D106*
X012068Y009365D03*
X012613Y009925D03*
X013008Y009145D03*
X013743Y008975D03*
X014018Y009820D03*
X015183Y009165D03*
X015168Y008975D03*
X010938Y008980D03*
D107*
X011315Y009370D03*
X011690Y009370D03*
X011770Y009225D03*
X012065Y009370D03*
X013385Y009340D03*
X013740Y009340D03*
X014030Y008975D03*
X014455Y009340D03*
X015240Y009195D03*
D108*
X014413Y009135D03*
X014163Y008975D03*
X012128Y009785D03*
D109*
X012571Y009475D03*
X013036Y009015D03*
X013854Y009475D03*
X014104Y009335D03*
X014241Y009335D03*
X014701Y008975D03*
X014911Y009215D03*
D110*
X015101Y009128D03*
X015229Y009188D03*
X014456Y009338D03*
X014431Y008983D03*
X014019Y009818D03*
X013029Y009338D03*
X012616Y009923D03*
X012129Y009788D03*
X012066Y009368D03*
X011691Y008978D03*
X011314Y009368D03*
X010939Y008978D03*
X013959Y012128D03*
D111*
X012134Y009818D03*
X011691Y009338D03*
X011314Y009338D03*
X011276Y008978D03*
X010939Y009008D03*
X010939Y009338D03*
X012644Y009333D03*
X015169Y009008D03*
D112*
X014913Y009218D03*
X014558Y008978D03*
X012563Y008978D03*
X011948Y008978D03*
D113*
X012160Y008978D03*
X012570Y009473D03*
X013275Y008978D03*
X014240Y009333D03*
X014345Y009213D03*
X012140Y012153D03*
D114*
X013496Y009903D03*
X014024Y009783D03*
X015281Y009103D03*
X012774Y008978D03*
X011809Y009133D03*
D115*
X011615Y009128D03*
X012990Y009138D03*
X013005Y008978D03*
D116*
X012921Y009063D03*
X012921Y009068D03*
X012921Y009223D03*
X012921Y009228D03*
X012924Y009238D03*
X012924Y009243D03*
X012926Y009248D03*
X012776Y009238D03*
X012776Y009233D03*
X012776Y009228D03*
X012776Y009223D03*
X012774Y009248D03*
X012566Y009228D03*
X012566Y009223D03*
X012566Y009218D03*
X012566Y009213D03*
X012566Y009208D03*
X012566Y009203D03*
X012566Y009198D03*
X012566Y009193D03*
X012566Y009188D03*
X012566Y009183D03*
X012566Y009178D03*
X012566Y009173D03*
X012566Y009168D03*
X012566Y009163D03*
X012566Y009158D03*
X012566Y009153D03*
X012566Y009148D03*
X012566Y009143D03*
X012566Y009138D03*
X012566Y009133D03*
X012566Y009128D03*
X012566Y009123D03*
X012566Y009118D03*
X012566Y009113D03*
X012566Y009108D03*
X012566Y009103D03*
X012566Y009098D03*
X012566Y009093D03*
X012566Y009088D03*
X012566Y009083D03*
X012566Y009078D03*
X012566Y009073D03*
X012566Y009068D03*
X012566Y009063D03*
X012566Y009058D03*
X012566Y009053D03*
X012566Y009048D03*
X012566Y009043D03*
X012566Y009038D03*
X012566Y009033D03*
X012566Y009028D03*
X012566Y009023D03*
X012566Y009018D03*
X012566Y009013D03*
X012566Y009008D03*
X012566Y009003D03*
X012566Y008998D03*
X012566Y009348D03*
X012566Y009353D03*
X012566Y009358D03*
X012566Y009363D03*
X012566Y009368D03*
X012566Y009373D03*
X012566Y009378D03*
X012566Y009383D03*
X012566Y009388D03*
X012566Y009393D03*
X012566Y009398D03*
X012566Y009403D03*
X012566Y009408D03*
X012566Y009413D03*
X012566Y009418D03*
X012566Y009423D03*
X012566Y009428D03*
X012566Y009433D03*
X012566Y009438D03*
X012566Y009443D03*
X012566Y009448D03*
X012566Y009453D03*
X012566Y009458D03*
X012566Y009463D03*
X012644Y009893D03*
X013131Y008978D03*
X013279Y008988D03*
X013491Y009233D03*
X013489Y009238D03*
X013636Y009238D03*
X013639Y009248D03*
X013636Y009073D03*
X013639Y009068D03*
X013959Y009068D03*
X013959Y009073D03*
X013959Y009078D03*
X013959Y009083D03*
X013959Y009088D03*
X013959Y009093D03*
X013959Y009098D03*
X013959Y009103D03*
X013959Y009108D03*
X013959Y009113D03*
X013959Y009118D03*
X013959Y009123D03*
X013959Y009128D03*
X013959Y009133D03*
X013959Y009138D03*
X013959Y009143D03*
X013959Y009148D03*
X013959Y009153D03*
X013959Y009158D03*
X013959Y009163D03*
X013959Y009168D03*
X013959Y009173D03*
X013959Y009178D03*
X013959Y009183D03*
X013959Y009188D03*
X013959Y009193D03*
X013959Y009198D03*
X013959Y009203D03*
X013959Y009208D03*
X013959Y009213D03*
X013959Y009218D03*
X013959Y009223D03*
X013959Y009228D03*
X013959Y009233D03*
X013959Y009238D03*
X013959Y009243D03*
X013959Y009248D03*
X013959Y009253D03*
X013959Y009258D03*
X013959Y009263D03*
X013959Y009268D03*
X013959Y009273D03*
X013959Y009278D03*
X013959Y009283D03*
X013959Y009288D03*
X013959Y009293D03*
X013959Y009298D03*
X013959Y009303D03*
X013959Y009308D03*
X013959Y009313D03*
X013959Y009318D03*
X013959Y009323D03*
X014099Y009323D03*
X014099Y009328D03*
X014099Y009318D03*
X014099Y009313D03*
X014099Y009308D03*
X014099Y009303D03*
X014099Y009298D03*
X014099Y009293D03*
X014099Y009288D03*
X014099Y009283D03*
X014099Y009278D03*
X014099Y009273D03*
X014099Y009268D03*
X014099Y009263D03*
X014099Y009258D03*
X014099Y009253D03*
X014099Y009248D03*
X014099Y009243D03*
X014099Y009238D03*
X014099Y009233D03*
X014099Y009228D03*
X014099Y009223D03*
X014099Y009218D03*
X014099Y009213D03*
X014099Y009208D03*
X014099Y009203D03*
X014099Y009198D03*
X014099Y009193D03*
X014099Y009188D03*
X014099Y009183D03*
X014099Y009178D03*
X014099Y009173D03*
X013959Y009063D03*
X013961Y009058D03*
X014349Y009223D03*
X014559Y009223D03*
X014559Y009243D03*
X014559Y009148D03*
X014559Y009143D03*
X014706Y009233D03*
X014706Y009238D03*
X014709Y009243D03*
X014916Y009223D03*
X015271Y009243D03*
X015274Y009233D03*
X015276Y009093D03*
X015276Y009088D03*
X015276Y009083D03*
X015274Y009078D03*
X015274Y009073D03*
X015271Y009068D03*
D117*
X014511Y009178D03*
X013741Y008978D03*
X012989Y009003D03*
X014016Y009823D03*
X011691Y009363D03*
X010939Y009363D03*
D118*
X012138Y009838D03*
X014098Y008978D03*
D119*
X014434Y008978D03*
X013526Y009938D03*
D120*
X013851Y009473D03*
X013961Y009333D03*
X014101Y009333D03*
X014346Y009218D03*
X014559Y008983D03*
X014704Y008978D03*
X013489Y009223D03*
X012919Y009213D03*
X012776Y008993D03*
X012776Y008988D03*
X012776Y008983D03*
D121*
X012068Y009363D03*
X014413Y009008D03*
X014418Y009003D03*
X015168Y008978D03*
D122*
X015169Y009010D03*
X013741Y009010D03*
X013769Y009330D03*
X011691Y009335D03*
X011279Y008980D03*
X010939Y009010D03*
X010939Y009335D03*
D123*
X011315Y009365D03*
X011620Y009135D03*
X011690Y008980D03*
X012130Y009790D03*
X012995Y008990D03*
X014425Y008990D03*
D124*
X014236Y009060D03*
X014099Y009175D03*
X014099Y009180D03*
X014099Y009185D03*
X014099Y009190D03*
X014099Y009195D03*
X014099Y009200D03*
X014099Y009205D03*
X014099Y009210D03*
X014099Y009215D03*
X014099Y009220D03*
X014099Y009225D03*
X014099Y009230D03*
X014099Y009235D03*
X014099Y009240D03*
X014099Y009245D03*
X014099Y009250D03*
X014099Y009255D03*
X014099Y009260D03*
X014099Y009265D03*
X014099Y009270D03*
X014099Y009275D03*
X014099Y009280D03*
X014099Y009285D03*
X014099Y009290D03*
X014099Y009295D03*
X014099Y009300D03*
X014099Y009305D03*
X014099Y009310D03*
X014099Y009315D03*
X014099Y009320D03*
X014099Y009325D03*
X013959Y009320D03*
X013959Y009315D03*
X013959Y009310D03*
X013959Y009305D03*
X013959Y009300D03*
X013959Y009295D03*
X013959Y009290D03*
X013959Y009285D03*
X013959Y009280D03*
X013959Y009275D03*
X013959Y009270D03*
X013959Y009265D03*
X013959Y009260D03*
X013959Y009255D03*
X013959Y009250D03*
X013959Y009245D03*
X013959Y009240D03*
X013959Y009235D03*
X013959Y009230D03*
X013959Y009225D03*
X013959Y009220D03*
X013959Y009215D03*
X013959Y009210D03*
X013959Y009205D03*
X013959Y009200D03*
X013959Y009195D03*
X013959Y009190D03*
X013959Y009185D03*
X013959Y009180D03*
X013959Y009175D03*
X013959Y009170D03*
X013959Y009165D03*
X013959Y009160D03*
X013959Y009155D03*
X013959Y009150D03*
X013959Y009145D03*
X013959Y009140D03*
X013959Y009135D03*
X013959Y009130D03*
X013959Y009125D03*
X013959Y009120D03*
X013959Y009115D03*
X013959Y009110D03*
X013959Y009105D03*
X013959Y009100D03*
X013959Y009095D03*
X013959Y009090D03*
X013959Y009085D03*
X013959Y009080D03*
X013959Y009075D03*
X013959Y009070D03*
X013959Y009065D03*
X013959Y009060D03*
X013961Y009055D03*
X013639Y009065D03*
X013636Y009075D03*
X013639Y009245D03*
X013491Y009235D03*
X013489Y009240D03*
X013279Y008990D03*
X013279Y008985D03*
X012921Y009060D03*
X012921Y009065D03*
X012921Y009225D03*
X012921Y009230D03*
X012924Y009240D03*
X012926Y009245D03*
X012776Y009240D03*
X012776Y009235D03*
X012776Y009230D03*
X012776Y009225D03*
X012566Y009225D03*
X012566Y009220D03*
X012566Y009215D03*
X012566Y009210D03*
X012566Y009205D03*
X012566Y009200D03*
X012566Y009195D03*
X012566Y009190D03*
X012566Y009185D03*
X012566Y009180D03*
X012566Y009175D03*
X012566Y009170D03*
X012566Y009165D03*
X012566Y009160D03*
X012566Y009155D03*
X012566Y009150D03*
X012566Y009145D03*
X012566Y009140D03*
X012566Y009135D03*
X012566Y009130D03*
X012566Y009125D03*
X012566Y009120D03*
X012566Y009115D03*
X012566Y009110D03*
X012566Y009105D03*
X012566Y009100D03*
X012566Y009095D03*
X012566Y009090D03*
X012566Y009085D03*
X012566Y009080D03*
X012566Y009075D03*
X012566Y009070D03*
X012566Y009065D03*
X012566Y009060D03*
X012566Y009055D03*
X012566Y009050D03*
X012566Y009045D03*
X012566Y009040D03*
X012566Y009035D03*
X012566Y009030D03*
X012566Y009025D03*
X012566Y009020D03*
X012566Y009015D03*
X012566Y009010D03*
X012566Y009005D03*
X012566Y009000D03*
X012566Y008995D03*
X012566Y009350D03*
X012566Y009355D03*
X012566Y009360D03*
X012566Y009365D03*
X012566Y009370D03*
X012566Y009375D03*
X012566Y009380D03*
X012566Y009385D03*
X012566Y009390D03*
X012566Y009395D03*
X012566Y009400D03*
X012566Y009405D03*
X012566Y009410D03*
X012566Y009415D03*
X012566Y009420D03*
X012566Y009425D03*
X012566Y009430D03*
X012566Y009435D03*
X012566Y009440D03*
X012566Y009445D03*
X012566Y009450D03*
X012566Y009460D03*
X012566Y009465D03*
X012161Y008980D03*
X011949Y008980D03*
X011804Y009125D03*
X011691Y009380D03*
X013849Y009470D03*
X014349Y009225D03*
X014559Y009225D03*
X014559Y009240D03*
X014559Y009245D03*
X014559Y009145D03*
X014706Y009235D03*
X014709Y009245D03*
X014916Y009225D03*
X015274Y009235D03*
X015276Y009090D03*
X015276Y009085D03*
X015276Y009080D03*
X015274Y009075D03*
X012141Y012150D03*
D125*
X012125Y009755D03*
X012775Y008980D03*
D126*
X013004Y008980D03*
X012996Y009140D03*
X011616Y009130D03*
X014424Y009140D03*
X014519Y009185D03*
D127*
X014558Y009150D03*
X014558Y009220D03*
X014558Y009250D03*
X014353Y009250D03*
X014353Y009245D03*
X014098Y009170D03*
X014098Y009165D03*
X014098Y009160D03*
X014098Y009155D03*
X014098Y009150D03*
X014098Y009145D03*
X014098Y009135D03*
X014098Y009125D03*
X014098Y009115D03*
X014098Y009110D03*
X014098Y009095D03*
X014098Y009085D03*
X014098Y009075D03*
X014098Y009070D03*
X014098Y009065D03*
X013963Y009050D03*
X013848Y009085D03*
X013848Y009090D03*
X013848Y009095D03*
X013848Y009100D03*
X013848Y009120D03*
X013848Y009125D03*
X013848Y009140D03*
X013848Y009145D03*
X013848Y009150D03*
X013848Y009155D03*
X013848Y009160D03*
X013848Y009175D03*
X013848Y009180D03*
X013848Y009185D03*
X013848Y009190D03*
X013848Y009195D03*
X013848Y009205D03*
X013848Y009210D03*
X013848Y009220D03*
X013848Y009225D03*
X013848Y009370D03*
X013848Y009375D03*
X013848Y009380D03*
X013848Y009390D03*
X013848Y009395D03*
X013848Y009405D03*
X013848Y009410D03*
X013848Y009415D03*
X013848Y009420D03*
X013848Y009425D03*
X013848Y009430D03*
X013848Y009435D03*
X013848Y009440D03*
X013848Y009445D03*
X013848Y009465D03*
X013638Y009240D03*
X013488Y009245D03*
X013638Y009070D03*
X013133Y008980D03*
X012923Y009055D03*
X012923Y009070D03*
X012928Y009250D03*
X012773Y009250D03*
X012568Y009245D03*
X012568Y009240D03*
X012568Y009235D03*
X012568Y009230D03*
X012568Y009345D03*
X014918Y009230D03*
X015273Y009240D03*
X015273Y009070D03*
D128*
X015168Y008980D03*
X013743Y008980D03*
X014018Y009825D03*
X012608Y009935D03*
X011753Y009210D03*
X010938Y009360D03*
X013958Y012120D03*
D129*
X014098Y008980D03*
X011683Y009190D03*
D130*
X014433Y008980D03*
D131*
X014448Y009153D03*
X011623Y009138D03*
X010938Y008983D03*
X013958Y012123D03*
D132*
X013555Y009978D03*
X013385Y009303D03*
X011690Y009013D03*
X011280Y008983D03*
X015170Y009303D03*
D133*
X014420Y008998D03*
X013090Y009183D03*
X012990Y008998D03*
X011690Y008983D03*
X011315Y009363D03*
X012145Y012113D03*
D134*
X013963Y012158D03*
X013848Y009468D03*
X013848Y009463D03*
X013848Y009443D03*
X013848Y009438D03*
X013848Y009423D03*
X013848Y009413D03*
X013848Y009403D03*
X013848Y009388D03*
X013848Y009383D03*
X013848Y009373D03*
X013848Y009368D03*
X013848Y009223D03*
X013848Y009218D03*
X013848Y009213D03*
X013848Y009208D03*
X013848Y009203D03*
X013848Y009198D03*
X013848Y009193D03*
X013848Y009188D03*
X013848Y009173D03*
X013848Y009168D03*
X013848Y009163D03*
X013848Y009158D03*
X013848Y009148D03*
X013848Y009143D03*
X013848Y009138D03*
X013848Y009133D03*
X013848Y009128D03*
X013848Y009123D03*
X013848Y009113D03*
X013848Y009108D03*
X013848Y009103D03*
X013848Y009093D03*
X013848Y009088D03*
X013963Y009053D03*
X014098Y009068D03*
X014098Y009073D03*
X014098Y009078D03*
X014098Y009088D03*
X014098Y009093D03*
X014098Y009098D03*
X014098Y009103D03*
X014098Y009118D03*
X014098Y009123D03*
X014098Y009128D03*
X014098Y009148D03*
X014098Y009153D03*
X014098Y009158D03*
X014098Y009163D03*
X014098Y009168D03*
X014353Y009248D03*
X014358Y009258D03*
X014558Y009248D03*
X014713Y009253D03*
X014918Y009228D03*
X015273Y009238D03*
X013643Y009253D03*
X013638Y009243D03*
X013488Y009243D03*
X013643Y009058D03*
X013133Y008983D03*
X012923Y009058D03*
X012923Y009073D03*
X012568Y009233D03*
X012568Y009238D03*
X012568Y009243D03*
X012163Y008983D03*
D135*
X011805Y009128D03*
X012565Y008993D03*
X012565Y008988D03*
X012565Y008983D03*
X012920Y009218D03*
X013490Y009228D03*
X013960Y009328D03*
X014560Y009238D03*
X014560Y009233D03*
X014560Y009228D03*
X014560Y009138D03*
X014560Y009133D03*
X014560Y009128D03*
X014560Y009123D03*
X014560Y009118D03*
X014560Y009113D03*
X014560Y009108D03*
X014560Y009103D03*
X014560Y009098D03*
X014560Y009093D03*
X014560Y009088D03*
X014560Y009083D03*
X014560Y009078D03*
X014560Y009073D03*
X014560Y009068D03*
X014560Y009063D03*
X014560Y009058D03*
X014560Y009053D03*
X014560Y009048D03*
X014560Y009043D03*
X014560Y009038D03*
X014560Y009033D03*
X014560Y009028D03*
X014560Y009023D03*
X014560Y009018D03*
X014560Y009013D03*
X014560Y009008D03*
X014560Y009003D03*
X014560Y008998D03*
X014560Y008993D03*
X014560Y008988D03*
X014705Y008988D03*
X014705Y008993D03*
X014705Y008998D03*
X014705Y009003D03*
X014705Y009008D03*
X014705Y009013D03*
X014705Y009018D03*
X014705Y009023D03*
X014705Y009028D03*
X014705Y009033D03*
X014705Y009038D03*
X014705Y009043D03*
X014705Y009048D03*
X014705Y009053D03*
X014705Y009058D03*
X014705Y009063D03*
X014705Y009068D03*
X014705Y009073D03*
X014705Y009078D03*
X014705Y009083D03*
X014705Y009088D03*
X014705Y009093D03*
X014705Y009098D03*
X014705Y009103D03*
X014705Y009108D03*
X014705Y009113D03*
X014705Y009118D03*
X014705Y009123D03*
X014705Y009128D03*
X014705Y009133D03*
X014705Y009138D03*
X014705Y009143D03*
X014705Y009148D03*
X014705Y009153D03*
X014705Y009158D03*
X014705Y009163D03*
X014705Y009168D03*
X014705Y009173D03*
X014705Y009178D03*
X014705Y009183D03*
X014705Y009188D03*
X014705Y009193D03*
X014705Y009198D03*
X014705Y009203D03*
X014705Y009208D03*
X014705Y009213D03*
X014705Y009218D03*
X014705Y009223D03*
X014705Y009228D03*
X014705Y008983D03*
D136*
X014813Y009338D03*
X015168Y009338D03*
X015198Y009173D03*
X013003Y008983D03*
X011618Y009133D03*
X010938Y009368D03*
D137*
X012568Y009468D03*
X012778Y009218D03*
X012778Y009213D03*
X012778Y009208D03*
X012778Y009203D03*
X012778Y009198D03*
X012778Y009193D03*
X012778Y009188D03*
X012778Y009183D03*
X012778Y009178D03*
X012778Y009173D03*
X012778Y009168D03*
X012778Y009163D03*
X012778Y009158D03*
X012778Y009153D03*
X012778Y009148D03*
X012778Y009143D03*
X012778Y009138D03*
X012778Y009133D03*
X012778Y009128D03*
X012778Y009123D03*
X012778Y009118D03*
X012778Y009113D03*
X012778Y009108D03*
X012778Y009103D03*
X012778Y009098D03*
X012778Y009093D03*
X012778Y009088D03*
X012778Y009083D03*
X012778Y009078D03*
X012778Y009073D03*
X012778Y009068D03*
X012778Y009063D03*
X012778Y009058D03*
X012778Y009053D03*
X012778Y009048D03*
X012778Y009043D03*
X012778Y009038D03*
X012778Y009033D03*
X012778Y009028D03*
X012778Y009023D03*
X012778Y009018D03*
X012778Y009013D03*
X012778Y009008D03*
X012778Y009003D03*
X012778Y008998D03*
X012923Y009233D03*
X013278Y008983D03*
X014238Y009063D03*
X014238Y009068D03*
X014238Y009073D03*
X014238Y009078D03*
X014238Y009083D03*
X014238Y009088D03*
X014238Y009093D03*
X014238Y009098D03*
X014238Y009103D03*
X014238Y009108D03*
X014238Y009113D03*
X014238Y009118D03*
X014238Y009123D03*
X014238Y009128D03*
X014238Y009133D03*
X014238Y009138D03*
X014238Y009143D03*
X014238Y009148D03*
X014238Y009153D03*
X014238Y009158D03*
X014238Y009163D03*
X014238Y009168D03*
X014238Y009173D03*
X014238Y009178D03*
X014238Y009183D03*
X014238Y009188D03*
X014238Y009193D03*
X014238Y009198D03*
X014238Y009203D03*
X014238Y009208D03*
X014238Y009213D03*
X014238Y009218D03*
X014238Y009223D03*
X014238Y009228D03*
X014238Y009233D03*
X014238Y009238D03*
X014238Y009243D03*
X014238Y009248D03*
X014238Y009253D03*
X014238Y009258D03*
X014238Y009263D03*
X014238Y009268D03*
X014238Y009273D03*
X014238Y009278D03*
X014238Y009283D03*
X014238Y009288D03*
X014238Y009293D03*
X014238Y009298D03*
X014238Y009303D03*
X014238Y009308D03*
X014238Y009313D03*
X014238Y009318D03*
X014238Y009323D03*
X014238Y009328D03*
X015278Y009098D03*
D138*
X015168Y008983D03*
X013743Y008983D03*
X012068Y009358D03*
X010938Y009358D03*
D139*
X011308Y009038D03*
X014098Y008983D03*
D140*
X014408Y009015D03*
X014813Y009335D03*
X013533Y009945D03*
X012988Y009005D03*
X010938Y008985D03*
D141*
X011281Y008985D03*
X011689Y009015D03*
X011659Y009170D03*
X012589Y009960D03*
X013766Y009325D03*
X013954Y012095D03*
D142*
X012145Y012110D03*
X011625Y009140D03*
X011690Y008985D03*
X014410Y009010D03*
X014415Y009005D03*
D143*
X014233Y009040D03*
X014233Y009045D03*
X014098Y009050D03*
X014098Y009055D03*
X013838Y009050D03*
X013648Y009265D03*
X013483Y009260D03*
X013283Y009250D03*
X013133Y009240D03*
X013128Y009260D03*
X013133Y009140D03*
X012928Y009085D03*
X012928Y009045D03*
X012933Y009265D03*
X012768Y009260D03*
X012643Y009895D03*
X012068Y009380D03*
X011953Y008985D03*
X014553Y009260D03*
X014913Y009260D03*
X014913Y009255D03*
X015068Y009255D03*
X015073Y009265D03*
X015268Y009255D03*
X015273Y009225D03*
X015068Y009060D03*
D144*
X015065Y009065D03*
X015065Y009070D03*
X015065Y009090D03*
X015065Y009170D03*
X015065Y009245D03*
X015070Y009260D03*
X014915Y009250D03*
X014915Y009245D03*
X014715Y009260D03*
X014550Y009265D03*
X014555Y009215D03*
X014350Y009080D03*
X014350Y009075D03*
X014350Y009070D03*
X014350Y009065D03*
X014350Y009060D03*
X014350Y009055D03*
X014350Y009050D03*
X013965Y009040D03*
X013965Y009035D03*
X013845Y009345D03*
X013645Y009260D03*
X013285Y009260D03*
X013130Y009255D03*
X013130Y009250D03*
X012930Y009260D03*
X012770Y009255D03*
X012570Y009255D03*
X012925Y009080D03*
X012165Y008985D03*
X011800Y009120D03*
X015265Y009050D03*
D145*
X015206Y009175D03*
X015191Y009170D03*
X015224Y009185D03*
X015104Y009130D03*
X013094Y009185D03*
X013001Y008985D03*
X013959Y012125D03*
D146*
X013846Y009460D03*
X013846Y009455D03*
X013846Y009450D03*
X013846Y009400D03*
X013846Y009385D03*
X013846Y009365D03*
X013846Y009360D03*
X013846Y009355D03*
X013846Y009350D03*
X013846Y009250D03*
X013846Y009245D03*
X013846Y009240D03*
X013846Y009235D03*
X013846Y009230D03*
X013846Y009215D03*
X013846Y009200D03*
X013846Y009170D03*
X013846Y009165D03*
X013846Y009135D03*
X013846Y009130D03*
X013846Y009115D03*
X013846Y009110D03*
X013846Y009105D03*
X013846Y009080D03*
X013846Y009075D03*
X013846Y009070D03*
X013844Y009060D03*
X013841Y009055D03*
X013964Y009045D03*
X014096Y009060D03*
X014096Y009080D03*
X014096Y009090D03*
X014096Y009100D03*
X014096Y009105D03*
X014096Y009120D03*
X014096Y009130D03*
X014096Y009140D03*
X014234Y009050D03*
X014351Y009240D03*
X014359Y009260D03*
X014361Y009265D03*
X014554Y009255D03*
X014714Y009255D03*
X014916Y009240D03*
X014916Y009235D03*
X015064Y009235D03*
X015064Y009240D03*
X015064Y009230D03*
X015064Y009225D03*
X015064Y009220D03*
X015064Y009215D03*
X015064Y009210D03*
X015064Y009205D03*
X015064Y009200D03*
X015064Y009195D03*
X015064Y009190D03*
X015064Y009185D03*
X015064Y009180D03*
X015064Y009175D03*
X015066Y009250D03*
X015064Y009085D03*
X015064Y009080D03*
X015064Y009075D03*
X015266Y009055D03*
X015269Y009060D03*
X015269Y009250D03*
X013644Y009255D03*
X013634Y009220D03*
X013634Y009215D03*
X013634Y009210D03*
X013634Y009205D03*
X013634Y009200D03*
X013634Y009195D03*
X013634Y009190D03*
X013634Y009185D03*
X013634Y009180D03*
X013634Y009175D03*
X013634Y009170D03*
X013634Y009165D03*
X013634Y009160D03*
X013634Y009155D03*
X013634Y009150D03*
X013634Y009145D03*
X013634Y009140D03*
X013634Y009135D03*
X013634Y009130D03*
X013634Y009125D03*
X013634Y009120D03*
X013634Y009115D03*
X013634Y009110D03*
X013634Y009105D03*
X013634Y009100D03*
X013634Y009095D03*
X013644Y009055D03*
X013486Y009250D03*
X013484Y009255D03*
X013284Y009255D03*
X013281Y009245D03*
X013281Y009240D03*
X013281Y009235D03*
X013134Y009235D03*
X013134Y009230D03*
X013134Y009225D03*
X013131Y009245D03*
X013134Y009135D03*
X013134Y009130D03*
X013134Y009125D03*
X013134Y009120D03*
X013134Y009115D03*
X013134Y009110D03*
X013134Y009105D03*
X013134Y009100D03*
X013134Y009095D03*
X013134Y009090D03*
X013134Y009085D03*
X013134Y009080D03*
X013134Y009075D03*
X013134Y009070D03*
X013134Y009065D03*
X013134Y009060D03*
X013134Y009055D03*
X013134Y009050D03*
X013134Y009045D03*
X013134Y009040D03*
X013134Y009035D03*
X013134Y009030D03*
X013134Y009025D03*
X013134Y009020D03*
X013134Y009015D03*
X013134Y009010D03*
X013134Y009005D03*
X013134Y009000D03*
X013134Y008995D03*
X013134Y008990D03*
X013134Y008985D03*
X012924Y009050D03*
X012924Y009075D03*
X012929Y009255D03*
X012569Y009250D03*
X011314Y009380D03*
X010939Y009380D03*
D147*
X011748Y009205D03*
X013743Y008985D03*
D148*
X014098Y008985D03*
X014008Y009875D03*
X011688Y009195D03*
D149*
X013530Y009940D03*
X014430Y008985D03*
D150*
X015166Y008985D03*
X012131Y009800D03*
D151*
X012131Y009798D03*
X011691Y009358D03*
X011751Y009208D03*
X011689Y008988D03*
X011314Y009358D03*
X010939Y008988D03*
X014506Y009173D03*
D152*
X012588Y009963D03*
X012068Y009333D03*
X011283Y008988D03*
X010938Y009333D03*
D153*
X013004Y009143D03*
X012999Y008988D03*
X014426Y008988D03*
X014431Y009143D03*
X015186Y009168D03*
D154*
X015168Y008988D03*
X013743Y008988D03*
X012133Y009803D03*
D155*
X014008Y009878D03*
X014098Y008988D03*
D156*
X014456Y009325D03*
X015169Y009325D03*
X013029Y009325D03*
X012066Y009355D03*
X011691Y009355D03*
X011634Y009145D03*
X010939Y008990D03*
X010939Y009355D03*
X012146Y012105D03*
X013956Y012115D03*
D157*
X012585Y009965D03*
X011690Y009020D03*
X011285Y008990D03*
X011315Y009330D03*
D158*
X011315Y009355D03*
X011690Y008990D03*
X014015Y009830D03*
D159*
X013505Y009910D03*
X013465Y009285D03*
X013470Y009280D03*
X013300Y009280D03*
X012935Y009100D03*
X012935Y009025D03*
X012575Y009270D03*
X012170Y008990D03*
X011795Y009095D03*
X011585Y009205D03*
X011585Y009235D03*
X011585Y009240D03*
X012640Y009900D03*
X013840Y009265D03*
X014370Y009280D03*
X014360Y009095D03*
X015070Y009100D03*
D160*
X013741Y008990D03*
X013029Y009320D03*
X012131Y009805D03*
X013956Y012110D03*
D161*
X014008Y009880D03*
X014098Y008990D03*
D162*
X015123Y009145D03*
X015168Y008990D03*
X011638Y009150D03*
D163*
X011639Y009153D03*
X012066Y009353D03*
X010939Y009353D03*
X010939Y008993D03*
X013384Y009323D03*
X013541Y009958D03*
X014496Y009168D03*
X014811Y009323D03*
X015124Y009148D03*
D164*
X014011Y009858D03*
X013559Y009988D03*
X013759Y009313D03*
X012066Y009323D03*
X011289Y008993D03*
X012149Y012078D03*
D165*
X011315Y009353D03*
X011690Y008993D03*
D166*
X011793Y009083D03*
X011793Y009088D03*
X011588Y009093D03*
X011588Y009098D03*
X011588Y009198D03*
X011588Y009248D03*
X011588Y009253D03*
X011963Y009258D03*
X012173Y009258D03*
X012173Y008993D03*
X012938Y009103D03*
X013108Y009288D03*
X013663Y009288D03*
X013838Y009273D03*
X013978Y009018D03*
X014023Y009793D03*
X015088Y009028D03*
X015253Y009283D03*
X015248Y009288D03*
X011043Y009253D03*
X011043Y009248D03*
X011043Y009243D03*
X011043Y009238D03*
X011043Y009233D03*
X011043Y009228D03*
X011043Y009223D03*
X011043Y009218D03*
X011043Y009213D03*
X011043Y009208D03*
X011043Y009203D03*
X011043Y009198D03*
X011043Y009193D03*
X011043Y009188D03*
X011043Y009183D03*
X011043Y009178D03*
X011043Y009173D03*
X011043Y009168D03*
X011043Y009163D03*
X011043Y009158D03*
X011043Y009153D03*
X011043Y009148D03*
X011043Y009143D03*
X011043Y009138D03*
X011043Y009133D03*
X011043Y009128D03*
X011043Y009123D03*
X011043Y009118D03*
X011043Y009113D03*
X011043Y009108D03*
X011043Y009103D03*
X011043Y009098D03*
X011043Y009093D03*
D167*
X011759Y009218D03*
X012611Y009928D03*
X013011Y009148D03*
X012994Y008993D03*
X013531Y009943D03*
X014439Y009148D03*
X014424Y008993D03*
X015106Y009133D03*
X015211Y009178D03*
X015219Y009183D03*
D168*
X015270Y009248D03*
X015270Y009063D03*
X014710Y009248D03*
X014355Y009253D03*
X014350Y009233D03*
X014350Y009228D03*
X014235Y009058D03*
X013640Y009063D03*
X013635Y009078D03*
X013635Y009083D03*
X013635Y009088D03*
X013635Y009223D03*
X013635Y009228D03*
X013635Y009233D03*
X013280Y009228D03*
X013280Y009223D03*
X013280Y009218D03*
X013280Y009213D03*
X013280Y009208D03*
X013280Y009203D03*
X013280Y009198D03*
X013280Y009193D03*
X013280Y009188D03*
X013280Y009183D03*
X013280Y009178D03*
X013280Y009173D03*
X013280Y009168D03*
X013280Y009163D03*
X013280Y009158D03*
X013280Y009153D03*
X013280Y009148D03*
X013280Y009143D03*
X013280Y009138D03*
X013280Y009133D03*
X013280Y009128D03*
X013280Y009123D03*
X013280Y009118D03*
X013280Y009113D03*
X013280Y009108D03*
X013280Y009103D03*
X013280Y009098D03*
X013280Y009093D03*
X013280Y009088D03*
X013280Y009083D03*
X013280Y009078D03*
X013280Y009073D03*
X013280Y009068D03*
X013280Y009063D03*
X013280Y009058D03*
X013280Y009053D03*
X013280Y009048D03*
X013280Y009043D03*
X013280Y009038D03*
X013280Y009033D03*
X013280Y009028D03*
X013280Y009023D03*
X013280Y009018D03*
X013280Y009013D03*
X013280Y009008D03*
X013280Y009003D03*
X013280Y008998D03*
X013280Y008993D03*
X012775Y009243D03*
X012125Y009758D03*
D169*
X013741Y008993D03*
D170*
X014098Y008993D03*
X014008Y009883D03*
D171*
X013073Y009168D03*
X015168Y008993D03*
D172*
X012068Y009350D03*
X010938Y008995D03*
D173*
X011290Y008995D03*
X011315Y009320D03*
X011690Y009025D03*
D174*
X011690Y008995D03*
X015125Y009150D03*
X015170Y009320D03*
D175*
X015108Y009135D03*
X014423Y008995D03*
X012993Y008995D03*
D176*
X013280Y008995D03*
X013280Y009000D03*
X013280Y009005D03*
X013280Y009010D03*
X013280Y009015D03*
X013280Y009020D03*
X013280Y009025D03*
X013280Y009030D03*
X013280Y009035D03*
X013280Y009040D03*
X013280Y009045D03*
X013280Y009050D03*
X013280Y009055D03*
X013280Y009060D03*
X013280Y009065D03*
X013280Y009070D03*
X013280Y009075D03*
X013280Y009080D03*
X013280Y009085D03*
X013280Y009090D03*
X013280Y009095D03*
X013280Y009100D03*
X013280Y009105D03*
X013280Y009110D03*
X013280Y009115D03*
X013280Y009120D03*
X013280Y009125D03*
X013280Y009130D03*
X013280Y009135D03*
X013280Y009140D03*
X013280Y009145D03*
X013280Y009150D03*
X013280Y009155D03*
X013280Y009160D03*
X013280Y009165D03*
X013280Y009170D03*
X013280Y009175D03*
X013280Y009180D03*
X013280Y009185D03*
X013280Y009190D03*
X013280Y009195D03*
X013280Y009200D03*
X013280Y009205D03*
X013280Y009210D03*
X013280Y009215D03*
X013280Y009220D03*
X013280Y009225D03*
X013280Y009230D03*
X013635Y009230D03*
X013635Y009235D03*
X013635Y009225D03*
X013640Y009250D03*
X013635Y009090D03*
X013635Y009085D03*
X013635Y009080D03*
X013640Y009060D03*
X013845Y009065D03*
X014235Y009055D03*
X014350Y009230D03*
X014350Y009235D03*
X014355Y009255D03*
X014710Y009250D03*
X015270Y009245D03*
X015275Y009230D03*
X015270Y009065D03*
X013500Y009905D03*
X012775Y009245D03*
X012565Y009455D03*
D177*
X013741Y008995D03*
X014491Y009160D03*
X015166Y008995D03*
D178*
X014099Y008995D03*
D179*
X012068Y009348D03*
X010938Y009348D03*
X010938Y008998D03*
D180*
X011291Y008998D03*
X011314Y009318D03*
X012136Y009828D03*
X012659Y009303D03*
X013756Y009308D03*
D181*
X013030Y009318D03*
X011735Y009198D03*
X011690Y008998D03*
X013955Y012108D03*
D182*
X013546Y009968D03*
X013741Y008998D03*
X014489Y009158D03*
X015166Y008998D03*
X011646Y009158D03*
D183*
X014098Y008998D03*
D184*
X015168Y009000D03*
X012068Y009345D03*
X010938Y009345D03*
X010938Y009000D03*
D185*
X011293Y009000D03*
D186*
X011690Y009000D03*
X013030Y009315D03*
X013545Y009965D03*
X014015Y009840D03*
X015130Y009155D03*
D187*
X013015Y009150D03*
X012990Y009000D03*
D188*
X013741Y009000D03*
X013549Y009970D03*
D189*
X014099Y009000D03*
X013949Y012065D03*
D190*
X012611Y009930D03*
X013029Y009335D03*
X013089Y009180D03*
X013384Y009335D03*
X014419Y009000D03*
X015169Y009335D03*
X011756Y009215D03*
D191*
X010938Y009343D03*
X010938Y009003D03*
D192*
X011293Y009003D03*
X012068Y009318D03*
X013953Y012088D03*
D193*
X013030Y009313D03*
X011690Y009003D03*
D194*
X013741Y009003D03*
X014811Y009308D03*
X013954Y012103D03*
D195*
X012153Y012053D03*
X014098Y009003D03*
D196*
X014456Y009313D03*
X014014Y009843D03*
X013384Y009313D03*
X013064Y009158D03*
X012639Y009338D03*
X012066Y009343D03*
X012134Y009813D03*
X012596Y009953D03*
X011314Y009343D03*
X015134Y009158D03*
X015169Y009313D03*
X015166Y009003D03*
D197*
X013773Y009335D03*
X012593Y009955D03*
X010938Y009005D03*
D198*
X010939Y009315D03*
X011314Y009315D03*
X011294Y009005D03*
X011691Y009315D03*
X012069Y009315D03*
X012136Y009830D03*
D199*
X011650Y009160D03*
X011690Y009005D03*
X013385Y009310D03*
X014485Y009155D03*
X015170Y009310D03*
D200*
X015139Y009160D03*
X014811Y009305D03*
X014456Y009305D03*
X013741Y009005D03*
X013954Y012100D03*
D201*
X014098Y009005D03*
D202*
X014458Y009310D03*
X014813Y009310D03*
X015168Y009005D03*
X011693Y009340D03*
D203*
X011690Y009033D03*
X011295Y009008D03*
X014010Y009863D03*
D204*
X013550Y009973D03*
X013385Y009308D03*
X011690Y009008D03*
X015170Y009308D03*
D205*
X014456Y009333D03*
X013534Y009948D03*
X013029Y009333D03*
X013086Y009178D03*
X012986Y009008D03*
D206*
X013056Y009153D03*
X013029Y009303D03*
X012646Y009328D03*
X011656Y009168D03*
X013741Y009008D03*
X014811Y009303D03*
X015141Y009163D03*
X013954Y012098D03*
X012149Y012088D03*
D207*
X014098Y009008D03*
D208*
X013563Y009995D03*
X012068Y009310D03*
X011298Y009010D03*
D209*
X011655Y009165D03*
X011690Y009010D03*
X012645Y009330D03*
X013385Y009305D03*
X015170Y009305D03*
D210*
X014509Y009175D03*
X012984Y009010D03*
X012066Y009360D03*
X011691Y009360D03*
X011314Y009360D03*
D211*
X014098Y009010D03*
D212*
X013741Y009013D03*
X014011Y009853D03*
X015169Y009013D03*
X012649Y009323D03*
X011691Y009333D03*
X010939Y009013D03*
D213*
X010939Y009038D03*
X011299Y009013D03*
X014009Y009868D03*
X013951Y012083D03*
D214*
X013028Y012473D03*
X014813Y009333D03*
X015168Y009333D03*
X012983Y009013D03*
D215*
X014099Y009013D03*
X012154Y012048D03*
D216*
X012610Y009933D03*
X012130Y009793D03*
X011755Y009213D03*
X014410Y009013D03*
X015110Y009138D03*
D217*
X011693Y009330D03*
X010938Y009015D03*
D218*
X011300Y009015D03*
D219*
X011219Y009060D03*
X011026Y009055D03*
X010849Y009290D03*
X011601Y009290D03*
X011601Y009055D03*
X012949Y009110D03*
X012951Y009015D03*
X013029Y009350D03*
X013319Y009295D03*
X013451Y009295D03*
X014519Y009295D03*
X014746Y009295D03*
X014811Y009350D03*
X014879Y009295D03*
X015101Y009295D03*
X015234Y009295D03*
X012144Y012135D03*
D220*
X012148Y009300D03*
X011768Y009045D03*
X011608Y009050D03*
X011608Y009295D03*
X011613Y009300D03*
X011223Y009055D03*
X013683Y009015D03*
X013803Y009015D03*
X014098Y009020D03*
X014388Y009120D03*
X014513Y009300D03*
X014753Y009300D03*
X015228Y009300D03*
X015253Y009205D03*
D221*
X014098Y009015D03*
D222*
X013385Y009345D03*
X014020Y009805D03*
X014870Y009300D03*
X015110Y009015D03*
X011770Y009300D03*
X010860Y009045D03*
D223*
X010938Y009018D03*
X011663Y009173D03*
X011693Y009328D03*
X012653Y009318D03*
D224*
X011315Y009308D03*
X011300Y009018D03*
D225*
X011315Y009333D03*
X011690Y009018D03*
X013765Y009323D03*
D226*
X013829Y009288D03*
X013809Y009018D03*
X013676Y009018D03*
X012966Y009298D03*
X012734Y009298D03*
X011784Y009238D03*
X011781Y009288D03*
X011776Y009053D03*
X011401Y009293D03*
X011229Y009293D03*
X011024Y009293D03*
X011029Y009058D03*
X010849Y009058D03*
X015256Y009208D03*
D227*
X015238Y009193D03*
X014098Y009018D03*
X012128Y009783D03*
X011233Y009043D03*
D228*
X011213Y009078D03*
X011038Y009073D03*
X011038Y009273D03*
X011213Y009268D03*
X011413Y009273D03*
X011593Y009273D03*
X011593Y009073D03*
X011413Y009073D03*
X011788Y009068D03*
X011968Y009268D03*
X014218Y009018D03*
X015093Y009023D03*
D229*
X015260Y009213D03*
X014525Y009293D03*
X014375Y009018D03*
X013455Y009293D03*
X012945Y009108D03*
X011785Y009063D03*
X011405Y009058D03*
X011215Y009073D03*
X011035Y009278D03*
X011405Y009288D03*
D230*
X011598Y009113D03*
X011778Y009293D03*
X011983Y009293D03*
X012153Y009293D03*
X012128Y009773D03*
X012673Y009348D03*
X013448Y009298D03*
X015103Y009018D03*
X015168Y009348D03*
X010853Y009053D03*
D231*
X010938Y009020D03*
X010938Y009325D03*
X011693Y009325D03*
X012068Y009325D03*
X013953Y012090D03*
D232*
X013951Y012080D03*
X012151Y012070D03*
X011301Y009020D03*
D233*
X011220Y009280D03*
X011595Y009280D03*
X011595Y009065D03*
X011975Y009285D03*
X012160Y009285D03*
X012165Y009275D03*
X013120Y009205D03*
X013670Y009020D03*
X013815Y009020D03*
X014390Y009295D03*
X013960Y012145D03*
X010845Y009285D03*
D234*
X010938Y009323D03*
X010938Y009023D03*
X011693Y009323D03*
X012658Y009308D03*
D235*
X011679Y009188D03*
X011301Y009023D03*
D236*
X011315Y009323D03*
X011690Y009023D03*
X012655Y009313D03*
D237*
X012170Y009268D03*
X011970Y009273D03*
X011790Y009268D03*
X011790Y009263D03*
X011790Y009248D03*
X011790Y009073D03*
X011590Y009078D03*
X011590Y009268D03*
X011410Y009278D03*
X010840Y009278D03*
X010840Y009073D03*
X012125Y009768D03*
X013665Y009023D03*
X013835Y009278D03*
X013960Y012148D03*
D238*
X012125Y009763D03*
X012575Y009268D03*
X012760Y009278D03*
X012945Y009283D03*
X012950Y009288D03*
X013655Y009278D03*
X014225Y009023D03*
X014365Y009103D03*
X014455Y009353D03*
X014725Y009278D03*
X014895Y009283D03*
X015085Y009283D03*
X015085Y009033D03*
X015245Y009023D03*
X011795Y009098D03*
X011585Y009203D03*
X011585Y009208D03*
X011585Y009233D03*
X011585Y009238D03*
X011315Y009378D03*
D239*
X010939Y009320D03*
X010939Y009025D03*
X011691Y009320D03*
X013756Y009305D03*
D240*
X011303Y009025D03*
D241*
X011408Y009060D03*
X011408Y009285D03*
X011223Y009285D03*
X011218Y009275D03*
X010938Y009375D03*
X011788Y009275D03*
X011788Y009240D03*
X012163Y009280D03*
X012673Y009350D03*
X014098Y009025D03*
D242*
X013561Y009993D03*
X011691Y009318D03*
X010939Y009318D03*
X010939Y009028D03*
D243*
X011304Y009028D03*
X012151Y012068D03*
X013951Y012078D03*
D244*
X013755Y009303D03*
X011690Y009028D03*
X011670Y009178D03*
D245*
X011584Y009213D03*
X011584Y009218D03*
X011584Y009223D03*
X011584Y009228D03*
X011796Y009113D03*
X011796Y009108D03*
X011796Y009103D03*
X012671Y009353D03*
X012941Y009278D03*
X013114Y009278D03*
X013299Y009278D03*
X013384Y009353D03*
X013476Y009273D03*
X013651Y009038D03*
X013841Y009263D03*
X014369Y009278D03*
X014359Y009033D03*
X014361Y009028D03*
X014721Y009273D03*
X014899Y009278D03*
X015261Y009273D03*
X015254Y009033D03*
X015249Y009028D03*
X012934Y009028D03*
X012931Y009093D03*
X012934Y009098D03*
X012141Y012143D03*
D246*
X012934Y009268D03*
X012929Y009088D03*
X013131Y009148D03*
X013121Y009268D03*
X013291Y009268D03*
X013481Y009263D03*
X013646Y009263D03*
X013649Y009268D03*
X013844Y009258D03*
X013836Y009048D03*
X013834Y009043D03*
X013966Y009028D03*
X014099Y009043D03*
X014099Y009048D03*
X014231Y009033D03*
X014351Y009083D03*
X014354Y009088D03*
X014366Y009273D03*
X014549Y009268D03*
X014551Y009263D03*
X014716Y009268D03*
X014906Y009268D03*
X015074Y009268D03*
X015079Y009273D03*
X015066Y009168D03*
X015066Y009093D03*
X015069Y009053D03*
X015271Y009223D03*
X015266Y009263D03*
X015264Y009268D03*
X013649Y009043D03*
X013646Y009048D03*
D247*
X011690Y009035D03*
X010940Y009030D03*
D248*
X011304Y009030D03*
D249*
X011690Y009030D03*
X013560Y009990D03*
X014010Y009860D03*
X012150Y012075D03*
D250*
X012151Y012073D03*
X012136Y009833D03*
X012069Y009313D03*
X011691Y009313D03*
X011674Y009183D03*
X011314Y009313D03*
X010939Y009313D03*
X010939Y009033D03*
D251*
X011305Y009033D03*
D252*
X010939Y009035D03*
X010939Y009310D03*
X011691Y009310D03*
X013951Y012085D03*
D253*
X012151Y012065D03*
X011306Y009035D03*
D254*
X012125Y009760D03*
X012935Y009270D03*
X012930Y009090D03*
X012930Y009035D03*
X013120Y009270D03*
X013650Y009040D03*
X014900Y009275D03*
X015080Y009275D03*
X015075Y009045D03*
X015255Y009035D03*
D255*
X011690Y009038D03*
D256*
X012768Y009263D03*
X012933Y009263D03*
X012928Y009083D03*
X012928Y009043D03*
X013133Y009143D03*
X013133Y009223D03*
X013128Y009258D03*
X013283Y009253D03*
X013283Y009248D03*
X013288Y009263D03*
X013483Y009258D03*
X014098Y009058D03*
X014098Y009053D03*
X014233Y009043D03*
X014233Y009038D03*
X014353Y009043D03*
X014363Y009268D03*
X014913Y009258D03*
X015068Y009258D03*
X015268Y009258D03*
X015268Y009058D03*
X015263Y009043D03*
X015068Y009058D03*
D257*
X015091Y009120D03*
X013521Y009930D03*
X013106Y009195D03*
X012139Y009305D03*
X011774Y009230D03*
X011761Y009305D03*
X011621Y009305D03*
X011386Y009040D03*
X010869Y009040D03*
X010866Y009305D03*
X012144Y012125D03*
D258*
X013959Y012130D03*
X014019Y009815D03*
X013811Y009300D03*
X015099Y009125D03*
X011236Y009040D03*
D259*
X011225Y009053D03*
X011615Y009043D03*
X011615Y009303D03*
D260*
X011394Y009300D03*
X011394Y009045D03*
X011016Y009045D03*
X011016Y009300D03*
X010859Y009300D03*
X011989Y009300D03*
X012629Y009910D03*
X013086Y009300D03*
X013111Y009200D03*
X012961Y009120D03*
X013741Y009345D03*
X014456Y009345D03*
X012144Y012130D03*
D261*
X011385Y009305D03*
X011230Y009045D03*
X015245Y009200D03*
D262*
X013386Y009343D03*
X013029Y009343D03*
X011606Y009123D03*
X011229Y009048D03*
D263*
X011220Y009058D03*
X011400Y009053D03*
X011605Y009293D03*
X011770Y009048D03*
X010850Y009293D03*
X012630Y009908D03*
X013115Y009203D03*
X013680Y009298D03*
X013515Y009923D03*
X014380Y009113D03*
X015105Y009298D03*
D264*
X013445Y009300D03*
X012970Y009300D03*
X012730Y009300D03*
X011775Y009295D03*
X011235Y009300D03*
X011020Y009050D03*
X010855Y009050D03*
X013960Y012140D03*
D265*
X011243Y009305D03*
X011228Y009050D03*
D266*
X011216Y009070D03*
X011034Y009065D03*
X010844Y009065D03*
X011034Y009280D03*
X011031Y009285D03*
X011404Y009290D03*
X011599Y009285D03*
X011784Y009060D03*
X011404Y009055D03*
X012126Y009770D03*
X012634Y009905D03*
X012584Y009285D03*
X013384Y009350D03*
X013676Y009295D03*
X013741Y009350D03*
X013831Y009285D03*
X014456Y009350D03*
X015166Y009350D03*
X015259Y009210D03*
X013511Y009920D03*
D267*
X012155Y009290D03*
X011980Y009290D03*
X011785Y009280D03*
X011780Y009055D03*
X011595Y009110D03*
X011030Y009060D03*
D268*
X010848Y009060D03*
X011028Y009290D03*
X011228Y009290D03*
X011218Y009065D03*
X011598Y009060D03*
X011783Y009285D03*
X012738Y009295D03*
X012963Y009295D03*
X014023Y009800D03*
X014378Y009110D03*
D269*
X014743Y009293D03*
X015098Y009293D03*
X015078Y009108D03*
X013833Y009283D03*
X014023Y009798D03*
X012163Y009283D03*
X012158Y009288D03*
X011593Y009108D03*
X011223Y009283D03*
X010843Y009068D03*
X012143Y012138D03*
D270*
X013968Y012170D03*
X015293Y009115D03*
D271*
X015241Y009198D03*
X015094Y009123D03*
X012976Y009128D03*
D272*
X014019Y009813D03*
X014404Y009128D03*
X013959Y012133D03*
X012144Y012123D03*
D273*
X014410Y009133D03*
D274*
X015235Y009190D03*
X012985Y009135D03*
X012620Y009920D03*
D275*
X013029Y009330D03*
X013084Y009175D03*
X013534Y009950D03*
X014456Y009330D03*
X015114Y009140D03*
D276*
X011630Y009143D03*
X012145Y012108D03*
D277*
X014016Y009833D03*
X015119Y009143D03*
D278*
X015216Y009180D03*
X014514Y009180D03*
X014441Y009150D03*
X014436Y009145D03*
X014456Y009335D03*
X011691Y009365D03*
X010939Y009365D03*
X012144Y012115D03*
D279*
X012146Y012103D03*
X013956Y012113D03*
X014456Y009323D03*
X015169Y009323D03*
X013029Y009323D03*
X011636Y009148D03*
D280*
X011693Y009348D03*
X012133Y009808D03*
X014458Y009318D03*
X014493Y009163D03*
X015128Y009153D03*
X012148Y012098D03*
D281*
X012146Y012100D03*
X013544Y009960D03*
X014494Y009165D03*
X014811Y009320D03*
X011739Y009200D03*
X011641Y009155D03*
X011691Y009350D03*
X010939Y009350D03*
D282*
X013030Y009305D03*
X013060Y009155D03*
D283*
X013066Y009160D03*
X012636Y009340D03*
X012134Y009810D03*
X012596Y009950D03*
X011314Y009345D03*
X014456Y009315D03*
X014811Y009315D03*
X015169Y009315D03*
X013954Y012105D03*
D284*
X014013Y009848D03*
X014458Y009308D03*
X011653Y009163D03*
D285*
X012599Y009948D03*
X013544Y009963D03*
X013069Y009163D03*
X014811Y009318D03*
X015169Y009318D03*
D286*
X013385Y009320D03*
X013070Y009165D03*
X012600Y009945D03*
X011315Y009350D03*
D287*
X012601Y009940D03*
X013539Y009955D03*
X013076Y009170D03*
D288*
X013385Y009325D03*
X014500Y009170D03*
D289*
X014456Y009328D03*
X014016Y009828D03*
X013536Y009953D03*
X013029Y009328D03*
X013081Y009173D03*
X013956Y012118D03*
D290*
X012656Y009310D03*
X011666Y009175D03*
D291*
X011673Y009180D03*
D292*
X014515Y009183D03*
D293*
X012136Y009835D03*
X011676Y009185D03*
X011314Y009310D03*
D294*
X011686Y009193D03*
X012151Y012063D03*
D295*
X014020Y009808D03*
X014455Y009343D03*
X014530Y009193D03*
X011775Y009233D03*
D296*
X013029Y009345D03*
X014531Y009195D03*
X014811Y009345D03*
D297*
X012905Y009198D03*
X012655Y009878D03*
D298*
X011693Y009353D03*
X011743Y009203D03*
D299*
X013476Y009205D03*
X014254Y009350D03*
D300*
X014244Y009338D03*
X014106Y009338D03*
X013966Y009338D03*
X012914Y009208D03*
X012649Y009888D03*
X011311Y009383D03*
D301*
X014250Y009343D03*
X014905Y009208D03*
D302*
X013963Y009335D03*
X013488Y009220D03*
X012918Y009210D03*
D303*
X013483Y009210D03*
X014248Y009340D03*
D304*
X013858Y009480D03*
X014908Y009210D03*
X013963Y012165D03*
D305*
X011763Y009220D03*
D306*
X013815Y009298D03*
D307*
X014458Y009303D03*
X012068Y009338D03*
D308*
X012068Y009320D03*
X012658Y009305D03*
X013758Y009310D03*
D309*
X011693Y009308D03*
X010938Y009308D03*
D310*
X012068Y009308D03*
D311*
X013030Y009308D03*
X013775Y009338D03*
D312*
X013385Y009315D03*
X013030Y009310D03*
D313*
X011693Y009343D03*
X012148Y012093D03*
X014813Y009313D03*
D314*
X013556Y009985D03*
X012654Y009315D03*
D315*
X012135Y009825D03*
X011315Y009325D03*
X013760Y009315D03*
X012150Y012080D03*
D316*
X011315Y009348D03*
X013385Y009318D03*
D317*
X013761Y009318D03*
X012066Y009328D03*
X010936Y009328D03*
D318*
X012650Y009320D03*
X013555Y009980D03*
X012150Y012085D03*
D319*
X014013Y009855D03*
X013763Y009320D03*
X012068Y009330D03*
D320*
X014458Y009320D03*
D321*
X012648Y009325D03*
X012068Y009335D03*
X011313Y009335D03*
D322*
X014813Y009325D03*
D323*
X012135Y009823D03*
X011315Y009328D03*
X012150Y012083D03*
D324*
X012605Y009938D03*
X013385Y009328D03*
D325*
X013768Y009328D03*
D326*
X014813Y009328D03*
X015168Y009328D03*
D327*
X010936Y009330D03*
D328*
X013385Y009330D03*
D329*
X014813Y009330D03*
X015168Y009330D03*
D330*
X013385Y009333D03*
D331*
X013770Y009333D03*
X012590Y009958D03*
D332*
X013385Y009338D03*
X011690Y009368D03*
X012145Y012118D03*
D333*
X012128Y009778D03*
X012673Y009343D03*
X015168Y009343D03*
D334*
X012148Y012095D03*
X011693Y009345D03*
D335*
X012125Y009748D03*
X013975Y009348D03*
D336*
X013975Y009350D03*
D337*
X013383Y009355D03*
D338*
X012575Y009480D03*
X012140Y012155D03*
D339*
X013493Y009898D03*
X014023Y009778D03*
D340*
X012130Y009795D03*
D341*
X012135Y009820D03*
D342*
X014015Y009835D03*
D343*
X014015Y009838D03*
X012600Y009943D03*
D344*
X012138Y009840D03*
D345*
X012139Y009843D03*
D346*
X012139Y009845D03*
D347*
X012140Y009848D03*
D348*
X012140Y009850D03*
D349*
X013553Y009975D03*
X014013Y009850D03*
D350*
X012139Y009853D03*
D351*
X012141Y009855D03*
X012154Y012050D03*
X013949Y012060D03*
D352*
X013948Y012058D03*
X012143Y009858D03*
D353*
X012143Y009860D03*
D354*
X012143Y009863D03*
D355*
X012143Y009865D03*
D356*
X014010Y009865D03*
D357*
X014004Y009903D03*
X012144Y009868D03*
X012156Y012038D03*
D358*
X012156Y012035D03*
X012144Y009870D03*
D359*
X014010Y009870D03*
X013045Y012470D03*
D360*
X012145Y009873D03*
D361*
X014009Y009873D03*
D362*
X014001Y009910D03*
X012146Y009875D03*
D363*
X012146Y009878D03*
X014001Y009913D03*
D364*
X012146Y009880D03*
D365*
X012148Y009883D03*
X012158Y012023D03*
D366*
X012159Y012020D03*
X012149Y009885D03*
X013999Y009920D03*
D367*
X014008Y009885D03*
X012153Y012055D03*
D368*
X013941Y012028D03*
X012149Y009888D03*
D369*
X014006Y009888D03*
X013949Y012063D03*
D370*
X012150Y009890D03*
D371*
X013493Y009890D03*
D372*
X014006Y009890D03*
D373*
X012150Y009893D03*
X013940Y012023D03*
D374*
X014006Y009893D03*
D375*
X012151Y009895D03*
D376*
X014005Y009895D03*
D377*
X012151Y009898D03*
X013059Y012443D03*
D378*
X014005Y009898D03*
D379*
X012153Y009900D03*
X013058Y012420D03*
X013058Y012425D03*
X013058Y012430D03*
X013058Y012435D03*
D380*
X014004Y009900D03*
D381*
X012153Y009903D03*
X013058Y012408D03*
X013058Y012413D03*
D382*
X013936Y012010D03*
X012154Y009905D03*
D383*
X014003Y009905D03*
D384*
X012155Y009908D03*
X013935Y012008D03*
D385*
X013944Y012043D03*
X014001Y009908D03*
D386*
X013991Y009950D03*
X012156Y009910D03*
X012166Y011990D03*
X013056Y012360D03*
D387*
X013056Y012343D03*
X013056Y012338D03*
X013056Y012333D03*
X013991Y009953D03*
X012156Y009913D03*
D388*
X012158Y009915D03*
X013058Y012320D03*
X013058Y012325D03*
X013058Y012330D03*
D389*
X014000Y009915D03*
D390*
X012158Y009918D03*
X013058Y012308D03*
D391*
X014000Y009918D03*
D392*
X012158Y009920D03*
X012168Y011985D03*
D393*
X013056Y012283D03*
X012159Y009923D03*
D394*
X013999Y009923D03*
D395*
X013989Y009965D03*
X012159Y009925D03*
X012169Y011975D03*
X013056Y012245D03*
X013056Y012250D03*
X013056Y012255D03*
X013056Y012260D03*
X013931Y011990D03*
D396*
X013998Y009925D03*
D397*
X012160Y009928D03*
D398*
X013998Y009928D03*
D399*
X012160Y009930D03*
X013055Y012220D03*
D400*
X013998Y009930D03*
D401*
X012161Y009933D03*
X013054Y012198D03*
X013054Y012203D03*
D402*
X013059Y012448D03*
X013996Y009933D03*
D403*
X012161Y009935D03*
X013054Y012185D03*
X013054Y012190D03*
D404*
X013059Y012445D03*
X013939Y012020D03*
X013996Y009935D03*
D405*
X013983Y009978D03*
X012163Y009938D03*
X013928Y011978D03*
D406*
X013995Y009938D03*
D407*
X012164Y009940D03*
X012174Y011960D03*
X013056Y012145D03*
X013056Y012150D03*
X013926Y011975D03*
D408*
X013994Y009940D03*
D409*
X012165Y009943D03*
X013055Y012118D03*
X013055Y012123D03*
X013055Y012128D03*
X013925Y011973D03*
D410*
X013059Y012393D03*
X013994Y009943D03*
D411*
X012165Y009945D03*
X012175Y011955D03*
D412*
X013058Y012375D03*
X013058Y012380D03*
X013993Y009945D03*
D413*
X012165Y009948D03*
D414*
X013993Y009948D03*
X013058Y012363D03*
X013058Y012368D03*
D415*
X012166Y009950D03*
D416*
X012166Y009953D03*
X013054Y012073D03*
D417*
X012168Y009955D03*
D418*
X013990Y009955D03*
D419*
X012169Y009958D03*
X012176Y011943D03*
D420*
X013056Y012293D03*
X013989Y009958D03*
D421*
X012169Y009960D03*
X013056Y012055D03*
D422*
X013988Y009960D03*
D423*
X012169Y009963D03*
D424*
X013988Y009963D03*
D425*
X012169Y009965D03*
D426*
X012290Y009968D03*
X012355Y010143D03*
X013745Y010253D03*
X013755Y010238D03*
X013845Y009998D03*
X013750Y011268D03*
D427*
X013988Y009968D03*
D428*
X013756Y010235D03*
X013754Y010240D03*
X013674Y010450D03*
X013746Y010645D03*
X013741Y011275D03*
X012374Y011275D03*
X012364Y010650D03*
X012346Y010130D03*
X012344Y010125D03*
X012341Y010120D03*
X012289Y009970D03*
D429*
X013986Y009970D03*
X013056Y012215D03*
D430*
X013736Y011283D03*
X013759Y011263D03*
X013826Y010738D03*
X013761Y010223D03*
X013846Y010003D03*
X012451Y010428D03*
X012369Y010643D03*
X012339Y010113D03*
X012289Y009973D03*
D431*
X013985Y009973D03*
D432*
X013848Y010005D03*
X013763Y010220D03*
X013733Y011285D03*
X012288Y009975D03*
D433*
X013983Y009975D03*
D434*
X013769Y010208D03*
X013766Y010213D03*
X013731Y011288D03*
X012381Y011288D03*
X012374Y010638D03*
X012286Y009978D03*
D435*
X012286Y009980D03*
X012326Y010090D03*
X012449Y010445D03*
X012376Y010635D03*
X013734Y010630D03*
X013849Y010010D03*
D436*
X013983Y009980D03*
D437*
X013849Y010013D03*
X013784Y010183D03*
X013781Y010188D03*
X013779Y010193D03*
X013674Y010463D03*
X012449Y010443D03*
X012329Y010093D03*
X012286Y009983D03*
X012384Y011293D03*
D438*
X013556Y009983D03*
X013954Y012093D03*
D439*
X013983Y009983D03*
D440*
X013786Y010175D03*
X013674Y010465D03*
X013731Y010625D03*
X012449Y010450D03*
X012319Y010080D03*
X012316Y010075D03*
X012314Y010070D03*
X012286Y009985D03*
X012386Y011295D03*
D441*
X013983Y009985D03*
D442*
X013849Y010018D03*
X013789Y010173D03*
X013674Y010468D03*
X013729Y010623D03*
X013724Y011298D03*
X012449Y010453D03*
X012321Y010083D03*
X012316Y010073D03*
X012286Y009988D03*
X012389Y011298D03*
D443*
X013054Y012103D03*
X013981Y009988D03*
D444*
X013799Y010155D03*
X013674Y010470D03*
X013674Y010475D03*
X013726Y010620D03*
X012449Y010455D03*
X012301Y010705D03*
X012311Y010065D03*
X012309Y010060D03*
X012286Y009990D03*
D445*
X013980Y009990D03*
D446*
X013801Y010153D03*
X013794Y010163D03*
X013791Y010168D03*
X013674Y010473D03*
X012449Y010458D03*
X012286Y009993D03*
X012391Y011303D03*
D447*
X013053Y012068D03*
X013978Y009993D03*
D448*
X013803Y010150D03*
X013718Y011305D03*
X012388Y010620D03*
X012288Y009995D03*
D449*
X013976Y009995D03*
X013924Y011960D03*
X012176Y011945D03*
D450*
X013714Y011308D03*
X013674Y010483D03*
X013674Y010478D03*
X013806Y010143D03*
X012389Y010618D03*
X012306Y010053D03*
X012304Y010048D03*
X012286Y009998D03*
D451*
X012286Y010000D03*
X012304Y010050D03*
X012306Y010055D03*
X012449Y010460D03*
X013674Y010480D03*
X013674Y010485D03*
X013724Y010615D03*
X013806Y010140D03*
X013809Y010135D03*
D452*
X013760Y010225D03*
X013845Y010000D03*
X013755Y011265D03*
X013055Y012010D03*
D453*
X013723Y010613D03*
X013808Y010138D03*
X013853Y010028D03*
X012288Y010008D03*
X012288Y010003D03*
D454*
X012288Y010005D03*
X012303Y010045D03*
X013853Y010025D03*
D455*
X013848Y010008D03*
X013778Y010198D03*
X013773Y010203D03*
X012333Y010103D03*
D456*
X012299Y010040D03*
X012291Y010025D03*
X012289Y010020D03*
X012289Y010015D03*
X012289Y010010D03*
X012449Y010465D03*
X012394Y010610D03*
X013674Y010490D03*
X013814Y010125D03*
X013711Y011310D03*
D457*
X013709Y011313D03*
X013674Y010493D03*
X013811Y010128D03*
X012449Y010463D03*
X012391Y010613D03*
X012296Y010038D03*
X012294Y010033D03*
X012291Y010028D03*
X012291Y010023D03*
X012289Y010018D03*
X012289Y010013D03*
X012399Y011308D03*
D458*
X012380Y010630D03*
X013725Y011295D03*
X013785Y010180D03*
X013850Y010015D03*
D459*
X013850Y010020D03*
X013795Y010160D03*
X013790Y010170D03*
X012390Y011300D03*
D460*
X012308Y010058D03*
X013803Y010148D03*
X013853Y010023D03*
D461*
X013853Y010030D03*
X013823Y010110D03*
X013818Y010120D03*
X013708Y011315D03*
X012403Y011310D03*
X012293Y010030D03*
D462*
X012449Y010468D03*
X012291Y011208D03*
X012404Y011313D03*
X013674Y010498D03*
X013819Y010118D03*
X013851Y010033D03*
D463*
X013820Y010115D03*
X013675Y010495D03*
X012295Y010035D03*
X013055Y012005D03*
D464*
X012406Y011315D03*
X012449Y010470D03*
X013826Y010105D03*
X013851Y010035D03*
D465*
X013851Y010038D03*
X013851Y010043D03*
X013834Y010088D03*
X013831Y010093D03*
X012449Y010478D03*
X012289Y010708D03*
D466*
X012399Y010605D03*
X012449Y010475D03*
X012411Y011320D03*
X013786Y011255D03*
X013831Y010095D03*
X013851Y010040D03*
D467*
X013810Y010133D03*
X013675Y010488D03*
X012300Y010043D03*
D468*
X013835Y010085D03*
X013850Y010050D03*
X013850Y010045D03*
D469*
X013850Y010048D03*
X013850Y010053D03*
X013675Y010503D03*
X013850Y010743D03*
D470*
X013709Y010600D03*
X013674Y010505D03*
X013841Y010075D03*
X013844Y010070D03*
X013846Y010065D03*
X013849Y010060D03*
X013849Y010055D03*
X012449Y010485D03*
D471*
X012401Y010603D03*
X012414Y011323D03*
X013699Y011323D03*
X013711Y010603D03*
X013836Y010083D03*
X013839Y010078D03*
X013844Y010073D03*
X013846Y010068D03*
X013849Y010058D03*
D472*
X013725Y010618D03*
X012310Y010063D03*
D473*
X012448Y010483D03*
X013848Y010063D03*
D474*
X013798Y010158D03*
X013773Y011258D03*
X012313Y010068D03*
D475*
X012318Y010078D03*
X012378Y010633D03*
X012308Y011213D03*
X013728Y011293D03*
X013733Y010628D03*
D476*
X013833Y010090D03*
X013838Y010080D03*
X012448Y010480D03*
D477*
X012323Y010085D03*
X013783Y010185D03*
D478*
X013785Y010178D03*
X012450Y010448D03*
X012380Y010628D03*
X012325Y010088D03*
X013055Y012008D03*
D479*
X013730Y011290D03*
X013765Y011260D03*
X013775Y010200D03*
X013780Y010190D03*
X012450Y010435D03*
X012450Y010440D03*
X012330Y010095D03*
D480*
X012330Y010098D03*
X012450Y010438D03*
X013735Y010633D03*
D481*
X013830Y010098D03*
D482*
X013771Y010205D03*
X013769Y010210D03*
X013766Y010215D03*
X013674Y010460D03*
X012371Y010640D03*
X012334Y010105D03*
X012331Y010100D03*
X012314Y011215D03*
D483*
X013715Y010605D03*
X013675Y010500D03*
X013830Y010100D03*
D484*
X013828Y010103D03*
X012448Y010473D03*
X012408Y011318D03*
D485*
X012450Y010433D03*
X012335Y010108D03*
X013765Y010218D03*
X013740Y010638D03*
D486*
X013815Y010123D03*
X013825Y010108D03*
X013705Y011318D03*
X012395Y010608D03*
D487*
X012450Y010430D03*
X012335Y010110D03*
X012380Y011285D03*
D488*
X013718Y010608D03*
X013823Y010113D03*
D489*
X013674Y010455D03*
X012451Y010425D03*
X012366Y010645D03*
X012339Y010115D03*
X012376Y011280D03*
D490*
X012375Y011278D03*
X012365Y010648D03*
X012345Y010128D03*
X012340Y010118D03*
X013745Y010643D03*
D491*
X013673Y010453D03*
X012343Y010123D03*
D492*
X012390Y010615D03*
X013720Y010610D03*
X013810Y010130D03*
D493*
X013759Y010228D03*
X013756Y010233D03*
X013674Y010448D03*
X013749Y010648D03*
X013744Y011273D03*
X013739Y011278D03*
X012451Y010423D03*
X012361Y010653D03*
X012349Y010133D03*
X012319Y011218D03*
D494*
X012320Y010700D03*
X012360Y010655D03*
X012350Y010135D03*
X013750Y010245D03*
X013750Y010650D03*
D495*
X013753Y010653D03*
X013673Y010443D03*
X013743Y010258D03*
X013748Y010248D03*
X013753Y010243D03*
X012353Y010138D03*
X012373Y011273D03*
D496*
X012369Y011270D03*
X012356Y010145D03*
X012354Y010140D03*
X013674Y010440D03*
X013739Y010265D03*
X013741Y010260D03*
X013744Y010255D03*
X013754Y010655D03*
D497*
X013840Y010740D03*
X013805Y010145D03*
X012395Y011305D03*
X012300Y011210D03*
D498*
X012359Y010658D03*
X012359Y010153D03*
X012356Y010148D03*
X013741Y010263D03*
D499*
X013738Y010270D03*
X013673Y010435D03*
X012453Y010415D03*
X012358Y010660D03*
X012358Y010150D03*
D500*
X012360Y010155D03*
D501*
X012363Y010158D03*
X012353Y010668D03*
X013728Y010288D03*
X013733Y010278D03*
D502*
X013731Y010280D03*
X013729Y010285D03*
X013726Y010290D03*
X013734Y010275D03*
X013671Y010430D03*
X013761Y010665D03*
X013816Y010735D03*
X012451Y010405D03*
X012366Y010165D03*
X012364Y010160D03*
X012351Y010670D03*
X012329Y010695D03*
X012359Y011255D03*
X013056Y012015D03*
D503*
X012361Y011258D03*
X012451Y010408D03*
X012369Y010173D03*
X012366Y010168D03*
X012364Y010163D03*
X013724Y010293D03*
D504*
X013793Y010165D03*
X013723Y011300D03*
X012383Y010625D03*
D505*
X012368Y010170D03*
X013723Y010295D03*
D506*
X013720Y010300D03*
X013670Y010425D03*
X012375Y010180D03*
X012370Y010175D03*
D507*
X012373Y010178D03*
X013718Y010303D03*
X013763Y010668D03*
D508*
X013764Y010673D03*
X013714Y010313D03*
X013716Y010308D03*
X012451Y010403D03*
X012381Y010193D03*
X012379Y010188D03*
X012376Y010183D03*
X012334Y010693D03*
X012356Y011253D03*
D509*
X012354Y011250D03*
X012346Y010680D03*
X012349Y010675D03*
X012451Y010400D03*
X012379Y010185D03*
X013716Y010305D03*
X013764Y010670D03*
D510*
X013765Y010675D03*
X013715Y010310D03*
X012380Y010190D03*
D511*
X012383Y010195D03*
X012338Y010690D03*
X012353Y011245D03*
X013713Y010315D03*
X013768Y010680D03*
D512*
X013738Y010635D03*
X013778Y010195D03*
X012383Y011290D03*
D513*
X012353Y011248D03*
X012348Y010678D03*
X012453Y010398D03*
X012383Y010198D03*
X013713Y010318D03*
X013768Y010678D03*
D514*
X013671Y010420D03*
X013711Y010320D03*
X012454Y010395D03*
X012384Y010200D03*
X012344Y010685D03*
X012349Y011240D03*
D515*
X012349Y011238D03*
X012341Y010688D03*
X012386Y010203D03*
X013769Y010683D03*
X013056Y012018D03*
D516*
X012348Y011235D03*
X012388Y010205D03*
X013698Y010340D03*
X013708Y010325D03*
D517*
X013696Y010343D03*
X013671Y010413D03*
X013771Y010688D03*
X012454Y010393D03*
X012389Y010208D03*
D518*
X012390Y010210D03*
X012395Y010220D03*
X012340Y011225D03*
X013695Y010345D03*
D519*
X013693Y010348D03*
X012393Y010213D03*
X012343Y011228D03*
D520*
X012393Y010215D03*
X013693Y010350D03*
X013773Y010690D03*
D521*
X013774Y010693D03*
X013776Y010698D03*
X013671Y010408D03*
X013691Y010353D03*
X012396Y010223D03*
X012394Y010218D03*
D522*
X012399Y010225D03*
X012456Y010385D03*
X013671Y010410D03*
X013689Y010360D03*
X013691Y010355D03*
X013776Y010695D03*
X013804Y010730D03*
D523*
X013685Y010368D03*
X013690Y010358D03*
X012455Y010383D03*
X012400Y010228D03*
D524*
X012403Y010230D03*
X013778Y010700D03*
X013058Y012020D03*
D525*
X013738Y011280D03*
X013743Y010640D03*
X013758Y010230D03*
D526*
X013681Y010373D03*
X013674Y010388D03*
X013671Y010403D03*
X013779Y010703D03*
X012456Y010378D03*
X012409Y010243D03*
X012406Y010238D03*
X012404Y010233D03*
D527*
X012405Y010235D03*
X013670Y010405D03*
D528*
X013671Y010400D03*
X013671Y010395D03*
X013676Y010380D03*
X013686Y010365D03*
X012456Y010375D03*
X012456Y010380D03*
X012406Y010240D03*
D529*
X012410Y010245D03*
X013675Y010385D03*
X013680Y010375D03*
X013780Y010705D03*
D530*
X013800Y010728D03*
X013670Y010398D03*
X013675Y010383D03*
X012410Y010248D03*
D531*
X012411Y010250D03*
X012456Y010370D03*
X013784Y010710D03*
X013786Y010715D03*
X013791Y010720D03*
X013796Y010725D03*
D532*
X013673Y010445D03*
X013748Y010250D03*
X013748Y011270D03*
X012453Y010420D03*
D533*
X012413Y010253D03*
D534*
X012415Y010255D03*
D535*
X012416Y010258D03*
X012419Y010263D03*
X012456Y010368D03*
D536*
X012419Y010265D03*
X012416Y010260D03*
D537*
X012420Y010268D03*
X012425Y010273D03*
D538*
X012453Y010418D03*
X012368Y011268D03*
X013673Y010438D03*
X013738Y010268D03*
D539*
X012423Y010270D03*
D540*
X013730Y010283D03*
X013735Y010273D03*
X013760Y010663D03*
D541*
X012456Y010365D03*
X012431Y010285D03*
X012429Y010280D03*
X012426Y010275D03*
D542*
X012429Y010278D03*
D543*
X012430Y010283D03*
D544*
X012433Y010288D03*
X012458Y010363D03*
D545*
X012434Y010290D03*
D546*
X012436Y010293D03*
X013056Y012023D03*
D547*
X012458Y010360D03*
X012438Y010295D03*
D548*
X012439Y010298D03*
D549*
X012350Y010673D03*
X013670Y010428D03*
X013720Y010298D03*
D550*
X012459Y010355D03*
X012441Y010305D03*
X012439Y010300D03*
D551*
X012440Y010303D03*
X012445Y010313D03*
D552*
X012443Y010308D03*
X012458Y010353D03*
D553*
X012459Y010345D03*
X012446Y010315D03*
X012444Y010310D03*
D554*
X012449Y010318D03*
X012459Y010348D03*
D555*
X012455Y010330D03*
X012450Y010320D03*
D556*
X012453Y010323D03*
X012458Y010338D03*
X012458Y010343D03*
D557*
X012338Y011223D03*
X013703Y010333D03*
X013708Y010323D03*
D558*
X012454Y010325D03*
D559*
X012455Y010328D03*
D560*
X012345Y011233D03*
X013670Y010418D03*
X013700Y010338D03*
X013705Y010328D03*
X013810Y010733D03*
D561*
X013671Y010415D03*
X013701Y010335D03*
X013704Y010330D03*
X012454Y010390D03*
X012344Y011230D03*
D562*
X012456Y010333D03*
D563*
X012458Y010335D03*
X012458Y010340D03*
D564*
X012458Y010350D03*
D565*
X012458Y010358D03*
D566*
X013688Y010363D03*
D567*
X013683Y010370D03*
X013673Y010390D03*
D568*
X013789Y010718D03*
X013794Y010723D03*
X012456Y010373D03*
D569*
X013673Y010393D03*
X013678Y010378D03*
X013783Y010708D03*
D570*
X012455Y010388D03*
D571*
X012453Y010410D03*
X012328Y011220D03*
X012363Y011260D03*
D572*
X012364Y011263D03*
X012326Y010698D03*
X012356Y010663D03*
X012451Y010413D03*
X013671Y010433D03*
X013756Y010658D03*
D573*
X013670Y010423D03*
X012345Y010683D03*
X012350Y011243D03*
D574*
X012378Y011283D03*
X012313Y010703D03*
X013673Y010458D03*
D575*
X012448Y010488D03*
D576*
X012448Y010490D03*
D577*
X012446Y010493D03*
X013706Y010598D03*
D578*
X013674Y010515D03*
X012446Y010495D03*
X012409Y010595D03*
D579*
X012446Y010498D03*
X012421Y011328D03*
X013694Y011328D03*
X013674Y010518D03*
D580*
X013675Y010520D03*
X013700Y010590D03*
X013690Y011330D03*
X013055Y012000D03*
X012445Y010500D03*
D581*
X012445Y010503D03*
X013675Y010533D03*
X013695Y010588D03*
D582*
X013675Y010530D03*
X013805Y011250D03*
X012425Y011335D03*
X012445Y010505D03*
D583*
X012446Y010508D03*
X012429Y011338D03*
D584*
X013055Y012003D03*
X013675Y010508D03*
D585*
X013675Y010540D03*
X012445Y010510D03*
X012270Y010715D03*
D586*
X012281Y010710D03*
X012404Y010600D03*
X013674Y010510D03*
D587*
X013689Y010583D03*
X013811Y011248D03*
X012446Y010513D03*
D588*
X013675Y010513D03*
D589*
X013691Y010585D03*
X012446Y010515D03*
X012421Y010585D03*
D590*
X012448Y010518D03*
D591*
X012448Y010520D03*
X013688Y010580D03*
D592*
X013684Y010578D03*
X012446Y010523D03*
X012429Y010578D03*
X012424Y010583D03*
D593*
X012410Y010593D03*
X012275Y010713D03*
X013675Y010523D03*
D594*
X013683Y010575D03*
X012448Y010525D03*
D595*
X012414Y010590D03*
X012276Y011205D03*
X013674Y010525D03*
D596*
X013678Y011343D03*
X012448Y010528D03*
D597*
X012424Y011333D03*
X013689Y011333D03*
X013861Y010748D03*
X013674Y010528D03*
D598*
X012446Y010530D03*
X012431Y010575D03*
D599*
X012446Y010533D03*
X012436Y011343D03*
D600*
X012445Y010535D03*
X013675Y010550D03*
X013675Y011345D03*
D601*
X013674Y010535D03*
D602*
X013821Y011243D03*
X013671Y011348D03*
X012446Y010538D03*
D603*
X013675Y010538D03*
X013685Y011338D03*
X013055Y011998D03*
D604*
X012440Y011345D03*
X012445Y010540D03*
X013675Y010555D03*
X013675Y010560D03*
X013675Y010565D03*
D605*
X013675Y010563D03*
X013675Y010558D03*
X012445Y010543D03*
X012435Y010573D03*
D606*
X012265Y010718D03*
X013675Y010543D03*
D607*
X012445Y010545D03*
X012440Y010570D03*
X012445Y011350D03*
D608*
X012434Y011340D03*
X012426Y010580D03*
X013676Y010545D03*
D609*
X012445Y010548D03*
D610*
X012265Y011203D03*
X013675Y010548D03*
D611*
X012444Y010550D03*
X013056Y011990D03*
D612*
X013664Y011353D03*
X012441Y010568D03*
X012444Y010553D03*
D613*
X013675Y010553D03*
X013680Y010573D03*
X013875Y010753D03*
X013055Y011993D03*
D614*
X012445Y010555D03*
D615*
X012445Y010558D03*
X012450Y011353D03*
D616*
X012444Y010560D03*
D617*
X012444Y010563D03*
X012251Y011198D03*
D618*
X012443Y010565D03*
D619*
X013676Y010568D03*
D620*
X013678Y010570D03*
X013668Y011350D03*
X012258Y010720D03*
D621*
X012418Y010588D03*
D622*
X012408Y010598D03*
X013703Y010593D03*
X013798Y011253D03*
D623*
X013695Y011325D03*
X013705Y010595D03*
D624*
X013720Y011303D03*
X012385Y010623D03*
D625*
X012354Y010665D03*
X012366Y011265D03*
X013759Y010660D03*
D626*
X013770Y010685D03*
D627*
X013785Y010713D03*
D628*
X012244Y010723D03*
D629*
X012234Y010725D03*
D630*
X012226Y010728D03*
X013056Y011983D03*
X013636Y011368D03*
D631*
X013055Y011980D03*
X012220Y010730D03*
D632*
X012216Y010733D03*
X013916Y010763D03*
D633*
X013055Y011975D03*
X012210Y010735D03*
D634*
X012201Y010738D03*
X012496Y011373D03*
X013616Y011373D03*
D635*
X012188Y010740D03*
D636*
X012180Y010743D03*
X013055Y011963D03*
D637*
X013914Y011215D03*
X012174Y010745D03*
D638*
X012418Y011325D03*
X013858Y010745D03*
D639*
X013919Y011213D03*
X012169Y010748D03*
D640*
X012165Y010750D03*
D641*
X013868Y010750D03*
D642*
X013931Y011208D03*
X012156Y010753D03*
D643*
X012144Y010755D03*
D644*
X013658Y011355D03*
X013888Y010755D03*
D645*
X014026Y010873D03*
X014026Y010878D03*
X014026Y010883D03*
X014024Y011048D03*
X014024Y011053D03*
X014024Y011058D03*
X013056Y011943D03*
X012091Y011053D03*
X012091Y011048D03*
X012091Y011043D03*
X012089Y011028D03*
X012089Y011023D03*
X012089Y010898D03*
X012089Y010893D03*
X012089Y010888D03*
X012089Y010883D03*
X012089Y010878D03*
X012134Y010758D03*
D646*
X012469Y011363D03*
X013901Y010758D03*
D647*
X014018Y011085D03*
X012128Y010760D03*
X012093Y010845D03*
D648*
X013911Y010760D03*
D649*
X014018Y010823D03*
X014008Y011128D03*
X012098Y011088D03*
X012098Y010828D03*
X012123Y010763D03*
D650*
X012121Y010765D03*
X012099Y010815D03*
X012099Y010820D03*
X012101Y011105D03*
X012101Y011110D03*
X012101Y011115D03*
X012121Y011155D03*
X014014Y010810D03*
X014016Y010815D03*
X014016Y010820D03*
D651*
X013923Y010765D03*
D652*
X014003Y011138D03*
X012103Y011118D03*
X012118Y010768D03*
D653*
X013928Y010768D03*
D654*
X014001Y011140D03*
X013999Y011150D03*
X013971Y011195D03*
X012116Y011150D03*
X012101Y010800D03*
X012101Y010795D03*
X012116Y010770D03*
D655*
X013936Y010770D03*
D656*
X014001Y011143D03*
X012119Y011153D03*
X012114Y011143D03*
X012106Y011128D03*
X012104Y011123D03*
X012101Y010798D03*
X012114Y010773D03*
D657*
X013950Y010773D03*
D658*
X013998Y011155D03*
X012113Y011140D03*
X012108Y011130D03*
X012113Y010775D03*
D659*
X013961Y010775D03*
D660*
X013996Y011158D03*
X013974Y011193D03*
X012111Y010778D03*
X012109Y010783D03*
D661*
X013969Y010778D03*
D662*
X012109Y010780D03*
X012106Y010785D03*
D663*
X013974Y010780D03*
D664*
X013980Y010783D03*
D665*
X013988Y010785D03*
D666*
X014000Y011148D03*
X012115Y011148D03*
X012110Y011133D03*
X012105Y010788D03*
D667*
X012083Y010953D03*
X013998Y010788D03*
X014028Y011008D03*
X014028Y011013D03*
D668*
X014000Y011145D03*
X012115Y011145D03*
X012110Y011135D03*
X012105Y010790D03*
D669*
X012093Y011060D03*
X012093Y011065D03*
X014003Y010790D03*
X014023Y010845D03*
X014023Y010850D03*
X014023Y011060D03*
X014023Y011065D03*
D670*
X013998Y011153D03*
X012113Y011138D03*
X012103Y010793D03*
D671*
X012090Y010863D03*
X012090Y010868D03*
X012090Y010873D03*
X014005Y010793D03*
X014025Y010858D03*
X014025Y010863D03*
X014025Y010868D03*
X014020Y011073D03*
X014020Y011078D03*
D672*
X014019Y011080D03*
X014024Y010855D03*
X014021Y010840D03*
X014006Y010795D03*
X012091Y010850D03*
X012091Y010855D03*
X012094Y011070D03*
D673*
X012093Y010848D03*
X012093Y010843D03*
X014008Y010798D03*
X014018Y011088D03*
D674*
X014020Y010835D03*
X014010Y010800D03*
X012130Y011160D03*
X012095Y011075D03*
D675*
X012100Y010813D03*
X012100Y010808D03*
X012100Y010803D03*
D676*
X012096Y010833D03*
X012094Y010838D03*
X012096Y011083D03*
X012126Y011158D03*
X014009Y011123D03*
X014009Y011118D03*
X014011Y011113D03*
X014011Y011108D03*
X014014Y011103D03*
X014014Y011098D03*
X014019Y010828D03*
X014011Y010803D03*
D677*
X012100Y010805D03*
X012100Y010810D03*
X012105Y011125D03*
D678*
X012098Y011085D03*
X012098Y010830D03*
X012098Y010825D03*
X014013Y010805D03*
X014018Y010825D03*
X014008Y011125D03*
D679*
X014004Y011133D03*
X013966Y011198D03*
X014016Y010818D03*
X014016Y010813D03*
X014014Y010808D03*
X012099Y010818D03*
X012099Y010823D03*
X012101Y011108D03*
X012101Y011113D03*
D680*
X012099Y011090D03*
X012096Y011080D03*
X012094Y010840D03*
X013961Y011200D03*
X014009Y011120D03*
X014011Y011115D03*
X014011Y011110D03*
X014011Y011105D03*
X014014Y011100D03*
X014014Y011095D03*
X014016Y011090D03*
X014019Y010830D03*
D681*
X014020Y010833D03*
X014015Y011093D03*
X012095Y011078D03*
D682*
X012100Y011095D03*
X012100Y011100D03*
X012095Y010835D03*
X014005Y011130D03*
D683*
X014019Y011083D03*
X014024Y010853D03*
X014021Y010843D03*
X014021Y010838D03*
X012134Y011163D03*
X012094Y011073D03*
X012091Y010858D03*
X012091Y010853D03*
D684*
X012093Y011058D03*
X012093Y011063D03*
X012093Y011068D03*
X014023Y011068D03*
X014023Y011063D03*
X014023Y010848D03*
D685*
X014025Y010860D03*
X014025Y010865D03*
X014025Y010870D03*
X014020Y011075D03*
X012090Y010870D03*
X012090Y010865D03*
X012090Y010860D03*
D686*
X012089Y010875D03*
X012089Y010880D03*
X012089Y010885D03*
X012089Y010890D03*
X012089Y010895D03*
X012089Y011025D03*
X012091Y011045D03*
X012091Y011050D03*
X012091Y011055D03*
X014021Y011070D03*
X014024Y011055D03*
X014024Y011050D03*
X014026Y010880D03*
X014026Y010875D03*
D687*
X014028Y010885D03*
X014028Y010890D03*
X014028Y010895D03*
X014028Y010900D03*
X012138Y011165D03*
X012088Y011020D03*
X012088Y011015D03*
X012088Y011010D03*
X012088Y011005D03*
X012088Y010915D03*
X012088Y010910D03*
X012088Y010905D03*
X012088Y010900D03*
D688*
X012088Y010903D03*
X012088Y010908D03*
X012088Y010913D03*
X012088Y011003D03*
X012088Y011008D03*
X012088Y011013D03*
X012088Y011018D03*
X014028Y010898D03*
X014028Y010893D03*
X014028Y010888D03*
D689*
X014029Y010903D03*
X014029Y010908D03*
X014029Y010913D03*
X014029Y011003D03*
X014026Y011018D03*
X014026Y011023D03*
X014026Y011028D03*
X012086Y010998D03*
X012086Y010993D03*
X012086Y010988D03*
X012084Y010948D03*
X012084Y010943D03*
X012084Y010938D03*
X012084Y010933D03*
X012086Y010928D03*
X012086Y010923D03*
X012086Y010918D03*
D690*
X012086Y010920D03*
X012086Y010925D03*
X012086Y010930D03*
X012084Y010935D03*
X012084Y010940D03*
X012084Y010945D03*
X012086Y010985D03*
X012086Y010990D03*
X012086Y010995D03*
X012086Y011000D03*
X014026Y011015D03*
X014026Y011020D03*
X014026Y011025D03*
X014026Y011030D03*
X014029Y011005D03*
X014029Y011000D03*
X014029Y010915D03*
X014029Y010910D03*
X014029Y010905D03*
D691*
X014030Y010918D03*
X014030Y010923D03*
X014030Y010928D03*
X014030Y010933D03*
X014030Y010983D03*
X014030Y010988D03*
X014030Y010993D03*
X014030Y010998D03*
X012085Y010983D03*
X012085Y010978D03*
X012085Y010973D03*
D692*
X012085Y010975D03*
X012085Y010980D03*
X012085Y010970D03*
X014030Y010985D03*
X014030Y010990D03*
X014030Y010995D03*
X014030Y010930D03*
X014030Y010925D03*
X014030Y010920D03*
D693*
X014031Y010935D03*
X014031Y010940D03*
X014031Y010945D03*
X014031Y010950D03*
X014031Y010955D03*
X014031Y010960D03*
X014031Y010965D03*
X014031Y010970D03*
X014031Y010975D03*
X014031Y010980D03*
X012084Y010965D03*
X012084Y010960D03*
D694*
X012084Y010963D03*
X012084Y010968D03*
X012084Y010958D03*
X012144Y011168D03*
X014031Y010978D03*
X014031Y010973D03*
X014031Y010968D03*
X014031Y010963D03*
X014031Y010958D03*
X014031Y010953D03*
X014031Y010948D03*
X014031Y010943D03*
X014031Y010938D03*
D695*
X014028Y011010D03*
X012083Y010955D03*
X012083Y010950D03*
D696*
X012090Y011030D03*
X012090Y011035D03*
X012090Y011040D03*
X014025Y011040D03*
X014025Y011045D03*
X014025Y011035D03*
D697*
X014025Y011033D03*
X014025Y011038D03*
X014025Y011043D03*
X013955Y011203D03*
X012090Y011038D03*
X012090Y011033D03*
D698*
X012100Y011093D03*
X012100Y011098D03*
X012100Y011103D03*
D699*
X012103Y011120D03*
X014003Y011135D03*
D700*
X013995Y011160D03*
D701*
X013995Y011163D03*
X013980Y011188D03*
D702*
X013984Y011185D03*
X013991Y011170D03*
X013994Y011165D03*
D703*
X013993Y011168D03*
D704*
X012153Y011170D03*
D705*
X012165Y011173D03*
D706*
X013990Y011173D03*
D707*
X012178Y011175D03*
D708*
X013990Y011175D03*
D709*
X012185Y011178D03*
D710*
X013986Y011183D03*
X013989Y011178D03*
D711*
X012191Y011180D03*
D712*
X013988Y011180D03*
D713*
X012196Y011183D03*
D714*
X012203Y011185D03*
D715*
X012214Y011188D03*
D716*
X012229Y011190D03*
D717*
X013978Y011190D03*
D718*
X012239Y011193D03*
D719*
X012248Y011195D03*
D720*
X012258Y011200D03*
D721*
X013945Y011205D03*
D722*
X013924Y011210D03*
D723*
X013908Y011218D03*
D724*
X013900Y011220D03*
D725*
X013888Y011223D03*
D726*
X013878Y011225D03*
D727*
X013870Y011228D03*
D728*
X013864Y011230D03*
D729*
X013859Y011233D03*
D730*
X013853Y011235D03*
D731*
X013843Y011238D03*
D732*
X013830Y011240D03*
D733*
X013815Y011245D03*
D734*
X013703Y011320D03*
D735*
X012423Y011330D03*
D736*
X013688Y011335D03*
D737*
X013680Y011340D03*
X013055Y011995D03*
D738*
X012443Y011348D03*
D739*
X012455Y011355D03*
D740*
X012461Y011358D03*
X013649Y011358D03*
D741*
X012466Y011360D03*
D742*
X013645Y011360D03*
D743*
X013643Y011363D03*
D744*
X012473Y011365D03*
D745*
X013639Y011365D03*
D746*
X012475Y011368D03*
D747*
X012481Y011370D03*
X013631Y011370D03*
D748*
X012508Y011375D03*
D749*
X013054Y011965D03*
X013599Y011375D03*
D750*
X012516Y011378D03*
D751*
X013589Y011378D03*
D752*
X013056Y011380D03*
D753*
X013055Y011383D03*
D754*
X013056Y011385D03*
X013051Y011685D03*
D755*
X013056Y011388D03*
D756*
X013055Y011390D03*
D757*
X013055Y011393D03*
D758*
X013054Y011395D03*
D759*
X013055Y011398D03*
D760*
X013055Y011400D03*
D761*
X013055Y011403D03*
D762*
X013056Y011405D03*
X013051Y011670D03*
D763*
X013055Y011408D03*
D764*
X013056Y011410D03*
X013056Y011415D03*
D765*
X013056Y011413D03*
X013051Y011668D03*
D766*
X013051Y011663D03*
X013056Y011423D03*
X013056Y011418D03*
D767*
X013056Y011420D03*
X013051Y011665D03*
D768*
X013051Y011660D03*
X013056Y011425D03*
D769*
X013055Y011428D03*
X013050Y011658D03*
D770*
X013056Y011430D03*
D771*
X013056Y011433D03*
X013051Y011653D03*
D772*
X013050Y011650D03*
X013055Y011435D03*
D773*
X013056Y011438D03*
X013051Y011648D03*
D774*
X013051Y011645D03*
X013056Y011440D03*
D775*
X013056Y011443D03*
D776*
X013056Y011445D03*
X013056Y011450D03*
D777*
X013056Y011448D03*
X013051Y011643D03*
D778*
X013055Y011453D03*
D779*
X013056Y011455D03*
D780*
X013055Y011458D03*
X013050Y011638D03*
D781*
X013056Y011460D03*
D782*
X013055Y011463D03*
D783*
X013055Y011465D03*
X013050Y011630D03*
D784*
X013055Y011468D03*
D785*
X013055Y011470D03*
X013050Y011625D03*
D786*
X013056Y011473D03*
D787*
X013055Y011475D03*
D788*
X013056Y011478D03*
D789*
X013056Y011480D03*
D790*
X013056Y011483D03*
D791*
X013056Y011485D03*
D792*
X013055Y011488D03*
X013050Y011618D03*
D793*
X013056Y011490D03*
D794*
X013055Y011493D03*
X013050Y011613D03*
D795*
X013050Y011610D03*
X013055Y011495D03*
D796*
X013054Y011498D03*
X013049Y011608D03*
D797*
X013050Y011605D03*
X013055Y011500D03*
D798*
X013055Y011503D03*
D799*
X013056Y011505D03*
D800*
X013055Y011508D03*
X013050Y011598D03*
D801*
X013056Y011510D03*
D802*
X013056Y011513D03*
D803*
X013056Y011515D03*
D804*
X013056Y011518D03*
X013049Y011593D03*
D805*
X013049Y011590D03*
X013056Y011520D03*
D806*
X013055Y011523D03*
D807*
X013055Y011525D03*
D808*
X013055Y011528D03*
D809*
X013056Y011530D03*
D810*
X013055Y011533D03*
D811*
X013056Y011535D03*
D812*
X013056Y011538D03*
D813*
X013056Y011540D03*
D814*
X013055Y011543D03*
D815*
X013055Y011545D03*
D816*
X013055Y011548D03*
X013050Y011568D03*
D817*
X013055Y011550D03*
D818*
X013054Y011553D03*
X013051Y011558D03*
D819*
X013051Y011555D03*
X013049Y011565D03*
D820*
X013050Y011560D03*
D821*
X013050Y011563D03*
D822*
X013049Y011570D03*
D823*
X013050Y011573D03*
D824*
X013050Y011575D03*
D825*
X013049Y011578D03*
D826*
X013049Y011580D03*
D827*
X013049Y011583D03*
D828*
X013049Y011585D03*
D829*
X013049Y011588D03*
D830*
X013050Y011595D03*
D831*
X013050Y011600D03*
D832*
X013049Y011603D03*
D833*
X013050Y011615D03*
D834*
X013050Y011620D03*
D835*
X013050Y011623D03*
D836*
X013049Y011628D03*
D837*
X013049Y011633D03*
D838*
X013050Y011635D03*
D839*
X013050Y011640D03*
D840*
X013050Y011655D03*
D841*
X013051Y011673D03*
D842*
X013050Y011675D03*
D843*
X013051Y011678D03*
D844*
X013050Y011680D03*
D845*
X013051Y011683D03*
D846*
X013053Y011688D03*
D847*
X013053Y011690D03*
D848*
X013053Y011693D03*
D849*
X013051Y011695D03*
D850*
X013051Y011698D03*
D851*
X013050Y011700D03*
D852*
X013051Y011703D03*
D853*
X013051Y011705D03*
D854*
X013053Y011708D03*
D855*
X013053Y011710D03*
D856*
X013054Y011713D03*
D857*
X013053Y011715D03*
D858*
X013053Y011718D03*
D859*
X013051Y011720D03*
D860*
X013051Y011723D03*
D861*
X013053Y011725D03*
D862*
X013051Y011728D03*
D863*
X013053Y011730D03*
D864*
X013053Y011733D03*
D865*
X013054Y011735D03*
D866*
X013054Y011738D03*
D867*
X013053Y011740D03*
D868*
X013053Y011743D03*
D869*
X013051Y011745D03*
D870*
X013051Y011748D03*
D871*
X013051Y011750D03*
D872*
X013051Y011753D03*
D873*
X013054Y011755D03*
D874*
X013054Y011758D03*
D875*
X013054Y011760D03*
D876*
X013054Y011763D03*
D877*
X013054Y011765D03*
D878*
X013053Y011768D03*
D879*
X013053Y011770D03*
D880*
X013053Y011773D03*
D881*
X013053Y011775D03*
D882*
X013053Y011778D03*
D883*
X013054Y011780D03*
D884*
X013054Y011783D03*
D885*
X013054Y011785D03*
D886*
X013054Y011788D03*
D887*
X013054Y011790D03*
D888*
X013053Y011793D03*
D889*
X013053Y011795D03*
D890*
X013053Y011798D03*
D891*
X013053Y011800D03*
D892*
X013054Y011803D03*
D893*
X013054Y011805D03*
D894*
X013055Y011808D03*
D895*
X013055Y011810D03*
D896*
X013054Y011813D03*
D897*
X013054Y011815D03*
D898*
X013053Y011818D03*
D899*
X013054Y011820D03*
D900*
X013054Y011823D03*
D901*
X013054Y011825D03*
D902*
X013055Y011828D03*
D903*
X013055Y011830D03*
D904*
X013055Y011833D03*
D905*
X013055Y011835D03*
D906*
X013054Y011838D03*
D907*
X013054Y011840D03*
D908*
X013054Y011843D03*
X013056Y011933D03*
D909*
X013055Y011845D03*
D910*
X013055Y011848D03*
D911*
X013056Y011850D03*
D912*
X013055Y011853D03*
D913*
X013055Y011855D03*
D914*
X013055Y011858D03*
D915*
X013055Y011860D03*
D916*
X013054Y011863D03*
X013056Y011918D03*
D917*
X013054Y011865D03*
D918*
X013055Y011868D03*
D919*
X013054Y011870D03*
X013056Y011910D03*
D920*
X013055Y011873D03*
D921*
X013055Y011875D03*
D922*
X013056Y011878D03*
X013056Y011883D03*
X013056Y011903D03*
D923*
X013056Y011900D03*
X013056Y011885D03*
X013056Y011880D03*
D924*
X013058Y011888D03*
X013058Y011893D03*
X013058Y011898D03*
D925*
X013058Y011895D03*
X013058Y011890D03*
D926*
X013058Y011905D03*
D927*
X013056Y011908D03*
D928*
X013058Y011913D03*
D929*
X013058Y011915D03*
D930*
X013056Y011920D03*
D931*
X013056Y011923D03*
D932*
X013058Y011925D03*
D933*
X013058Y011928D03*
D934*
X013056Y011930D03*
D935*
X013920Y011950D03*
X012180Y011935D03*
D936*
X013351Y011935D03*
D937*
X012179Y011938D03*
D938*
X013353Y011938D03*
D939*
X012178Y011940D03*
D940*
X013355Y011940D03*
D941*
X013916Y011943D03*
D942*
X013054Y011945D03*
D943*
X013920Y011945D03*
D944*
X013924Y011963D03*
X013054Y012063D03*
X012176Y011948D03*
D945*
X013054Y011948D03*
D946*
X013920Y011948D03*
D947*
X012175Y011950D03*
D948*
X013055Y011950D03*
D949*
X013051Y012088D03*
X012176Y011953D03*
D950*
X013054Y011953D03*
D951*
X013920Y011953D03*
D952*
X013055Y011955D03*
D953*
X013921Y011955D03*
D954*
X012174Y011958D03*
D955*
X013055Y011958D03*
D956*
X013923Y011958D03*
D957*
X013055Y011960D03*
D958*
X012173Y011963D03*
D959*
X012173Y011965D03*
D960*
X013054Y012065D03*
X013924Y011965D03*
D961*
X012173Y011968D03*
D962*
X013055Y011968D03*
D963*
X013925Y011968D03*
D964*
X013929Y011985D03*
X013054Y012200D03*
X012171Y011970D03*
D965*
X013055Y011970D03*
D966*
X013925Y011970D03*
D967*
X013930Y011988D03*
X013055Y012218D03*
X013055Y012223D03*
X012170Y011973D03*
D968*
X013055Y011973D03*
D969*
X013056Y012268D03*
X013056Y012273D03*
X012169Y011978D03*
D970*
X013055Y011978D03*
D971*
X013056Y012280D03*
X012169Y011980D03*
D972*
X013054Y012180D03*
X013929Y011980D03*
D973*
X012168Y011983D03*
D974*
X013054Y012188D03*
X013054Y012193D03*
X013929Y011983D03*
D975*
X013055Y011985D03*
D976*
X013056Y012313D03*
X013056Y012318D03*
X013934Y012003D03*
X012166Y011988D03*
D977*
X013055Y011988D03*
D978*
X013056Y012373D03*
X012166Y011993D03*
D979*
X013933Y011993D03*
D980*
X012165Y011995D03*
D981*
X013933Y011995D03*
D982*
X012165Y011998D03*
D983*
X013933Y011998D03*
D984*
X012165Y012000D03*
D985*
X013056Y012300D03*
X013056Y012305D03*
X013934Y012000D03*
D986*
X013059Y012418D03*
X012164Y012003D03*
D987*
X012163Y012005D03*
X013058Y012440D03*
D988*
X013935Y012005D03*
D989*
X012163Y012008D03*
D990*
X012161Y012010D03*
X013059Y012450D03*
D991*
X013059Y012453D03*
X012161Y012013D03*
D992*
X013055Y012013D03*
D993*
X013058Y012398D03*
X013938Y012013D03*
D994*
X012161Y012015D03*
D995*
X013058Y012405D03*
X013058Y012410D03*
X013058Y012415D03*
X013938Y012015D03*
D996*
X012160Y012018D03*
D997*
X013058Y012423D03*
X013058Y012428D03*
X013058Y012433D03*
X013938Y012018D03*
D998*
X012159Y012025D03*
D999*
X013056Y012025D03*
D1000*
X013941Y012025D03*
D1001*
X012158Y012028D03*
D1002*
X013055Y012028D03*
D1003*
X012156Y012030D03*
D1004*
X013056Y012030D03*
D1005*
X013941Y012030D03*
D1006*
X012156Y012033D03*
D1007*
X013056Y012033D03*
D1008*
X013059Y012458D03*
X013941Y012033D03*
D1009*
X013056Y012035D03*
D1010*
X013943Y012035D03*
D1011*
X013055Y012038D03*
D1012*
X013944Y012038D03*
D1013*
X012155Y012040D03*
D1014*
X013058Y012040D03*
D1015*
X013945Y012040D03*
D1016*
X012155Y012043D03*
D1017*
X013058Y012043D03*
D1018*
X012155Y012045D03*
D1019*
X013058Y012045D03*
D1020*
X013945Y012045D03*
D1021*
X013058Y012048D03*
D1022*
X013945Y012048D03*
D1023*
X013058Y012050D03*
D1024*
X013946Y012050D03*
D1025*
X013056Y012053D03*
D1026*
X013946Y012053D03*
D1027*
X013948Y012055D03*
D1028*
X012153Y012058D03*
D1029*
X013055Y012058D03*
D1030*
X012151Y012060D03*
D1031*
X013055Y012060D03*
D1032*
X013949Y012068D03*
D1033*
X013054Y012070D03*
X013054Y012075D03*
D1034*
X013949Y012070D03*
D1035*
X013950Y012073D03*
D1036*
X013950Y012075D03*
D1037*
X013053Y012078D03*
X013053Y012083D03*
D1038*
X013053Y012085D03*
X013053Y012080D03*
D1039*
X013053Y012090D03*
X013053Y012095D03*
X013053Y012100D03*
D1040*
X013053Y012098D03*
X013053Y012093D03*
D1041*
X013053Y012105D03*
D1042*
X013053Y012108D03*
D1043*
X013054Y012110D03*
X013054Y012115D03*
D1044*
X013054Y012113D03*
D1045*
X012145Y012120D03*
D1046*
X013055Y012120D03*
X013055Y012125D03*
D1047*
X013055Y012130D03*
X013055Y012135D03*
X013055Y012140D03*
D1048*
X013055Y012138D03*
X013055Y012143D03*
X013055Y012133D03*
D1049*
X013056Y012148D03*
D1050*
X013055Y012153D03*
X013055Y012158D03*
X013055Y012163D03*
D1051*
X013055Y012165D03*
X013055Y012160D03*
X013055Y012155D03*
D1052*
X013054Y012168D03*
D1053*
X013055Y012170D03*
X013055Y012175D03*
D1054*
X013055Y012173D03*
D1055*
X013054Y012178D03*
X013054Y012183D03*
D1056*
X013055Y012195D03*
D1057*
X013055Y012205D03*
X013055Y012210D03*
D1058*
X013055Y012208D03*
D1059*
X013056Y012213D03*
D1060*
X013056Y012225D03*
X013056Y012230D03*
X013056Y012235D03*
X013056Y012240D03*
D1061*
X013056Y012243D03*
X013056Y012238D03*
X013056Y012233D03*
X013056Y012228D03*
D1062*
X013056Y012248D03*
X013056Y012253D03*
X013056Y012258D03*
D1063*
X013055Y012263D03*
D1064*
X013055Y012265D03*
D1065*
X013056Y012270D03*
D1066*
X013055Y012275D03*
D1067*
X013055Y012278D03*
D1068*
X013055Y012285D03*
D1069*
X013055Y012288D03*
D1070*
X013056Y012290D03*
D1071*
X013055Y012295D03*
D1072*
X013056Y012298D03*
X013056Y012303D03*
D1073*
X013056Y012310D03*
X013056Y012315D03*
D1074*
X013058Y012323D03*
X013058Y012328D03*
D1075*
X013056Y012335D03*
X013056Y012340D03*
D1076*
X013058Y012345D03*
X013058Y012350D03*
X013058Y012355D03*
D1077*
X013058Y012353D03*
X013058Y012348D03*
D1078*
X013056Y012358D03*
D1079*
X013058Y012365D03*
X013058Y012370D03*
D1080*
X013058Y012378D03*
D1081*
X013059Y012383D03*
D1082*
X013058Y012385D03*
X013058Y012390D03*
D1083*
X013058Y012388D03*
D1084*
X013058Y012395D03*
X013058Y012400D03*
D1085*
X013059Y012403D03*
D1086*
X013058Y012438D03*
D1087*
X013058Y012455D03*
D1088*
X013060Y012460D03*
D1089*
X013060Y012463D03*
D1090*
X013061Y012465D03*
D1091*
X013058Y012468D03*
M02*
