G75*
%MOIN*%
%OFA0B0*%
%FSLAX24Y24*%
%IPPOS*%
%LPD*%
%AMOC8*
5,1,8,0,0,1.08239X$1,22.5*
%
%ADD10C,0.0100*%
%ADD11R,0.0780X0.0780*%
%ADD12C,0.0780*%
%ADD13C,0.0709*%
%ADD14OC8,0.0600*%
%ADD15C,0.0640*%
D10*
X000150Y000650D02*
X000150Y001650D01*
X000650Y002150D01*
X001150Y002150D01*
X001400Y002400D01*
X001400Y005900D01*
X003900Y008400D01*
X003900Y018900D01*
X002900Y019900D01*
X002900Y021700D01*
X003350Y022150D01*
X015650Y022150D01*
X016150Y022650D01*
X016150Y026400D01*
X016650Y026900D01*
X018400Y026900D01*
X018900Y026400D01*
X018900Y020650D01*
X022150Y017400D01*
X022150Y012750D01*
X023000Y011900D01*
X024400Y011900D01*
X024900Y011400D01*
X024900Y009150D01*
X024400Y008650D01*
X015750Y008650D01*
X015150Y008050D01*
X015150Y005400D01*
X014650Y004900D01*
X004400Y004900D01*
X003900Y004400D01*
X003900Y000650D01*
X003400Y000150D01*
X000650Y000150D01*
X000150Y000650D01*
D11*
X024275Y009650D03*
D12*
X023275Y009650D03*
X022275Y009650D03*
X021275Y009650D03*
X014050Y005825D03*
X013050Y005825D03*
X012050Y005825D03*
X010025Y011025D03*
X009025Y011025D03*
X008025Y011025D03*
X007025Y011025D03*
X006025Y011025D03*
X009150Y017900D03*
X009150Y018900D03*
X009150Y019900D03*
X005900Y020400D03*
X004900Y020400D03*
X003900Y020400D03*
X003900Y021400D03*
X004900Y021400D03*
X005900Y021400D03*
X017075Y024100D03*
X017075Y025100D03*
X017075Y026100D03*
X019361Y018414D03*
X018675Y017800D03*
X019382Y017093D03*
X020068Y017707D03*
X020775Y017000D03*
X020089Y016386D03*
X002950Y000950D03*
X001950Y000950D03*
X000950Y000950D03*
D13*
X002700Y002450D03*
X002700Y005450D03*
D14*
X006650Y013600D03*
X007650Y013600D03*
X007650Y014600D03*
X006650Y014600D03*
X008650Y014600D03*
X009650Y014600D03*
X010650Y014600D03*
X010650Y013600D03*
X009650Y013600D03*
X008650Y013600D03*
X015550Y013600D03*
X016550Y013600D03*
X017550Y013600D03*
X017550Y014600D03*
X016550Y014600D03*
X015550Y014600D03*
X018550Y014600D03*
X019550Y014600D03*
X019550Y013600D03*
X018550Y013600D03*
D15*
X008650Y008050D02*
X008650Y007450D01*
X007650Y007450D02*
X007650Y008050D01*
X006650Y008050D02*
X006650Y007450D01*
M02*
