G75*
%MOIN*%
%OFA0B0*%
%FSLAX24Y24*%
%IPPOS*%
%LPD*%
%AMOC8*
5,1,8,0,0,1.08239X$1,22.5*
%
%ADD10C,0.0040*%
%ADD11C,0.0060*%
%ADD12C,0.0030*%
%ADD13C,0.0070*%
%ADD14C,0.0050*%
%ADD15C,0.0100*%
%ADD16C,0.0160*%
%ADD17C,0.0080*%
%ADD18R,0.0736X0.0200*%
%ADD19R,0.0335X0.0250*%
%ADD20C,0.0020*%
%ADD21R,0.4200X0.0300*%
%ADD22R,0.0750X0.0200*%
%ADD23R,0.0300X0.0200*%
%ADD24C,0.0000*%
%ADD25R,0.0020X0.0002*%
%ADD26R,0.0025X0.0003*%
%ADD27R,0.0030X0.0002*%
%ADD28R,0.0035X0.0003*%
%ADD29R,0.0042X0.0002*%
%ADD30R,0.0050X0.0003*%
%ADD31R,0.0060X0.0002*%
%ADD32R,0.0065X0.0003*%
%ADD33R,0.0067X0.0002*%
%ADD34R,0.0070X0.0003*%
%ADD35R,0.0072X0.0002*%
%ADD36R,0.0072X0.0003*%
%ADD37R,0.0075X0.0002*%
%ADD38R,0.0075X0.0003*%
%ADD39R,0.0012X0.0002*%
%ADD40R,0.0003X0.0002*%
%ADD41R,0.0010X0.0002*%
%ADD42R,0.0008X0.0002*%
%ADD43R,0.0002X0.0002*%
%ADD44R,0.0005X0.0002*%
%ADD45R,0.0007X0.0002*%
%ADD46R,0.0007X0.0003*%
%ADD47R,0.0083X0.0003*%
%ADD48R,0.0068X0.0003*%
%ADD49R,0.0078X0.0003*%
%ADD50R,0.0010X0.0003*%
%ADD51R,0.0005X0.0003*%
%ADD52R,0.0080X0.0003*%
%ADD53R,0.0038X0.0002*%
%ADD54R,0.0033X0.0002*%
%ADD55R,0.0043X0.0002*%
%ADD56R,0.0015X0.0002*%
%ADD57R,0.0093X0.0002*%
%ADD58R,0.0080X0.0002*%
%ADD59R,0.0090X0.0002*%
%ADD60R,0.0052X0.0003*%
%ADD61R,0.0077X0.0003*%
%ADD62R,0.0053X0.0003*%
%ADD63R,0.0018X0.0003*%
%ADD64R,0.0020X0.0003*%
%ADD65R,0.0097X0.0003*%
%ADD66R,0.0100X0.0003*%
%ADD67R,0.0085X0.0003*%
%ADD68R,0.0098X0.0003*%
%ADD69R,0.0023X0.0003*%
%ADD70R,0.0068X0.0002*%
%ADD71R,0.0077X0.0002*%
%ADD72R,0.0063X0.0002*%
%ADD73R,0.0023X0.0002*%
%ADD74R,0.0022X0.0002*%
%ADD75R,0.0105X0.0002*%
%ADD76R,0.0028X0.0002*%
%ADD77R,0.0025X0.0002*%
%ADD78R,0.0110X0.0002*%
%ADD79R,0.0092X0.0002*%
%ADD80R,0.0082X0.0003*%
%ADD81R,0.0017X0.0003*%
%ADD82R,0.0030X0.0003*%
%ADD83R,0.0027X0.0003*%
%ADD84R,0.0108X0.0003*%
%ADD85R,0.0033X0.0003*%
%ADD86R,0.0118X0.0003*%
%ADD87R,0.0113X0.0003*%
%ADD88R,0.0028X0.0003*%
%ADD89R,0.0102X0.0002*%
%ADD90R,0.0085X0.0002*%
%ADD91R,0.0103X0.0002*%
%ADD92R,0.0100X0.0002*%
%ADD93R,0.0037X0.0002*%
%ADD94R,0.0035X0.0002*%
%ADD95R,0.0117X0.0002*%
%ADD96R,0.0132X0.0002*%
%ADD97R,0.0108X0.0002*%
%ADD98R,0.0118X0.0002*%
%ADD99R,0.0128X0.0002*%
%ADD100R,0.0122X0.0003*%
%ADD101R,0.0205X0.0003*%
%ADD102R,0.0120X0.0003*%
%ADD103R,0.0040X0.0003*%
%ADD104R,0.0042X0.0003*%
%ADD105R,0.0043X0.0003*%
%ADD106R,0.0125X0.0003*%
%ADD107R,0.0142X0.0003*%
%ADD108R,0.0123X0.0003*%
%ADD109R,0.0128X0.0003*%
%ADD110R,0.0045X0.0003*%
%ADD111R,0.0135X0.0002*%
%ADD112R,0.0210X0.0002*%
%ADD113R,0.0048X0.0002*%
%ADD114R,0.0047X0.0002*%
%ADD115R,0.0045X0.0002*%
%ADD116R,0.0133X0.0002*%
%ADD117R,0.0055X0.0002*%
%ADD118R,0.0150X0.0002*%
%ADD119R,0.0262X0.0002*%
%ADD120R,0.0130X0.0002*%
%ADD121R,0.0050X0.0002*%
%ADD122R,0.0152X0.0002*%
%ADD123R,0.0215X0.0003*%
%ADD124R,0.0143X0.0003*%
%ADD125R,0.0055X0.0003*%
%ADD126R,0.0047X0.0003*%
%ADD127R,0.0135X0.0003*%
%ADD128R,0.0058X0.0003*%
%ADD129R,0.0158X0.0003*%
%ADD130R,0.0268X0.0003*%
%ADD131R,0.0132X0.0003*%
%ADD132R,0.0148X0.0002*%
%ADD133R,0.0217X0.0002*%
%ADD134R,0.0147X0.0002*%
%ADD135R,0.0058X0.0002*%
%ADD136R,0.0053X0.0002*%
%ADD137R,0.0138X0.0002*%
%ADD138R,0.0052X0.0002*%
%ADD139R,0.0162X0.0002*%
%ADD140R,0.0272X0.0002*%
%ADD141R,0.0152X0.0003*%
%ADD142R,0.0220X0.0003*%
%ADD143R,0.0153X0.0003*%
%ADD144R,0.0062X0.0003*%
%ADD145R,0.0063X0.0003*%
%ADD146R,0.0140X0.0003*%
%ADD147R,0.0060X0.0003*%
%ADD148R,0.0168X0.0003*%
%ADD149R,0.0278X0.0003*%
%ADD150R,0.0137X0.0003*%
%ADD151R,0.0165X0.0003*%
%ADD152R,0.0160X0.0002*%
%ADD153R,0.0222X0.0002*%
%ADD154R,0.0140X0.0002*%
%ADD155R,0.0172X0.0002*%
%ADD156R,0.0282X0.0002*%
%ADD157R,0.0170X0.0003*%
%ADD158R,0.0227X0.0003*%
%ADD159R,0.0167X0.0003*%
%ADD160R,0.0073X0.0003*%
%ADD161R,0.0180X0.0003*%
%ADD162R,0.0288X0.0003*%
%ADD163R,0.0178X0.0003*%
%ADD164R,0.0180X0.0002*%
%ADD165R,0.0235X0.0002*%
%ADD166R,0.0177X0.0002*%
%ADD167R,0.0078X0.0002*%
%ADD168R,0.0145X0.0002*%
%ADD169R,0.0057X0.0002*%
%ADD170R,0.0185X0.0002*%
%ADD171R,0.0292X0.0002*%
%ADD172R,0.0182X0.0002*%
%ADD173R,0.0188X0.0003*%
%ADD174R,0.0237X0.0003*%
%ADD175R,0.0183X0.0003*%
%ADD176R,0.0148X0.0003*%
%ADD177R,0.0057X0.0003*%
%ADD178R,0.0190X0.0003*%
%ADD179R,0.0295X0.0003*%
%ADD180R,0.0192X0.0002*%
%ADD181R,0.0240X0.0002*%
%ADD182R,0.0187X0.0002*%
%ADD183R,0.0195X0.0002*%
%ADD184R,0.0298X0.0002*%
%ADD185R,0.0198X0.0003*%
%ADD186R,0.0242X0.0003*%
%ADD187R,0.0193X0.0003*%
%ADD188R,0.0147X0.0003*%
%ADD189R,0.0200X0.0003*%
%ADD190R,0.0300X0.0003*%
%ADD191R,0.0150X0.0003*%
%ADD192R,0.0202X0.0002*%
%ADD193R,0.0242X0.0002*%
%ADD194R,0.0197X0.0002*%
%ADD195R,0.0205X0.0002*%
%ADD196R,0.0302X0.0002*%
%ADD197R,0.0200X0.0002*%
%ADD198R,0.0208X0.0003*%
%ADD199R,0.0245X0.0003*%
%ADD200R,0.0203X0.0003*%
%ADD201R,0.0210X0.0003*%
%ADD202R,0.0302X0.0003*%
%ADD203R,0.0202X0.0003*%
%ADD204R,0.0247X0.0002*%
%ADD205R,0.0207X0.0002*%
%ADD206R,0.0155X0.0002*%
%ADD207R,0.0215X0.0002*%
%ADD208R,0.0308X0.0002*%
%ADD209R,0.0252X0.0003*%
%ADD210R,0.0213X0.0003*%
%ADD211R,0.0155X0.0003*%
%ADD212R,0.0312X0.0003*%
%ADD213R,0.0220X0.0002*%
%ADD214R,0.0255X0.0002*%
%ADD215R,0.0158X0.0002*%
%ADD216R,0.0315X0.0002*%
%ADD217R,0.0153X0.0002*%
%ADD218R,0.0222X0.0003*%
%ADD219R,0.0257X0.0003*%
%ADD220R,0.0095X0.0003*%
%ADD221R,0.0102X0.0003*%
%ADD222R,0.0318X0.0003*%
%ADD223R,0.0107X0.0003*%
%ADD224R,0.0228X0.0002*%
%ADD225R,0.0257X0.0002*%
%ADD226R,0.0223X0.0002*%
%ADD227R,0.0095X0.0002*%
%ADD228R,0.0122X0.0002*%
%ADD229R,0.0082X0.0002*%
%ADD230R,0.0087X0.0002*%
%ADD231R,0.0098X0.0002*%
%ADD232R,0.0232X0.0003*%
%ADD233R,0.0260X0.0003*%
%ADD234R,0.0087X0.0003*%
%ADD235R,0.0238X0.0002*%
%ADD236R,0.0260X0.0002*%
%ADD237R,0.0233X0.0002*%
%ADD238R,0.0083X0.0002*%
%ADD239R,0.0073X0.0002*%
%ADD240R,0.0240X0.0003*%
%ADD241R,0.0262X0.0003*%
%ADD242R,0.0088X0.0003*%
%ADD243R,0.0245X0.0002*%
%ADD244R,0.0265X0.0002*%
%ADD245R,0.0243X0.0002*%
%ADD246R,0.0070X0.0002*%
%ADD247R,0.0065X0.0002*%
%ADD248R,0.0247X0.0003*%
%ADD249R,0.0265X0.0003*%
%ADD250R,0.0243X0.0003*%
%ADD251R,0.0250X0.0002*%
%ADD252R,0.0267X0.0002*%
%ADD253R,0.0250X0.0003*%
%ADD254R,0.0270X0.0003*%
%ADD255R,0.0067X0.0003*%
%ADD256R,0.0253X0.0002*%
%ADD257R,0.0062X0.0002*%
%ADD258R,0.0115X0.0003*%
%ADD259R,0.0130X0.0003*%
%ADD260R,0.0107X0.0002*%
%ADD261R,0.0105X0.0003*%
%ADD262R,0.0117X0.0003*%
%ADD263R,0.0115X0.0002*%
%ADD264R,0.0097X0.0002*%
%ADD265R,0.0103X0.0003*%
%ADD266R,0.0112X0.0003*%
%ADD267R,0.0090X0.0003*%
%ADD268R,0.0093X0.0003*%
%ADD269R,0.0092X0.0003*%
%ADD270R,0.0088X0.0002*%
%ADD271R,0.0012X0.0003*%
%ADD272R,0.0120X0.0002*%
%ADD273R,0.0125X0.0002*%
%ADD274R,0.0127X0.0002*%
%ADD275R,0.0127X0.0003*%
%ADD276R,0.0160X0.0003*%
%ADD277R,0.0163X0.0002*%
%ADD278R,0.0170X0.0002*%
%ADD279R,0.0145X0.0003*%
%ADD280R,0.0175X0.0002*%
%ADD281R,0.0188X0.0002*%
%ADD282R,0.0185X0.0003*%
%ADD283R,0.0207X0.0003*%
%ADD284R,0.0195X0.0003*%
%ADD285R,0.0208X0.0002*%
%ADD286R,0.0190X0.0002*%
%ADD287R,0.0187X0.0003*%
%ADD288R,0.0175X0.0003*%
%ADD289R,0.0173X0.0003*%
%ADD290R,0.0165X0.0002*%
%ADD291R,0.0235X0.0003*%
%ADD292R,0.0248X0.0003*%
%ADD293R,0.0143X0.0002*%
%ADD294R,0.0255X0.0003*%
%ADD295R,0.0275X0.0002*%
%ADD296R,0.0113X0.0002*%
%ADD297R,0.0110X0.0003*%
%ADD298R,0.0013X0.0002*%
%ADD299R,0.0178X0.0002*%
%ADD300R,0.0015X0.0003*%
%ADD301R,0.0040X0.0002*%
%ADD302R,0.0027X0.0002*%
%ADD303R,0.0048X0.0003*%
%ADD304R,0.0032X0.0003*%
%ADD305R,0.0038X0.0003*%
%ADD306R,0.0138X0.0003*%
%ADD307R,0.0123X0.0002*%
%ADD308R,0.0212X0.0002*%
%ADD309R,0.0238X0.0003*%
%ADD310R,0.0252X0.0002*%
%ADD311R,0.0258X0.0002*%
%ADD312R,0.0203X0.0002*%
%ADD313R,0.0197X0.0003*%
%ADD314R,0.0198X0.0002*%
%ADD315R,0.0230X0.0003*%
%ADD316R,0.0233X0.0003*%
%ADD317R,0.0193X0.0002*%
%ADD318R,0.0230X0.0002*%
%ADD319R,0.0223X0.0003*%
%ADD320R,0.0228X0.0003*%
%ADD321R,0.0182X0.0003*%
%ADD322R,0.0218X0.0003*%
%ADD323R,0.0172X0.0003*%
%ADD324R,0.0227X0.0002*%
%ADD325R,0.0167X0.0002*%
%ADD326R,0.0218X0.0002*%
%ADD327R,0.0168X0.0002*%
%ADD328R,0.0225X0.0003*%
%ADD329R,0.0163X0.0003*%
%ADD330R,0.0162X0.0003*%
%ADD331R,0.0157X0.0002*%
%ADD332R,0.0213X0.0002*%
%ADD333R,0.0137X0.0002*%
%ADD334R,0.0112X0.0002*%
%ADD335R,0.0192X0.0003*%
%ADD336R,0.0017X0.0002*%
%ADD337R,0.0013X0.0003*%
%ADD338R,0.0022X0.0003*%
%ADD339R,0.0037X0.0003*%
%ADD340R,0.0032X0.0002*%
%ADD341R,0.0157X0.0003*%
%ADD342R,0.0217X0.0003*%
%ADD343R,0.0177X0.0003*%
%ADD344R,0.0183X0.0002*%
%ADD345R,0.0272X0.0003*%
%ADD346R,0.0280X0.0002*%
%ADD347R,0.0285X0.0003*%
%ADD348R,0.0287X0.0002*%
%ADD349R,0.0293X0.0003*%
%ADD350R,0.0212X0.0003*%
%ADD351R,0.0300X0.0002*%
%ADD352R,0.0310X0.0003*%
%ADD353R,0.0318X0.0002*%
%ADD354R,0.0322X0.0003*%
%ADD355R,0.0328X0.0002*%
%ADD356R,0.0332X0.0003*%
%ADD357R,0.0253X0.0003*%
%ADD358R,0.0340X0.0002*%
%ADD359R,0.0345X0.0003*%
%ADD360R,0.0263X0.0003*%
%ADD361R,0.0353X0.0002*%
%ADD362R,0.0270X0.0002*%
%ADD363R,0.0360X0.0003*%
%ADD364R,0.0365X0.0002*%
%ADD365R,0.0370X0.0003*%
%ADD366R,0.0372X0.0002*%
%ADD367R,0.0380X0.0003*%
%ADD368R,0.0298X0.0003*%
%ADD369R,0.0390X0.0002*%
%ADD370R,0.0305X0.0002*%
%ADD371R,0.0397X0.0003*%
%ADD372R,0.0008X0.0003*%
%ADD373R,0.0315X0.0003*%
%ADD374R,0.0403X0.0002*%
%ADD375R,0.0320X0.0002*%
%ADD376R,0.0405X0.0003*%
%ADD377R,0.0323X0.0003*%
%ADD378R,0.0410X0.0002*%
%ADD379R,0.0327X0.0002*%
%ADD380R,0.0418X0.0003*%
%ADD381R,0.0335X0.0003*%
%ADD382R,0.0422X0.0002*%
%ADD383R,0.0430X0.0003*%
%ADD384R,0.0348X0.0003*%
%ADD385R,0.0437X0.0002*%
%ADD386R,0.0355X0.0002*%
%ADD387R,0.0445X0.0003*%
%ADD388R,0.0450X0.0002*%
%ADD389R,0.0452X0.0003*%
%ADD390R,0.0367X0.0003*%
%ADD391R,0.0458X0.0002*%
%ADD392R,0.0373X0.0002*%
%ADD393R,0.0462X0.0003*%
%ADD394R,0.0470X0.0002*%
%ADD395R,0.0385X0.0002*%
%ADD396R,0.0480X0.0003*%
%ADD397R,0.0392X0.0003*%
%ADD398R,0.0483X0.0002*%
%ADD399R,0.0398X0.0002*%
%ADD400R,0.0487X0.0003*%
%ADD401R,0.0402X0.0003*%
%ADD402R,0.0495X0.0002*%
%ADD403R,0.0405X0.0002*%
%ADD404R,0.0500X0.0003*%
%ADD405R,0.0410X0.0003*%
%ADD406R,0.0508X0.0002*%
%ADD407R,0.0417X0.0002*%
%ADD408R,0.0515X0.0003*%
%ADD409R,0.0425X0.0003*%
%ADD410R,0.0523X0.0002*%
%ADD411R,0.0430X0.0002*%
%ADD412R,0.0527X0.0003*%
%ADD413R,0.0438X0.0003*%
%ADD414R,0.0533X0.0002*%
%ADD415R,0.0442X0.0002*%
%ADD416R,0.0535X0.0003*%
%ADD417R,0.0540X0.0002*%
%ADD418R,0.0548X0.0003*%
%ADD419R,0.0457X0.0003*%
%ADD420R,0.0555X0.0002*%
%ADD421R,0.0465X0.0002*%
%ADD422R,0.0560X0.0003*%
%ADD423R,0.0472X0.0003*%
%ADD424R,0.0565X0.0002*%
%ADD425R,0.0478X0.0002*%
%ADD426R,0.0570X0.0003*%
%ADD427R,0.0817X0.0002*%
%ADD428R,0.0482X0.0002*%
%ADD429R,0.0820X0.0003*%
%ADD430R,0.0490X0.0003*%
%ADD431R,0.0825X0.0002*%
%ADD432R,0.0497X0.0002*%
%ADD433R,0.0828X0.0003*%
%ADD434R,0.0502X0.0003*%
%ADD435R,0.0830X0.0002*%
%ADD436R,0.0835X0.0003*%
%ADD437R,0.0512X0.0003*%
%ADD438R,0.0835X0.0002*%
%ADD439R,0.0225X0.0002*%
%ADD440R,0.0518X0.0002*%
%ADD441R,0.0840X0.0003*%
%ADD442R,0.0522X0.0003*%
%ADD443R,0.0840X0.0002*%
%ADD444R,0.0530X0.0002*%
%ADD445R,0.0845X0.0003*%
%ADD446R,0.0537X0.0003*%
%ADD447R,0.0845X0.0002*%
%ADD448R,0.0542X0.0002*%
%ADD449R,0.0848X0.0003*%
%ADD450R,0.0550X0.0003*%
%ADD451R,0.0850X0.0002*%
%ADD452R,0.0850X0.0003*%
%ADD453R,0.0823X0.0003*%
%ADD454R,0.0852X0.0002*%
%ADD455R,0.0852X0.0003*%
%ADD456R,0.0832X0.0002*%
%ADD457R,0.0855X0.0003*%
%ADD458R,0.0855X0.0002*%
%ADD459R,0.0837X0.0003*%
%ADD460R,0.0843X0.0003*%
%ADD461R,0.0848X0.0002*%
%ADD462R,0.0858X0.0003*%
%ADD463R,0.0860X0.0002*%
%ADD464R,0.0857X0.0003*%
%ADD465R,0.0860X0.0003*%
%ADD466R,0.0865X0.0002*%
%ADD467R,0.0865X0.0003*%
%ADD468R,0.0853X0.0002*%
%ADD469R,0.0867X0.0003*%
%ADD470R,0.0867X0.0002*%
%ADD471R,0.0870X0.0003*%
%ADD472R,0.0870X0.0002*%
%ADD473R,0.0847X0.0002*%
%ADD474R,0.0868X0.0002*%
%ADD475R,0.0842X0.0002*%
%ADD476R,0.0838X0.0002*%
%ADD477R,0.0868X0.0003*%
%ADD478R,0.0838X0.0003*%
%ADD479R,0.0837X0.0002*%
%ADD480R,0.0833X0.0003*%
%ADD481R,0.0833X0.0002*%
%ADD482R,0.0863X0.0002*%
%ADD483R,0.0830X0.0003*%
%ADD484R,0.0863X0.0003*%
%ADD485R,0.0862X0.0002*%
%ADD486R,0.0827X0.0002*%
%ADD487R,0.0857X0.0002*%
%ADD488R,0.0827X0.0003*%
%ADD489R,0.0858X0.0002*%
%ADD490R,0.0825X0.0003*%
%ADD491R,0.0823X0.0002*%
%ADD492R,0.0822X0.0002*%
%ADD493R,0.0853X0.0003*%
%ADD494R,0.0820X0.0002*%
%ADD495R,0.0817X0.0003*%
%ADD496R,0.0818X0.0002*%
%ADD497R,0.0815X0.0003*%
%ADD498R,0.0847X0.0003*%
%ADD499R,0.0815X0.0002*%
%ADD500R,0.0812X0.0003*%
%ADD501R,0.0813X0.0003*%
%ADD502R,0.0808X0.0002*%
%ADD503R,0.0805X0.0003*%
%ADD504R,0.0805X0.0002*%
%ADD505R,0.0842X0.0003*%
%ADD506R,0.0802X0.0003*%
%ADD507R,0.0803X0.0003*%
%ADD508R,0.0802X0.0002*%
%ADD509R,0.0800X0.0002*%
%ADD510R,0.0800X0.0003*%
%ADD511R,0.0797X0.0003*%
%ADD512R,0.0798X0.0003*%
%ADD513R,0.0832X0.0003*%
%ADD514R,0.0798X0.0002*%
%ADD515R,0.0795X0.0003*%
%ADD516R,0.0795X0.0002*%
%ADD517R,0.0792X0.0003*%
%ADD518R,0.0790X0.0002*%
%ADD519R,0.0787X0.0003*%
%ADD520R,0.0788X0.0002*%
%ADD521R,0.0788X0.0003*%
%ADD522R,0.0785X0.0002*%
%ADD523R,0.0785X0.0003*%
%ADD524R,0.0783X0.0002*%
%ADD525R,0.0782X0.0003*%
%ADD526R,0.0822X0.0003*%
%ADD527R,0.0780X0.0002*%
%ADD528R,0.0783X0.0003*%
%ADD529R,0.0780X0.0003*%
%ADD530R,0.0777X0.0003*%
%ADD531R,0.0777X0.0002*%
%ADD532R,0.0775X0.0003*%
%ADD533R,0.0818X0.0003*%
%ADD534R,0.0772X0.0002*%
%ADD535R,0.0773X0.0003*%
%ADD536R,0.0770X0.0002*%
%ADD537R,0.0770X0.0003*%
%ADD538R,0.0767X0.0002*%
%ADD539R,0.0812X0.0002*%
%ADD540R,0.0768X0.0003*%
%ADD541R,0.0807X0.0002*%
%ADD542R,0.0765X0.0003*%
%ADD543R,0.0765X0.0002*%
%ADD544R,0.0763X0.0002*%
%ADD545R,0.0762X0.0002*%
%ADD546R,0.0760X0.0003*%
%ADD547R,0.0760X0.0002*%
%ADD548R,0.0758X0.0003*%
%ADD549R,0.0755X0.0002*%
%ADD550R,0.0803X0.0002*%
%ADD551R,0.0755X0.0003*%
%ADD552R,0.0753X0.0002*%
%ADD553R,0.0752X0.0002*%
%ADD554R,0.0750X0.0003*%
%ADD555R,0.0750X0.0002*%
%ADD556R,0.0747X0.0003*%
%ADD557R,0.0748X0.0002*%
%ADD558R,0.0792X0.0002*%
%ADD559R,0.0745X0.0003*%
%ADD560R,0.0747X0.0002*%
%ADD561R,0.0793X0.0002*%
%ADD562R,0.0790X0.0003*%
%ADD563R,0.0745X0.0002*%
%ADD564R,0.0748X0.0003*%
%ADD565R,0.0752X0.0003*%
%ADD566R,0.0758X0.0002*%
%ADD567R,0.0782X0.0002*%
%ADD568R,0.0778X0.0003*%
%ADD569R,0.0775X0.0002*%
%ADD570R,0.0778X0.0002*%
%ADD571R,0.0787X0.0002*%
%ADD572R,0.0808X0.0003*%
%ADD573R,0.0810X0.0002*%
%ADD574R,0.0797X0.0002*%
%ADD575R,0.0828X0.0002*%
%ADD576R,0.0872X0.0002*%
%ADD577R,0.0872X0.0003*%
%ADD578R,0.0875X0.0002*%
%ADD579R,0.0880X0.0003*%
%ADD580R,0.0880X0.0002*%
%ADD581R,0.0883X0.0003*%
%ADD582R,0.0887X0.0002*%
%ADD583R,0.0887X0.0003*%
%ADD584R,0.0890X0.0002*%
%ADD585R,0.0873X0.0002*%
%ADD586R,0.0893X0.0003*%
%ADD587R,0.0875X0.0003*%
%ADD588R,0.0895X0.0002*%
%ADD589R,0.0877X0.0002*%
%ADD590R,0.0895X0.0003*%
%ADD591R,0.0898X0.0002*%
%ADD592R,0.0898X0.0003*%
%ADD593R,0.0900X0.0002*%
%ADD594R,0.0883X0.0002*%
%ADD595R,0.0902X0.0003*%
%ADD596R,0.0885X0.0003*%
%ADD597R,0.0902X0.0002*%
%ADD598R,0.0885X0.0002*%
%ADD599R,0.0905X0.0003*%
%ADD600R,0.0905X0.0002*%
%ADD601R,0.0907X0.0003*%
%ADD602R,0.0890X0.0003*%
%ADD603R,0.0910X0.0002*%
%ADD604R,0.0893X0.0002*%
%ADD605R,0.0913X0.0003*%
%ADD606R,0.0913X0.0002*%
%ADD607R,0.0897X0.0002*%
%ADD608R,0.0917X0.0003*%
%ADD609R,0.0900X0.0003*%
%ADD610R,0.0917X0.0002*%
%ADD611R,0.0903X0.0002*%
%ADD612R,0.0920X0.0003*%
%ADD613R,0.0920X0.0002*%
%ADD614R,0.0907X0.0002*%
%ADD615R,0.0923X0.0003*%
%ADD616R,0.0923X0.0002*%
%ADD617R,0.0925X0.0003*%
%ADD618R,0.0925X0.0002*%
%ADD619R,0.0922X0.0003*%
%ADD620R,0.0915X0.0002*%
%ADD621R,0.0912X0.0003*%
%ADD622R,0.0892X0.0002*%
%ADD623R,0.0878X0.0002*%
%ADD624R,0.0877X0.0003*%
%ADD625R,0.0843X0.0002*%
%ADD626R,0.0810X0.0003*%
%ADD627R,0.0793X0.0003*%
%ADD628R,0.0773X0.0002*%
%ADD629R,0.0935X0.0002*%
%ADD630R,0.0950X0.0003*%
%ADD631R,0.0960X0.0002*%
%ADD632R,0.0967X0.0003*%
%ADD633R,0.0975X0.0002*%
%ADD634R,0.0983X0.0003*%
%ADD635R,0.1000X0.0002*%
%ADD636R,0.1022X0.0003*%
%ADD637R,0.1037X0.0002*%
%ADD638R,0.1050X0.0003*%
%ADD639R,0.0878X0.0003*%
%ADD640R,0.1055X0.0002*%
%ADD641R,0.1063X0.0003*%
%ADD642R,0.0892X0.0003*%
%ADD643R,0.1075X0.0002*%
%ADD644R,0.1095X0.0003*%
%ADD645R,0.0928X0.0003*%
%ADD646R,0.1115X0.0002*%
%ADD647R,0.0950X0.0002*%
%ADD648R,0.1122X0.0003*%
%ADD649R,0.0965X0.0003*%
%ADD650R,0.1128X0.0002*%
%ADD651R,0.1130X0.0003*%
%ADD652R,0.0982X0.0003*%
%ADD653R,0.1132X0.0002*%
%ADD654R,0.0992X0.0002*%
%ADD655R,0.1135X0.0003*%
%ADD656R,0.1010X0.0003*%
%ADD657R,0.1135X0.0002*%
%ADD658R,0.1033X0.0002*%
%ADD659R,0.1138X0.0003*%
%ADD660R,0.1055X0.0003*%
%ADD661R,0.1140X0.0002*%
%ADD662R,0.1065X0.0002*%
%ADD663R,0.1140X0.0003*%
%ADD664R,0.1075X0.0003*%
%ADD665R,0.1083X0.0002*%
%ADD666R,0.1092X0.0003*%
%ADD667R,0.1137X0.0002*%
%ADD668R,0.1108X0.0002*%
%ADD669R,0.1137X0.0003*%
%ADD670R,0.1118X0.0003*%
%ADD671R,0.1138X0.0002*%
%ADD672R,0.1117X0.0002*%
%ADD673R,0.1120X0.0003*%
%ADD674R,0.1122X0.0002*%
%ADD675R,0.1123X0.0003*%
%ADD676R,0.1133X0.0002*%
%ADD677R,0.1125X0.0002*%
%ADD678R,0.1133X0.0003*%
%ADD679R,0.1128X0.0003*%
%ADD680R,0.1130X0.0002*%
%ADD681R,0.1125X0.0003*%
%ADD682R,0.1123X0.0002*%
%ADD683R,0.1127X0.0003*%
%ADD684R,0.1120X0.0002*%
%ADD685R,0.1118X0.0002*%
%ADD686R,0.1117X0.0003*%
%ADD687R,0.1115X0.0003*%
%ADD688R,0.1112X0.0003*%
%ADD689R,0.1112X0.0002*%
%ADD690R,0.1110X0.0002*%
%ADD691R,0.1110X0.0003*%
%ADD692R,0.1107X0.0002*%
%ADD693R,0.1107X0.0003*%
%ADD694R,0.1105X0.0003*%
%ADD695R,0.1105X0.0002*%
%ADD696R,0.1108X0.0003*%
%ADD697R,0.1113X0.0003*%
%ADD698R,0.1113X0.0002*%
%ADD699R,0.1127X0.0002*%
%ADD700R,0.1132X0.0003*%
%ADD701R,0.1143X0.0003*%
%ADD702R,0.1143X0.0002*%
%ADD703R,0.1145X0.0003*%
%ADD704R,0.1148X0.0002*%
%ADD705R,0.1088X0.0003*%
%ADD706R,0.1067X0.0002*%
%ADD707R,0.1147X0.0002*%
%ADD708R,0.1042X0.0003*%
%ADD709R,0.1147X0.0003*%
%ADD710R,0.1027X0.0002*%
%ADD711R,0.1145X0.0002*%
%ADD712R,0.1020X0.0003*%
%ADD713R,0.1148X0.0003*%
%ADD714R,0.1010X0.0002*%
%ADD715R,0.1002X0.0003*%
%ADD716R,0.0985X0.0002*%
%ADD717R,0.0960X0.0003*%
%ADD718R,0.1142X0.0003*%
%ADD719R,0.0945X0.0002*%
%ADD720R,0.0932X0.0003*%
%ADD721R,0.0918X0.0003*%
%ADD722R,0.1097X0.0003*%
%ADD723R,0.1065X0.0003*%
%ADD724R,0.1042X0.0002*%
%ADD725R,0.1033X0.0003*%
%ADD726R,0.1012X0.0002*%
%ADD727R,0.0992X0.0003*%
%ADD728R,0.0983X0.0002*%
%ADD729R,0.0975X0.0003*%
%ADD730R,0.0970X0.0002*%
%ADD731R,0.0962X0.0003*%
%ADD732R,0.0948X0.0002*%
%ADD733R,0.0927X0.0003*%
%ADD734R,0.0903X0.0003*%
%ADD735R,0.0862X0.0003*%
%ADD736R,0.0882X0.0003*%
%ADD737R,0.0888X0.0003*%
%ADD738R,0.0897X0.0003*%
%ADD739R,0.0912X0.0002*%
%ADD740R,0.0933X0.0003*%
%ADD741R,0.0940X0.0002*%
%ADD742R,0.0945X0.0003*%
%ADD743R,0.0947X0.0003*%
%ADD744R,0.0952X0.0002*%
%ADD745R,0.0952X0.0003*%
%ADD746R,0.0955X0.0003*%
%ADD747R,0.0957X0.0002*%
%ADD748R,0.0970X0.0003*%
%ADD749R,0.1018X0.0003*%
%ADD750R,0.1030X0.0003*%
%ADD751R,0.1035X0.0002*%
%ADD752R,0.1050X0.0002*%
%ADD753R,0.2115X0.0003*%
%ADD754R,0.2113X0.0002*%
%ADD755R,0.2110X0.0003*%
%ADD756R,0.2110X0.0002*%
%ADD757R,0.2107X0.0003*%
%ADD758R,0.2103X0.0002*%
%ADD759R,0.2100X0.0003*%
%ADD760R,0.2097X0.0002*%
%ADD761R,0.2093X0.0003*%
%ADD762R,0.2093X0.0002*%
%ADD763R,0.2090X0.0003*%
%ADD764R,0.2087X0.0002*%
%ADD765R,0.2085X0.0003*%
%ADD766R,0.2085X0.0002*%
%ADD767R,0.2080X0.0002*%
%ADD768R,0.2080X0.0003*%
%ADD769R,0.2075X0.0003*%
%ADD770R,0.2073X0.0002*%
%ADD771R,0.2070X0.0003*%
%ADD772R,0.2065X0.0002*%
%ADD773R,0.2063X0.0003*%
%ADD774R,0.2060X0.0002*%
%ADD775R,0.2055X0.0003*%
%ADD776R,0.2055X0.0002*%
%ADD777R,0.2050X0.0003*%
%ADD778R,0.2050X0.0002*%
%ADD779R,0.2047X0.0002*%
%ADD780R,0.2045X0.0003*%
%ADD781R,0.2043X0.0002*%
%ADD782R,0.2040X0.0003*%
%ADD783R,0.2037X0.0002*%
%ADD784R,0.2033X0.0003*%
%ADD785R,0.2033X0.0002*%
%ADD786R,0.2027X0.0003*%
%ADD787R,0.2025X0.0002*%
%ADD788R,0.2023X0.0003*%
%ADD789R,0.2020X0.0002*%
%ADD790R,0.2020X0.0003*%
%ADD791R,0.2015X0.0002*%
%ADD792R,0.2015X0.0003*%
%ADD793R,0.2013X0.0002*%
%ADD794R,0.2010X0.0003*%
%ADD795R,0.2007X0.0002*%
%ADD796R,0.2003X0.0003*%
%ADD797R,0.2000X0.0002*%
%ADD798R,0.1997X0.0003*%
%ADD799R,0.1993X0.0002*%
%ADD800R,0.1990X0.0003*%
%ADD801R,0.1987X0.0002*%
%ADD802R,0.1985X0.0003*%
%ADD803R,0.1985X0.0002*%
%ADD804R,0.1980X0.0003*%
%ADD805R,0.1980X0.0002*%
%ADD806R,0.1975X0.0003*%
%ADD807R,0.1973X0.0002*%
%ADD808R,0.1967X0.0003*%
%ADD809R,0.1963X0.0002*%
%ADD810R,0.1960X0.0003*%
%ADD811R,0.1957X0.0002*%
%ADD812R,0.1955X0.0003*%
%ADD813R,0.1950X0.0002*%
%ADD814R,0.1950X0.0003*%
%ADD815R,0.1947X0.0002*%
%ADD816R,0.1947X0.0003*%
%ADD817R,0.1943X0.0002*%
%ADD818R,0.1943X0.0003*%
%ADD819R,0.1940X0.0002*%
%ADD820R,0.1940X0.0003*%
%ADD821R,0.1937X0.0003*%
%ADD822R,0.1937X0.0002*%
%ADD823R,0.1945X0.0003*%
%ADD824R,0.1953X0.0002*%
%ADD825R,0.1957X0.0003*%
%ADD826R,0.1960X0.0002*%
%ADD827R,0.1965X0.0003*%
%ADD828R,0.1965X0.0002*%
%ADD829R,0.1970X0.0003*%
%ADD830R,0.1970X0.0002*%
%ADD831R,0.1983X0.0003*%
%ADD832R,0.1993X0.0003*%
%ADD833R,0.1995X0.0002*%
%ADD834R,0.2007X0.0003*%
%ADD835R,0.2017X0.0003*%
%ADD836R,0.2023X0.0002*%
%ADD837R,0.2030X0.0002*%
%ADD838R,0.2035X0.0002*%
%ADD839R,0.2037X0.0003*%
%ADD840R,0.2047X0.0003*%
%ADD841R,0.2067X0.0003*%
%ADD842R,0.2095X0.0002*%
%ADD843R,0.2097X0.0003*%
%ADD844R,0.2100X0.0002*%
%ADD845R,0.2103X0.0003*%
%ADD846R,0.2105X0.0002*%
%ADD847R,0.2112X0.0002*%
%ADD848R,0.2118X0.0003*%
%ADD849R,0.2122X0.0002*%
%ADD850R,0.2125X0.0003*%
%ADD851R,0.2130X0.0002*%
%ADD852R,0.2133X0.0003*%
%ADD853R,0.2135X0.0002*%
%ADD854R,0.2140X0.0003*%
%ADD855R,0.2142X0.0002*%
%ADD856R,0.2148X0.0003*%
%ADD857R,0.2150X0.0002*%
%ADD858R,0.2152X0.0003*%
%ADD859R,0.2158X0.0002*%
%ADD860R,0.2160X0.0003*%
%ADD861R,0.2165X0.0002*%
%ADD862R,0.2168X0.0003*%
%ADD863R,0.2170X0.0002*%
%ADD864R,0.2172X0.0003*%
%ADD865R,0.2178X0.0002*%
%ADD866R,0.2180X0.0003*%
%ADD867R,0.2185X0.0002*%
%ADD868R,0.2188X0.0003*%
%ADD869R,0.2192X0.0002*%
%ADD870R,0.2195X0.0003*%
%ADD871R,0.2200X0.0002*%
%ADD872R,0.2200X0.0003*%
%ADD873R,0.2205X0.0002*%
%ADD874R,0.2210X0.0003*%
%ADD875R,0.2215X0.0002*%
%ADD876R,0.2215X0.0003*%
%ADD877R,0.2220X0.0002*%
%ADD878R,0.2225X0.0003*%
%ADD879R,0.2228X0.0002*%
%ADD880R,0.2232X0.0003*%
%ADD881R,0.2232X0.0002*%
%ADD882R,0.2238X0.0003*%
%ADD883R,0.2242X0.0002*%
%ADD884R,0.2245X0.0003*%
%ADD885R,0.2250X0.0002*%
%ADD886R,0.2250X0.0003*%
%ADD887R,0.2255X0.0002*%
%ADD888R,0.2260X0.0003*%
%ADD889R,0.2262X0.0002*%
%ADD890R,0.2268X0.0003*%
%ADD891R,0.2268X0.0002*%
%ADD892R,0.2272X0.0003*%
%ADD893R,0.2275X0.0002*%
%ADD894R,0.2280X0.0003*%
%ADD895R,0.2283X0.0002*%
%ADD896R,0.2287X0.0003*%
%ADD897R,0.2290X0.0002*%
%ADD898R,0.2295X0.0003*%
%ADD899R,0.2298X0.0002*%
%ADD900R,0.2300X0.0003*%
%ADD901R,0.2305X0.0002*%
%ADD902R,0.2310X0.0003*%
%ADD903R,0.2313X0.0002*%
%ADD904R,0.2317X0.0003*%
%ADD905R,0.2317X0.0002*%
%ADD906R,0.2323X0.0003*%
%ADD907R,0.2325X0.0002*%
%ADD908R,0.2330X0.0003*%
%ADD909R,0.2335X0.0002*%
%ADD910R,0.2337X0.0003*%
%ADD911R,0.2343X0.0002*%
%ADD912R,0.2345X0.0003*%
%ADD913R,0.2347X0.0002*%
%ADD914R,0.2353X0.0003*%
%ADD915R,0.2353X0.0002*%
%ADD916R,0.2357X0.0003*%
%ADD917R,0.2360X0.0002*%
%ADD918R,0.2365X0.0003*%
%ADD919R,0.2367X0.0002*%
%ADD920R,0.2370X0.0003*%
%ADD921R,0.2373X0.0002*%
%ADD922R,0.2377X0.0003*%
%ADD923R,0.2380X0.0002*%
%ADD924R,0.2380X0.0003*%
%ADD925R,0.2382X0.0002*%
%ADD926R,0.2382X0.0003*%
%ADD927R,0.2378X0.0003*%
%ADD928R,0.2375X0.0002*%
%ADD929R,0.2368X0.0002*%
%ADD930R,0.2362X0.0003*%
%ADD931R,0.2355X0.0003*%
%ADD932R,0.2350X0.0002*%
%ADD933R,0.2348X0.0003*%
%ADD934R,0.2342X0.0002*%
%ADD935R,0.2340X0.0003*%
%ADD936R,0.0577X0.0003*%
%ADD937R,0.1740X0.0003*%
%ADD938R,0.0570X0.0002*%
%ADD939R,0.1732X0.0002*%
%ADD940R,0.0562X0.0003*%
%ADD941R,0.1723X0.0003*%
%ADD942R,0.0595X0.0002*%
%ADD943R,0.1100X0.0003*%
%ADD944R,0.0587X0.0003*%
%ADD945R,0.0545X0.0002*%
%ADD946R,0.1095X0.0002*%
%ADD947R,0.0583X0.0002*%
%ADD948R,0.0543X0.0003*%
%ADD949R,0.1087X0.0003*%
%ADD950R,0.0535X0.0002*%
%ADD951R,0.1080X0.0002*%
%ADD952R,0.0573X0.0002*%
%ADD953R,0.1067X0.0003*%
%ADD954R,0.0565X0.0003*%
%ADD955R,0.0520X0.0002*%
%ADD956R,0.1053X0.0002*%
%ADD957R,0.0558X0.0002*%
%ADD958R,0.1043X0.0003*%
%ADD959R,0.0512X0.0002*%
%ADD960R,0.0508X0.0003*%
%ADD961R,0.0545X0.0003*%
%ADD962R,0.0502X0.0002*%
%ADD963R,0.1023X0.0002*%
%ADD964R,0.0537X0.0002*%
%ADD965R,0.0495X0.0003*%
%ADD966R,0.1013X0.0003*%
%ADD967R,0.0533X0.0003*%
%ADD968R,0.0487X0.0002*%
%ADD969R,0.0997X0.0002*%
%ADD970R,0.0475X0.0002*%
%ADD971R,0.0973X0.0002*%
%ADD972R,0.0470X0.0003*%
%ADD973R,0.0505X0.0003*%
%ADD974R,0.0468X0.0002*%
%ADD975R,0.0500X0.0002*%
%ADD976R,0.0953X0.0003*%
%ADD977R,0.0455X0.0002*%
%ADD978R,0.0937X0.0002*%
%ADD979R,0.0440X0.0002*%
%ADD980R,0.0472X0.0002*%
%ADD981R,0.0437X0.0003*%
%ADD982R,0.0468X0.0003*%
%ADD983R,0.0433X0.0002*%
%ADD984R,0.0462X0.0002*%
%ADD985R,0.0427X0.0003*%
%ADD986R,0.0460X0.0003*%
%ADD987R,0.0420X0.0002*%
%ADD988R,0.0412X0.0003*%
%ADD989R,0.0447X0.0003*%
%ADD990R,0.0408X0.0002*%
%ADD991R,0.0400X0.0003*%
%ADD992R,0.0395X0.0002*%
%ADD993R,0.0813X0.0002*%
%ADD994R,0.0428X0.0002*%
%ADD995R,0.0390X0.0003*%
%ADD996R,0.0422X0.0003*%
%ADD997R,0.0387X0.0002*%
%ADD998R,0.0418X0.0002*%
%ADD999R,0.0365X0.0003*%
%ADD1000R,0.0740X0.0003*%
%ADD1001R,0.0395X0.0003*%
%ADD1002R,0.0358X0.0002*%
%ADD1003R,0.0727X0.0002*%
%ADD1004R,0.0355X0.0003*%
%ADD1005R,0.0720X0.0003*%
%ADD1006R,0.0385X0.0003*%
%ADD1007R,0.0350X0.0002*%
%ADD1008R,0.0710X0.0002*%
%ADD1009R,0.0380X0.0002*%
%ADD1010R,0.0700X0.0003*%
%ADD1011R,0.0378X0.0003*%
%ADD1012R,0.0683X0.0002*%
%ADD1013R,0.0370X0.0002*%
%ADD1014R,0.0333X0.0003*%
%ADD1015R,0.0652X0.0003*%
%ADD1016R,0.0363X0.0003*%
%ADD1017R,0.0323X0.0002*%
%ADD1018R,0.0628X0.0002*%
%ADD1019R,0.0317X0.0003*%
%ADD1020R,0.0612X0.0003*%
%ADD1021R,0.0347X0.0003*%
%ADD1022R,0.0602X0.0002*%
%ADD1023R,0.0343X0.0002*%
%ADD1024R,0.0592X0.0003*%
%ADD1025R,0.0340X0.0003*%
%ADD1026R,0.0575X0.0002*%
%ADD1027R,0.0335X0.0002*%
%ADD1028R,0.0328X0.0003*%
%ADD1029R,0.0288X0.0002*%
%ADD1030R,0.0553X0.0002*%
%ADD1031R,0.0280X0.0003*%
%ADD1032R,0.0547X0.0003*%
%ADD1033R,0.0295X0.0002*%
%ADD1034R,0.0540X0.0003*%
%ADD1035R,0.0290X0.0003*%
%ADD1036R,0.0277X0.0002*%
%ADD1037R,0.0273X0.0003*%
%ADD1038R,0.0538X0.0002*%
%ADD1039R,0.0538X0.0003*%
%ADD1040R,0.0532X0.0003*%
%ADD1041R,0.0532X0.0002*%
%ADD1042R,0.0528X0.0003*%
%ADD1043R,0.0528X0.0002*%
%ADD1044R,0.0525X0.0003*%
%ADD1045R,0.0525X0.0002*%
%ADD1046R,0.0133X0.0003*%
%ADD1047R,0.0523X0.0003*%
%ADD1048R,0.0517X0.0003*%
%ADD1049R,0.0517X0.0002*%
%ADD1050R,0.0515X0.0002*%
%ADD1051R,0.0513X0.0002*%
%ADD1052R,0.0513X0.0003*%
%ADD1053R,0.0510X0.0002*%
%ADD1054R,0.0507X0.0003*%
%ADD1055R,0.0507X0.0002*%
%ADD1056R,0.0505X0.0002*%
%ADD1057R,0.0497X0.0003*%
%ADD1058R,0.0493X0.0003*%
%ADD1059R,0.0493X0.0002*%
%ADD1060R,0.0490X0.0002*%
%ADD1061R,0.0485X0.0003*%
%ADD1062R,0.0485X0.0002*%
%ADD1063R,0.0480X0.0002*%
%ADD1064R,0.0477X0.0002*%
%ADD1065R,0.0477X0.0003*%
%ADD1066R,0.0475X0.0003*%
%ADD1067R,0.0473X0.0003*%
%ADD1068R,0.0473X0.0002*%
%ADD1069R,0.0467X0.0003*%
%ADD1070R,0.0467X0.0002*%
%ADD1071R,0.0465X0.0003*%
%ADD1072R,0.0463X0.0003*%
%ADD1073R,0.0460X0.0002*%
%ADD1074R,0.0455X0.0003*%
%ADD1075R,0.0452X0.0002*%
%ADD1076R,0.0450X0.0003*%
%ADD1077R,0.0448X0.0003*%
%ADD1078R,0.0448X0.0002*%
%ADD1079R,0.0445X0.0002*%
%ADD1080R,0.0442X0.0003*%
%ADD1081R,0.0438X0.0002*%
%ADD1082R,0.0435X0.0002*%
%ADD1083R,0.0432X0.0003*%
%ADD1084R,0.0432X0.0002*%
%ADD1085R,0.0428X0.0003*%
%ADD1086R,0.0425X0.0002*%
%ADD1087R,0.0412X0.0002*%
%ADD1088R,0.0388X0.0003*%
%ADD1089R,0.0373X0.0003*%
%ADD1090R,0.0363X0.0002*%
%ADD1091R,0.0350X0.0003*%
%ADD1092R,0.0322X0.0002*%
D10*
X008870Y007020D02*
X008870Y007480D01*
X009100Y007480D01*
X009177Y007404D01*
X009177Y007250D01*
X009100Y007173D01*
X008870Y007173D01*
X009023Y007173D02*
X009177Y007020D01*
X009330Y007250D02*
X009637Y007250D01*
X009791Y007097D02*
X009791Y007020D01*
X009791Y007097D02*
X010098Y007404D01*
X010098Y007480D01*
X009791Y007480D01*
X010251Y007404D02*
X010251Y007327D01*
X010328Y007250D01*
X010481Y007250D01*
X010558Y007173D01*
X010558Y007097D01*
X010481Y007020D01*
X010328Y007020D01*
X010251Y007097D01*
X010251Y007173D01*
X010328Y007250D01*
X010481Y007250D02*
X010558Y007327D01*
X010558Y007404D01*
X010481Y007480D01*
X010328Y007480D01*
X010251Y007404D01*
X010712Y007480D02*
X010712Y007020D01*
X011018Y007020D01*
X010865Y007250D02*
X010712Y007250D01*
X010712Y007480D02*
X011018Y007480D01*
X011172Y007250D02*
X011479Y007250D01*
X011632Y007097D02*
X011632Y007404D01*
X011709Y007480D01*
X011863Y007480D01*
X011939Y007404D01*
X011632Y007097D01*
X011709Y007020D01*
X011863Y007020D01*
X011939Y007097D01*
X011939Y007404D01*
X012093Y007480D02*
X012093Y007250D01*
X012246Y007327D01*
X012323Y007327D01*
X012400Y007250D01*
X012400Y007097D01*
X012323Y007020D01*
X012169Y007020D01*
X012093Y007097D01*
X012093Y007480D02*
X012400Y007480D01*
X014345Y007525D02*
X014405Y007585D01*
X014525Y007585D01*
X014585Y007525D01*
X014585Y007345D01*
X014705Y007345D02*
X014345Y007345D01*
X014345Y007525D01*
X014405Y007713D02*
X014345Y007773D01*
X014345Y007893D01*
X014405Y007954D01*
X014465Y007954D01*
X014705Y007713D01*
X014705Y007954D01*
X014705Y008082D02*
X014705Y008142D01*
X014645Y008142D01*
X014645Y008082D01*
X014705Y008082D01*
X014705Y008266D02*
X014705Y008506D01*
X014705Y008386D02*
X014345Y008386D01*
X014465Y008266D01*
X014465Y008634D02*
X014345Y008754D01*
X014705Y008754D01*
X014705Y008634D02*
X014705Y008874D01*
X014965Y008878D02*
X014965Y008998D01*
X015025Y009058D01*
X015085Y009058D01*
X015085Y008818D01*
X015145Y008818D02*
X015025Y008818D01*
X014965Y008878D01*
X014965Y008690D02*
X014965Y008510D01*
X015025Y008450D01*
X015085Y008510D01*
X015085Y008630D01*
X015145Y008690D01*
X015205Y008630D01*
X015205Y008450D01*
X015205Y008322D02*
X014965Y008322D01*
X015205Y008322D02*
X015205Y008142D01*
X015145Y008082D01*
X014965Y008082D01*
X015025Y007954D02*
X015205Y007954D01*
X015205Y007773D01*
X015145Y007713D01*
X015085Y007773D01*
X015085Y007954D01*
X015025Y007954D02*
X014965Y007893D01*
X014965Y007773D01*
X015025Y007585D02*
X015085Y007525D01*
X015085Y007345D01*
X015205Y007345D02*
X014845Y007345D01*
X014845Y007525D01*
X014905Y007585D01*
X015025Y007585D01*
X015395Y007525D02*
X015455Y007585D01*
X015575Y007585D01*
X015635Y007525D01*
X015635Y007345D01*
X015755Y007345D02*
X015395Y007345D01*
X015395Y007525D01*
X015455Y007713D02*
X015395Y007773D01*
X015395Y007893D01*
X015455Y007954D01*
X015515Y007954D01*
X015575Y007893D01*
X015635Y007954D01*
X015695Y007954D01*
X015755Y007893D01*
X015755Y007773D01*
X015695Y007713D01*
X015575Y007833D02*
X015575Y007893D01*
X015695Y008082D02*
X015695Y008142D01*
X015755Y008142D01*
X015755Y008082D01*
X015695Y008082D01*
X015755Y008266D02*
X015515Y008506D01*
X015455Y008506D01*
X015395Y008446D01*
X015395Y008326D01*
X015455Y008266D01*
X015755Y008266D02*
X015755Y008506D01*
X015695Y008634D02*
X015755Y008694D01*
X015755Y008814D01*
X015695Y008874D01*
X015635Y008874D01*
X015575Y008814D01*
X015575Y008634D01*
X015695Y008634D01*
X015575Y008634D02*
X015455Y008754D01*
X015395Y008874D01*
X015205Y008878D02*
X015145Y008818D01*
X015205Y008878D02*
X015205Y008998D01*
X015895Y008998D02*
X015955Y009058D01*
X016015Y009058D01*
X016075Y008998D01*
X016075Y008818D01*
X016075Y008690D02*
X016075Y008450D01*
X016195Y008322D02*
X016255Y008262D01*
X016255Y008142D01*
X016195Y008082D01*
X015955Y008082D01*
X015895Y008142D01*
X015895Y008262D01*
X015955Y008322D01*
X015895Y007954D02*
X016255Y007954D01*
X015895Y007713D01*
X016255Y007713D01*
X016255Y007585D02*
X016255Y007345D01*
X015895Y007345D01*
X015895Y007585D01*
X016075Y007465D02*
X016075Y007345D01*
X016420Y007370D02*
X016420Y007550D01*
X016480Y007610D01*
X016600Y007610D01*
X016660Y007550D01*
X016660Y007370D01*
X016780Y007370D02*
X016420Y007370D01*
X016480Y007738D02*
X016420Y007798D01*
X016420Y007918D01*
X016480Y007979D01*
X016540Y007979D01*
X016600Y007918D01*
X016660Y007979D01*
X016720Y007979D01*
X016780Y007918D01*
X016780Y007798D01*
X016720Y007738D01*
X016600Y007858D02*
X016600Y007918D01*
X016720Y008107D02*
X016720Y008167D01*
X016780Y008167D01*
X016780Y008107D01*
X016720Y008107D01*
X016895Y008142D02*
X016955Y008082D01*
X017195Y008082D01*
X017255Y008142D01*
X017255Y008262D01*
X017195Y008322D01*
X017075Y008450D02*
X017075Y008690D01*
X017075Y008818D02*
X017075Y009058D01*
X017015Y009058D02*
X017255Y009058D01*
X017255Y008818D02*
X017015Y008818D01*
X016895Y008938D01*
X017015Y009058D01*
X016780Y008839D02*
X016780Y008719D01*
X016720Y008659D01*
X016600Y008659D02*
X016540Y008779D01*
X016540Y008839D01*
X016600Y008899D01*
X016720Y008899D01*
X016780Y008839D01*
X016600Y008659D02*
X016420Y008659D01*
X016420Y008899D01*
X016255Y008818D02*
X016255Y008998D01*
X016195Y009058D01*
X016135Y009058D01*
X016075Y008998D01*
X015895Y008998D02*
X015895Y008818D01*
X016255Y008818D01*
X016480Y008531D02*
X016420Y008471D01*
X016420Y008351D01*
X016480Y008291D01*
X016480Y008531D02*
X016540Y008531D01*
X016780Y008291D01*
X016780Y008531D01*
X016955Y008322D02*
X016895Y008262D01*
X016895Y008142D01*
X016895Y007954D02*
X017255Y007954D01*
X016895Y007713D01*
X017255Y007713D01*
X017255Y007585D02*
X017255Y007345D01*
X016895Y007345D01*
X016895Y007585D01*
X017075Y007465D02*
X017075Y007345D01*
X023570Y011120D02*
X023570Y011300D01*
X023630Y011360D01*
X023750Y011360D01*
X023810Y011300D01*
X023810Y011120D01*
X023930Y011120D02*
X023570Y011120D01*
X023630Y011488D02*
X023570Y011548D01*
X023570Y011668D01*
X023630Y011729D01*
X023870Y011488D01*
X023930Y011548D01*
X023930Y011668D01*
X023870Y011729D01*
X023630Y011729D01*
X023630Y011488D02*
X023870Y011488D01*
X024070Y011488D02*
X024070Y011668D01*
X024130Y011729D01*
X024370Y011729D01*
X024430Y011668D01*
X024430Y011488D01*
X024070Y011488D01*
X024130Y011360D02*
X024070Y011300D01*
X024070Y011180D01*
X024130Y011120D01*
X024190Y011120D01*
X024250Y011180D01*
X024250Y011300D01*
X024310Y011360D01*
X024370Y011360D01*
X024430Y011300D01*
X024430Y011180D01*
X024370Y011120D01*
X024745Y011120D02*
X024745Y011300D01*
X024805Y011360D01*
X024925Y011360D01*
X024985Y011300D01*
X024985Y011120D01*
X025105Y011120D02*
X024745Y011120D01*
X024805Y011488D02*
X024745Y011548D01*
X024745Y011668D01*
X024805Y011729D01*
X025045Y011488D01*
X025105Y011548D01*
X025105Y011668D01*
X025045Y011729D01*
X024805Y011729D01*
X024805Y011488D02*
X025045Y011488D01*
X025220Y011488D02*
X025220Y011668D01*
X025280Y011729D01*
X025520Y011729D01*
X025580Y011668D01*
X025580Y011488D01*
X025220Y011488D01*
X025280Y011360D02*
X025220Y011300D01*
X025220Y011180D01*
X025280Y011120D01*
X025340Y011120D01*
X025400Y011180D01*
X025400Y011300D01*
X025460Y011360D01*
X025520Y011360D01*
X025580Y011300D01*
X025580Y011180D01*
X025520Y011120D01*
X025945Y011180D02*
X025945Y011300D01*
X026005Y011360D01*
X026125Y011360D02*
X026125Y011240D01*
X026125Y011360D02*
X026245Y011360D01*
X026305Y011300D01*
X026305Y011180D01*
X026245Y011120D01*
X026005Y011120D01*
X025945Y011180D01*
X025945Y011488D02*
X026305Y011729D01*
X025945Y011729D01*
X025945Y011857D02*
X025945Y012037D01*
X026005Y012097D01*
X026245Y012097D01*
X026305Y012037D01*
X026305Y011857D01*
X025945Y011857D01*
X025640Y011857D02*
X025640Y012097D01*
X025520Y012225D02*
X025580Y012285D01*
X025580Y012405D01*
X025520Y012465D01*
X025580Y012593D02*
X025580Y012773D01*
X025520Y012833D01*
X025280Y012833D01*
X025220Y012773D01*
X025220Y012593D01*
X025580Y012593D01*
X025280Y012465D02*
X025220Y012405D01*
X025220Y012285D01*
X025280Y012225D01*
X025520Y012225D01*
X025105Y012281D02*
X025105Y012041D01*
X024865Y012281D01*
X024805Y012281D01*
X024745Y012221D01*
X024745Y012101D01*
X024805Y012041D01*
X025045Y011917D02*
X025105Y011917D01*
X025105Y011857D01*
X025045Y011857D01*
X025045Y011917D01*
X025045Y012409D02*
X025105Y012409D01*
X025045Y012409D02*
X024805Y012649D01*
X024745Y012649D01*
X024745Y012409D01*
X024430Y012405D02*
X024370Y012465D01*
X024430Y012405D02*
X024430Y012285D01*
X024370Y012225D01*
X024130Y012225D01*
X024070Y012285D01*
X024070Y012405D01*
X024130Y012465D01*
X024130Y012593D02*
X024190Y012593D01*
X024250Y012653D01*
X024250Y012773D01*
X024310Y012833D01*
X024370Y012833D01*
X024430Y012773D01*
X024430Y012653D01*
X024370Y012593D01*
X024130Y012593D02*
X024070Y012653D01*
X024070Y012773D01*
X024130Y012833D01*
X023930Y012589D02*
X023930Y012469D01*
X023870Y012409D01*
X023810Y012409D01*
X023750Y012469D01*
X023750Y012589D01*
X023810Y012649D01*
X023870Y012649D01*
X023930Y012589D01*
X023750Y012589D02*
X023690Y012649D01*
X023630Y012649D01*
X023570Y012589D01*
X023570Y012469D01*
X023630Y012409D01*
X023690Y012409D01*
X023750Y012469D01*
X023690Y012281D02*
X023630Y012281D01*
X023570Y012221D01*
X023570Y012101D01*
X023630Y012041D01*
X023690Y012281D02*
X023930Y012041D01*
X023930Y012281D01*
X023930Y011917D02*
X023930Y011857D01*
X023870Y011857D01*
X023870Y011917D01*
X023930Y011917D01*
X024490Y011857D02*
X024490Y012097D01*
X025945Y011488D02*
X026305Y011488D01*
X024472Y016970D02*
X024292Y017150D01*
X024232Y017090D02*
X024472Y017330D01*
X024232Y017330D02*
X024232Y016970D01*
X024104Y017030D02*
X024043Y016970D01*
X023923Y016970D01*
X023863Y017030D01*
X023863Y017270D01*
X023923Y017330D01*
X024043Y017330D01*
X024104Y017270D01*
X023735Y017270D02*
X023675Y017330D01*
X023555Y017330D01*
X023495Y017270D01*
X023495Y017210D01*
X023555Y017150D01*
X023675Y017150D01*
X023735Y017090D01*
X023735Y017030D01*
X023675Y016970D01*
X023555Y016970D01*
X023495Y017030D01*
X024212Y017991D02*
X024127Y018076D01*
X024170Y018034D02*
X024424Y018288D01*
X024382Y018331D02*
X024467Y018246D01*
X024291Y018422D02*
X024037Y018167D01*
X023867Y018337D02*
X024121Y018591D01*
X024121Y018422D01*
X024291Y018422D01*
X023796Y018832D02*
X023796Y018917D01*
X023711Y019002D01*
X023626Y019002D01*
X023456Y018832D01*
X023456Y018747D01*
X023541Y018662D01*
X023626Y018662D01*
X023796Y018832D01*
X023578Y019135D02*
X023323Y018880D01*
X023153Y019050D02*
X023408Y019305D01*
X023408Y019135D01*
X023578Y019135D01*
X023131Y019472D02*
X023131Y019557D01*
X023004Y019684D01*
X022749Y019429D01*
X022877Y019302D01*
X022961Y019302D01*
X023131Y019472D01*
X022913Y019774D02*
X022659Y019520D01*
X022743Y019944D01*
X022489Y019690D01*
X022441Y019823D02*
X022526Y019908D01*
X022441Y019992D01*
X022441Y019823D02*
X022356Y019823D01*
X022271Y019908D01*
X022271Y019992D01*
X022441Y020162D01*
X022526Y020162D01*
X022610Y020077D01*
X022610Y019992D01*
X021776Y017787D02*
X021691Y017787D01*
X021521Y017617D01*
X021521Y017533D01*
X021606Y017448D01*
X021691Y017448D01*
X021781Y017357D02*
X021781Y017272D01*
X021866Y017187D01*
X021951Y017187D01*
X021993Y017230D01*
X021993Y017315D01*
X021909Y017399D01*
X021909Y017484D01*
X021951Y017527D01*
X022036Y017527D01*
X022121Y017442D01*
X022121Y017357D01*
X021860Y017617D02*
X021860Y017702D01*
X021776Y017787D01*
X021312Y024770D02*
X021372Y024830D01*
X021372Y025070D01*
X021312Y025130D01*
X021132Y025130D01*
X021132Y024770D01*
X021312Y024770D01*
X021004Y024770D02*
X021004Y025130D01*
X020763Y025130D02*
X021004Y024770D01*
X020763Y024770D02*
X020763Y025130D01*
X020635Y025070D02*
X020575Y025130D01*
X020455Y025130D01*
X020395Y025070D01*
X020395Y024830D01*
X020455Y024770D01*
X020575Y024770D01*
X020635Y024830D01*
X020635Y024950D01*
X020515Y024950D01*
X020596Y025735D02*
X020536Y025795D01*
X020596Y025735D02*
X020717Y025735D01*
X020777Y025795D01*
X020777Y025855D01*
X020717Y025915D01*
X020657Y025915D01*
X020717Y025915D02*
X020777Y025975D01*
X020777Y026035D01*
X020717Y026095D01*
X020596Y026095D01*
X020536Y026035D01*
X020905Y025795D02*
X020965Y025795D01*
X020965Y025735D01*
X020905Y025735D01*
X020905Y025795D01*
X021089Y025795D02*
X021149Y025735D01*
X021269Y025735D01*
X021329Y025795D01*
X021329Y025855D01*
X021269Y025915D01*
X021209Y025915D01*
X021269Y025915D02*
X021329Y025975D01*
X021329Y026035D01*
X021269Y026095D01*
X021149Y026095D01*
X021089Y026035D01*
X021457Y026095D02*
X021457Y025855D01*
X021577Y025735D01*
X021697Y025855D01*
X021697Y026095D01*
X021453Y026735D02*
X021273Y026735D01*
X021273Y027095D01*
X021453Y027095D01*
X021513Y027035D01*
X021513Y026975D01*
X021453Y026915D01*
X021273Y026915D01*
X021145Y026975D02*
X021085Y026915D01*
X020905Y026915D01*
X020777Y026855D02*
X020777Y027095D01*
X020905Y027095D02*
X021085Y027095D01*
X021145Y027035D01*
X021145Y026975D01*
X021085Y026915D02*
X021145Y026855D01*
X021145Y026795D01*
X021085Y026735D01*
X020905Y026735D01*
X020905Y027095D01*
X020777Y026855D02*
X020657Y026735D01*
X020536Y026855D01*
X020536Y027095D01*
X021453Y026915D02*
X021513Y026855D01*
X021513Y026795D01*
X021453Y026735D01*
X009558Y022930D02*
X009438Y022930D01*
X009498Y022930D02*
X009498Y022570D01*
X009438Y022570D02*
X009558Y022570D01*
X009310Y022570D02*
X009310Y022930D01*
X009190Y022810D01*
X009070Y022930D01*
X009070Y022570D01*
X008579Y022630D02*
X008579Y022870D01*
X008518Y022930D01*
X008398Y022930D01*
X008338Y022870D01*
X008338Y022630D01*
X008398Y022570D01*
X008518Y022570D01*
X008579Y022630D01*
X008210Y022570D02*
X008210Y022930D01*
X008090Y022810D01*
X007970Y022930D01*
X007970Y022570D01*
X007918Y020830D02*
X007798Y020830D01*
X007738Y020770D01*
X007738Y020710D01*
X007798Y020650D01*
X007918Y020650D01*
X007979Y020590D01*
X007979Y020530D01*
X007918Y020470D01*
X007798Y020470D01*
X007738Y020530D01*
X007610Y020530D02*
X007550Y020470D01*
X007430Y020470D01*
X007370Y020530D01*
X007370Y020770D01*
X007430Y020830D01*
X007550Y020830D01*
X007610Y020770D01*
X007918Y020830D02*
X007979Y020770D01*
X008420Y020770D02*
X008420Y020710D01*
X008480Y020650D01*
X008600Y020650D01*
X008660Y020590D01*
X008660Y020530D01*
X008600Y020470D01*
X008480Y020470D01*
X008420Y020530D01*
X008420Y020770D02*
X008480Y020830D01*
X008600Y020830D01*
X008660Y020770D01*
X008788Y020770D02*
X008788Y020530D01*
X008848Y020470D01*
X008968Y020470D01*
X009029Y020530D01*
X009157Y020470D02*
X009157Y020830D01*
X009029Y020770D02*
X008968Y020830D01*
X008848Y020830D01*
X008788Y020770D01*
X009157Y020590D02*
X009397Y020830D01*
X009217Y020650D02*
X009397Y020470D01*
D11*
X009150Y020050D02*
X008550Y020050D01*
X008533Y020048D01*
X008516Y020044D01*
X008500Y020037D01*
X008486Y020027D01*
X008473Y020014D01*
X008463Y020000D01*
X008456Y019984D01*
X008452Y019967D01*
X008450Y019950D01*
X008450Y018950D01*
X008452Y018933D01*
X008456Y018916D01*
X008463Y018900D01*
X008473Y018886D01*
X008486Y018873D01*
X008500Y018863D01*
X008516Y018856D01*
X008533Y018852D01*
X008550Y018850D01*
X009150Y018850D01*
X009167Y018852D01*
X009184Y018856D01*
X009200Y018863D01*
X009214Y018873D01*
X009227Y018886D01*
X009237Y018900D01*
X009244Y018916D01*
X009248Y018933D01*
X009250Y018950D01*
X009250Y019950D01*
X009248Y019967D01*
X009244Y019984D01*
X009237Y020000D01*
X009227Y020014D01*
X009214Y020027D01*
X009200Y020037D01*
X009184Y020044D01*
X009167Y020048D01*
X009150Y020050D01*
X008500Y016800D02*
X008000Y016800D01*
X008000Y016700D01*
X007500Y016700D01*
X007500Y013200D01*
X009250Y013200D01*
X009250Y013250D01*
X009750Y013250D01*
X009750Y013200D01*
X010700Y013200D01*
X010700Y013600D01*
X010700Y013700D01*
X008000Y013700D01*
X008000Y016200D01*
X015000Y016200D01*
X015000Y013700D01*
X013300Y013700D01*
X012700Y013700D01*
X012300Y013700D01*
X012300Y013600D01*
X012300Y013200D01*
X010700Y013200D01*
X010700Y013700D02*
X010700Y014000D01*
X012300Y014000D01*
X012300Y013700D01*
X012500Y013400D02*
X012350Y013200D01*
X012300Y013200D01*
X012500Y013400D02*
X012700Y013400D01*
X013300Y013400D01*
X013300Y013600D01*
X013300Y013700D01*
X013300Y013400D02*
X013500Y013400D01*
X013650Y013200D01*
X015500Y013200D01*
X015500Y016700D01*
X015000Y016700D01*
X015000Y016800D01*
X014500Y016800D01*
X014500Y016700D01*
X011750Y016700D01*
X011750Y016800D01*
X011250Y016800D01*
X011250Y016700D01*
X008500Y016700D01*
X008500Y016800D01*
X012700Y013700D02*
X012700Y013600D01*
X012700Y013400D01*
X016400Y013200D02*
X018150Y013200D01*
X018150Y013250D01*
X018650Y013250D01*
X018650Y013200D01*
X019600Y013200D01*
X019600Y013600D01*
X019600Y013700D01*
X016900Y013700D01*
X016900Y016200D01*
X023900Y016200D01*
X023900Y013700D01*
X022200Y013700D01*
X021600Y013700D01*
X021200Y013700D01*
X021200Y013600D01*
X021200Y013200D01*
X019600Y013200D01*
X019600Y013700D02*
X019600Y014000D01*
X021200Y014000D01*
X021200Y013700D01*
X021400Y013400D02*
X021600Y013400D01*
X022200Y013400D01*
X022200Y013600D01*
X022200Y013700D01*
X022200Y013400D02*
X022400Y013400D01*
X022550Y013200D01*
X024400Y013200D01*
X024400Y016700D01*
X023900Y016700D01*
X023900Y016800D01*
X023400Y016800D01*
X023400Y016700D01*
X020650Y016700D01*
X020650Y016800D01*
X020150Y016800D01*
X020150Y016700D01*
X017400Y016700D01*
X017400Y016800D01*
X016900Y016800D01*
X016900Y016700D01*
X016400Y016700D01*
X016400Y013200D01*
X021200Y013200D02*
X021250Y013200D01*
X021400Y013400D01*
X021600Y013400D02*
X021600Y013600D01*
X021600Y013700D01*
X006218Y002789D02*
X006218Y002562D01*
X006162Y002505D01*
X005992Y002505D01*
X005992Y002845D01*
X006162Y002845D01*
X006218Y002789D01*
X005850Y002845D02*
X005850Y002505D01*
X005623Y002845D01*
X005623Y002505D01*
X005482Y002562D02*
X005482Y002675D01*
X005368Y002675D01*
X005255Y002562D02*
X005255Y002789D01*
X005312Y002845D01*
X005425Y002845D01*
X005482Y002789D01*
X005482Y002562D02*
X005425Y002505D01*
X005312Y002505D01*
X005255Y002562D01*
X004575Y002593D02*
X004575Y002820D01*
X004575Y002593D02*
X004462Y002480D01*
X004348Y002593D01*
X004348Y002820D01*
X004207Y002820D02*
X003980Y002820D01*
X003980Y002650D01*
X004093Y002707D01*
X004150Y002707D01*
X004207Y002650D01*
X004207Y002537D01*
X004150Y002480D01*
X004037Y002480D01*
X003980Y002537D01*
X005188Y003980D02*
X005912Y003980D01*
X005912Y005620D01*
X005188Y005620D01*
X005188Y003980D01*
X005550Y004200D02*
X005550Y004800D01*
X005300Y004800D01*
X005550Y004800D02*
X005300Y004400D01*
X005800Y004400D01*
X005550Y004800D01*
X005800Y004800D01*
X005550Y004800D02*
X005550Y005050D01*
D12*
X004935Y005105D02*
X004935Y004982D01*
X004873Y004920D01*
X004812Y004920D01*
X004750Y004982D01*
X004750Y005105D01*
X004812Y005167D01*
X004873Y005167D01*
X004935Y005105D01*
X004935Y005288D02*
X004935Y005535D01*
X004935Y005657D02*
X004873Y005657D01*
X004626Y005903D01*
X004565Y005903D01*
X004565Y005657D01*
X004565Y005412D02*
X004935Y005412D01*
X004688Y005288D02*
X004565Y005412D01*
X004626Y005167D02*
X004565Y005105D01*
X004565Y004982D01*
X004626Y004920D01*
X004688Y004920D01*
X004750Y004982D01*
X004750Y005105D02*
X004688Y005167D01*
X004626Y005167D01*
X004565Y004799D02*
X004565Y004552D01*
X004750Y004552D01*
X004688Y004675D01*
X004688Y004737D01*
X004750Y004799D01*
X004873Y004799D01*
X004935Y004737D01*
X004935Y004613D01*
X004873Y004552D01*
X004935Y004430D02*
X004565Y004430D01*
X004565Y004183D02*
X004935Y004430D01*
X004935Y004183D02*
X004565Y004183D01*
X004565Y003938D02*
X004935Y003938D01*
X004935Y003815D02*
X004935Y004062D01*
X004688Y003815D02*
X004565Y003938D01*
X008443Y012403D02*
X008507Y012403D01*
X008571Y012467D01*
X008571Y012530D01*
X008507Y012594D01*
X008443Y012530D01*
X008316Y012530D02*
X008443Y012403D01*
X008316Y012530D02*
X008316Y012594D01*
X008379Y012658D01*
X008443Y012658D01*
X008479Y012758D02*
X008798Y012694D01*
X008607Y012885D01*
X008675Y012953D02*
X008770Y013048D01*
X008834Y013048D01*
X008961Y012921D01*
X008961Y012857D01*
X008866Y012762D01*
X008675Y012953D01*
X008479Y012758D02*
X008670Y012567D01*
X009234Y012462D02*
X009425Y012271D01*
X009361Y012335D02*
X009457Y012430D01*
X009457Y012494D01*
X009393Y012558D01*
X009329Y012558D01*
X009234Y012462D01*
X009493Y012594D02*
X009493Y012721D01*
X009684Y012530D01*
X009620Y012467D02*
X009748Y012594D01*
X009816Y012662D02*
X009848Y012694D01*
X009816Y012726D01*
X009784Y012694D01*
X009816Y012662D01*
X009909Y012637D02*
X010100Y012446D01*
X010227Y012574D01*
X010234Y012512D02*
X010329Y012608D01*
X010393Y012608D01*
X010457Y012544D01*
X010457Y012480D01*
X010361Y012385D01*
X010425Y012321D02*
X010234Y012512D01*
X010068Y012605D02*
X010004Y012542D01*
X009909Y012637D02*
X010036Y012765D01*
X010009Y012855D02*
X009945Y012791D01*
X009881Y012791D01*
X009881Y012919D02*
X009913Y012951D01*
X009977Y012951D01*
X010009Y012919D01*
X010009Y012855D01*
X009913Y012951D02*
X009913Y013014D01*
X009881Y013046D01*
X009818Y013046D01*
X009754Y012982D01*
X009754Y012919D01*
X009949Y013114D02*
X009949Y013178D01*
X010013Y013241D01*
X010077Y013241D01*
X010077Y012987D01*
X010140Y012987D01*
X010204Y013050D01*
X010204Y013114D01*
X010077Y013241D01*
X009949Y013114D02*
X010077Y012987D01*
X010331Y012996D02*
X010363Y012964D01*
X010427Y012964D01*
X010491Y013028D01*
X010554Y013028D01*
X010586Y012996D01*
X010586Y012932D01*
X010523Y012869D01*
X010459Y012869D01*
X010493Y012771D02*
X010684Y012580D01*
X010620Y012517D02*
X010748Y012644D01*
X010809Y012587D02*
X010904Y012683D01*
X010968Y012683D01*
X011000Y012651D01*
X011000Y012587D01*
X010904Y012492D01*
X010809Y012587D02*
X011000Y012396D01*
X011096Y012492D01*
X011096Y012555D01*
X011064Y012587D01*
X011000Y012587D01*
X011163Y012623D02*
X011227Y012623D01*
X011291Y012687D01*
X011291Y012751D01*
X011132Y012910D01*
X011200Y012978D02*
X011327Y013105D01*
X011359Y013073D01*
X011359Y012819D01*
X011391Y012787D01*
X011518Y012914D01*
X011586Y012982D02*
X011713Y013110D01*
X011793Y013046D02*
X011729Y012982D01*
X011729Y012919D01*
X011793Y013046D02*
X011856Y013046D01*
X011888Y013014D01*
X011888Y012760D01*
X012016Y012887D01*
X012052Y012987D02*
X012115Y012987D01*
X012179Y013050D01*
X012179Y013114D01*
X012147Y013146D01*
X012084Y013146D01*
X012052Y013114D01*
X012084Y013146D02*
X012084Y013210D01*
X012052Y013241D01*
X011988Y013241D01*
X011924Y013178D01*
X011924Y013114D01*
X011586Y012982D02*
X011554Y013014D01*
X011554Y013269D01*
X011522Y013301D01*
X011395Y013173D01*
X011236Y013132D02*
X011109Y013005D01*
X011172Y013069D02*
X010981Y013260D01*
X010981Y013132D01*
X010913Y013064D02*
X010913Y013001D01*
X010977Y013001D01*
X011009Y012969D01*
X011009Y012905D01*
X010945Y012841D01*
X010881Y012841D01*
X010816Y012776D02*
X010848Y012744D01*
X010816Y012712D01*
X010784Y012744D01*
X010816Y012776D01*
X011004Y012783D02*
X011163Y012623D01*
X011304Y012558D02*
X011368Y012558D01*
X011432Y012494D01*
X011432Y012430D01*
X011336Y012335D01*
X011400Y012271D02*
X011209Y012462D01*
X011304Y012558D01*
X011468Y012594D02*
X011468Y012721D01*
X011659Y012530D01*
X011595Y012467D02*
X011723Y012594D01*
X011791Y012662D02*
X011823Y012694D01*
X011791Y012726D01*
X011759Y012694D01*
X011791Y012662D01*
X012159Y012462D02*
X012350Y012271D01*
X012286Y012335D02*
X012382Y012430D01*
X012382Y012494D01*
X012318Y012558D01*
X012254Y012558D01*
X012159Y012462D01*
X012418Y012594D02*
X012418Y012721D01*
X012609Y012530D01*
X012545Y012467D02*
X012673Y012594D01*
X012741Y012662D02*
X012773Y012694D01*
X012741Y012726D01*
X012709Y012694D01*
X012741Y012662D01*
X012838Y012760D02*
X012838Y013014D01*
X012806Y013046D01*
X012743Y013046D01*
X012679Y012982D01*
X012679Y012919D01*
X012838Y012760D02*
X012966Y012887D01*
X013034Y012955D02*
X013034Y013210D01*
X013002Y013241D01*
X012938Y013241D01*
X012874Y013178D01*
X012874Y013114D01*
X013034Y012955D02*
X013161Y013082D01*
X010913Y013064D02*
X010881Y013096D01*
X010818Y013096D01*
X010754Y013032D01*
X010754Y012969D01*
X010686Y013032D02*
X010686Y013160D01*
X010813Y013160D01*
X010622Y013351D01*
X010495Y013223D02*
X010686Y013032D01*
X010881Y012969D02*
X010913Y013001D01*
X010459Y013123D02*
X010395Y013123D01*
X010331Y013060D01*
X010331Y012996D01*
X010327Y012864D02*
X010200Y012737D01*
X010493Y012771D02*
X010493Y012644D01*
D13*
X010569Y016835D02*
X010989Y017255D01*
X010989Y017360D01*
X010884Y017466D01*
X010674Y017466D01*
X010569Y017360D01*
X010344Y017360D02*
X010344Y017150D01*
X010239Y017045D01*
X009924Y017045D01*
X009924Y016835D02*
X009924Y017466D01*
X010239Y017466D01*
X010344Y017360D01*
X009700Y017466D02*
X009280Y016835D01*
X009055Y016835D02*
X008635Y016835D01*
X008635Y017466D01*
X009055Y017466D01*
X009280Y017466D02*
X009700Y016835D01*
X010569Y016835D02*
X010989Y016835D01*
X008845Y017150D02*
X008635Y017150D01*
X009840Y022135D02*
X009735Y022240D01*
X009840Y022135D02*
X010050Y022135D01*
X010155Y022240D01*
X010155Y022345D01*
X010050Y022450D01*
X009840Y022450D01*
X009735Y022555D01*
X009735Y022660D01*
X009840Y022766D01*
X010050Y022766D01*
X010155Y022660D01*
X010380Y022766D02*
X010695Y022766D01*
X010800Y022660D01*
X010800Y022240D01*
X010695Y022135D01*
X010380Y022135D01*
X010380Y022766D01*
X014435Y022766D02*
X014435Y022135D01*
X014855Y022135D01*
X015080Y022135D02*
X015500Y022766D01*
X015724Y022766D02*
X016144Y022766D01*
X015934Y022766D02*
X015934Y022135D01*
X015500Y022135D02*
X015080Y022766D01*
X014855Y022766D02*
X014435Y022766D01*
X014435Y022450D02*
X014645Y022450D01*
X016369Y022450D02*
X016789Y022450D01*
X017013Y022555D02*
X017013Y022660D01*
X017118Y022766D01*
X017328Y022766D01*
X017434Y022660D01*
X017328Y022450D02*
X017434Y022345D01*
X017434Y022240D01*
X017328Y022135D01*
X017118Y022135D01*
X017013Y022240D01*
X017118Y022450D02*
X017328Y022450D01*
X017118Y022450D02*
X017013Y022555D01*
X017658Y022766D02*
X017658Y022135D01*
X017973Y022135D01*
X018078Y022240D01*
X018078Y022660D01*
X017973Y022766D01*
X017658Y022766D01*
X020187Y020872D02*
X020484Y020575D01*
X020717Y020491D02*
X021015Y020788D01*
X021163Y020788D01*
X021312Y020639D01*
X021312Y020491D01*
X021545Y020407D02*
X021099Y019961D01*
X021322Y019738D01*
X021470Y019738D01*
X021768Y020035D01*
X021768Y020184D01*
X021545Y020407D01*
X021015Y020194D02*
X020866Y020194D01*
X020717Y020342D01*
X020717Y020491D01*
X020187Y020872D02*
X020633Y021318D01*
X019729Y017466D02*
X019729Y016835D01*
X019519Y016835D02*
X019939Y016835D01*
X019519Y017255D02*
X019729Y017466D01*
X019294Y017360D02*
X019294Y017150D01*
X019189Y017045D01*
X018874Y017045D01*
X018874Y016835D02*
X018874Y017466D01*
X019189Y017466D01*
X019294Y017360D01*
X018650Y017466D02*
X018230Y016835D01*
X018005Y016835D02*
X017585Y016835D01*
X017585Y017466D01*
X018005Y017466D01*
X018230Y017466D02*
X018650Y016835D01*
X017795Y017150D02*
X017585Y017150D01*
X007807Y007916D02*
X007807Y007285D01*
X008017Y007285D02*
X007596Y007285D01*
X007379Y007285D02*
X007274Y007285D01*
X007274Y007390D01*
X007379Y007390D01*
X007379Y007285D01*
X007050Y007285D02*
X006630Y007285D01*
X007050Y007705D01*
X007050Y007810D01*
X006945Y007916D01*
X006735Y007916D01*
X006630Y007810D01*
X006405Y007705D02*
X006195Y007285D01*
X005985Y007705D01*
X007596Y007705D02*
X007807Y007916D01*
D14*
X008550Y008000D02*
X008650Y007900D01*
X012350Y007900D01*
X012450Y008000D01*
X012500Y009150D01*
X008630Y008140D02*
X008632Y008160D01*
X008638Y008178D01*
X008647Y008196D01*
X008659Y008211D01*
X008674Y008223D01*
X008692Y008232D01*
X008710Y008238D01*
X008730Y008240D01*
X008750Y008238D01*
X008768Y008232D01*
X008786Y008223D01*
X008801Y008211D01*
X008813Y008196D01*
X008822Y008178D01*
X008828Y008160D01*
X008830Y008140D01*
X008828Y008120D01*
X008822Y008102D01*
X008813Y008084D01*
X008801Y008069D01*
X008786Y008057D01*
X008768Y008048D01*
X008750Y008042D01*
X008730Y008040D01*
X008710Y008042D01*
X008692Y008048D01*
X008674Y008057D01*
X008659Y008069D01*
X008647Y008084D01*
X008638Y008102D01*
X008632Y008120D01*
X008630Y008140D01*
X008550Y008000D02*
X008500Y009150D01*
X011125Y013375D02*
X011425Y013375D01*
X011275Y013375D02*
X011275Y013825D01*
X011125Y013675D01*
X011585Y013750D02*
X011585Y013450D01*
X011886Y013750D01*
X011886Y013450D01*
X011811Y013375D01*
X011660Y013375D01*
X011585Y013450D01*
X011585Y013750D02*
X011660Y013825D01*
X011811Y013825D01*
X011886Y013750D01*
X008825Y014225D02*
X008525Y014225D01*
X008675Y014225D02*
X008675Y014675D01*
X008525Y014525D01*
X008525Y015225D02*
X008825Y015525D01*
X008825Y015600D01*
X008750Y015675D01*
X008600Y015675D01*
X008525Y015600D01*
X008525Y015225D02*
X008825Y015225D01*
X011058Y018075D02*
X010875Y018258D01*
X010875Y018625D01*
X010900Y018975D02*
X010717Y018975D01*
X010625Y019067D01*
X010717Y019250D02*
X010900Y019250D01*
X010992Y019158D01*
X010992Y019067D01*
X010900Y018975D01*
X011177Y018975D02*
X011177Y019342D01*
X011269Y019342D01*
X011361Y019250D01*
X011453Y019342D01*
X011544Y019250D01*
X011544Y018975D01*
X011361Y018975D02*
X011361Y019250D01*
X011730Y019250D02*
X011730Y019067D01*
X011822Y018975D01*
X012005Y018975D01*
X012097Y019067D01*
X012097Y019250D01*
X012005Y019342D01*
X011822Y019342D01*
X011730Y019250D01*
X012282Y019250D02*
X012282Y019067D01*
X012374Y018975D01*
X012558Y018975D01*
X012649Y019067D01*
X012649Y019250D01*
X012558Y019342D01*
X012374Y019342D01*
X012282Y019250D01*
X012835Y019342D02*
X013018Y019342D01*
X012927Y019434D02*
X012927Y019067D01*
X013018Y018975D01*
X013203Y018975D02*
X013203Y019525D01*
X013295Y019342D02*
X013203Y019250D01*
X013295Y019342D02*
X013478Y019342D01*
X013570Y019250D01*
X013570Y018975D01*
X013756Y018975D02*
X013939Y018975D01*
X013847Y018975D02*
X013847Y019342D01*
X013756Y019342D01*
X013847Y019525D02*
X013847Y019617D01*
X014124Y019250D02*
X014216Y019342D01*
X014399Y019342D01*
X014491Y019250D01*
X014491Y019158D01*
X014124Y019158D01*
X014124Y019067D02*
X014124Y019250D01*
X014124Y019067D02*
X014216Y018975D01*
X014399Y018975D01*
X014676Y018975D02*
X014676Y019525D01*
X014676Y019342D02*
X014952Y019342D01*
X015043Y019250D01*
X015043Y019067D01*
X014952Y018975D01*
X014676Y018975D01*
X014730Y018692D02*
X014730Y018325D01*
X014730Y018508D02*
X014913Y018692D01*
X015005Y018692D01*
X015190Y018600D02*
X015282Y018692D01*
X015557Y018692D01*
X015743Y018692D02*
X015835Y018692D01*
X015835Y018325D01*
X015926Y018325D02*
X015743Y018325D01*
X015557Y018417D02*
X015466Y018508D01*
X015282Y018508D01*
X015190Y018600D01*
X015190Y018325D02*
X015466Y018325D01*
X015557Y018417D01*
X015835Y018875D02*
X015835Y018967D01*
X015873Y018975D02*
X015781Y019067D01*
X015873Y019158D01*
X016148Y019158D01*
X016148Y019250D02*
X016148Y018975D01*
X015873Y018975D01*
X015596Y019067D02*
X015596Y019250D01*
X015504Y019342D01*
X015321Y019342D01*
X015229Y019250D01*
X015229Y019067D01*
X015321Y018975D01*
X015504Y018975D01*
X015596Y019067D01*
X015873Y019342D02*
X016057Y019342D01*
X016148Y019250D01*
X016334Y019158D02*
X016517Y019342D01*
X016609Y019342D01*
X016794Y019250D02*
X016886Y019342D01*
X017161Y019342D01*
X017161Y019525D02*
X017161Y018975D01*
X016886Y018975D01*
X016794Y019067D01*
X016794Y019250D01*
X016334Y019342D02*
X016334Y018975D01*
X016386Y018692D02*
X016203Y018692D01*
X016111Y018600D01*
X016111Y018417D01*
X016203Y018325D01*
X016386Y018325D01*
X016478Y018417D01*
X016478Y018600D01*
X016386Y018692D01*
X016664Y018692D02*
X016664Y018325D01*
X017031Y018325D02*
X017031Y018600D01*
X016939Y018692D01*
X016664Y018692D01*
X014544Y018600D02*
X014544Y018508D01*
X014177Y018508D01*
X014177Y018417D02*
X014177Y018600D01*
X014269Y018692D01*
X014453Y018692D01*
X014544Y018600D01*
X014453Y018325D02*
X014269Y018325D01*
X014177Y018417D01*
X013992Y018692D02*
X013808Y018325D01*
X013625Y018692D01*
X012623Y018534D02*
X012623Y018167D01*
X012531Y018075D01*
X012348Y018075D01*
X012256Y018167D01*
X012623Y018534D01*
X012531Y018625D01*
X012348Y018625D01*
X012256Y018534D01*
X012256Y018167D01*
X012072Y018167D02*
X012072Y018075D01*
X011980Y018075D01*
X011980Y018167D01*
X012072Y018167D01*
X011794Y018075D02*
X011427Y018075D01*
X011611Y018075D02*
X011611Y018625D01*
X011427Y018442D01*
X011242Y018258D02*
X011242Y018625D01*
X011242Y018258D02*
X011058Y018075D01*
X010717Y019250D02*
X010625Y019342D01*
X010625Y019434D01*
X010717Y019525D01*
X010900Y019525D01*
X010992Y019434D01*
X011127Y020225D02*
X011494Y020225D01*
X011311Y020225D02*
X011311Y020775D01*
X011127Y020592D01*
X010942Y020408D02*
X010942Y020775D01*
X010942Y020408D02*
X010758Y020225D01*
X010575Y020408D01*
X010575Y020775D01*
X011680Y020317D02*
X011772Y020317D01*
X011772Y020225D01*
X011680Y020225D01*
X011680Y020317D01*
X011956Y020317D02*
X012323Y020684D01*
X012323Y020317D01*
X012231Y020225D01*
X012048Y020225D01*
X011956Y020317D01*
X011956Y020684D01*
X012048Y020775D01*
X012231Y020775D01*
X012323Y020684D01*
X012600Y020592D02*
X012784Y020592D01*
X012876Y020500D01*
X012876Y020225D01*
X012600Y020225D01*
X012509Y020317D01*
X012600Y020408D01*
X012876Y020408D01*
X013061Y020408D02*
X013245Y020592D01*
X013245Y020684D01*
X013153Y020775D01*
X013061Y020684D01*
X013061Y020592D01*
X013428Y020225D01*
X013428Y020408D02*
X013245Y020225D01*
X013153Y020225D01*
X013061Y020317D01*
X013061Y020408D01*
X013614Y020500D02*
X013981Y020500D01*
X013797Y020317D02*
X013797Y020684D01*
X017500Y015675D02*
X017425Y015600D01*
X017500Y015675D02*
X017650Y015675D01*
X017725Y015600D01*
X017725Y015525D01*
X017425Y015225D01*
X017725Y015225D01*
X017575Y014675D02*
X017575Y014225D01*
X017425Y014225D02*
X017725Y014225D01*
X017425Y014525D02*
X017575Y014675D01*
X020025Y013675D02*
X020175Y013825D01*
X020175Y013375D01*
X020025Y013375D02*
X020325Y013375D01*
X020485Y013450D02*
X020786Y013750D01*
X020786Y013450D01*
X020711Y013375D01*
X020560Y013375D01*
X020485Y013450D01*
X020485Y013750D01*
X020560Y013825D01*
X020711Y013825D01*
X020786Y013750D01*
D15*
X000450Y000150D02*
X000150Y000450D01*
X000150Y002100D01*
X000600Y002550D01*
X003550Y002550D01*
X004250Y003250D01*
X004250Y006750D01*
X006750Y009250D01*
X006750Y019750D01*
X005750Y020750D01*
X005750Y022550D01*
X006200Y023000D01*
X018500Y023000D01*
X019000Y023500D01*
X019000Y027250D01*
X019500Y027750D01*
X021250Y027750D01*
X021750Y027250D01*
X021750Y021500D01*
X025000Y018250D01*
X025000Y013600D01*
X025850Y012750D01*
X026450Y012750D01*
X027000Y012200D01*
X027000Y010050D01*
X026425Y009500D01*
X018600Y009500D01*
X018000Y008900D01*
X018000Y006250D01*
X017500Y005750D01*
X007250Y005750D01*
X006750Y005250D01*
X006750Y000650D01*
X006250Y000150D01*
X000450Y000150D01*
D16*
X008500Y007900D02*
X012500Y007900D01*
X012500Y010650D01*
X008500Y010650D01*
X008500Y007900D01*
X015750Y019500D02*
X016500Y019500D01*
X016500Y019750D01*
X015750Y019750D01*
X015750Y019500D01*
X015750Y019750D02*
X014000Y019750D01*
X014000Y022000D01*
X018250Y022000D01*
X018250Y019750D01*
X016500Y019750D01*
D17*
X010600Y019750D02*
X010600Y019250D01*
X010350Y019000D01*
X010600Y018750D01*
X010600Y018250D01*
X010350Y018000D01*
X009850Y018000D01*
X009600Y018250D01*
X009600Y018750D01*
X009850Y019000D01*
X009600Y019250D01*
X009600Y019750D01*
X009850Y020000D01*
X009600Y020250D01*
X009600Y020750D01*
X009850Y021000D01*
X010350Y021000D01*
X010600Y020750D01*
X010600Y020250D01*
X010350Y020000D01*
X010600Y019750D01*
X006050Y001300D02*
X005550Y001300D01*
X005300Y001050D01*
X005050Y001300D01*
X004550Y001300D01*
X004300Y001050D01*
X004050Y001300D01*
X003550Y001300D01*
X003300Y001050D01*
X003300Y000550D01*
X003050Y000300D01*
X002550Y000300D01*
X002300Y000550D01*
X002050Y000300D01*
X001550Y000300D01*
X001300Y000550D01*
X001050Y000300D01*
X000550Y000300D01*
X000300Y000550D01*
X000300Y001050D01*
X000550Y001300D01*
X001050Y001300D01*
X001300Y001050D01*
X001550Y001300D01*
X002050Y001300D01*
X002300Y001050D01*
X002550Y001300D01*
X003050Y001300D01*
X003300Y001050D01*
X003300Y000550D01*
X003550Y000300D01*
X004050Y000300D01*
X004300Y000550D01*
X004550Y000300D01*
X005050Y000300D01*
X005300Y000550D01*
X005550Y000300D01*
X006050Y000300D01*
X006300Y000550D01*
X006300Y001050D01*
X006050Y001300D01*
D18*
X005544Y005350D03*
D19*
X005550Y005745D03*
X005550Y003855D03*
D20*
X007900Y013600D02*
X010700Y013600D01*
X012300Y013600D02*
X012700Y013600D01*
X013300Y013600D02*
X015100Y013600D01*
X015100Y016300D01*
X007900Y016300D01*
X007900Y013600D01*
X016800Y013600D02*
X019600Y013600D01*
X021200Y013600D02*
X021600Y013600D01*
X022200Y013600D02*
X024000Y013600D01*
X024000Y016300D01*
X016800Y016300D01*
X016800Y013600D01*
D21*
X010500Y009450D03*
D22*
X008775Y009200D03*
X012225Y009200D03*
D23*
X011000Y009200D03*
X010000Y009200D03*
D24*
X013400Y008987D02*
X013403Y008992D01*
X013405Y008992D02*
X013405Y008988D01*
X013405Y008987D01*
X013407Y008987D01*
X013408Y008988D01*
X013408Y008992D01*
X013410Y008991D02*
X013412Y008991D01*
X013412Y008989D02*
X013410Y008989D01*
X013409Y008990D01*
X013410Y008991D01*
X013412Y008989D02*
X013412Y008988D01*
X013412Y008987D01*
X013409Y008987D01*
X013414Y008988D02*
X013414Y008990D01*
X013415Y008991D01*
X013416Y008991D01*
X013417Y008990D01*
X013417Y008989D01*
X013414Y008989D01*
X013414Y008988D02*
X013415Y008987D01*
X013416Y008987D01*
X013418Y008987D02*
X013418Y008991D01*
X013418Y008989D02*
X013420Y008991D01*
X013421Y008991D01*
X013422Y008990D02*
X013423Y008991D01*
X013425Y008991D01*
X013425Y008989D02*
X013423Y008989D01*
X013422Y008990D01*
X013422Y008987D02*
X013425Y008987D01*
X013425Y008988D01*
X013425Y008989D01*
X013427Y008987D02*
X013430Y008992D01*
X013432Y008991D02*
X013431Y008990D01*
X013431Y008988D01*
X013432Y008987D01*
X013435Y008987D01*
X013435Y008991D01*
X013432Y008991D01*
X013436Y008990D02*
X013437Y008991D01*
X013438Y008991D01*
X013439Y008990D01*
X013439Y008989D01*
X013436Y008989D01*
X013436Y008988D02*
X013436Y008990D01*
X013436Y008988D02*
X013437Y008987D01*
X013438Y008987D01*
X013440Y008988D02*
X013441Y008987D01*
X013443Y008987D01*
X013444Y008988D01*
X013444Y008990D01*
X013443Y008991D01*
X013441Y008991D01*
X013440Y008990D01*
X013440Y008988D01*
X013445Y008987D02*
X013445Y008991D01*
X013447Y008991D02*
X013447Y008991D01*
X013445Y008989D01*
X013449Y008988D02*
X013450Y008987D01*
X013452Y008987D01*
X013452Y008991D01*
X013450Y008991D01*
X013449Y008990D01*
X013449Y008988D01*
X013450Y008986D02*
X013451Y008986D01*
X013452Y008987D01*
X013453Y008988D02*
X013453Y008990D01*
X013454Y008991D01*
X013456Y008991D01*
X013457Y008990D01*
X013457Y008989D01*
X013453Y008989D01*
X013453Y008988D02*
X013454Y008987D01*
X013456Y008987D01*
X013458Y008987D02*
X013458Y008992D01*
X013459Y008991D02*
X013460Y008991D01*
X013461Y008990D01*
X013461Y008987D01*
X013462Y008988D02*
X013463Y008989D01*
X013466Y008989D01*
X013466Y008990D02*
X013466Y008987D01*
X013463Y008987D01*
X013462Y008988D01*
X013463Y008991D02*
X013465Y008991D01*
X013466Y008990D01*
X013467Y008990D02*
X013468Y008991D01*
X013470Y008991D01*
X013470Y008992D02*
X013470Y008987D01*
X013468Y008987D01*
X013467Y008988D01*
X013467Y008990D01*
X013472Y008992D02*
X013472Y008992D01*
X013472Y008987D01*
X013473Y008987D01*
X013475Y008988D02*
X013475Y008990D01*
X013475Y008991D01*
X013477Y008991D01*
X013478Y008990D01*
X013478Y008989D01*
X013475Y008989D01*
X013475Y008988D02*
X013475Y008987D01*
X013477Y008987D01*
X013479Y008988D02*
X013480Y008987D01*
X013482Y008987D01*
X013482Y008986D01*
X013481Y008986D01*
X013482Y008987D02*
X013482Y008991D01*
X013479Y008991D02*
X013479Y008988D01*
X013484Y008987D02*
X013487Y008992D01*
X013488Y008992D02*
X013491Y008992D01*
X013492Y008992D01*
X013492Y008988D01*
X013491Y008987D01*
X013488Y008987D01*
X013488Y008992D01*
X013493Y008990D02*
X013493Y008988D01*
X013494Y008987D01*
X013495Y008987D01*
X013496Y008988D01*
X013496Y008990D01*
X013495Y008991D01*
X013494Y008991D01*
X013493Y008990D01*
X013497Y008990D02*
X013497Y008988D01*
X013498Y008987D01*
X013501Y008987D01*
X013502Y008988D02*
X013503Y008987D01*
X013505Y008987D01*
X013505Y008991D01*
X013507Y008991D02*
X013507Y008991D01*
X013508Y008990D01*
X013509Y008991D01*
X013510Y008990D01*
X013510Y008987D01*
X013511Y008988D02*
X013511Y008990D01*
X013512Y008991D01*
X013514Y008991D01*
X013514Y008990D01*
X013514Y008989D01*
X013511Y008989D01*
X013511Y008988D02*
X013512Y008987D01*
X013514Y008987D01*
X013516Y008987D02*
X013516Y008991D01*
X013518Y008991D01*
X013519Y008990D01*
X013519Y008987D01*
X013521Y008988D02*
X013522Y008987D01*
X013523Y008987D02*
X013526Y008987D01*
X013527Y008988D01*
X013526Y008989D01*
X013524Y008989D01*
X013523Y008990D01*
X013524Y008991D01*
X013527Y008991D01*
X013528Y008987D02*
X013531Y008992D01*
X013532Y008992D02*
X013536Y008987D01*
X013536Y008992D01*
X013537Y008992D02*
X013539Y008992D01*
X013540Y008992D01*
X013540Y008991D01*
X013539Y008990D01*
X013537Y008990D01*
X013537Y008992D02*
X013537Y008987D01*
X013539Y008987D01*
X013540Y008988D01*
X013540Y008989D01*
X013539Y008990D01*
X013542Y008991D02*
X013542Y008991D01*
X013542Y008987D01*
X013543Y008987D01*
X013545Y008988D02*
X013546Y008987D01*
X013545Y008988D02*
X013545Y008992D01*
X013545Y008991D02*
X013546Y008991D01*
X013548Y008992D02*
X013548Y008987D01*
X013549Y008989D01*
X013551Y008987D01*
X013551Y008992D01*
X013552Y008990D02*
X013552Y008988D01*
X013553Y008987D01*
X013555Y008987D01*
X013556Y008988D01*
X013556Y008990D01*
X013555Y008991D01*
X013553Y008991D01*
X013552Y008990D01*
X013557Y008991D02*
X013559Y008991D01*
X013560Y008990D01*
X013560Y008987D01*
X013561Y008988D02*
X013561Y008990D01*
X013562Y008991D01*
X013565Y008991D01*
X013566Y008990D02*
X013567Y008991D01*
X013568Y008991D01*
X013569Y008990D01*
X013569Y008989D01*
X013566Y008989D01*
X013566Y008988D02*
X013566Y008990D01*
X013566Y008988D02*
X013567Y008987D01*
X013568Y008987D01*
X013570Y008987D02*
X013570Y008991D01*
X013570Y008989D02*
X013572Y008991D01*
X013573Y008991D01*
X013574Y008987D02*
X013578Y008992D01*
X013579Y008992D02*
X013581Y008991D01*
X013582Y008992D01*
X013582Y008987D01*
X013583Y008988D02*
X013583Y008990D01*
X013584Y008991D01*
X013586Y008991D01*
X013587Y008990D01*
X013587Y008989D01*
X013583Y008989D01*
X013583Y008988D02*
X013584Y008987D01*
X013586Y008987D01*
X013588Y008988D02*
X013588Y008990D01*
X013589Y008991D01*
X013591Y008991D01*
X013591Y008992D02*
X013591Y008987D01*
X013589Y008987D01*
X013588Y008988D01*
X013593Y008987D02*
X013594Y008987D01*
X013593Y008987D02*
X013593Y008991D01*
X013593Y008991D01*
X013593Y008992D02*
X013593Y008993D01*
X013596Y008991D02*
X013598Y008991D01*
X013599Y008990D01*
X013599Y008987D01*
X013596Y008987D01*
X013596Y008988D01*
X013596Y008989D01*
X013599Y008989D01*
X013600Y008987D02*
X013603Y008992D01*
X013605Y008992D02*
X013605Y008987D01*
X013608Y008987D01*
X013609Y008988D02*
X013610Y008989D01*
X013613Y008989D01*
X013613Y008990D02*
X013613Y008987D01*
X013610Y008987D01*
X013609Y008988D01*
X013610Y008991D02*
X013612Y008991D01*
X013613Y008990D01*
X013614Y008990D02*
X013614Y008988D01*
X013615Y008987D01*
X013617Y008987D01*
X013617Y008991D01*
X013615Y008991D01*
X013614Y008990D01*
X013616Y008986D02*
X013616Y008986D01*
X013617Y008987D01*
X013618Y008987D02*
X013620Y008987D01*
X013619Y008987D02*
X013619Y008992D01*
X013618Y008992D01*
X013621Y008990D02*
X013622Y008991D01*
X013624Y008991D01*
X013625Y008990D01*
X013625Y008989D01*
X013621Y008989D01*
X013621Y008988D02*
X013621Y008990D01*
X013621Y008988D02*
X013622Y008987D01*
X013624Y008987D01*
X013626Y008987D02*
X013629Y008992D01*
X013631Y008992D02*
X013631Y008988D01*
X013631Y008987D01*
X013633Y008987D01*
X013634Y008988D01*
X013634Y008992D01*
X013633Y008992D01*
X013631Y008992D01*
X013631Y008992D01*
X013635Y008992D02*
X013635Y008991D01*
X013636Y008990D01*
X013638Y008990D01*
X013639Y008989D01*
X013639Y008988D01*
X013638Y008987D01*
X013636Y008987D01*
X013635Y008988D01*
X013636Y008992D02*
X013635Y008992D01*
X013636Y008992D02*
X013638Y008992D01*
X013639Y008992D01*
X013640Y008992D02*
X013640Y008987D01*
X013640Y008990D02*
X013643Y008990D01*
X013643Y008992D02*
X013643Y008987D01*
X013644Y008987D02*
X013646Y008989D01*
X013648Y008987D01*
X013648Y008992D01*
X013649Y008992D02*
X013649Y008987D01*
X013652Y008987D01*
X013653Y008988D02*
X013654Y008987D01*
X013656Y008987D01*
X013657Y008988D01*
X013657Y008990D01*
X013656Y008991D01*
X013654Y008991D01*
X013653Y008990D01*
X013653Y008988D01*
X013658Y008988D02*
X013659Y008987D01*
X013661Y008987D01*
X013661Y008991D01*
X013659Y008991D01*
X013658Y008990D01*
X013658Y008988D01*
X013660Y008986D02*
X013661Y008986D01*
X013661Y008987D01*
X013663Y008988D02*
X013663Y008987D01*
X013665Y008987D01*
X013666Y008988D01*
X013666Y008990D01*
X013665Y008991D01*
X013663Y008991D01*
X013663Y008990D01*
X013663Y008988D01*
X013667Y008988D02*
X013668Y008988D01*
X013668Y008987D01*
X013667Y008987D01*
X013667Y008988D01*
X013669Y008987D02*
X013672Y008987D01*
X013673Y008988D01*
X013673Y008990D01*
X013672Y008991D01*
X013669Y008991D01*
X013669Y008992D02*
X013669Y008987D01*
X013674Y008987D02*
X013674Y008991D01*
X013675Y008991D01*
X013676Y008990D01*
X013676Y008991D01*
X013677Y008990D01*
X013677Y008987D01*
X013676Y008987D02*
X013676Y008990D01*
X013679Y008991D02*
X013681Y008991D01*
X013682Y008990D01*
X013682Y008988D01*
X013681Y008987D01*
X013679Y008987D01*
X013679Y008986D02*
X013679Y008991D01*
X013644Y008992D02*
X013644Y008987D01*
X013608Y008992D02*
X013605Y008992D01*
X013605Y008990D02*
X013606Y008990D01*
X013579Y008987D02*
X013579Y008992D01*
X013565Y008992D02*
X013565Y008987D01*
X013562Y008987D01*
X013561Y008988D01*
X013557Y008987D02*
X013557Y008991D01*
X013542Y008993D02*
X013542Y008992D01*
X013532Y008992D02*
X013532Y008987D01*
X013522Y008991D02*
X013520Y008991D01*
X013521Y008992D02*
X013521Y008988D01*
X013508Y008990D02*
X013508Y008987D01*
X013507Y008987D02*
X013507Y008991D01*
X013502Y008991D02*
X013502Y008988D01*
X013501Y008991D02*
X013498Y008991D01*
X013497Y008990D01*
X013459Y008991D02*
X013458Y008990D01*
X013435Y008987D02*
X013434Y008986D01*
X013433Y008986D01*
D25*
X014039Y009678D03*
X016341Y010743D03*
X017101Y010198D03*
X018141Y009963D03*
X014991Y013008D03*
D26*
X016341Y010745D03*
X016874Y010625D03*
X016711Y010335D03*
X016964Y010195D03*
X017101Y010195D03*
X017664Y010205D03*
X018016Y010205D03*
X015881Y010205D03*
X014039Y009680D03*
D27*
X014039Y009683D03*
X014664Y009988D03*
X017316Y009868D03*
X018139Y009958D03*
X016814Y013018D03*
D28*
X016344Y010750D03*
X018136Y009955D03*
X014041Y009685D03*
D29*
X014043Y009688D03*
X015423Y010328D03*
X016338Y010068D03*
X016813Y013013D03*
D30*
X016811Y013010D03*
X016874Y010635D03*
X017089Y010180D03*
X017196Y010065D03*
X017409Y009835D03*
X017409Y009830D03*
X017554Y009830D03*
X018129Y009950D03*
X016126Y009830D03*
X015979Y009825D03*
X015626Y009835D03*
X015626Y009840D03*
X015626Y009845D03*
X015414Y009830D03*
X015419Y010320D03*
X015496Y010740D03*
X014656Y009980D03*
X014046Y009690D03*
D31*
X014051Y009693D03*
X014651Y009973D03*
X014801Y009833D03*
X015419Y010098D03*
X015419Y010103D03*
X015419Y010193D03*
X015619Y010108D03*
X015621Y010103D03*
X015779Y010103D03*
X015774Y009928D03*
X015774Y009903D03*
X015984Y009903D03*
X015984Y009908D03*
X015984Y009913D03*
X015984Y009918D03*
X015984Y009923D03*
X015984Y009928D03*
X015984Y009933D03*
X015984Y009938D03*
X015984Y009943D03*
X015984Y009948D03*
X015984Y009953D03*
X015984Y009958D03*
X015984Y009963D03*
X015984Y009968D03*
X015984Y009973D03*
X015984Y009978D03*
X015984Y009983D03*
X015984Y009988D03*
X015984Y010078D03*
X015984Y010083D03*
X015984Y010088D03*
X015981Y010093D03*
X015981Y010098D03*
X016131Y010093D03*
X016131Y010088D03*
X016131Y010083D03*
X016334Y010103D03*
X016336Y010098D03*
X016484Y010068D03*
X016484Y010063D03*
X016484Y010058D03*
X016484Y010053D03*
X016484Y010048D03*
X016484Y010043D03*
X016484Y010038D03*
X016484Y010033D03*
X016484Y010028D03*
X016484Y010023D03*
X016484Y010018D03*
X016484Y010013D03*
X016484Y010008D03*
X016484Y010003D03*
X016484Y009998D03*
X016484Y009993D03*
X016484Y009988D03*
X016484Y009983D03*
X016484Y009978D03*
X016484Y009973D03*
X016484Y009968D03*
X016484Y009963D03*
X016484Y009958D03*
X016484Y009953D03*
X016484Y009948D03*
X016484Y009943D03*
X016691Y009908D03*
X016694Y009913D03*
X016696Y009918D03*
X016696Y009923D03*
X016696Y009928D03*
X016696Y009933D03*
X016696Y009948D03*
X016696Y009968D03*
X016696Y010003D03*
X016696Y010028D03*
X016696Y010033D03*
X016696Y010078D03*
X016696Y010083D03*
X016696Y010088D03*
X016696Y010093D03*
X016696Y010098D03*
X016696Y010198D03*
X016696Y010203D03*
X016696Y010208D03*
X016696Y010213D03*
X016696Y010228D03*
X016696Y010243D03*
X016696Y010248D03*
X016696Y010258D03*
X016696Y010268D03*
X016696Y010278D03*
X016696Y010283D03*
X016696Y010298D03*
X016696Y010303D03*
X016696Y010308D03*
X016874Y010638D03*
X017201Y010093D03*
X017201Y010088D03*
X017404Y010108D03*
X017406Y010103D03*
X017406Y010068D03*
X017406Y010003D03*
X017564Y010108D03*
X017764Y010103D03*
X017766Y010093D03*
X017766Y010088D03*
X017766Y010083D03*
X017914Y010083D03*
X017914Y010088D03*
X017916Y010098D03*
X017916Y010103D03*
X017914Y010078D03*
X017914Y010073D03*
X017914Y010068D03*
X017914Y010063D03*
X017914Y010058D03*
X017914Y010053D03*
X017914Y010048D03*
X017914Y010043D03*
X017914Y010038D03*
X017914Y010033D03*
X017914Y010028D03*
X017914Y009933D03*
X017914Y009928D03*
X017914Y009923D03*
X017916Y009913D03*
X018124Y010078D03*
X018119Y010103D03*
X017084Y009903D03*
X017084Y009898D03*
X016946Y009913D03*
X016946Y009933D03*
X016946Y009958D03*
X016946Y009963D03*
X016946Y009983D03*
X016946Y009988D03*
X016946Y009993D03*
X016814Y009898D03*
X016814Y009893D03*
X015984Y009893D03*
X015984Y009898D03*
X015984Y009888D03*
X015984Y009883D03*
X015984Y009878D03*
X015984Y009873D03*
X015984Y009868D03*
X015984Y009863D03*
X015984Y009858D03*
X015984Y009853D03*
X015984Y009848D03*
X015984Y009843D03*
X015984Y009838D03*
X014991Y012998D03*
D32*
X014991Y012995D03*
X016811Y013005D03*
X016499Y010120D03*
X016331Y010115D03*
X016329Y010120D03*
X016139Y010115D03*
X015981Y010070D03*
X015974Y010115D03*
X015981Y009995D03*
X015779Y009890D03*
X015616Y010115D03*
X015614Y010120D03*
X015421Y010110D03*
X016496Y009900D03*
X016499Y009895D03*
X016684Y009895D03*
X016816Y009880D03*
X016819Y009875D03*
X016949Y009895D03*
X017081Y009885D03*
X017081Y009880D03*
X017201Y009895D03*
X017204Y009890D03*
X017201Y009935D03*
X017214Y010120D03*
X017399Y010120D03*
X017566Y010115D03*
X017754Y010120D03*
X017759Y010115D03*
X017926Y010120D03*
X018114Y010115D03*
X018116Y010110D03*
X018114Y009895D03*
X018111Y009890D03*
X017921Y009900D03*
X017919Y009905D03*
X016694Y010105D03*
X014054Y009695D03*
D33*
X014055Y009698D03*
X014165Y009818D03*
X014540Y010228D03*
X014805Y009838D03*
X015780Y009888D03*
X015980Y010068D03*
X016145Y010123D03*
X016330Y010118D03*
X016500Y010123D03*
X016680Y009888D03*
X016820Y009873D03*
X017080Y009878D03*
X017205Y009888D03*
X017930Y009888D03*
D34*
X017931Y009885D03*
X017919Y010015D03*
X017934Y010130D03*
X017746Y010130D03*
X017401Y010060D03*
X017394Y010125D03*
X017206Y009940D03*
X017206Y009885D03*
X017209Y009880D03*
X017214Y009875D03*
X016949Y009885D03*
X016879Y009810D03*
X016679Y009885D03*
X016504Y009885D03*
X016504Y010125D03*
X016324Y010125D03*
X016146Y010125D03*
X015979Y010065D03*
X015966Y010125D03*
X015979Y010000D03*
X015784Y009945D03*
X015789Y010125D03*
X015794Y010130D03*
X015611Y010125D03*
X015424Y010115D03*
X014646Y009960D03*
X014646Y009955D03*
X014646Y009950D03*
X014434Y010060D03*
X014434Y010065D03*
X014434Y010070D03*
X014434Y010075D03*
X014434Y010080D03*
X014056Y009700D03*
X018101Y009880D03*
D35*
X017393Y010128D03*
X017223Y010133D03*
X017208Y009943D03*
X016948Y009883D03*
X016678Y009883D03*
X016323Y010128D03*
X016318Y010133D03*
X015978Y010063D03*
X015878Y010203D03*
X015788Y009873D03*
X014918Y010228D03*
X014058Y009703D03*
X013788Y010228D03*
D36*
X014058Y009705D03*
X014808Y009840D03*
X015608Y010130D03*
X015798Y010135D03*
X015963Y010130D03*
X016873Y010640D03*
X017213Y009950D03*
X017573Y010125D03*
X017938Y010135D03*
X018118Y010070D03*
X018098Y009875D03*
D37*
X017921Y009953D03*
X018106Y010128D03*
X017741Y010138D03*
X017661Y010203D03*
X017584Y010138D03*
X017579Y010133D03*
X017389Y010133D03*
X017399Y010058D03*
X017226Y010138D03*
X017211Y009948D03*
X017216Y009873D03*
X016674Y009878D03*
X016506Y009883D03*
X016509Y010133D03*
X016591Y010203D03*
X016689Y010118D03*
X016314Y010138D03*
X016151Y010133D03*
X015961Y010133D03*
X015606Y010133D03*
X015601Y010138D03*
X015426Y010123D03*
X014811Y010103D03*
X014644Y009943D03*
X014809Y009843D03*
X014436Y010093D03*
X014271Y010093D03*
X014271Y010088D03*
X014271Y010083D03*
X014271Y010078D03*
X014271Y010073D03*
X014271Y010068D03*
X014271Y010063D03*
X014271Y010058D03*
X014271Y010053D03*
X014271Y010048D03*
X014271Y010043D03*
X014271Y010038D03*
X014271Y010033D03*
X014271Y010028D03*
X014271Y010023D03*
X014271Y010018D03*
X014271Y010013D03*
X014271Y010008D03*
X014271Y010003D03*
X014271Y009998D03*
X014271Y009993D03*
X014271Y009988D03*
X014271Y009983D03*
X014271Y009978D03*
X014271Y009973D03*
X014271Y009968D03*
X014271Y009963D03*
X014271Y009958D03*
X014271Y009953D03*
X014059Y009953D03*
X014059Y009958D03*
X014059Y009963D03*
X014059Y009968D03*
X014059Y009973D03*
X014059Y009978D03*
X014059Y009983D03*
X014059Y009988D03*
X014059Y009993D03*
X014059Y009998D03*
X014059Y010003D03*
X014059Y010008D03*
X014059Y010013D03*
X014059Y010018D03*
X014059Y010023D03*
X014059Y010028D03*
X014059Y010033D03*
X014059Y010038D03*
X014059Y010043D03*
X014059Y010048D03*
X014059Y010053D03*
X014059Y010058D03*
X014059Y010063D03*
X014059Y010068D03*
X014059Y010073D03*
X014059Y010078D03*
X014059Y010083D03*
X014059Y010088D03*
X014059Y010093D03*
X014059Y010098D03*
X014059Y009948D03*
X014059Y009813D03*
X014059Y009808D03*
X014059Y009803D03*
X014059Y009798D03*
X014059Y009793D03*
X014059Y009788D03*
X014059Y009783D03*
X014059Y009778D03*
X014059Y009773D03*
X014059Y009768D03*
X014059Y009763D03*
X014059Y009758D03*
X014059Y009753D03*
X014059Y009748D03*
X014059Y009743D03*
X014059Y009738D03*
X014059Y009733D03*
X014059Y009728D03*
X014059Y009723D03*
X014059Y009718D03*
X014059Y009713D03*
X014059Y009708D03*
X013684Y009943D03*
X013681Y009948D03*
X013681Y009953D03*
X013681Y009958D03*
X013681Y009963D03*
X013681Y009968D03*
X013681Y009973D03*
X013681Y009978D03*
X013681Y009983D03*
X013681Y009988D03*
X013681Y009993D03*
X013681Y009998D03*
X013681Y010003D03*
X013681Y010008D03*
X013681Y010013D03*
X013681Y010018D03*
X013681Y010023D03*
X013681Y010028D03*
X013681Y010033D03*
X013681Y010038D03*
X013681Y010043D03*
X013681Y010048D03*
X013681Y010053D03*
X013681Y010058D03*
X013681Y010063D03*
X013681Y010068D03*
X013681Y010073D03*
X013681Y010078D03*
X013681Y010083D03*
X013681Y010088D03*
X013681Y010093D03*
X013681Y010098D03*
X013684Y010103D03*
X016356Y010763D03*
X016811Y013003D03*
D38*
X016689Y010120D03*
X016506Y010130D03*
X016154Y010135D03*
X015976Y010060D03*
X015959Y010135D03*
X015804Y010140D03*
X015604Y010135D03*
X014809Y009845D03*
X014644Y009940D03*
X014436Y010050D03*
X014436Y010095D03*
X014271Y010090D03*
X014271Y010085D03*
X014271Y010080D03*
X014271Y010075D03*
X014271Y010070D03*
X014271Y010065D03*
X014271Y010060D03*
X014271Y010055D03*
X014271Y010050D03*
X014271Y010045D03*
X014271Y010040D03*
X014271Y010035D03*
X014271Y010030D03*
X014271Y010025D03*
X014271Y010020D03*
X014271Y010015D03*
X014271Y010010D03*
X014271Y010005D03*
X014271Y010000D03*
X014271Y009995D03*
X014271Y009990D03*
X014271Y009985D03*
X014271Y009980D03*
X014271Y009975D03*
X014271Y009970D03*
X014271Y009965D03*
X014271Y009960D03*
X014271Y009955D03*
X014271Y009950D03*
X014059Y009950D03*
X014059Y009955D03*
X014059Y009960D03*
X014059Y009965D03*
X014059Y009970D03*
X014059Y009975D03*
X014059Y009980D03*
X014059Y009985D03*
X014059Y009990D03*
X014059Y009995D03*
X014059Y010000D03*
X014059Y010005D03*
X014059Y010010D03*
X014059Y010015D03*
X014059Y010020D03*
X014059Y010025D03*
X014059Y010030D03*
X014059Y010035D03*
X014059Y010040D03*
X014059Y010045D03*
X014059Y010050D03*
X014059Y010055D03*
X014059Y010060D03*
X014059Y010065D03*
X014059Y010070D03*
X014059Y010075D03*
X014059Y010080D03*
X014059Y010085D03*
X014059Y010090D03*
X014059Y010095D03*
X014059Y010100D03*
X014059Y009945D03*
X014059Y009810D03*
X014059Y009805D03*
X014059Y009800D03*
X014059Y009795D03*
X014059Y009790D03*
X014059Y009785D03*
X014059Y009780D03*
X014059Y009775D03*
X014059Y009770D03*
X014059Y009765D03*
X014059Y009760D03*
X014059Y009755D03*
X014059Y009750D03*
X014059Y009745D03*
X014059Y009740D03*
X014059Y009735D03*
X014059Y009730D03*
X014059Y009725D03*
X014059Y009720D03*
X014059Y009715D03*
X014059Y009710D03*
X013684Y009945D03*
X013681Y009950D03*
X013681Y009955D03*
X013681Y009960D03*
X013681Y009965D03*
X013681Y009970D03*
X013681Y009975D03*
X013681Y009980D03*
X013681Y009985D03*
X013681Y009990D03*
X013681Y009995D03*
X013681Y010000D03*
X013681Y010005D03*
X013681Y010010D03*
X013681Y010015D03*
X013681Y010020D03*
X013681Y010025D03*
X013681Y010030D03*
X013681Y010035D03*
X013681Y010040D03*
X013681Y010045D03*
X013681Y010050D03*
X013681Y010055D03*
X013681Y010060D03*
X013681Y010065D03*
X013681Y010070D03*
X013681Y010075D03*
X013681Y010080D03*
X013681Y010085D03*
X013681Y010090D03*
X013681Y010095D03*
X013684Y010100D03*
X016824Y009870D03*
X017224Y010135D03*
X017391Y010130D03*
X017576Y010130D03*
X017581Y010135D03*
X017744Y010135D03*
X017936Y009880D03*
X018109Y010125D03*
X018101Y010135D03*
D39*
X015848Y009808D03*
D40*
X015860Y009808D03*
X016580Y009808D03*
X016590Y009808D03*
D41*
X016866Y009808D03*
X017031Y009808D03*
X017179Y010048D03*
X016714Y010338D03*
X015871Y009808D03*
X015396Y009813D03*
X015431Y010338D03*
X014791Y009818D03*
X017999Y009808D03*
D42*
X018033Y009808D03*
X017283Y009808D03*
X016603Y009808D03*
X015883Y009808D03*
X016873Y010623D03*
D43*
X016888Y009808D03*
X018013Y009808D03*
D44*
X017301Y009808D03*
X017291Y009808D03*
D45*
X018020Y009808D03*
X014670Y009993D03*
D46*
X014975Y010595D03*
X015610Y009810D03*
X016110Y009810D03*
D47*
X015865Y009810D03*
X015430Y010130D03*
X014640Y010120D03*
X014640Y010115D03*
X014640Y010095D03*
X014540Y010225D03*
X014440Y010115D03*
X014440Y009955D03*
X014265Y009925D03*
X014265Y010120D03*
X014165Y010225D03*
X014065Y010120D03*
X013690Y010125D03*
X013690Y009925D03*
X016590Y009810D03*
X017220Y009870D03*
X017395Y010055D03*
X017380Y010140D03*
D48*
X017218Y010125D03*
X017078Y009875D03*
X017018Y009810D03*
X016948Y009890D03*
X016683Y009890D03*
X016693Y010110D03*
X016693Y010190D03*
X016143Y010120D03*
X015783Y009880D03*
X014648Y009965D03*
X017568Y010120D03*
X017918Y009945D03*
X017928Y009890D03*
X018113Y010120D03*
D49*
X017388Y010135D03*
X017218Y009955D03*
X017293Y009810D03*
X017073Y009870D03*
X016948Y009880D03*
X016508Y009880D03*
X015428Y010125D03*
X015023Y010105D03*
X014813Y010105D03*
X014813Y010110D03*
X014643Y009935D03*
X014438Y009940D03*
X014438Y009945D03*
X014438Y010100D03*
X013893Y010100D03*
X013893Y010095D03*
X013893Y010090D03*
X013893Y010085D03*
X013893Y010080D03*
X013893Y010075D03*
X013893Y010070D03*
X013893Y010065D03*
X013893Y010060D03*
X013893Y010055D03*
X013893Y010050D03*
X013893Y010045D03*
X013893Y010040D03*
X013893Y010035D03*
X013893Y010030D03*
X013893Y010025D03*
X013893Y010020D03*
X013893Y010015D03*
X013893Y010010D03*
X013893Y010005D03*
X013893Y010000D03*
X013893Y009995D03*
X013893Y009990D03*
X013893Y009985D03*
X013893Y009980D03*
X013893Y009975D03*
X013893Y009970D03*
X013893Y009965D03*
X013893Y009960D03*
X013893Y009955D03*
X013893Y009950D03*
X013893Y009945D03*
X013893Y009940D03*
X015023Y009845D03*
X014993Y012990D03*
D50*
X016966Y010200D03*
X017321Y009870D03*
X017394Y009810D03*
X015894Y009870D03*
D51*
X017539Y009810D03*
D52*
X017739Y010140D03*
X017924Y009955D03*
X018021Y009810D03*
X018091Y009870D03*
X018094Y010140D03*
X017231Y010140D03*
X016686Y010125D03*
X016516Y010140D03*
X016309Y010140D03*
X016159Y010140D03*
X015791Y009955D03*
X015791Y009870D03*
X015596Y010140D03*
X015024Y010100D03*
X015024Y010095D03*
X015024Y010090D03*
X015024Y010085D03*
X015024Y010080D03*
X015024Y010075D03*
X015024Y010070D03*
X015024Y010065D03*
X015024Y010060D03*
X015024Y010055D03*
X015024Y010050D03*
X015024Y010045D03*
X015024Y010040D03*
X015024Y010035D03*
X015024Y010030D03*
X015024Y010025D03*
X015024Y010020D03*
X015024Y010015D03*
X015024Y010010D03*
X015024Y010005D03*
X015024Y010000D03*
X015024Y009995D03*
X015024Y009990D03*
X015024Y009985D03*
X015024Y009980D03*
X015024Y009975D03*
X015024Y009970D03*
X015024Y009965D03*
X015024Y009960D03*
X015024Y009955D03*
X015024Y009950D03*
X015024Y009945D03*
X015024Y009940D03*
X015024Y009935D03*
X015024Y009930D03*
X015024Y009925D03*
X015024Y009920D03*
X015024Y009915D03*
X015024Y009910D03*
X015024Y009905D03*
X015024Y009900D03*
X015024Y009895D03*
X015024Y009890D03*
X015024Y009885D03*
X015024Y009880D03*
X015024Y009875D03*
X015024Y009870D03*
X015024Y009865D03*
X015024Y009860D03*
X015024Y009855D03*
X015024Y009850D03*
X015021Y010110D03*
X015021Y010115D03*
X014819Y010120D03*
X014816Y010115D03*
X014641Y010110D03*
X014641Y010105D03*
X014641Y010100D03*
X014641Y009930D03*
X014641Y009925D03*
X014541Y009820D03*
X014441Y009925D03*
X014439Y009930D03*
X014439Y009935D03*
X014439Y009950D03*
X014439Y010105D03*
X014439Y010110D03*
X014441Y010120D03*
X014269Y010110D03*
X014269Y009935D03*
X014061Y009930D03*
X014061Y009820D03*
X013889Y009925D03*
X013889Y009930D03*
X013891Y009935D03*
X013891Y010105D03*
X013891Y010110D03*
X013889Y010115D03*
X013889Y010120D03*
X014061Y010115D03*
X013689Y010120D03*
X013686Y010115D03*
X013686Y009935D03*
X013689Y009930D03*
X016356Y010765D03*
X016511Y009875D03*
X016671Y009875D03*
X016811Y013000D03*
D53*
X017403Y009823D03*
X015973Y009823D03*
X013788Y009813D03*
D54*
X014165Y009813D03*
X015005Y009823D03*
X015425Y010333D03*
X015890Y009868D03*
D55*
X016705Y010328D03*
X017760Y010063D03*
X014920Y010233D03*
X014540Y009813D03*
D56*
X015611Y009813D03*
X015964Y009813D03*
X016111Y009813D03*
X017394Y009813D03*
X017539Y009813D03*
D57*
X017390Y010053D03*
X017245Y010148D03*
X016590Y009813D03*
X015865Y009813D03*
X015435Y010138D03*
X014450Y010138D03*
X014450Y009908D03*
X013880Y010138D03*
X016810Y012993D03*
X018020Y009813D03*
D58*
X017016Y009813D03*
X016946Y009878D03*
X016879Y009813D03*
X016669Y009873D03*
X015974Y010058D03*
X015429Y010128D03*
X015024Y010103D03*
X015024Y010098D03*
X015024Y010093D03*
X015024Y010088D03*
X015024Y010083D03*
X015024Y010078D03*
X015024Y010073D03*
X015024Y010068D03*
X015024Y010063D03*
X015024Y010058D03*
X015024Y010053D03*
X015024Y010048D03*
X015024Y010043D03*
X015024Y010038D03*
X015024Y010033D03*
X015024Y010028D03*
X015024Y010023D03*
X015024Y010018D03*
X015024Y010013D03*
X015024Y010008D03*
X015024Y010003D03*
X015024Y009998D03*
X015024Y009993D03*
X015024Y009988D03*
X015024Y009983D03*
X015024Y009978D03*
X015024Y009973D03*
X015024Y009968D03*
X015024Y009963D03*
X015024Y009958D03*
X015024Y009953D03*
X015024Y009948D03*
X015024Y009943D03*
X015024Y009938D03*
X015024Y009933D03*
X015024Y009928D03*
X015024Y009923D03*
X015024Y009918D03*
X015024Y009913D03*
X015024Y009908D03*
X015024Y009903D03*
X015024Y009898D03*
X015024Y009893D03*
X015024Y009888D03*
X015024Y009883D03*
X015024Y009878D03*
X015024Y009873D03*
X015024Y009868D03*
X015024Y009863D03*
X015024Y009858D03*
X015024Y009853D03*
X015024Y009848D03*
X015021Y010113D03*
X014641Y010108D03*
X014641Y010103D03*
X014641Y009928D03*
X014439Y009933D03*
X014439Y009938D03*
X014439Y009953D03*
X014439Y010108D03*
X014439Y010113D03*
X014269Y010113D03*
X014266Y010118D03*
X014269Y009933D03*
X014266Y009928D03*
X014061Y009933D03*
X013891Y009933D03*
X013891Y009938D03*
X013889Y009928D03*
X013891Y010108D03*
X013891Y010113D03*
X013889Y010118D03*
X014061Y010113D03*
X013689Y010118D03*
X013689Y010123D03*
X013686Y010113D03*
X013686Y009938D03*
X013689Y009933D03*
X013689Y009928D03*
X015489Y010753D03*
D59*
X015949Y010143D03*
X016164Y010143D03*
X015796Y009868D03*
X014631Y009908D03*
X014446Y009913D03*
X014446Y010133D03*
X014634Y010133D03*
X014636Y010128D03*
X014074Y010138D03*
X013884Y010133D03*
X013696Y010138D03*
X013696Y009913D03*
X013881Y009913D03*
X013884Y009918D03*
X014066Y009918D03*
X017291Y009813D03*
X017734Y010143D03*
X018089Y010143D03*
X018086Y009868D03*
D60*
X018128Y009945D03*
X017558Y010090D03*
X017198Y010070D03*
X017088Y010070D03*
X017088Y010075D03*
X017088Y010080D03*
X017088Y010085D03*
X017088Y010090D03*
X017088Y010095D03*
X017088Y010100D03*
X017088Y010105D03*
X017088Y010110D03*
X017088Y010115D03*
X017088Y010120D03*
X017088Y010125D03*
X017088Y010130D03*
X017088Y010135D03*
X017088Y010140D03*
X017088Y010145D03*
X017088Y010150D03*
X017088Y010155D03*
X017088Y010160D03*
X017088Y010165D03*
X017088Y010170D03*
X017088Y010175D03*
X017088Y010065D03*
X017088Y010060D03*
X017088Y010055D03*
X017088Y010050D03*
X017088Y010045D03*
X017088Y010040D03*
X017088Y010035D03*
X017088Y010030D03*
X017088Y010025D03*
X017088Y010020D03*
X017088Y010015D03*
X017088Y010010D03*
X017088Y010005D03*
X017088Y010000D03*
X017088Y009995D03*
X017088Y009990D03*
X017088Y009985D03*
X017088Y009980D03*
X017088Y009975D03*
X017088Y009970D03*
X017088Y009965D03*
X017088Y009960D03*
X017088Y009955D03*
X017088Y009950D03*
X017088Y009945D03*
X017088Y009940D03*
X017088Y009935D03*
X017088Y009930D03*
X017088Y009925D03*
X017088Y009920D03*
X017088Y009915D03*
X015773Y010085D03*
X015628Y010070D03*
X015628Y010065D03*
X015628Y010060D03*
X015628Y010055D03*
X015628Y010050D03*
X015628Y010045D03*
X015628Y010040D03*
X015628Y010035D03*
X015628Y010030D03*
X015628Y010025D03*
X015628Y010020D03*
X015628Y010015D03*
X015628Y010010D03*
X015628Y010005D03*
X015628Y010000D03*
X015628Y009995D03*
X015628Y009990D03*
X015628Y009985D03*
X015628Y009980D03*
X015628Y009975D03*
X015628Y009970D03*
X015628Y009965D03*
X015628Y009960D03*
X015628Y009955D03*
X015628Y009950D03*
X015628Y009945D03*
X015628Y009940D03*
X015628Y009935D03*
X015628Y009930D03*
X015628Y009925D03*
X015628Y009920D03*
X015628Y009915D03*
X015628Y009910D03*
X015628Y009905D03*
X015628Y009900D03*
X015628Y009895D03*
X015628Y009890D03*
X015628Y009885D03*
X015628Y009880D03*
X015628Y009875D03*
X015628Y009870D03*
X015628Y009865D03*
X015628Y009860D03*
X015628Y009855D03*
X015628Y009850D03*
X013788Y009815D03*
D61*
X013685Y009940D03*
X013685Y010105D03*
X013685Y010110D03*
X014060Y010110D03*
X014060Y010105D03*
X014060Y009940D03*
X014060Y009935D03*
X014060Y009815D03*
X014270Y009940D03*
X014270Y009945D03*
X014270Y010095D03*
X014270Y010100D03*
X014270Y010105D03*
X014810Y010100D03*
X014810Y010095D03*
X014810Y010090D03*
X014810Y010085D03*
X014810Y010080D03*
X014810Y010075D03*
X014810Y010070D03*
X014810Y010065D03*
X014810Y010060D03*
X014810Y010055D03*
X014810Y010050D03*
X014810Y010045D03*
X014810Y010040D03*
X014810Y010035D03*
X014810Y010030D03*
X014810Y010025D03*
X014810Y010020D03*
X014810Y010015D03*
X014810Y010010D03*
X014810Y010005D03*
X014810Y010000D03*
X014810Y009995D03*
X014810Y009990D03*
X014810Y009985D03*
X014810Y009980D03*
X014810Y009975D03*
X014810Y009970D03*
X014810Y009965D03*
X014810Y009960D03*
X014810Y009955D03*
X014810Y009950D03*
X014810Y009945D03*
X014810Y009940D03*
X014810Y009935D03*
X014810Y009930D03*
X014810Y009925D03*
X014810Y009920D03*
X014810Y009915D03*
X014810Y009910D03*
X014810Y009905D03*
X014810Y009900D03*
X014810Y009895D03*
X014810Y009890D03*
X014810Y009885D03*
X014810Y009880D03*
X014810Y009875D03*
X014810Y009870D03*
X014810Y009865D03*
X014810Y009860D03*
X014810Y009855D03*
X014810Y009850D03*
X014975Y010615D03*
X016510Y010135D03*
X016675Y009880D03*
X017940Y009875D03*
X018105Y010130D03*
D62*
X017765Y010070D03*
X017555Y010070D03*
X017555Y010075D03*
X017555Y010080D03*
X017555Y010065D03*
X017555Y010060D03*
X017555Y010055D03*
X017555Y010050D03*
X017555Y010045D03*
X017555Y010040D03*
X017555Y010035D03*
X017555Y010030D03*
X017555Y010025D03*
X017555Y010020D03*
X017555Y010015D03*
X017555Y010010D03*
X017555Y010005D03*
X017555Y010000D03*
X017555Y009995D03*
X017555Y009990D03*
X017555Y009985D03*
X017555Y009980D03*
X017555Y009975D03*
X017555Y009970D03*
X017555Y009965D03*
X017555Y009960D03*
X017555Y009955D03*
X017555Y009950D03*
X017555Y009945D03*
X017555Y009940D03*
X017555Y009935D03*
X017555Y009930D03*
X017555Y009925D03*
X017555Y009920D03*
X017555Y009915D03*
X017555Y009910D03*
X017555Y009905D03*
X017555Y009900D03*
X017555Y009895D03*
X017555Y009890D03*
X017555Y009885D03*
X017555Y009880D03*
X017555Y009875D03*
X017555Y009870D03*
X017555Y009865D03*
X017555Y009860D03*
X017555Y009855D03*
X017555Y009850D03*
X017555Y009845D03*
X017555Y009840D03*
X017555Y009835D03*
X017410Y009840D03*
X017410Y009845D03*
X017410Y009850D03*
X017410Y009855D03*
X017410Y009860D03*
X017410Y009865D03*
X017410Y009870D03*
X017410Y009875D03*
X017410Y009880D03*
X017410Y009885D03*
X017410Y009890D03*
X017410Y009895D03*
X017410Y009900D03*
X017410Y009905D03*
X017410Y009910D03*
X017410Y009915D03*
X017410Y009920D03*
X017410Y009925D03*
X017410Y009930D03*
X017410Y009935D03*
X017410Y009940D03*
X017410Y009945D03*
X017410Y009950D03*
X017410Y009955D03*
X017410Y009960D03*
X017410Y009965D03*
X017410Y009970D03*
X017410Y009975D03*
X017410Y009980D03*
X017410Y009985D03*
X017410Y009990D03*
X017410Y010080D03*
X017410Y010085D03*
X016950Y010180D03*
X016810Y010180D03*
X016810Y010175D03*
X016340Y010080D03*
X016340Y010075D03*
X015770Y010070D03*
X015770Y010065D03*
X015415Y009840D03*
X015415Y009835D03*
X014540Y009815D03*
X014165Y009815D03*
D63*
X015398Y009815D03*
D64*
X015611Y009815D03*
X015966Y009815D03*
X016111Y009815D03*
X015001Y009820D03*
X014669Y009990D03*
X017751Y010055D03*
D65*
X018080Y009865D03*
X015945Y010145D03*
X015865Y009815D03*
X015000Y010145D03*
X014630Y010140D03*
X013700Y009905D03*
D66*
X013704Y010145D03*
X013871Y010145D03*
X014081Y010145D03*
X014249Y010145D03*
X014249Y009900D03*
X014449Y009965D03*
X014834Y010145D03*
X015804Y009965D03*
X016534Y010150D03*
X016676Y010140D03*
X016591Y009815D03*
X016879Y009820D03*
X017016Y009820D03*
X017249Y010150D03*
X017386Y010050D03*
X017959Y010150D03*
X018019Y009815D03*
D67*
X017946Y009870D03*
X017016Y009815D03*
X016879Y009815D03*
X016684Y010130D03*
X015954Y010140D03*
X014916Y010225D03*
X014824Y010130D03*
X014821Y010125D03*
X014639Y009920D03*
X014636Y009915D03*
X014261Y009920D03*
X014259Y009915D03*
X014164Y009820D03*
X014064Y009925D03*
X013886Y009920D03*
X013691Y009920D03*
X013691Y010130D03*
X013886Y010125D03*
X014259Y010130D03*
X014261Y010125D03*
D68*
X014623Y009900D03*
X015438Y010140D03*
X017233Y009965D03*
X017293Y009815D03*
X017933Y009960D03*
D69*
X018140Y009960D03*
X017540Y009815D03*
X017395Y009815D03*
X016825Y010195D03*
X016590Y010205D03*
D70*
X016948Y009888D03*
X017403Y010063D03*
X017398Y010123D03*
X017753Y010123D03*
X017933Y010128D03*
X018018Y010203D03*
X017918Y009948D03*
X017923Y009898D03*
X017928Y009893D03*
X018108Y009888D03*
X016353Y010758D03*
X015968Y010123D03*
X015788Y010123D03*
X015613Y010123D03*
X015423Y010113D03*
X015783Y009883D03*
X015018Y009838D03*
X014648Y009968D03*
X013788Y009818D03*
X015493Y010748D03*
D71*
X016155Y010138D03*
X016510Y009878D03*
X017385Y010138D03*
X017940Y010138D03*
X018115Y010068D03*
X014815Y010113D03*
X014810Y010098D03*
X014810Y010093D03*
X014810Y010088D03*
X014810Y010083D03*
X014810Y010078D03*
X014810Y010073D03*
X014810Y010068D03*
X014810Y010063D03*
X014810Y010058D03*
X014810Y010053D03*
X014810Y010048D03*
X014810Y010043D03*
X014810Y010038D03*
X014810Y010033D03*
X014810Y010028D03*
X014810Y010023D03*
X014810Y010018D03*
X014810Y010013D03*
X014810Y010008D03*
X014810Y010003D03*
X014810Y009998D03*
X014810Y009993D03*
X014810Y009988D03*
X014810Y009983D03*
X014810Y009978D03*
X014810Y009973D03*
X014810Y009968D03*
X014810Y009963D03*
X014810Y009958D03*
X014810Y009953D03*
X014810Y009948D03*
X014810Y009943D03*
X014810Y009938D03*
X014810Y009933D03*
X014810Y009928D03*
X014810Y009923D03*
X014810Y009918D03*
X014810Y009913D03*
X014810Y009908D03*
X014810Y009903D03*
X014810Y009898D03*
X014810Y009893D03*
X014810Y009888D03*
X014810Y009883D03*
X014810Y009878D03*
X014810Y009873D03*
X014810Y009868D03*
X014810Y009863D03*
X014810Y009858D03*
X014810Y009853D03*
X014810Y009848D03*
X014270Y009938D03*
X014270Y009943D03*
X014270Y009948D03*
X014270Y010098D03*
X014270Y010103D03*
X014270Y010108D03*
X014060Y010108D03*
X014060Y010103D03*
X014060Y009943D03*
X014060Y009938D03*
X014060Y009818D03*
X013685Y010108D03*
D72*
X014540Y009818D03*
X015420Y010108D03*
X015615Y010118D03*
X015780Y010108D03*
X015975Y010113D03*
X015980Y010103D03*
X016135Y010108D03*
X016495Y010108D03*
X016695Y010103D03*
X016695Y010193D03*
X016690Y009903D03*
X016815Y009888D03*
X016815Y009883D03*
X016495Y009903D03*
X017200Y009903D03*
X017200Y009908D03*
X017200Y009913D03*
X017200Y009918D03*
X017200Y009923D03*
X017200Y009928D03*
X017200Y009898D03*
X017210Y010113D03*
X017565Y010113D03*
X017760Y010113D03*
X017765Y010098D03*
X017915Y010093D03*
X017920Y010113D03*
X017915Y010023D03*
X017915Y009938D03*
X017915Y009918D03*
X018115Y009903D03*
X018115Y009898D03*
X015775Y009898D03*
D73*
X015400Y009818D03*
X015505Y010733D03*
X016330Y010058D03*
X016965Y010198D03*
D74*
X015758Y010053D03*
X015613Y009818D03*
D75*
X015864Y009818D03*
X015441Y010143D03*
X014994Y010153D03*
X014836Y010148D03*
X014621Y010148D03*
X014451Y009968D03*
X014461Y009898D03*
X014086Y010153D03*
X013864Y009893D03*
X013711Y010153D03*
X017291Y009818D03*
X017384Y010048D03*
X017661Y010198D03*
D76*
X016963Y010193D03*
X015968Y009818D03*
X014793Y009823D03*
D77*
X016114Y009818D03*
X016824Y010193D03*
X017184Y010053D03*
X017396Y009818D03*
X017541Y009818D03*
D78*
X017241Y009973D03*
X017016Y009823D03*
X016591Y009818D03*
X016591Y010193D03*
X016369Y010778D03*
X015959Y010048D03*
X015816Y009973D03*
X015476Y010763D03*
X014841Y010153D03*
X014616Y010153D03*
X014241Y010153D03*
X014241Y009893D03*
X013714Y009893D03*
X014994Y012978D03*
X016809Y012988D03*
X018099Y010053D03*
X017939Y009968D03*
X018019Y009818D03*
D79*
X017018Y009818D03*
X016948Y009873D03*
X016878Y009818D03*
X014828Y010138D03*
X014068Y009913D03*
D80*
X014268Y009930D03*
X014443Y009920D03*
X014443Y010125D03*
X014268Y010115D03*
X013788Y009820D03*
X015018Y010120D03*
X016873Y010645D03*
X017588Y010140D03*
X017943Y010140D03*
X018113Y010065D03*
D81*
X017305Y010205D03*
X017180Y010050D03*
X015755Y010050D03*
X015520Y010205D03*
X015505Y010730D03*
X014790Y009820D03*
D82*
X015401Y009820D03*
X015759Y010055D03*
X016116Y009820D03*
X016821Y010190D03*
X017186Y010055D03*
X017399Y009820D03*
X015501Y010735D03*
D83*
X014975Y010600D03*
X015615Y009820D03*
D84*
X015863Y009820D03*
X016178Y010150D03*
X016368Y010775D03*
X015523Y010195D03*
X014978Y010625D03*
X014628Y010085D03*
X014613Y009890D03*
X014463Y009895D03*
X014453Y009970D03*
X017938Y009965D03*
X018018Y010195D03*
D85*
X016960Y010190D03*
X015970Y009820D03*
D86*
X015823Y009975D03*
X016593Y009820D03*
X016668Y010145D03*
X017378Y010040D03*
X018018Y009820D03*
X014978Y010630D03*
X014848Y010155D03*
D87*
X014470Y009890D03*
X013860Y009890D03*
X015445Y010145D03*
X015475Y010765D03*
X017290Y009820D03*
D88*
X017543Y009820D03*
X015428Y010335D03*
D89*
X015808Y009968D03*
X016173Y010148D03*
X013868Y010148D03*
X013788Y010223D03*
X013868Y009898D03*
X013788Y009823D03*
D90*
X014064Y009823D03*
X014259Y009913D03*
X014261Y009918D03*
X014444Y009918D03*
X014444Y010128D03*
X014259Y010133D03*
X014069Y010128D03*
X014066Y010123D03*
X013694Y010133D03*
X014639Y010123D03*
X014639Y010093D03*
X014821Y010128D03*
X014824Y010133D03*
X015014Y010128D03*
X015016Y010123D03*
X015431Y010133D03*
X015591Y010143D03*
X015809Y010143D03*
X016521Y010143D03*
X017236Y010143D03*
X017221Y009958D03*
X016359Y010768D03*
D91*
X016235Y010198D03*
X017725Y010148D03*
X017935Y009963D03*
X014615Y009893D03*
X014460Y010148D03*
X014540Y010223D03*
X014245Y009898D03*
X014165Y009823D03*
X013705Y010148D03*
D92*
X013874Y009903D03*
X014084Y010148D03*
X014166Y010223D03*
X014246Y010148D03*
X014454Y009903D03*
X014541Y009823D03*
X014916Y010223D03*
X014999Y010148D03*
X015801Y009963D03*
X015941Y010148D03*
X015879Y010198D03*
X016591Y010198D03*
X016871Y010653D03*
X017306Y010198D03*
X017366Y010148D03*
X017234Y009968D03*
X017599Y010148D03*
X018081Y010148D03*
X014994Y012983D03*
D93*
X014975Y010603D03*
X014540Y010233D03*
X013790Y010233D03*
X015405Y009823D03*
X016335Y010063D03*
X017190Y010058D03*
D94*
X017546Y009823D03*
X016709Y010333D03*
X016119Y009823D03*
X015619Y009823D03*
D95*
X015860Y009823D03*
X015955Y010043D03*
X017660Y010193D03*
D96*
X016593Y009823D03*
X015948Y010038D03*
D97*
X016673Y010143D03*
X016878Y009823D03*
X013863Y010153D03*
X013708Y009898D03*
D98*
X014623Y010078D03*
X015448Y010148D03*
X015473Y010768D03*
X016373Y010783D03*
X017288Y009823D03*
D99*
X017268Y009988D03*
X017373Y010038D03*
X018018Y009823D03*
X015833Y009983D03*
X014618Y010073D03*
D100*
X013788Y010220D03*
X013788Y009825D03*
X018018Y010190D03*
D101*
X016864Y010695D03*
X015491Y010185D03*
X014916Y010190D03*
X014984Y010665D03*
X014164Y010190D03*
X014124Y009825D03*
X013789Y010190D03*
X014999Y012940D03*
D102*
X016809Y012985D03*
X016869Y010660D03*
X017249Y009975D03*
X014541Y009825D03*
X013856Y010155D03*
D103*
X014661Y009985D03*
X014796Y009825D03*
X016336Y010065D03*
X016874Y010630D03*
D104*
X017193Y010060D03*
X016123Y009825D03*
X015623Y009825D03*
X015008Y009825D03*
D105*
X015410Y009825D03*
X017405Y009825D03*
D106*
X017284Y009825D03*
X017256Y009980D03*
X017661Y010190D03*
X016374Y010785D03*
X015879Y010190D03*
X015951Y010040D03*
X015829Y009980D03*
X015859Y009825D03*
X015451Y010150D03*
X014461Y009975D03*
D107*
X014918Y010215D03*
X015463Y010775D03*
X015858Y009995D03*
X016593Y009825D03*
X016868Y010670D03*
X018033Y010015D03*
X018018Y009825D03*
X013788Y009830D03*
D108*
X014165Y010220D03*
X014540Y010220D03*
X014620Y010075D03*
X014915Y010220D03*
X016235Y010190D03*
X016590Y010190D03*
X016880Y009825D03*
X017305Y010190D03*
X018090Y010045D03*
D109*
X017263Y009985D03*
X017013Y009825D03*
X014978Y010635D03*
D110*
X015421Y010325D03*
X015886Y009865D03*
X016704Y010325D03*
X016954Y010185D03*
X017091Y010185D03*
X017551Y009825D03*
X017761Y010065D03*
D111*
X017951Y009978D03*
X018079Y010038D03*
X017306Y010188D03*
X017281Y009833D03*
X016869Y010668D03*
X015879Y010188D03*
X015466Y010773D03*
X014979Y010638D03*
X014916Y010218D03*
X014541Y009828D03*
X014164Y010218D03*
X013789Y009828D03*
X016809Y012978D03*
D112*
X014984Y010668D03*
X014541Y010188D03*
X014164Y010188D03*
X014126Y009828D03*
X013789Y009858D03*
X013789Y010188D03*
X015494Y010183D03*
X018019Y009858D03*
D113*
X017763Y010068D03*
X017408Y009828D03*
X015413Y009828D03*
X014798Y009828D03*
D114*
X015010Y009828D03*
X015420Y010323D03*
X016125Y009828D03*
X017090Y010183D03*
X017195Y010063D03*
X014990Y013003D03*
D115*
X016346Y010753D03*
X016874Y010633D03*
X015624Y009828D03*
X014659Y009983D03*
X018131Y009953D03*
D116*
X015855Y009828D03*
X015840Y009988D03*
X014465Y009978D03*
D117*
X015416Y009978D03*
X015416Y009983D03*
X015416Y009988D03*
X015416Y009993D03*
X015416Y009998D03*
X015416Y010003D03*
X015416Y010008D03*
X015416Y010013D03*
X015416Y010018D03*
X015416Y010023D03*
X015416Y010028D03*
X015416Y010033D03*
X015416Y010038D03*
X015416Y010043D03*
X015416Y010048D03*
X015416Y010053D03*
X015416Y010058D03*
X015416Y010063D03*
X015416Y010068D03*
X015416Y010073D03*
X015416Y010078D03*
X015416Y009973D03*
X015416Y009968D03*
X015416Y009963D03*
X015416Y009958D03*
X015416Y009953D03*
X015416Y009948D03*
X015416Y009943D03*
X015416Y009938D03*
X015416Y009933D03*
X015416Y009928D03*
X015416Y009923D03*
X015416Y009918D03*
X015416Y009913D03*
X015416Y009908D03*
X015416Y009903D03*
X015416Y009898D03*
X015416Y009893D03*
X015416Y009888D03*
X015416Y009883D03*
X015416Y009878D03*
X015416Y009873D03*
X015416Y009868D03*
X015416Y009863D03*
X015416Y009858D03*
X015416Y009853D03*
X015416Y009848D03*
X015626Y010073D03*
X015626Y010078D03*
X015626Y010083D03*
X015626Y010088D03*
X015624Y010098D03*
X015771Y010078D03*
X015771Y010073D03*
X015774Y010088D03*
X015774Y010093D03*
X015776Y010098D03*
X015771Y009918D03*
X015771Y009913D03*
X015981Y009828D03*
X016129Y009838D03*
X016341Y010083D03*
X016339Y010088D03*
X016486Y010088D03*
X016489Y010098D03*
X016486Y009923D03*
X016489Y009918D03*
X016809Y009918D03*
X016809Y009923D03*
X016809Y009928D03*
X016809Y009933D03*
X016809Y009938D03*
X016809Y009943D03*
X016809Y009948D03*
X016809Y009953D03*
X016809Y009958D03*
X016809Y009963D03*
X016809Y009968D03*
X016809Y009973D03*
X016809Y009978D03*
X016809Y009983D03*
X016809Y009988D03*
X016809Y009993D03*
X016809Y009998D03*
X016809Y010003D03*
X016809Y010008D03*
X016809Y010013D03*
X016809Y010018D03*
X016809Y010023D03*
X016809Y010028D03*
X016809Y010033D03*
X016809Y010038D03*
X016809Y010043D03*
X016809Y010048D03*
X016809Y010053D03*
X016809Y010058D03*
X016809Y010063D03*
X016809Y010068D03*
X016809Y010073D03*
X016809Y010078D03*
X016809Y010083D03*
X016809Y010088D03*
X016809Y010093D03*
X016809Y010098D03*
X016809Y010103D03*
X016809Y010108D03*
X016809Y010113D03*
X016809Y010118D03*
X016809Y010123D03*
X016809Y010128D03*
X016809Y010133D03*
X016809Y010138D03*
X016809Y010143D03*
X016809Y010148D03*
X016809Y010153D03*
X016809Y010158D03*
X016809Y010163D03*
X016809Y010168D03*
X016809Y010173D03*
X016949Y010173D03*
X016949Y010178D03*
X016949Y010168D03*
X016949Y010163D03*
X016949Y010158D03*
X016949Y010153D03*
X016949Y010148D03*
X016949Y010143D03*
X016949Y010138D03*
X016949Y010133D03*
X016949Y010128D03*
X016949Y010123D03*
X016949Y010118D03*
X016949Y010113D03*
X016949Y010108D03*
X016949Y010103D03*
X016949Y010098D03*
X016949Y010093D03*
X016949Y010088D03*
X016949Y010083D03*
X016949Y010078D03*
X016949Y010073D03*
X016949Y010068D03*
X016949Y010063D03*
X016949Y010058D03*
X016949Y010053D03*
X016949Y010048D03*
X016949Y010043D03*
X016949Y010038D03*
X016949Y010033D03*
X016949Y010028D03*
X016949Y010023D03*
X016809Y009913D03*
X016811Y009908D03*
X017199Y010073D03*
X017409Y010073D03*
X017409Y010093D03*
X017409Y009998D03*
X017409Y009993D03*
X017556Y010083D03*
X017556Y010088D03*
X017559Y010093D03*
X017766Y010073D03*
X018121Y010093D03*
X018124Y010083D03*
X018126Y009943D03*
X018126Y009938D03*
X018126Y009933D03*
X018124Y009928D03*
X018124Y009923D03*
X018121Y009918D03*
X015416Y010198D03*
X015416Y010203D03*
X015416Y010208D03*
X015416Y010213D03*
X015416Y010218D03*
X015416Y010223D03*
X015416Y010228D03*
X015416Y010233D03*
X015416Y010238D03*
X015416Y010243D03*
X015416Y010248D03*
X015416Y010253D03*
X015416Y010258D03*
X015416Y010263D03*
X015416Y010268D03*
X015416Y010273D03*
X015416Y010278D03*
X015416Y010283D03*
X015416Y010288D03*
X015416Y010293D03*
X015416Y010298D03*
X015416Y010303D03*
X015416Y010308D03*
X015416Y010313D03*
X015494Y010743D03*
D118*
X015839Y009853D03*
X016591Y009828D03*
X017361Y010028D03*
X016866Y010673D03*
X014541Y010213D03*
X013789Y010213D03*
D119*
X014988Y010688D03*
X016948Y009828D03*
D120*
X017284Y009828D03*
X016376Y010788D03*
D121*
X016701Y010323D03*
X016811Y010183D03*
X016951Y010183D03*
X017196Y010068D03*
X017409Y009833D03*
X017554Y009828D03*
X016339Y010073D03*
X015769Y010063D03*
X015626Y009843D03*
X015626Y009838D03*
X015626Y009833D03*
D122*
X014918Y010213D03*
X017263Y009858D03*
X017268Y009853D03*
X018018Y009828D03*
D123*
X018019Y009860D03*
X016591Y009860D03*
X016619Y010180D03*
X014541Y010185D03*
X014129Y009830D03*
X013789Y009860D03*
X013789Y010185D03*
D124*
X014165Y010215D03*
X014470Y009985D03*
X014540Y009830D03*
X014980Y010640D03*
X015845Y009840D03*
X017275Y009840D03*
D125*
X017086Y009910D03*
X016949Y010025D03*
X016949Y010030D03*
X016949Y010035D03*
X016949Y010040D03*
X016949Y010045D03*
X016949Y010050D03*
X016949Y010055D03*
X016949Y010060D03*
X016949Y010065D03*
X016949Y010070D03*
X016949Y010075D03*
X016949Y010080D03*
X016949Y010085D03*
X016949Y010090D03*
X016949Y010095D03*
X016949Y010100D03*
X016949Y010105D03*
X016949Y010110D03*
X016949Y010115D03*
X016949Y010120D03*
X016949Y010125D03*
X016949Y010130D03*
X016949Y010135D03*
X016949Y010140D03*
X016949Y010145D03*
X016949Y010150D03*
X016949Y010155D03*
X016949Y010160D03*
X016949Y010165D03*
X016949Y010170D03*
X016949Y010175D03*
X016809Y010170D03*
X016809Y010165D03*
X016809Y010160D03*
X016809Y010155D03*
X016809Y010150D03*
X016809Y010145D03*
X016809Y010140D03*
X016809Y010135D03*
X016809Y010130D03*
X016809Y010125D03*
X016809Y010120D03*
X016809Y010115D03*
X016809Y010110D03*
X016809Y010105D03*
X016809Y010100D03*
X016809Y010095D03*
X016809Y010090D03*
X016809Y010085D03*
X016809Y010080D03*
X016809Y010075D03*
X016809Y010070D03*
X016809Y010065D03*
X016809Y010060D03*
X016809Y010055D03*
X016809Y010050D03*
X016809Y010045D03*
X016809Y010040D03*
X016809Y010035D03*
X016809Y010030D03*
X016809Y010025D03*
X016809Y010020D03*
X016809Y010015D03*
X016809Y010010D03*
X016809Y010005D03*
X016809Y010000D03*
X016809Y009995D03*
X016809Y009990D03*
X016809Y009985D03*
X016809Y009980D03*
X016809Y009975D03*
X016809Y009970D03*
X016809Y009965D03*
X016809Y009960D03*
X016809Y009955D03*
X016809Y009950D03*
X016809Y009945D03*
X016809Y009940D03*
X016809Y009935D03*
X016809Y009930D03*
X016809Y009925D03*
X016809Y009920D03*
X016809Y009915D03*
X016809Y009910D03*
X016811Y009905D03*
X016489Y009915D03*
X016486Y009925D03*
X016489Y010095D03*
X016341Y010085D03*
X016339Y010090D03*
X016129Y009840D03*
X016129Y009835D03*
X015771Y009910D03*
X015771Y009915D03*
X015771Y010075D03*
X015771Y010080D03*
X015774Y010090D03*
X015776Y010095D03*
X015626Y010090D03*
X015626Y010085D03*
X015626Y010080D03*
X015626Y010075D03*
X015416Y010075D03*
X015416Y010070D03*
X015416Y010065D03*
X015416Y010060D03*
X015416Y010055D03*
X015416Y010050D03*
X015416Y010045D03*
X015416Y010040D03*
X015416Y010035D03*
X015416Y010030D03*
X015416Y010025D03*
X015416Y010020D03*
X015416Y010015D03*
X015416Y010010D03*
X015416Y010005D03*
X015416Y010000D03*
X015416Y009995D03*
X015416Y009990D03*
X015416Y009985D03*
X015416Y009980D03*
X015416Y009975D03*
X015416Y009970D03*
X015416Y009965D03*
X015416Y009960D03*
X015416Y009955D03*
X015416Y009950D03*
X015416Y009945D03*
X015416Y009940D03*
X015416Y009935D03*
X015416Y009930D03*
X015416Y009925D03*
X015416Y009920D03*
X015416Y009915D03*
X015416Y009910D03*
X015416Y009905D03*
X015416Y009900D03*
X015416Y009895D03*
X015416Y009890D03*
X015416Y009885D03*
X015416Y009880D03*
X015416Y009875D03*
X015416Y009870D03*
X015416Y009865D03*
X015416Y009860D03*
X015416Y009855D03*
X015416Y009850D03*
X015416Y009845D03*
X015416Y010200D03*
X015416Y010205D03*
X015416Y010210D03*
X015416Y010215D03*
X015416Y010220D03*
X015416Y010225D03*
X015416Y010230D03*
X015416Y010235D03*
X015416Y010240D03*
X015416Y010245D03*
X015416Y010250D03*
X015416Y010255D03*
X015416Y010260D03*
X015416Y010265D03*
X015416Y010270D03*
X015416Y010275D03*
X015416Y010280D03*
X015416Y010285D03*
X015416Y010290D03*
X015416Y010295D03*
X015416Y010300D03*
X015416Y010310D03*
X015416Y010315D03*
X015011Y009830D03*
X014799Y009830D03*
X014654Y009975D03*
X014541Y010230D03*
X016699Y010320D03*
X017199Y010075D03*
X017409Y010075D03*
X017409Y010090D03*
X017409Y010095D03*
X017409Y009995D03*
X017556Y010085D03*
X017559Y010095D03*
X017766Y010075D03*
X018124Y010085D03*
X018126Y009940D03*
X018126Y009935D03*
X018126Y009930D03*
X018124Y009925D03*
X014991Y013000D03*
D126*
X014975Y010605D03*
X015625Y009830D03*
D127*
X015854Y009830D03*
X015846Y009990D03*
X014466Y009980D03*
X017274Y009990D03*
X017369Y010035D03*
D128*
X017408Y010070D03*
X017408Y010100D03*
X017408Y010000D03*
X017203Y010095D03*
X017203Y010100D03*
X016948Y010020D03*
X016948Y010015D03*
X016948Y010010D03*
X016948Y010005D03*
X016948Y010000D03*
X016948Y009995D03*
X016948Y009985D03*
X016948Y009975D03*
X016948Y009965D03*
X016948Y009960D03*
X016948Y009945D03*
X016948Y009935D03*
X016948Y009925D03*
X016948Y009920D03*
X016948Y009915D03*
X016813Y009900D03*
X016698Y009935D03*
X016698Y009940D03*
X016698Y009945D03*
X016698Y009950D03*
X016698Y009970D03*
X016698Y009975D03*
X016698Y009990D03*
X016698Y009995D03*
X016698Y010000D03*
X016698Y010005D03*
X016698Y010010D03*
X016698Y010025D03*
X016698Y010030D03*
X016698Y010035D03*
X016698Y010040D03*
X016698Y010045D03*
X016698Y010055D03*
X016698Y010060D03*
X016698Y010070D03*
X016698Y010075D03*
X016698Y010220D03*
X016698Y010225D03*
X016698Y010230D03*
X016698Y010240D03*
X016698Y010245D03*
X016698Y010255D03*
X016698Y010260D03*
X016698Y010265D03*
X016698Y010270D03*
X016698Y010275D03*
X016698Y010280D03*
X016698Y010285D03*
X016698Y010290D03*
X016698Y010295D03*
X016698Y010315D03*
X016488Y010090D03*
X016338Y010095D03*
X016488Y009920D03*
X015983Y009830D03*
X015773Y009905D03*
X015773Y009920D03*
X015778Y010100D03*
X015623Y010100D03*
X015418Y010095D03*
X015418Y010090D03*
X015418Y010085D03*
X015418Y010080D03*
X015418Y010195D03*
X017768Y010080D03*
X018123Y010090D03*
X018123Y009920D03*
D129*
X018018Y009830D03*
X016593Y009830D03*
X016868Y010675D03*
X015458Y010785D03*
X014603Y010060D03*
X013788Y010210D03*
X016808Y012970D03*
D130*
X016948Y009830D03*
X014533Y010040D03*
D131*
X017283Y009830D03*
D132*
X017298Y010003D03*
X014473Y009988D03*
X013788Y009833D03*
X016808Y012973D03*
D133*
X016405Y010828D03*
X016235Y010153D03*
X014540Y009863D03*
X014130Y009833D03*
X018020Y010153D03*
D134*
X017270Y009848D03*
X015940Y010033D03*
X015840Y009848D03*
X014540Y009833D03*
X014165Y010213D03*
X014995Y012963D03*
D135*
X016813Y013008D03*
X016698Y010318D03*
X016698Y010313D03*
X016698Y010293D03*
X016698Y010288D03*
X016698Y010273D03*
X016698Y010263D03*
X016698Y010253D03*
X016698Y010238D03*
X016698Y010233D03*
X016698Y010223D03*
X016698Y010218D03*
X016698Y010073D03*
X016698Y010068D03*
X016698Y010063D03*
X016698Y010058D03*
X016698Y010053D03*
X016698Y010048D03*
X016698Y010043D03*
X016698Y010038D03*
X016698Y010023D03*
X016698Y010018D03*
X016698Y010013D03*
X016698Y010008D03*
X016698Y009998D03*
X016698Y009993D03*
X016698Y009988D03*
X016698Y009983D03*
X016698Y009978D03*
X016698Y009973D03*
X016698Y009963D03*
X016698Y009958D03*
X016698Y009953D03*
X016698Y009943D03*
X016698Y009938D03*
X016813Y009903D03*
X016948Y009918D03*
X016948Y009923D03*
X016948Y009928D03*
X016948Y009938D03*
X016948Y009943D03*
X016948Y009948D03*
X016948Y009953D03*
X016948Y009968D03*
X016948Y009973D03*
X016948Y009978D03*
X016948Y009998D03*
X016948Y010003D03*
X016948Y010008D03*
X016948Y010013D03*
X016948Y010018D03*
X017203Y010098D03*
X017208Y010108D03*
X017408Y010098D03*
X017563Y010103D03*
X017768Y010078D03*
X018123Y010088D03*
X016493Y010103D03*
X016488Y010093D03*
X016338Y010093D03*
X016493Y009908D03*
X015983Y009833D03*
X015773Y009908D03*
X015773Y009923D03*
X015418Y010083D03*
X015418Y010088D03*
X015418Y010093D03*
X015013Y009833D03*
D136*
X014655Y009978D03*
X015415Y009843D03*
X015415Y009838D03*
X015415Y009833D03*
X015770Y010068D03*
X016340Y010078D03*
X016810Y010178D03*
X017410Y010088D03*
X017410Y010083D03*
X017410Y010078D03*
X017410Y009988D03*
X017410Y009983D03*
X017410Y009978D03*
X017410Y009973D03*
X017410Y009968D03*
X017410Y009963D03*
X017410Y009958D03*
X017410Y009953D03*
X017410Y009948D03*
X017410Y009943D03*
X017410Y009938D03*
X017410Y009933D03*
X017410Y009928D03*
X017410Y009923D03*
X017410Y009918D03*
X017410Y009913D03*
X017410Y009908D03*
X017410Y009903D03*
X017410Y009898D03*
X017410Y009893D03*
X017410Y009888D03*
X017410Y009883D03*
X017410Y009878D03*
X017410Y009873D03*
X017410Y009868D03*
X017410Y009863D03*
X017410Y009858D03*
X017410Y009853D03*
X017410Y009848D03*
X017410Y009843D03*
X017410Y009838D03*
X017555Y009838D03*
X017555Y009843D03*
X017555Y009848D03*
X017555Y009853D03*
X017555Y009858D03*
X017555Y009863D03*
X017555Y009868D03*
X017555Y009873D03*
X017555Y009878D03*
X017555Y009883D03*
X017555Y009888D03*
X017555Y009893D03*
X017555Y009898D03*
X017555Y009903D03*
X017555Y009908D03*
X017555Y009913D03*
X017555Y009918D03*
X017555Y009923D03*
X017555Y009928D03*
X017555Y009933D03*
X017555Y009938D03*
X017555Y009943D03*
X017555Y009948D03*
X017555Y009953D03*
X017555Y009958D03*
X017555Y009963D03*
X017555Y009968D03*
X017555Y009973D03*
X017555Y009978D03*
X017555Y009983D03*
X017555Y009988D03*
X017555Y009993D03*
X017555Y009998D03*
X017555Y010003D03*
X017555Y010008D03*
X017555Y010013D03*
X017555Y010018D03*
X017555Y010023D03*
X017555Y010028D03*
X017555Y010033D03*
X017555Y010038D03*
X017555Y010043D03*
X017555Y010048D03*
X017555Y010053D03*
X017555Y010058D03*
X017555Y010063D03*
X017555Y010068D03*
X017555Y010073D03*
X017555Y010078D03*
X017555Y009833D03*
D137*
X017663Y010188D03*
X018018Y010188D03*
X018048Y010023D03*
X015853Y009833D03*
X014468Y009983D03*
X013788Y010218D03*
D138*
X015418Y010318D03*
X015628Y010068D03*
X015628Y010063D03*
X015628Y010058D03*
X015628Y010053D03*
X015628Y010048D03*
X015628Y010043D03*
X015628Y010038D03*
X015628Y010033D03*
X015628Y010028D03*
X015628Y010023D03*
X015628Y010018D03*
X015628Y010013D03*
X015628Y010008D03*
X015628Y010003D03*
X015628Y009998D03*
X015628Y009993D03*
X015628Y009988D03*
X015628Y009983D03*
X015628Y009978D03*
X015628Y009973D03*
X015628Y009968D03*
X015628Y009963D03*
X015628Y009958D03*
X015628Y009953D03*
X015628Y009948D03*
X015628Y009943D03*
X015628Y009938D03*
X015628Y009933D03*
X015628Y009928D03*
X015628Y009923D03*
X015628Y009918D03*
X015628Y009913D03*
X015628Y009908D03*
X015628Y009903D03*
X015628Y009898D03*
X015628Y009893D03*
X015628Y009888D03*
X015628Y009883D03*
X015628Y009878D03*
X015628Y009873D03*
X015628Y009868D03*
X015628Y009863D03*
X015628Y009858D03*
X015628Y009853D03*
X015628Y009848D03*
X015773Y010083D03*
X016128Y009833D03*
X017088Y009913D03*
X017088Y009918D03*
X017088Y009923D03*
X017088Y009928D03*
X017088Y009933D03*
X017088Y009938D03*
X017088Y009943D03*
X017088Y009948D03*
X017088Y009953D03*
X017088Y009958D03*
X017088Y009963D03*
X017088Y009968D03*
X017088Y009973D03*
X017088Y009978D03*
X017088Y009983D03*
X017088Y009988D03*
X017088Y009993D03*
X017088Y009998D03*
X017088Y010003D03*
X017088Y010008D03*
X017088Y010013D03*
X017088Y010018D03*
X017088Y010023D03*
X017088Y010028D03*
X017088Y010033D03*
X017088Y010038D03*
X017088Y010043D03*
X017088Y010048D03*
X017088Y010053D03*
X017088Y010058D03*
X017088Y010063D03*
X017088Y010068D03*
X017088Y010073D03*
X017088Y010078D03*
X017088Y010083D03*
X017088Y010088D03*
X017088Y010093D03*
X017088Y010098D03*
X017088Y010103D03*
X017088Y010108D03*
X017088Y010113D03*
X017088Y010118D03*
X017088Y010123D03*
X017088Y010128D03*
X017088Y010133D03*
X017088Y010138D03*
X017088Y010143D03*
X017088Y010148D03*
X017088Y010153D03*
X017088Y010158D03*
X017088Y010163D03*
X017088Y010168D03*
X017088Y010173D03*
X017088Y010178D03*
X018128Y009948D03*
D139*
X018018Y009833D03*
X016593Y009833D03*
X014918Y010208D03*
X013788Y010208D03*
D140*
X014158Y009888D03*
X016948Y009833D03*
D141*
X017258Y009865D03*
X017663Y010185D03*
X016383Y010795D03*
X015838Y009855D03*
X013788Y009835D03*
D142*
X014131Y009835D03*
X014539Y009865D03*
X014509Y010020D03*
X015439Y010810D03*
X016616Y010175D03*
X016804Y012945D03*
D143*
X014995Y012960D03*
X014475Y009990D03*
X014540Y009835D03*
X017260Y009860D03*
X017265Y009855D03*
D144*
X017083Y009890D03*
X017083Y009895D03*
X016948Y009900D03*
X016948Y009905D03*
X016688Y009900D03*
X016498Y010115D03*
X016333Y010110D03*
X016133Y010100D03*
X015983Y010090D03*
X015978Y010110D03*
X015983Y009990D03*
X015778Y009935D03*
X015778Y009895D03*
X015783Y010115D03*
X015618Y010110D03*
X015493Y010745D03*
X014918Y010230D03*
X014803Y009835D03*
X017403Y010110D03*
X017763Y010110D03*
X017763Y010105D03*
X017918Y010105D03*
X017923Y010115D03*
X018118Y010105D03*
X018123Y010075D03*
X017918Y009910D03*
D145*
X017915Y009915D03*
X017915Y009920D03*
X017915Y009940D03*
X017915Y010020D03*
X017915Y010095D03*
X017920Y010110D03*
X017765Y010100D03*
X017765Y010095D03*
X017565Y010110D03*
X017400Y010115D03*
X017405Y010065D03*
X017200Y009930D03*
X017200Y009925D03*
X017200Y009920D03*
X017200Y009915D03*
X017200Y009910D03*
X017200Y009905D03*
X017200Y009900D03*
X016815Y009890D03*
X016815Y009885D03*
X016695Y010195D03*
X016495Y010110D03*
X016135Y010110D03*
X015980Y010105D03*
X015980Y010100D03*
X015780Y010110D03*
X015620Y010105D03*
X015420Y010105D03*
X015775Y009930D03*
X015015Y009835D03*
X014650Y009970D03*
X018115Y009900D03*
D146*
X018056Y010025D03*
X018041Y010020D03*
X018074Y010035D03*
X017954Y009980D03*
X015944Y010035D03*
X015851Y009835D03*
X016809Y012975D03*
D147*
X016696Y010310D03*
X016696Y010305D03*
X016696Y010300D03*
X016696Y010250D03*
X016696Y010235D03*
X016696Y010215D03*
X016696Y010210D03*
X016696Y010205D03*
X016696Y010200D03*
X016696Y010100D03*
X016696Y010095D03*
X016696Y010090D03*
X016696Y010085D03*
X016696Y010080D03*
X016696Y010065D03*
X016696Y010050D03*
X016696Y010020D03*
X016696Y010015D03*
X016696Y009985D03*
X016696Y009980D03*
X016696Y009965D03*
X016696Y009960D03*
X016696Y009955D03*
X016696Y009930D03*
X016696Y009925D03*
X016696Y009920D03*
X016694Y009910D03*
X016691Y009905D03*
X016814Y009895D03*
X016946Y009910D03*
X016946Y009930D03*
X016946Y009940D03*
X016946Y009950D03*
X016946Y009955D03*
X016946Y009970D03*
X016946Y009980D03*
X016946Y009990D03*
X017084Y009900D03*
X017201Y010090D03*
X017209Y010110D03*
X017211Y010115D03*
X017404Y010105D03*
X017564Y010105D03*
X017766Y010090D03*
X017766Y010085D03*
X017914Y010085D03*
X017914Y010090D03*
X017914Y010080D03*
X017914Y010075D03*
X017914Y010070D03*
X017914Y010065D03*
X017914Y010060D03*
X017914Y010055D03*
X017914Y010050D03*
X017914Y010045D03*
X017914Y010040D03*
X017914Y010035D03*
X017914Y010030D03*
X017914Y010025D03*
X017916Y010100D03*
X017914Y009935D03*
X017914Y009930D03*
X017914Y009925D03*
X018116Y009905D03*
X018119Y009910D03*
X018119Y010100D03*
X016494Y010105D03*
X016484Y010070D03*
X016484Y010065D03*
X016484Y010060D03*
X016484Y010055D03*
X016484Y010050D03*
X016484Y010045D03*
X016484Y010040D03*
X016484Y010035D03*
X016484Y010030D03*
X016484Y010025D03*
X016484Y010020D03*
X016484Y010015D03*
X016484Y010010D03*
X016484Y010005D03*
X016484Y010000D03*
X016484Y009995D03*
X016484Y009990D03*
X016484Y009985D03*
X016484Y009980D03*
X016484Y009975D03*
X016484Y009970D03*
X016484Y009965D03*
X016484Y009960D03*
X016484Y009955D03*
X016484Y009950D03*
X016484Y009945D03*
X016494Y009905D03*
X016336Y010100D03*
X016334Y010105D03*
X016134Y010105D03*
X016131Y010095D03*
X016131Y010090D03*
X016131Y010085D03*
X015984Y010085D03*
X015984Y010080D03*
X015984Y010075D03*
X015981Y010095D03*
X015984Y009985D03*
X015984Y009980D03*
X015984Y009975D03*
X015984Y009970D03*
X015984Y009965D03*
X015984Y009960D03*
X015984Y009955D03*
X015984Y009950D03*
X015984Y009945D03*
X015984Y009940D03*
X015984Y009935D03*
X015984Y009930D03*
X015984Y009925D03*
X015984Y009920D03*
X015984Y009915D03*
X015984Y009910D03*
X015984Y009905D03*
X015984Y009900D03*
X015984Y009895D03*
X015984Y009890D03*
X015984Y009885D03*
X015984Y009880D03*
X015984Y009875D03*
X015984Y009870D03*
X015984Y009865D03*
X015984Y009860D03*
X015984Y009855D03*
X015984Y009850D03*
X015984Y009845D03*
X015984Y009840D03*
X015984Y009835D03*
X015774Y009900D03*
X015774Y009925D03*
X015779Y010105D03*
X015419Y010100D03*
X014164Y010230D03*
X013789Y010230D03*
D148*
X014598Y010055D03*
X016593Y009835D03*
D149*
X016948Y009835D03*
X016858Y010725D03*
X014538Y010045D03*
D150*
X016380Y010790D03*
X017280Y009835D03*
D151*
X018016Y009835D03*
X014981Y010650D03*
D152*
X014981Y010648D03*
X014541Y010208D03*
X014601Y010058D03*
X014539Y009838D03*
X014164Y010208D03*
X013789Y009838D03*
X017356Y010023D03*
D153*
X015438Y010813D03*
X014918Y010183D03*
X014133Y009838D03*
X013788Y010183D03*
D154*
X015854Y009993D03*
X015849Y009838D03*
X017276Y009838D03*
X017281Y009993D03*
X018036Y010018D03*
D155*
X018018Y009838D03*
X016593Y009838D03*
X014983Y010653D03*
D156*
X016858Y010728D03*
X016948Y009838D03*
D157*
X017306Y010175D03*
X018019Y010175D03*
X015879Y010175D03*
X014916Y010205D03*
X014541Y010205D03*
X014484Y009995D03*
X013789Y009840D03*
X013789Y010205D03*
X014996Y012955D03*
X016806Y012965D03*
D158*
X015435Y010815D03*
X014540Y009870D03*
X014135Y009840D03*
X014165Y010180D03*
D159*
X014165Y010205D03*
X014540Y009840D03*
X016865Y010680D03*
D160*
X016355Y010760D03*
X016315Y010135D03*
X016320Y010130D03*
X016150Y010130D03*
X015785Y009950D03*
X015785Y009875D03*
X015425Y010120D03*
X015020Y009840D03*
X014645Y009945D03*
X014435Y010055D03*
X014435Y010085D03*
X014435Y010090D03*
X015490Y010750D03*
X016690Y010115D03*
X017220Y010130D03*
X017210Y009945D03*
X017920Y009950D03*
D161*
X016591Y009840D03*
X015879Y010170D03*
X014981Y010655D03*
X016806Y012960D03*
D162*
X016858Y010730D03*
X016948Y009840D03*
D163*
X017973Y009995D03*
X018018Y009840D03*
X014488Y010000D03*
D164*
X014489Y010003D03*
X014916Y010203D03*
X013789Y010203D03*
X013789Y009843D03*
X016234Y010173D03*
X016391Y010808D03*
X017346Y010018D03*
X017661Y010173D03*
X017974Y009998D03*
D165*
X016861Y010708D03*
X016409Y010838D03*
X016609Y010163D03*
X014916Y010173D03*
X014139Y009843D03*
X014999Y012928D03*
D166*
X014165Y010203D03*
X014540Y009843D03*
D167*
X014643Y009933D03*
X014643Y009938D03*
X014438Y009943D03*
X014438Y009948D03*
X014438Y010048D03*
X014438Y010098D03*
X014438Y010103D03*
X014813Y010108D03*
X015023Y010108D03*
X015023Y009843D03*
X015788Y009953D03*
X015958Y010138D03*
X016513Y010138D03*
X016688Y010123D03*
X016828Y009868D03*
X016873Y010643D03*
X017938Y009878D03*
X018103Y010133D03*
X018098Y010138D03*
X013893Y010103D03*
X013893Y010098D03*
X013893Y010093D03*
X013893Y010088D03*
X013893Y010083D03*
X013893Y010078D03*
X013893Y010073D03*
X013893Y010068D03*
X013893Y010063D03*
X013893Y010058D03*
X013893Y010053D03*
X013893Y010048D03*
X013893Y010043D03*
X013893Y010038D03*
X013893Y010033D03*
X013893Y010028D03*
X013893Y010023D03*
X013893Y010018D03*
X013893Y010013D03*
X013893Y010008D03*
X013893Y010003D03*
X013893Y009998D03*
X013893Y009993D03*
X013893Y009988D03*
X013893Y009983D03*
X013893Y009978D03*
X013893Y009973D03*
X013893Y009968D03*
X013893Y009963D03*
X013893Y009958D03*
X013893Y009953D03*
X013893Y009948D03*
X013893Y009943D03*
D168*
X014609Y010068D03*
X015461Y010778D03*
X015861Y009998D03*
X015844Y009843D03*
X016381Y010793D03*
X017289Y009998D03*
X017274Y009843D03*
X017956Y009983D03*
X018061Y010028D03*
X018069Y010033D03*
D169*
X018120Y010098D03*
X018120Y009913D03*
X017560Y010098D03*
X017205Y010103D03*
X017200Y010083D03*
X017200Y010078D03*
X017085Y009908D03*
X016490Y009913D03*
X016485Y009928D03*
X016485Y009933D03*
X016485Y009938D03*
X016485Y010073D03*
X016485Y010078D03*
X016485Y010083D03*
X016130Y010078D03*
X016130Y010073D03*
X016130Y010068D03*
X016130Y010063D03*
X016130Y010058D03*
X016130Y010053D03*
X016130Y010048D03*
X016130Y010043D03*
X016130Y010038D03*
X016130Y010033D03*
X016130Y010028D03*
X016130Y010023D03*
X016130Y010018D03*
X016130Y010013D03*
X016130Y010008D03*
X016130Y010003D03*
X016130Y009998D03*
X016130Y009993D03*
X016130Y009988D03*
X016130Y009983D03*
X016130Y009978D03*
X016130Y009973D03*
X016130Y009968D03*
X016130Y009963D03*
X016130Y009958D03*
X016130Y009953D03*
X016130Y009948D03*
X016130Y009943D03*
X016130Y009938D03*
X016130Y009933D03*
X016130Y009928D03*
X016130Y009923D03*
X016130Y009918D03*
X016130Y009913D03*
X016130Y009908D03*
X016130Y009903D03*
X016130Y009898D03*
X016130Y009893D03*
X016130Y009888D03*
X016130Y009883D03*
X016130Y009878D03*
X016130Y009873D03*
X016130Y009868D03*
X016130Y009863D03*
X016130Y009858D03*
X016130Y009853D03*
X016130Y009848D03*
X016130Y009843D03*
X015625Y010093D03*
X014975Y010608D03*
D170*
X016591Y009843D03*
D171*
X016948Y009843D03*
X016858Y010733D03*
D172*
X015923Y010018D03*
X018018Y009843D03*
D173*
X014918Y010200D03*
X013788Y009845D03*
D174*
X014140Y009845D03*
X014165Y010170D03*
X014540Y009875D03*
D175*
X014540Y009845D03*
X017975Y010000D03*
X018020Y010170D03*
D176*
X017958Y009985D03*
X017273Y009845D03*
X015843Y009845D03*
D177*
X016130Y009845D03*
X016130Y009850D03*
X016130Y009855D03*
X016130Y009860D03*
X016130Y009865D03*
X016130Y009870D03*
X016130Y009875D03*
X016130Y009880D03*
X016130Y009885D03*
X016130Y009890D03*
X016130Y009895D03*
X016130Y009900D03*
X016130Y009905D03*
X016130Y009910D03*
X016130Y009915D03*
X016130Y009920D03*
X016130Y009925D03*
X016130Y009930D03*
X016130Y009935D03*
X016130Y009940D03*
X016130Y009945D03*
X016130Y009950D03*
X016130Y009955D03*
X016130Y009960D03*
X016130Y009965D03*
X016130Y009970D03*
X016130Y009975D03*
X016130Y009980D03*
X016130Y009985D03*
X016130Y009990D03*
X016130Y009995D03*
X016130Y010000D03*
X016130Y010005D03*
X016130Y010010D03*
X016130Y010015D03*
X016130Y010020D03*
X016130Y010025D03*
X016130Y010030D03*
X016130Y010035D03*
X016130Y010040D03*
X016130Y010045D03*
X016130Y010050D03*
X016130Y010055D03*
X016130Y010060D03*
X016130Y010065D03*
X016130Y010070D03*
X016130Y010075D03*
X016130Y010080D03*
X016485Y010080D03*
X016485Y010085D03*
X016485Y010075D03*
X016490Y010100D03*
X016485Y009940D03*
X016485Y009935D03*
X016485Y009930D03*
X016490Y009910D03*
X016695Y009915D03*
X017085Y009905D03*
X017200Y010080D03*
X017200Y010085D03*
X017205Y010105D03*
X017560Y010100D03*
X018120Y010095D03*
X018125Y010080D03*
X018120Y009915D03*
X016350Y010755D03*
X015625Y010095D03*
X015415Y010305D03*
D178*
X016591Y009845D03*
X017341Y010010D03*
X018016Y009845D03*
D179*
X016949Y009845D03*
D180*
X014918Y010198D03*
X013788Y010198D03*
X013788Y009848D03*
D181*
X014141Y009848D03*
X014164Y010168D03*
X014986Y010678D03*
X015509Y010153D03*
X016606Y010158D03*
D182*
X015880Y010168D03*
X014585Y010048D03*
X014540Y009848D03*
X016805Y012958D03*
D183*
X016396Y010818D03*
X016591Y009848D03*
X017339Y010008D03*
X018016Y009848D03*
X014496Y010008D03*
D184*
X016948Y009848D03*
D185*
X018018Y009850D03*
X014918Y010195D03*
X013788Y010195D03*
X013788Y009850D03*
D186*
X014143Y009850D03*
D187*
X014540Y009850D03*
X015880Y010165D03*
X016395Y010815D03*
X016865Y010690D03*
X017980Y010005D03*
D188*
X015865Y010000D03*
X015840Y009850D03*
D189*
X016591Y009850D03*
X016399Y010820D03*
D190*
X016949Y009850D03*
X016799Y012915D03*
D191*
X015461Y010780D03*
X015879Y010185D03*
X015939Y010030D03*
X016234Y010185D03*
X017269Y009850D03*
X018019Y010185D03*
X014606Y010065D03*
D192*
X013788Y010193D03*
X013788Y009853D03*
D193*
X014143Y009853D03*
X014918Y010168D03*
X016803Y012938D03*
D194*
X015880Y010163D03*
X014540Y009853D03*
D195*
X016591Y009853D03*
X017661Y010158D03*
X016804Y012953D03*
D196*
X015003Y012903D03*
X016948Y009853D03*
D197*
X017306Y010163D03*
X016864Y010693D03*
X016234Y010163D03*
X015914Y010008D03*
X015489Y010188D03*
X014916Y010193D03*
X014984Y010663D03*
X015446Y010803D03*
X014164Y010193D03*
X017984Y010008D03*
X018019Y010163D03*
X018016Y009853D03*
D198*
X016623Y010185D03*
X015443Y010805D03*
X013788Y009855D03*
D199*
X013789Y010165D03*
X014164Y010165D03*
X014144Y009855D03*
X014541Y010165D03*
X014919Y010165D03*
X014986Y010680D03*
D200*
X014500Y010010D03*
X014540Y009855D03*
X016235Y010160D03*
X017335Y010005D03*
X018020Y010160D03*
D201*
X017989Y010010D03*
X017661Y010155D03*
X017306Y010155D03*
X016591Y009855D03*
X016804Y012950D03*
D202*
X016948Y009855D03*
D203*
X017308Y010160D03*
X017663Y010160D03*
X018018Y009855D03*
X014543Y010190D03*
D204*
X014540Y009883D03*
X014145Y009858D03*
X016860Y010713D03*
D205*
X016400Y010823D03*
X016235Y010158D03*
X014540Y009858D03*
X018020Y010158D03*
D206*
X017306Y010183D03*
X016384Y010798D03*
X015879Y010183D03*
X015936Y010028D03*
X015836Y009858D03*
D207*
X015906Y010003D03*
X015879Y010153D03*
X015496Y010178D03*
X014506Y010018D03*
X016591Y009858D03*
X017661Y010153D03*
X017991Y010013D03*
X016804Y012948D03*
X014999Y012938D03*
D208*
X016948Y009858D03*
D209*
X016413Y010845D03*
X014918Y010160D03*
X014148Y009860D03*
D210*
X014505Y010015D03*
X014540Y009860D03*
X015495Y010180D03*
X016235Y010155D03*
X018020Y010155D03*
D211*
X017359Y010025D03*
X015834Y009860D03*
X014916Y010210D03*
X014541Y010210D03*
X014164Y010210D03*
D212*
X016948Y009860D03*
D213*
X016591Y009863D03*
X016861Y010703D03*
X018019Y009863D03*
X015499Y010173D03*
X014541Y010183D03*
X013789Y009863D03*
D214*
X013789Y009888D03*
X014149Y009863D03*
X016859Y010718D03*
X016801Y012933D03*
D215*
X015878Y013323D03*
X017663Y010183D03*
X018018Y010183D03*
X015833Y009863D03*
D216*
X016949Y009863D03*
X015004Y012898D03*
D217*
X015460Y010783D03*
X014980Y010643D03*
X014605Y010063D03*
X017260Y009863D03*
X017960Y009988D03*
D218*
X014543Y010180D03*
X013788Y009865D03*
D219*
X014150Y009865D03*
D220*
X014069Y009910D03*
X013876Y009905D03*
X013699Y010140D03*
X014451Y010140D03*
X014451Y009905D03*
X015799Y009960D03*
X015801Y009865D03*
X015879Y010200D03*
X016169Y010145D03*
X016301Y010145D03*
X017369Y010145D03*
X017596Y010145D03*
X017661Y010200D03*
X017729Y010145D03*
X017951Y010145D03*
X018084Y010145D03*
X014994Y012985D03*
D221*
X014998Y010150D03*
X014618Y009895D03*
X014458Y009900D03*
X014458Y010145D03*
X014463Y010150D03*
X014073Y009905D03*
X016533Y009865D03*
X016653Y009865D03*
X016948Y009870D03*
X017238Y009970D03*
X017363Y010150D03*
X017603Y010150D03*
X018078Y010150D03*
X018103Y010055D03*
D222*
X016948Y009865D03*
D223*
X017720Y010150D03*
X017960Y009865D03*
X016870Y010655D03*
X016235Y010195D03*
X014620Y010150D03*
X013710Y009895D03*
D224*
X013788Y009868D03*
X014513Y010023D03*
X014543Y010178D03*
X015503Y010168D03*
D225*
X014165Y010158D03*
X014150Y009868D03*
D226*
X014165Y010183D03*
X014540Y009868D03*
X016615Y010173D03*
D227*
X016679Y010138D03*
X016659Y009868D03*
X016526Y009868D03*
X015816Y010148D03*
X015584Y010148D03*
X014634Y010088D03*
X014631Y010138D03*
X014626Y009903D03*
X014251Y010143D03*
X014079Y010143D03*
X013874Y010143D03*
X013879Y009908D03*
X013699Y009908D03*
X018106Y010058D03*
D228*
X018088Y010043D03*
X016948Y009868D03*
X014978Y010633D03*
X014083Y009893D03*
D229*
X014063Y009928D03*
X013888Y009923D03*
X013888Y010123D03*
X014063Y010118D03*
X014263Y010123D03*
X014443Y010123D03*
X014443Y009923D03*
X014263Y009923D03*
X014638Y009918D03*
X014818Y010118D03*
X017068Y009868D03*
X017943Y009873D03*
D230*
X018110Y010063D03*
X017375Y010143D03*
X017225Y009868D03*
X016305Y010143D03*
X015795Y009958D03*
X014635Y009913D03*
X014255Y009908D03*
X014065Y009923D03*
X013885Y010128D03*
X014255Y010138D03*
D231*
X014448Y009963D03*
X014628Y010143D03*
X014833Y010143D03*
X015003Y010143D03*
X015523Y010198D03*
X014978Y010623D03*
X016298Y010148D03*
X017953Y009868D03*
X018018Y010198D03*
X013703Y009903D03*
D232*
X013788Y009870D03*
X013788Y010175D03*
X014543Y010175D03*
X014918Y010175D03*
X016803Y012940D03*
D233*
X016801Y012930D03*
X015001Y012920D03*
X014151Y009870D03*
D234*
X014070Y010130D03*
X014445Y010130D03*
X014445Y009915D03*
X014825Y010135D03*
X015010Y010135D03*
X015015Y010125D03*
X015970Y010055D03*
X016520Y009870D03*
X016665Y009870D03*
X017240Y010145D03*
X016810Y012995D03*
X013695Y010135D03*
D235*
X013788Y010173D03*
X013788Y009873D03*
X014543Y010173D03*
X015508Y010158D03*
D236*
X014529Y010038D03*
X014151Y009873D03*
D237*
X014165Y010173D03*
X014540Y009873D03*
X015505Y010163D03*
D238*
X015020Y010118D03*
X014820Y010123D03*
X014640Y010118D03*
X014640Y010113D03*
X014640Y010098D03*
X014640Y009923D03*
X014440Y009928D03*
X014440Y010118D03*
X014260Y010128D03*
X013690Y010128D03*
X013690Y009923D03*
X014975Y010618D03*
X016515Y009873D03*
X016685Y010128D03*
X016810Y012998D03*
D239*
X014975Y010613D03*
X015425Y010118D03*
X015610Y010128D03*
X015795Y010133D03*
X015800Y010138D03*
X016505Y010128D03*
X017075Y009873D03*
X017215Y009953D03*
X017305Y010203D03*
X017575Y010128D03*
X017745Y010133D03*
X017935Y010133D03*
X017935Y009883D03*
X018095Y009873D03*
X014645Y009948D03*
X014435Y010053D03*
X014435Y010058D03*
X014435Y010083D03*
X014435Y010088D03*
X014165Y010228D03*
D240*
X013789Y010170D03*
X013789Y009875D03*
X014541Y010170D03*
X016606Y010155D03*
D241*
X014153Y009875D03*
D242*
X014258Y009910D03*
X014258Y010135D03*
X014073Y010135D03*
X014068Y010125D03*
X013788Y010225D03*
X014638Y010125D03*
X014638Y010090D03*
X015013Y010130D03*
X015523Y010200D03*
X016948Y009875D03*
D243*
X016411Y010843D03*
X014541Y010168D03*
X013789Y010168D03*
X013789Y009878D03*
D244*
X014154Y009878D03*
X015001Y012918D03*
X016801Y012928D03*
D245*
X016605Y010153D03*
X014540Y009878D03*
X014520Y010028D03*
D246*
X014434Y010063D03*
X014434Y010068D03*
X014434Y010073D03*
X014434Y010078D03*
X014646Y009963D03*
X014646Y009958D03*
X014646Y009953D03*
X015521Y010203D03*
X015791Y010128D03*
X015964Y010128D03*
X016149Y010128D03*
X016234Y010203D03*
X016326Y010123D03*
X016501Y009888D03*
X016691Y010113D03*
X017219Y010128D03*
X017209Y009883D03*
X017211Y009878D03*
X017571Y010123D03*
X017749Y010128D03*
X018111Y010123D03*
X018104Y009883D03*
X018099Y009878D03*
X015784Y009878D03*
X015781Y009943D03*
X015784Y009948D03*
X014991Y012993D03*
D247*
X015784Y010118D03*
X015779Y009938D03*
X015981Y009998D03*
X015971Y010118D03*
X016141Y010118D03*
X016331Y010113D03*
X016496Y010113D03*
X016499Y010118D03*
X016694Y010108D03*
X016686Y009898D03*
X016684Y009893D03*
X016816Y009878D03*
X016949Y009893D03*
X016949Y009898D03*
X017081Y009883D03*
X017201Y009933D03*
X017204Y009938D03*
X017216Y010123D03*
X017399Y010118D03*
X017401Y010113D03*
X017566Y010118D03*
X017756Y010118D03*
X017924Y010118D03*
X017929Y010123D03*
X017916Y010018D03*
X017916Y009943D03*
X017919Y009903D03*
X018121Y010073D03*
X018116Y010113D03*
X018114Y010118D03*
X016499Y009893D03*
X016496Y009898D03*
D248*
X014540Y009885D03*
X013790Y009880D03*
D249*
X014154Y009880D03*
D250*
X014540Y009880D03*
X016410Y010840D03*
X016860Y010710D03*
X015000Y012925D03*
D251*
X015001Y012923D03*
X014986Y010683D03*
X014919Y010163D03*
X014541Y010163D03*
X014524Y010033D03*
X014164Y010163D03*
X013789Y010163D03*
X013789Y009883D03*
D252*
X014155Y009883D03*
D253*
X013789Y009885D03*
X013789Y010160D03*
X014541Y010160D03*
X016801Y012935D03*
D254*
X015001Y012915D03*
X014156Y009885D03*
D255*
X014975Y010610D03*
X015785Y010120D03*
X015780Y009940D03*
X015780Y009885D03*
X015970Y010120D03*
X016500Y009890D03*
X017750Y010125D03*
X017930Y010125D03*
X017925Y009895D03*
X018105Y009885D03*
D256*
X014540Y009888D03*
D257*
X015618Y010113D03*
X015783Y010113D03*
X015778Y009933D03*
X015778Y009893D03*
X015983Y009993D03*
X015983Y010073D03*
X015978Y010108D03*
X016133Y010103D03*
X016133Y010098D03*
X016138Y010113D03*
X016333Y010108D03*
X016948Y009908D03*
X016948Y009903D03*
X017083Y009893D03*
X017083Y009888D03*
X017203Y009893D03*
X017213Y010118D03*
X017763Y010108D03*
X017918Y010108D03*
X018118Y010108D03*
X018118Y009908D03*
X018113Y009893D03*
X017918Y009908D03*
D258*
X017941Y009970D03*
X016371Y010780D03*
X015956Y010045D03*
X014989Y010155D03*
X014624Y010080D03*
X014611Y010155D03*
X014471Y010155D03*
X014236Y009890D03*
X013719Y009890D03*
X013716Y010155D03*
X014994Y012975D03*
D259*
X016809Y012980D03*
X016869Y010665D03*
X016661Y010150D03*
X017949Y009975D03*
X014086Y009890D03*
D260*
X014075Y009903D03*
X014465Y009893D03*
X014465Y010153D03*
D261*
X014244Y010150D03*
X014244Y009895D03*
X013866Y009895D03*
X013866Y010150D03*
X013709Y010150D03*
X014839Y010150D03*
X015479Y010760D03*
X015936Y010150D03*
X015961Y010050D03*
X015811Y009970D03*
X016591Y010195D03*
X017306Y010195D03*
X014994Y012980D03*
D262*
X014235Y010155D03*
X014080Y009895D03*
X018095Y010050D03*
D263*
X016236Y010193D03*
X015879Y010193D03*
X014456Y009973D03*
X014079Y009898D03*
D264*
X014070Y009908D03*
X014250Y009903D03*
X014455Y010143D03*
X014620Y009898D03*
X013700Y010143D03*
X015480Y010758D03*
X015965Y010053D03*
X016530Y010148D03*
X017230Y009963D03*
X017955Y010148D03*
X016365Y010773D03*
D265*
X016295Y010150D03*
X015820Y010150D03*
X015580Y010150D03*
X014625Y010145D03*
X014085Y010150D03*
X013870Y009900D03*
X013705Y009900D03*
X016810Y012990D03*
D266*
X014093Y010155D03*
X014078Y009900D03*
D267*
X014066Y009920D03*
X013884Y009915D03*
X013694Y009915D03*
X013884Y010130D03*
X013881Y010135D03*
X014254Y010140D03*
X014449Y010135D03*
X014634Y009910D03*
X014254Y009905D03*
X014976Y010620D03*
X015484Y010755D03*
X015434Y010135D03*
X016234Y010200D03*
X016526Y010145D03*
X016591Y010200D03*
X016681Y010135D03*
X017306Y010200D03*
X018016Y010200D03*
X018109Y010060D03*
X016361Y010770D03*
D268*
X015005Y010140D03*
X014830Y010140D03*
X014635Y010130D03*
X014630Y009905D03*
X014445Y009960D03*
X013880Y009910D03*
D269*
X013698Y009910D03*
X013878Y010140D03*
X014078Y010140D03*
X014068Y009915D03*
X014448Y009910D03*
X014633Y010135D03*
X015588Y010145D03*
X015813Y010145D03*
X016873Y010650D03*
X017228Y009960D03*
D270*
X017593Y010143D03*
X017948Y010143D03*
X017928Y009958D03*
X016683Y010133D03*
X016873Y010648D03*
X015013Y010133D03*
X015008Y010138D03*
X014443Y009958D03*
X014073Y010133D03*
X013693Y009918D03*
X014993Y012988D03*
D271*
X016818Y013020D03*
X018143Y009965D03*
D272*
X018091Y010048D03*
X017944Y009973D03*
X015826Y009978D03*
D273*
X016869Y010663D03*
X017254Y009978D03*
X016809Y012983D03*
X014994Y012973D03*
D274*
X017260Y009983D03*
D275*
X018085Y010040D03*
X015835Y009985D03*
X015470Y010770D03*
D276*
X015879Y010180D03*
X015934Y010025D03*
X016384Y010800D03*
X017306Y010180D03*
X017964Y009990D03*
D277*
X014480Y009993D03*
X014995Y012958D03*
D278*
X016866Y010683D03*
X017969Y009993D03*
D279*
X018066Y010030D03*
X017364Y010030D03*
X017291Y010000D03*
X017286Y009995D03*
X017306Y010185D03*
X014541Y010215D03*
X013789Y010215D03*
X014994Y012965D03*
D280*
X014996Y012953D03*
X016806Y012963D03*
X017306Y010173D03*
X018019Y010173D03*
X015879Y010173D03*
X014486Y009998D03*
D281*
X014543Y010198D03*
X014983Y010658D03*
X017308Y010168D03*
X017343Y010013D03*
X017978Y010003D03*
X014998Y012948D03*
D282*
X014996Y012950D03*
X016394Y010810D03*
X017344Y010015D03*
X017661Y010170D03*
X014589Y010050D03*
X014491Y010005D03*
X014541Y010200D03*
X013789Y010200D03*
D283*
X015880Y010155D03*
X015910Y010005D03*
D284*
X015916Y010010D03*
X015486Y010190D03*
X015446Y010800D03*
X014984Y010660D03*
X014164Y010195D03*
X017306Y010165D03*
X017661Y010165D03*
X018019Y010165D03*
X016804Y012955D03*
D285*
X016863Y010698D03*
X017308Y010158D03*
X014503Y010013D03*
D286*
X015449Y010798D03*
X015919Y010013D03*
X016394Y010813D03*
X017661Y010168D03*
X018019Y010168D03*
D287*
X016235Y010170D03*
X015920Y010015D03*
X015450Y010795D03*
X014165Y010200D03*
D288*
X015451Y010790D03*
X015926Y010020D03*
X016389Y010805D03*
D289*
X016235Y010175D03*
X017350Y010020D03*
D290*
X017306Y010178D03*
X016866Y010678D03*
X016386Y010803D03*
X015879Y010178D03*
X015931Y010023D03*
X016806Y012968D03*
D291*
X015506Y010160D03*
X014516Y010025D03*
D292*
X014523Y010030D03*
D293*
X017365Y010033D03*
D294*
X014986Y010685D03*
X014526Y010035D03*
X014164Y010160D03*
D295*
X014536Y010043D03*
X015001Y012913D03*
D296*
X016870Y010658D03*
X017305Y010193D03*
X017380Y010043D03*
X014625Y010083D03*
D297*
X015879Y010195D03*
X017381Y010045D03*
X017661Y010195D03*
D298*
X015755Y010048D03*
X015505Y010728D03*
D299*
X014543Y010203D03*
X014593Y010053D03*
D300*
X016326Y010055D03*
X017104Y010200D03*
D301*
X017094Y010188D03*
X016956Y010188D03*
X016816Y010188D03*
X015764Y010058D03*
X015499Y010738D03*
X014161Y010233D03*
D302*
X017100Y010193D03*
X017755Y010058D03*
D303*
X016813Y010185D03*
X016338Y010070D03*
X015768Y010060D03*
D304*
X016333Y010060D03*
X017098Y010190D03*
D305*
X016708Y010330D03*
X017758Y010060D03*
X016813Y013015D03*
D306*
X014613Y010070D03*
D307*
X016665Y010148D03*
D308*
X017308Y010153D03*
X014918Y010188D03*
D309*
X014918Y010170D03*
X015508Y010155D03*
X016608Y010160D03*
D310*
X014543Y010158D03*
X013788Y010158D03*
D311*
X014918Y010158D03*
D312*
X015880Y010158D03*
X016625Y010188D03*
D313*
X016235Y010165D03*
X015880Y010160D03*
D314*
X014543Y010193D03*
X014998Y012943D03*
X017663Y010163D03*
D315*
X016406Y010835D03*
X015504Y010165D03*
D316*
X014985Y010675D03*
X014165Y010175D03*
X016610Y010165D03*
X015000Y012930D03*
D317*
X014165Y010198D03*
X016235Y010168D03*
D318*
X016611Y010168D03*
X014916Y010178D03*
X013786Y010178D03*
D319*
X015500Y010170D03*
X016405Y010830D03*
X015000Y012935D03*
D320*
X016863Y010705D03*
X016613Y010170D03*
X014918Y010180D03*
D321*
X017308Y010170D03*
D322*
X015498Y010175D03*
X014918Y010185D03*
X014163Y010185D03*
D323*
X017663Y010175D03*
D324*
X014985Y010673D03*
X014165Y010178D03*
X015000Y012933D03*
D325*
X015455Y010788D03*
X016235Y010178D03*
D326*
X016618Y010178D03*
D327*
X017663Y010178D03*
X018018Y010178D03*
D328*
X013786Y010180D03*
D329*
X016235Y010180D03*
D330*
X017663Y010180D03*
X018018Y010180D03*
D331*
X016235Y010183D03*
D332*
X016620Y010183D03*
X015440Y010808D03*
D333*
X016235Y010188D03*
X014540Y010218D03*
X014995Y012968D03*
D334*
X014978Y010628D03*
X015523Y010193D03*
X018018Y010193D03*
D335*
X014998Y012945D03*
X014543Y010195D03*
D336*
X014975Y010598D03*
X016825Y010198D03*
D337*
X016825Y010200D03*
D338*
X016233Y010205D03*
D339*
X015425Y010330D03*
X014990Y013005D03*
D340*
X016343Y010748D03*
X016873Y010628D03*
D341*
X014980Y010645D03*
D342*
X014985Y010670D03*
D343*
X016865Y010685D03*
D344*
X016865Y010688D03*
X015450Y010793D03*
D345*
X014988Y010690D03*
D346*
X014989Y010693D03*
D347*
X014989Y010695D03*
D348*
X014990Y010698D03*
D349*
X014990Y010700D03*
D350*
X016403Y010825D03*
X016863Y010700D03*
D351*
X014989Y010703D03*
D352*
X014991Y010705D03*
X015004Y012900D03*
X016799Y012910D03*
D353*
X016798Y012908D03*
X014993Y010708D03*
D354*
X014993Y010710D03*
D355*
X014993Y010713D03*
D356*
X014993Y010715D03*
D357*
X016860Y010715D03*
D358*
X016854Y010753D03*
X014994Y010718D03*
X015006Y012888D03*
D359*
X015006Y012885D03*
X014994Y010720D03*
D360*
X016860Y010720D03*
X015895Y013320D03*
D361*
X014995Y010723D03*
D362*
X016859Y010723D03*
D363*
X016851Y010760D03*
X014996Y010725D03*
D364*
X014996Y010728D03*
X016851Y010763D03*
D365*
X014996Y010730D03*
D366*
X014998Y010733D03*
X015008Y012873D03*
D367*
X015009Y012870D03*
X014999Y010735D03*
X016849Y010770D03*
D368*
X016858Y010735D03*
X015003Y012905D03*
D369*
X016791Y012878D03*
X014999Y010738D03*
D370*
X016856Y010738D03*
X016799Y012913D03*
D371*
X015000Y010740D03*
D372*
X016343Y010740D03*
D373*
X016856Y010740D03*
D374*
X015000Y010743D03*
X016790Y012873D03*
D375*
X016856Y010743D03*
D376*
X015001Y010745D03*
D377*
X016855Y010745D03*
D378*
X015001Y010748D03*
X015909Y013293D03*
D379*
X016855Y010748D03*
D380*
X015003Y010750D03*
X015908Y013270D03*
X015908Y013275D03*
X015908Y013280D03*
X015908Y013285D03*
D381*
X016854Y010750D03*
D382*
X015003Y010753D03*
X015908Y013258D03*
X015908Y013263D03*
D383*
X016786Y012860D03*
X015004Y010755D03*
D384*
X016853Y010755D03*
D385*
X015005Y010758D03*
X016785Y012858D03*
D386*
X016794Y012893D03*
X016851Y010758D03*
D387*
X016841Y010800D03*
X015006Y010760D03*
X015016Y012840D03*
X015906Y013210D03*
D388*
X015906Y013193D03*
X015906Y013188D03*
X015906Y013183D03*
X016841Y010803D03*
X015006Y010763D03*
D389*
X015008Y010765D03*
X015908Y013170D03*
X015908Y013175D03*
X015908Y013180D03*
D390*
X016850Y010765D03*
D391*
X015008Y010768D03*
X015908Y013158D03*
D392*
X016850Y010768D03*
D393*
X015008Y010770D03*
X015018Y012835D03*
D394*
X015906Y013133D03*
X015009Y010773D03*
D395*
X016849Y010773D03*
D396*
X016839Y010815D03*
X015009Y010775D03*
X015019Y012825D03*
X015906Y013095D03*
X015906Y013100D03*
X015906Y013105D03*
X015906Y013110D03*
X016781Y012840D03*
D397*
X016848Y010775D03*
D398*
X015010Y010778D03*
D399*
X016848Y010778D03*
D400*
X015010Y010780D03*
X015905Y013070D03*
D401*
X016848Y010780D03*
D402*
X015011Y010783D03*
X015904Y013048D03*
X015904Y013053D03*
D403*
X015909Y013298D03*
X016846Y010783D03*
D404*
X015011Y010785D03*
X015904Y013035D03*
X015904Y013040D03*
D405*
X015909Y013295D03*
X016789Y012870D03*
X016846Y010785D03*
D406*
X016833Y010828D03*
X015013Y010788D03*
X016778Y012828D03*
D407*
X016845Y010788D03*
D408*
X015014Y010790D03*
X015024Y012810D03*
X015906Y012995D03*
X015906Y013000D03*
X016776Y012825D03*
D409*
X016844Y010790D03*
D410*
X015015Y010793D03*
X015905Y012968D03*
X015905Y012973D03*
X015905Y012978D03*
X016775Y012823D03*
D411*
X015909Y013243D03*
X016844Y010793D03*
D412*
X015015Y010795D03*
X015025Y012805D03*
D413*
X015908Y013225D03*
X015908Y013230D03*
X016843Y010795D03*
D414*
X015015Y010798D03*
D415*
X016843Y010798D03*
X015908Y013213D03*
X015908Y013218D03*
D416*
X015016Y010800D03*
D417*
X015016Y010803D03*
X015904Y012923D03*
D418*
X015018Y010805D03*
D419*
X016840Y010805D03*
D420*
X015019Y010808D03*
X015026Y012793D03*
D421*
X015906Y013143D03*
X016839Y010808D03*
D422*
X015019Y010810D03*
X015906Y012905D03*
D423*
X016838Y010810D03*
D424*
X015019Y010813D03*
D425*
X016838Y010813D03*
D426*
X015019Y010815D03*
D427*
X015140Y010818D03*
X015205Y010993D03*
X016595Y011103D03*
X016605Y011088D03*
X016695Y010848D03*
X016600Y012118D03*
D428*
X016838Y010818D03*
D429*
X016606Y011085D03*
X016604Y011090D03*
X016524Y011300D03*
X016596Y011495D03*
X016591Y012125D03*
X015224Y012125D03*
X015214Y011500D03*
X015196Y010980D03*
X015194Y010975D03*
X015191Y010970D03*
X015139Y010820D03*
D430*
X016836Y010820D03*
X015906Y013065D03*
D431*
X016586Y012133D03*
X016609Y012113D03*
X016676Y011588D03*
X016611Y011073D03*
X016696Y010853D03*
X015301Y011278D03*
X015219Y011493D03*
X015189Y010963D03*
X015139Y010823D03*
D432*
X016835Y010823D03*
D433*
X016698Y010855D03*
X016613Y011070D03*
X016583Y012135D03*
X015138Y010825D03*
D434*
X016833Y010825D03*
D435*
X016619Y011058D03*
X016616Y011063D03*
X016581Y012138D03*
X015231Y012138D03*
X015224Y011488D03*
X015136Y010828D03*
D436*
X015136Y010830D03*
X015176Y010940D03*
X015299Y011295D03*
X015226Y011485D03*
X016584Y011480D03*
X016699Y010860D03*
D437*
X016833Y010830D03*
D438*
X016699Y010863D03*
X016634Y011033D03*
X016631Y011038D03*
X016629Y011043D03*
X016524Y011313D03*
X015299Y011293D03*
X015179Y010943D03*
X015136Y010833D03*
X015234Y012143D03*
D439*
X016804Y012943D03*
X016406Y010833D03*
D440*
X016833Y010833D03*
D441*
X016636Y011025D03*
X016524Y011315D03*
X016581Y011475D03*
X015299Y011300D03*
X015169Y010930D03*
X015166Y010925D03*
X015164Y010920D03*
X015136Y010835D03*
X015236Y012145D03*
D442*
X016833Y010835D03*
D443*
X016699Y010868D03*
X016639Y011023D03*
X016524Y011318D03*
X016579Y011473D03*
X016574Y012148D03*
X015239Y012148D03*
X015299Y011303D03*
X015171Y010933D03*
X015166Y010923D03*
X015136Y010838D03*
D444*
X016831Y010838D03*
X015904Y012953D03*
D445*
X015151Y011555D03*
X015299Y011305D03*
X015161Y010915D03*
X015159Y010910D03*
X015136Y010840D03*
X016524Y011320D03*
X016524Y011325D03*
X016576Y011470D03*
X016649Y011005D03*
D446*
X016830Y010840D03*
D447*
X016651Y011003D03*
X016644Y011013D03*
X016641Y011018D03*
X016524Y011323D03*
X015299Y011308D03*
X015136Y010843D03*
X015241Y012153D03*
D448*
X015903Y012918D03*
X016828Y010843D03*
D449*
X016653Y011000D03*
X016568Y012155D03*
X015238Y011470D03*
X015138Y010845D03*
D450*
X016826Y010845D03*
X015026Y012795D03*
X016774Y012810D03*
D451*
X016564Y012158D03*
X016524Y011333D03*
X016524Y011328D03*
X016656Y010993D03*
X015239Y011468D03*
X015156Y010903D03*
X015154Y010898D03*
X015136Y010848D03*
D452*
X015136Y010850D03*
X015154Y010900D03*
X015156Y010905D03*
X015299Y011310D03*
X016524Y011330D03*
X016524Y011335D03*
X016574Y011465D03*
X016656Y010990D03*
X016659Y010985D03*
D453*
X016610Y011075D03*
X016695Y010850D03*
X016605Y012115D03*
X015905Y012860D03*
D454*
X016573Y011463D03*
X016658Y010988D03*
X016703Y010878D03*
X015138Y010858D03*
X015138Y010853D03*
D455*
X015138Y010855D03*
X015153Y010895D03*
X016703Y010875D03*
D456*
X016698Y010858D03*
X016628Y011048D03*
X016623Y011053D03*
X015183Y010953D03*
D457*
X015149Y010890D03*
X015141Y010875D03*
X015139Y010870D03*
X015139Y010865D03*
X015139Y010860D03*
X015299Y011315D03*
X015244Y011460D03*
X016524Y011340D03*
X016664Y010975D03*
X016561Y012160D03*
D458*
X016559Y012163D03*
X016524Y011343D03*
X016661Y010978D03*
X015299Y011313D03*
X015241Y011463D03*
X015146Y010888D03*
X015144Y010883D03*
X015141Y010878D03*
X015141Y010873D03*
X015139Y010868D03*
X015139Y010863D03*
X015249Y012158D03*
D459*
X015230Y011480D03*
X016635Y011030D03*
X016700Y010865D03*
X016575Y012145D03*
D460*
X016640Y011020D03*
X016645Y011010D03*
X016700Y010870D03*
X015240Y012150D03*
D461*
X016653Y010998D03*
X016703Y010873D03*
X015158Y010908D03*
D462*
X015143Y010880D03*
X016668Y010970D03*
X016673Y010960D03*
X016703Y010880D03*
X016558Y012165D03*
X015253Y012160D03*
D463*
X015254Y012163D03*
X015141Y012058D03*
X015299Y011318D03*
X016524Y011348D03*
X016669Y010968D03*
X016701Y010883D03*
D464*
X016670Y010965D03*
X016525Y011345D03*
X015145Y010885D03*
X015905Y012855D03*
D465*
X015256Y012165D03*
X015299Y011320D03*
X016676Y010955D03*
X016701Y010885D03*
D466*
X016701Y010888D03*
X016701Y010893D03*
X016684Y010938D03*
X016681Y010943D03*
X015299Y011328D03*
X015139Y011558D03*
D467*
X015249Y011455D03*
X015299Y011325D03*
X015261Y012170D03*
X016636Y012105D03*
X016681Y010945D03*
X016701Y010890D03*
D468*
X016660Y010983D03*
X016525Y011338D03*
X015150Y010893D03*
D469*
X016685Y010935D03*
X016700Y010900D03*
X016700Y010895D03*
D470*
X016700Y010898D03*
X016700Y010903D03*
X016525Y011353D03*
X016700Y011593D03*
D471*
X016559Y011450D03*
X016524Y011355D03*
X016691Y010925D03*
X016694Y010920D03*
X016696Y010915D03*
X016699Y010910D03*
X016699Y010905D03*
X015299Y011335D03*
D472*
X015251Y011453D03*
X015264Y012173D03*
X016549Y012173D03*
X016561Y011453D03*
X016686Y010933D03*
X016689Y010928D03*
X016694Y010923D03*
X016696Y010918D03*
X016699Y010908D03*
D473*
X016575Y011468D03*
X015160Y010913D03*
D474*
X015298Y011333D03*
X016698Y010913D03*
D475*
X016648Y011008D03*
X016623Y012108D03*
X015163Y010918D03*
D476*
X015168Y010928D03*
X015228Y011483D03*
X015158Y012063D03*
X016578Y012143D03*
X016583Y011478D03*
D477*
X016683Y010940D03*
X016688Y010930D03*
X015298Y011330D03*
D478*
X015173Y010935D03*
X016633Y011035D03*
D479*
X016635Y011028D03*
X015300Y011298D03*
X015230Y011478D03*
X015175Y010938D03*
X015905Y012858D03*
D480*
X016580Y012140D03*
X016615Y012110D03*
X016625Y011050D03*
X016630Y011040D03*
X015300Y011285D03*
X015300Y011290D03*
X015180Y010945D03*
D481*
X015180Y010948D03*
X015300Y011288D03*
X016585Y011483D03*
D482*
X016680Y010948D03*
D483*
X016621Y011055D03*
X016619Y011060D03*
X016616Y011065D03*
X016524Y011310D03*
X015221Y011490D03*
X015184Y010955D03*
X015181Y010950D03*
X015164Y012065D03*
D484*
X016565Y011455D03*
X016525Y011350D03*
X016680Y010950D03*
D485*
X016678Y010953D03*
X015298Y011323D03*
X015258Y012168D03*
D486*
X015300Y011283D03*
X015185Y010958D03*
X016615Y011068D03*
X016590Y011488D03*
D487*
X016665Y010973D03*
X016675Y010958D03*
X016555Y012168D03*
X015245Y011458D03*
D488*
X015300Y011280D03*
X015185Y010960D03*
X015230Y012135D03*
D489*
X016568Y011458D03*
X016673Y010963D03*
D490*
X016524Y011305D03*
X015301Y011275D03*
X015216Y011495D03*
X015189Y010965D03*
X015226Y012130D03*
D491*
X015225Y012128D03*
X015215Y011498D03*
X015195Y010978D03*
X015190Y010968D03*
X016595Y011493D03*
D492*
X016523Y011303D03*
X015193Y010973D03*
D493*
X015240Y011465D03*
X016570Y011460D03*
X016660Y010980D03*
D494*
X016609Y011078D03*
X016606Y011083D03*
X016524Y011298D03*
X016599Y011498D03*
X016594Y012123D03*
X016589Y012128D03*
X015169Y012068D03*
X015211Y011503D03*
X015301Y011273D03*
X015199Y010983D03*
D495*
X015200Y010985D03*
X015210Y011505D03*
X015170Y011550D03*
X016600Y011500D03*
X016600Y011095D03*
D496*
X016598Y011098D03*
X016603Y011093D03*
X016593Y011108D03*
X016523Y011293D03*
X016603Y011503D03*
X015203Y010988D03*
X015223Y012123D03*
D497*
X015219Y012120D03*
X015206Y010995D03*
X015204Y010990D03*
X016524Y011290D03*
X016589Y011115D03*
X016591Y011110D03*
X016594Y011105D03*
X016604Y011505D03*
D498*
X016690Y011590D03*
X016655Y010995D03*
X015245Y012155D03*
X015150Y012060D03*
D499*
X015209Y011508D03*
X015209Y011003D03*
X015206Y010998D03*
X016591Y011113D03*
D500*
X016588Y011120D03*
X016523Y011285D03*
X015303Y011265D03*
X015208Y011510D03*
X015208Y011000D03*
D501*
X015210Y011005D03*
D502*
X015213Y011008D03*
X015203Y011518D03*
X016578Y011138D03*
X016583Y011128D03*
D503*
X016581Y011130D03*
X016579Y011135D03*
X016576Y011140D03*
X016584Y011125D03*
X016521Y011280D03*
X016611Y011515D03*
X016666Y011585D03*
X015301Y011255D03*
X015216Y011015D03*
X015214Y011010D03*
X015201Y011520D03*
X015179Y011545D03*
X015209Y012105D03*
X015906Y012865D03*
D504*
X015211Y012108D03*
X015301Y011258D03*
X015219Y011023D03*
X015216Y011018D03*
X015214Y011013D03*
X016574Y011143D03*
D505*
X016643Y011015D03*
X016573Y012150D03*
X015233Y011475D03*
D506*
X015218Y011020D03*
X016573Y011145D03*
D507*
X016570Y011150D03*
X016520Y011275D03*
X015225Y011030D03*
X015220Y011025D03*
D508*
X015223Y011028D03*
X016568Y011153D03*
X016613Y011518D03*
D509*
X016614Y011523D03*
X016564Y011163D03*
X016566Y011158D03*
X015301Y011253D03*
X015231Y011043D03*
X015229Y011038D03*
X015226Y011033D03*
X015184Y011543D03*
X015206Y012103D03*
D510*
X015204Y012100D03*
X015196Y011530D03*
X015199Y011525D03*
X015301Y011250D03*
X015229Y011035D03*
X016566Y011155D03*
X016614Y011520D03*
D511*
X016615Y011525D03*
X016565Y011160D03*
X015230Y011040D03*
D512*
X015233Y011045D03*
X015188Y011540D03*
X015203Y012095D03*
X016618Y011530D03*
X016563Y011165D03*
D513*
X016628Y011045D03*
X016588Y011485D03*
X015233Y012140D03*
D514*
X015203Y012098D03*
X015198Y011528D03*
X015303Y011248D03*
X015233Y011048D03*
X016563Y011168D03*
X016618Y011528D03*
D515*
X016521Y011270D03*
X016561Y011170D03*
X015304Y011245D03*
X015234Y011050D03*
X015194Y011535D03*
X015199Y012090D03*
D516*
X015199Y012088D03*
X015191Y011538D03*
X015236Y011053D03*
X016619Y011533D03*
X015906Y012868D03*
D517*
X015198Y012085D03*
X015238Y011055D03*
X016548Y011190D03*
X016558Y011175D03*
D518*
X016546Y011193D03*
X016521Y011263D03*
X016621Y011538D03*
X015304Y011243D03*
X015239Y011058D03*
D519*
X015240Y011060D03*
X015245Y011070D03*
X015190Y012075D03*
X016545Y011195D03*
D520*
X016543Y011198D03*
X015243Y011063D03*
X015193Y012078D03*
D521*
X015243Y011065D03*
X016543Y011200D03*
X016623Y011540D03*
D522*
X016624Y011543D03*
X016626Y011548D03*
X016521Y011258D03*
X016541Y011203D03*
X015246Y011073D03*
X015244Y011068D03*
D523*
X015249Y011075D03*
X015306Y011235D03*
X016521Y011260D03*
X016539Y011210D03*
X016541Y011205D03*
X016626Y011545D03*
X016654Y011580D03*
D524*
X016535Y011218D03*
X016540Y011208D03*
X015305Y011233D03*
X015250Y011078D03*
D525*
X015253Y011080D03*
X016628Y011550D03*
X015908Y012870D03*
D526*
X016588Y012130D03*
X016593Y011490D03*
X016608Y011080D03*
D527*
X016531Y011223D03*
X016524Y011238D03*
X016521Y011253D03*
X016629Y011553D03*
X015306Y011228D03*
X015259Y011093D03*
X015256Y011088D03*
X015254Y011083D03*
D528*
X015255Y011085D03*
X016520Y011255D03*
D529*
X016521Y011250D03*
X016521Y011245D03*
X016526Y011230D03*
X016536Y011215D03*
X015306Y011225D03*
X015306Y011230D03*
X015256Y011090D03*
D530*
X015260Y011095D03*
X016525Y011235D03*
X016530Y011225D03*
X016630Y011555D03*
D531*
X016650Y011578D03*
X016520Y011248D03*
X016525Y011233D03*
X015260Y011098D03*
D532*
X015261Y011100D03*
X015306Y011220D03*
X016634Y011560D03*
X016636Y011565D03*
X016641Y011570D03*
X016646Y011575D03*
D533*
X016523Y011295D03*
X016598Y011100D03*
X016598Y012120D03*
X015303Y011270D03*
D534*
X015263Y011103D03*
D535*
X015265Y011105D03*
D536*
X015266Y011108D03*
X015269Y011113D03*
X015306Y011218D03*
D537*
X015269Y011115D03*
X015266Y011110D03*
D538*
X015270Y011118D03*
X015275Y011123D03*
D539*
X015303Y011268D03*
X015218Y012118D03*
X016523Y011288D03*
X016588Y011118D03*
D540*
X015273Y011120D03*
D541*
X016580Y011133D03*
X016585Y011123D03*
X016610Y011513D03*
D542*
X015306Y011215D03*
X015281Y011135D03*
X015279Y011130D03*
X015276Y011125D03*
D543*
X015279Y011128D03*
D544*
X015280Y011133D03*
D545*
X015283Y011138D03*
X015308Y011213D03*
D546*
X015284Y011140D03*
D547*
X015286Y011143D03*
X015906Y012873D03*
D548*
X015308Y011210D03*
X015288Y011145D03*
D549*
X015289Y011148D03*
D550*
X015200Y011523D03*
X016520Y011278D03*
X016570Y011148D03*
D551*
X015309Y011205D03*
X015291Y011155D03*
X015289Y011150D03*
D552*
X015290Y011153D03*
X015295Y011163D03*
D553*
X015293Y011158D03*
X015308Y011203D03*
D554*
X015309Y011195D03*
X015296Y011165D03*
X015294Y011160D03*
D555*
X015299Y011168D03*
X015309Y011198D03*
D556*
X015305Y011180D03*
X015300Y011170D03*
D557*
X015303Y011173D03*
X015308Y011188D03*
X015308Y011193D03*
D558*
X015188Y012073D03*
X016553Y011183D03*
X016558Y011173D03*
D559*
X015304Y011175D03*
D560*
X015305Y011178D03*
D561*
X015195Y012083D03*
X016660Y011583D03*
X016520Y011268D03*
X016550Y011188D03*
X016555Y011178D03*
D562*
X016554Y011180D03*
X016551Y011185D03*
X016521Y011265D03*
X015304Y011240D03*
X015194Y012080D03*
D563*
X015306Y011183D03*
D564*
X015308Y011185D03*
X015308Y011190D03*
D565*
X015308Y011200D03*
D566*
X015308Y011208D03*
D567*
X016538Y011213D03*
D568*
X016533Y011220D03*
X016523Y011240D03*
D569*
X016639Y011568D03*
X016644Y011573D03*
X015306Y011223D03*
D570*
X016523Y011243D03*
X016528Y011228D03*
X016633Y011558D03*
D571*
X015305Y011238D03*
D572*
X015303Y011260D03*
X015178Y012070D03*
X015213Y012110D03*
D573*
X015214Y012113D03*
X015176Y011548D03*
X015206Y011513D03*
X015301Y011263D03*
X016521Y011283D03*
X016606Y011508D03*
D574*
X016520Y011273D03*
X015195Y011533D03*
X015200Y012093D03*
D575*
X015228Y012133D03*
X015163Y011553D03*
X016523Y011308D03*
D576*
X015298Y011338D03*
D577*
X015298Y011340D03*
D578*
X015296Y011343D03*
X016556Y011448D03*
D579*
X016524Y011365D03*
X015296Y011345D03*
X015259Y011445D03*
D580*
X015296Y011348D03*
X015271Y012178D03*
X016544Y012178D03*
X016524Y011368D03*
D581*
X016525Y011370D03*
X016550Y011440D03*
X016540Y012180D03*
X015905Y012850D03*
X015295Y011350D03*
D582*
X015295Y011353D03*
X016525Y011383D03*
X016545Y011438D03*
D583*
X016525Y011380D03*
X016655Y012100D03*
X015275Y012185D03*
X015295Y011355D03*
D584*
X015296Y011358D03*
X015279Y012188D03*
D585*
X015905Y012853D03*
X016525Y011358D03*
D586*
X016525Y011390D03*
X015295Y011360D03*
X015120Y011565D03*
D587*
X015131Y011560D03*
X015254Y011450D03*
X016524Y011360D03*
D588*
X016539Y011433D03*
X016661Y012098D03*
X015296Y011363D03*
D589*
X016525Y011363D03*
D590*
X016541Y011435D03*
X015296Y011365D03*
X015271Y011435D03*
D591*
X015298Y011368D03*
D592*
X015298Y011370D03*
X016538Y011430D03*
D593*
X016534Y011428D03*
X015296Y011373D03*
X015279Y011428D03*
X015274Y011433D03*
D594*
X015260Y011443D03*
X015125Y011563D03*
X016525Y011373D03*
D595*
X016533Y011425D03*
X015298Y011375D03*
D596*
X015264Y011440D03*
X015126Y012055D03*
X016524Y011375D03*
D597*
X016528Y012193D03*
X015298Y011378D03*
D598*
X015274Y012183D03*
X016539Y012183D03*
X016711Y011598D03*
X016524Y011378D03*
D599*
X015296Y011380D03*
X015281Y011425D03*
D600*
X015296Y011383D03*
X015286Y012193D03*
D601*
X015295Y011385D03*
X016525Y011400D03*
X016525Y012195D03*
D602*
X016524Y011385D03*
D603*
X016671Y012093D03*
X016521Y012198D03*
X015296Y011388D03*
D604*
X016525Y011388D03*
X016535Y012188D03*
X015905Y012848D03*
D605*
X015290Y012195D03*
X015295Y011390D03*
X016525Y011405D03*
X016525Y011410D03*
X016525Y011415D03*
D606*
X016525Y011413D03*
X016525Y011408D03*
X015295Y011393D03*
X015285Y011423D03*
D607*
X015115Y011568D03*
X016525Y011393D03*
D608*
X015295Y011395D03*
X015290Y011420D03*
X015295Y012200D03*
D609*
X015284Y012190D03*
X015276Y011430D03*
X016526Y011395D03*
D610*
X015295Y011398D03*
D611*
X015115Y012053D03*
X016525Y011398D03*
D612*
X015294Y011400D03*
X015906Y012840D03*
D613*
X016514Y012203D03*
X015291Y011418D03*
X015294Y011403D03*
D614*
X016525Y011403D03*
X016530Y011423D03*
X016725Y011603D03*
X015905Y012843D03*
D615*
X015295Y011405D03*
D616*
X015295Y011408D03*
X015300Y012203D03*
D617*
X015294Y011410D03*
D618*
X015294Y011413D03*
X015101Y012048D03*
D619*
X015293Y011415D03*
D620*
X016526Y011418D03*
D621*
X016528Y011420D03*
X016518Y012200D03*
X015108Y011570D03*
D622*
X015268Y011438D03*
D623*
X015258Y011448D03*
X016553Y011443D03*
X016648Y012103D03*
D624*
X016545Y012175D03*
X016555Y011445D03*
D625*
X016570Y012153D03*
X015235Y011473D03*
D626*
X015204Y011515D03*
X015216Y012115D03*
X016609Y011510D03*
D627*
X016620Y011535D03*
D628*
X016635Y011563D03*
D629*
X015094Y011573D03*
D630*
X015084Y011575D03*
D631*
X015076Y011578D03*
X015906Y012833D03*
X016486Y012218D03*
D632*
X015905Y012830D03*
X015070Y011580D03*
D633*
X015066Y011583D03*
X016766Y011613D03*
D634*
X015905Y012825D03*
X015060Y011585D03*
D635*
X015051Y011588D03*
X015346Y012223D03*
X016466Y012223D03*
D636*
X015038Y011590D03*
D637*
X015030Y011593D03*
X015905Y012813D03*
D638*
X016764Y012065D03*
X015024Y011595D03*
D639*
X015268Y012175D03*
X016708Y011595D03*
D640*
X016769Y012063D03*
X015019Y011598D03*
D641*
X015015Y011600D03*
D642*
X016718Y011600D03*
D643*
X016781Y012058D03*
X015006Y011603D03*
D644*
X014994Y011605D03*
D645*
X016508Y012205D03*
X016738Y011605D03*
D646*
X016876Y011723D03*
X016876Y011728D03*
X016876Y011733D03*
X016874Y011898D03*
X016874Y011903D03*
X016874Y011908D03*
X015906Y012793D03*
X014941Y011903D03*
X014941Y011898D03*
X014941Y011893D03*
X014939Y011878D03*
X014939Y011873D03*
X014939Y011748D03*
X014939Y011743D03*
X014939Y011738D03*
X014939Y011733D03*
X014939Y011728D03*
X014984Y011608D03*
D647*
X015319Y012213D03*
X016751Y011608D03*
D648*
X016868Y011935D03*
X014978Y011610D03*
X014943Y011695D03*
D649*
X016761Y011610D03*
D650*
X016868Y011673D03*
X016858Y011978D03*
X014948Y011938D03*
X014948Y011678D03*
X014973Y011613D03*
D651*
X014971Y011615D03*
X014949Y011665D03*
X014949Y011670D03*
X014951Y011955D03*
X014951Y011960D03*
X014951Y011965D03*
X014971Y012005D03*
X016864Y011660D03*
X016866Y011665D03*
X016866Y011670D03*
D652*
X016773Y011615D03*
D653*
X016853Y011988D03*
X014953Y011968D03*
X014968Y011618D03*
D654*
X016778Y011618D03*
D655*
X016851Y011990D03*
X016849Y012000D03*
X016821Y012045D03*
X014966Y012000D03*
X014951Y011650D03*
X014951Y011645D03*
X014966Y011620D03*
D656*
X016786Y011620D03*
D657*
X016851Y011993D03*
X014969Y012003D03*
X014964Y011993D03*
X014956Y011978D03*
X014954Y011973D03*
X014951Y011648D03*
X014964Y011623D03*
D658*
X016800Y011623D03*
D659*
X016848Y012005D03*
X014963Y011990D03*
X014958Y011980D03*
X014963Y011625D03*
D660*
X016811Y011625D03*
D661*
X016846Y012008D03*
X016824Y012043D03*
X014961Y011628D03*
X014959Y011633D03*
D662*
X016819Y011628D03*
D663*
X014959Y011630D03*
X014956Y011635D03*
D664*
X016824Y011630D03*
D665*
X016830Y011633D03*
D666*
X016838Y011635D03*
D667*
X016850Y011998D03*
X014965Y011998D03*
X014960Y011983D03*
X014955Y011638D03*
D668*
X014933Y011803D03*
X016848Y011638D03*
X016878Y011858D03*
X016878Y011863D03*
D669*
X016850Y011995D03*
X014965Y011995D03*
X014960Y011985D03*
X014955Y011640D03*
D670*
X014943Y011910D03*
X014943Y011915D03*
X016853Y011640D03*
X016873Y011695D03*
X016873Y011700D03*
X016873Y011910D03*
X016873Y011915D03*
D671*
X016848Y012003D03*
X014963Y011988D03*
X014953Y011643D03*
D672*
X014940Y011713D03*
X014940Y011718D03*
X014940Y011723D03*
X016855Y011643D03*
X016875Y011708D03*
X016875Y011713D03*
X016875Y011718D03*
X016870Y011923D03*
X016870Y011928D03*
D673*
X016869Y011930D03*
X016874Y011705D03*
X016871Y011690D03*
X016856Y011645D03*
X014941Y011700D03*
X014941Y011705D03*
X014944Y011920D03*
D674*
X014943Y011698D03*
X014943Y011693D03*
X016858Y011648D03*
X016868Y011938D03*
D675*
X016870Y011685D03*
X016860Y011650D03*
X014980Y012010D03*
X014945Y011925D03*
D676*
X014950Y011663D03*
X014950Y011658D03*
X014950Y011653D03*
D677*
X014946Y011683D03*
X014944Y011688D03*
X014946Y011933D03*
X014976Y012008D03*
X016859Y011973D03*
X016859Y011968D03*
X016861Y011963D03*
X016861Y011958D03*
X016864Y011953D03*
X016864Y011948D03*
X016869Y011678D03*
X016861Y011653D03*
D678*
X014950Y011655D03*
X014950Y011660D03*
X014955Y011975D03*
D679*
X014948Y011935D03*
X014948Y011680D03*
X014948Y011675D03*
X016863Y011655D03*
X016868Y011675D03*
X016858Y011975D03*
D680*
X016854Y011983D03*
X016816Y012048D03*
X016866Y011668D03*
X016866Y011663D03*
X016864Y011658D03*
X014949Y011668D03*
X014949Y011673D03*
X014951Y011958D03*
X014951Y011963D03*
D681*
X014949Y011940D03*
X014946Y011930D03*
X014944Y011690D03*
X016811Y012050D03*
X016859Y011970D03*
X016861Y011965D03*
X016861Y011960D03*
X016861Y011955D03*
X016864Y011950D03*
X016864Y011945D03*
X016866Y011940D03*
X016869Y011680D03*
D682*
X016870Y011683D03*
X016865Y011943D03*
X014945Y011928D03*
D683*
X014950Y011945D03*
X014950Y011950D03*
X014945Y011685D03*
X016855Y011980D03*
D684*
X016869Y011933D03*
X016874Y011703D03*
X016871Y011693D03*
X016871Y011688D03*
X014984Y012013D03*
X014944Y011923D03*
X014941Y011708D03*
X014941Y011703D03*
D685*
X014943Y011908D03*
X014943Y011913D03*
X014943Y011918D03*
X016873Y011918D03*
X016873Y011913D03*
X016873Y011698D03*
D686*
X016875Y011710D03*
X016875Y011715D03*
X016875Y011720D03*
X016870Y011925D03*
X014940Y011720D03*
X014940Y011715D03*
X014940Y011710D03*
D687*
X014939Y011725D03*
X014939Y011730D03*
X014939Y011735D03*
X014939Y011740D03*
X014939Y011745D03*
X014939Y011875D03*
X014941Y011895D03*
X014941Y011900D03*
X014941Y011905D03*
X016871Y011920D03*
X016874Y011905D03*
X016874Y011900D03*
X016876Y011730D03*
X016876Y011725D03*
D688*
X016878Y011735D03*
X016878Y011740D03*
X016878Y011745D03*
X016878Y011750D03*
X014988Y012015D03*
X014938Y011870D03*
X014938Y011865D03*
X014938Y011860D03*
X014938Y011855D03*
X014938Y011765D03*
X014938Y011760D03*
X014938Y011755D03*
X014938Y011750D03*
D689*
X014938Y011753D03*
X014938Y011758D03*
X014938Y011763D03*
X014938Y011853D03*
X014938Y011858D03*
X014938Y011863D03*
X014938Y011868D03*
X016878Y011748D03*
X016878Y011743D03*
X016878Y011738D03*
D690*
X016879Y011753D03*
X016879Y011758D03*
X016879Y011763D03*
X016879Y011853D03*
X016876Y011868D03*
X016876Y011873D03*
X016876Y011878D03*
X014936Y011848D03*
X014936Y011843D03*
X014936Y011838D03*
X014934Y011798D03*
X014934Y011793D03*
X014934Y011788D03*
X014934Y011783D03*
X014936Y011778D03*
X014936Y011773D03*
X014936Y011768D03*
D691*
X014936Y011770D03*
X014936Y011775D03*
X014936Y011780D03*
X014934Y011785D03*
X014934Y011790D03*
X014934Y011795D03*
X014936Y011835D03*
X014936Y011840D03*
X014936Y011845D03*
X014936Y011850D03*
X016876Y011865D03*
X016876Y011870D03*
X016876Y011875D03*
X016876Y011880D03*
X016879Y011855D03*
X016879Y011850D03*
X016879Y011765D03*
X016879Y011760D03*
X016879Y011755D03*
D692*
X016880Y011768D03*
X016880Y011773D03*
X016880Y011778D03*
X016880Y011783D03*
X016880Y011833D03*
X016880Y011838D03*
X016880Y011843D03*
X016880Y011848D03*
X014935Y011833D03*
X014935Y011828D03*
X014935Y011823D03*
D693*
X014935Y011825D03*
X014935Y011830D03*
X014935Y011820D03*
X016880Y011835D03*
X016880Y011840D03*
X016880Y011845D03*
X016880Y011780D03*
X016880Y011775D03*
X016880Y011770D03*
D694*
X016881Y011785D03*
X016881Y011790D03*
X016881Y011795D03*
X016881Y011800D03*
X016881Y011805D03*
X016881Y011810D03*
X016881Y011815D03*
X016881Y011820D03*
X016881Y011825D03*
X016881Y011830D03*
X014934Y011815D03*
X014934Y011810D03*
D695*
X014934Y011813D03*
X014934Y011818D03*
X014934Y011808D03*
X014994Y012018D03*
X016881Y011828D03*
X016881Y011823D03*
X016881Y011818D03*
X016881Y011813D03*
X016881Y011808D03*
X016881Y011803D03*
X016881Y011798D03*
X016881Y011793D03*
X016881Y011788D03*
D696*
X016878Y011860D03*
X014933Y011805D03*
X014933Y011800D03*
D697*
X014940Y011880D03*
X014940Y011885D03*
X014940Y011890D03*
X016875Y011890D03*
X016875Y011895D03*
X016875Y011885D03*
D698*
X016875Y011888D03*
X016875Y011893D03*
X016875Y011883D03*
X016805Y012053D03*
X014940Y011888D03*
X014940Y011883D03*
D699*
X014950Y011943D03*
X014950Y011948D03*
X014950Y011953D03*
D700*
X014953Y011970D03*
X016853Y011985D03*
D701*
X016845Y012010D03*
D702*
X016845Y012013D03*
X016830Y012038D03*
D703*
X016834Y012035D03*
X016841Y012020D03*
X016844Y012015D03*
D704*
X016843Y012018D03*
D705*
X015003Y012020D03*
D706*
X015015Y012023D03*
D707*
X016840Y012023D03*
D708*
X015028Y012025D03*
D709*
X016840Y012025D03*
D710*
X015035Y012028D03*
D711*
X016836Y012033D03*
X016839Y012028D03*
D712*
X015041Y012030D03*
D713*
X016838Y012030D03*
D714*
X015046Y012033D03*
D715*
X015053Y012035D03*
D716*
X015064Y012038D03*
D717*
X015079Y012040D03*
D718*
X016828Y012040D03*
D719*
X015089Y012043D03*
D720*
X015098Y012045D03*
D721*
X015108Y012050D03*
D722*
X016795Y012055D03*
D723*
X016774Y012060D03*
D724*
X016758Y012068D03*
D725*
X016750Y012070D03*
D726*
X016738Y012073D03*
D727*
X016728Y012075D03*
D728*
X016720Y012078D03*
D729*
X016714Y012080D03*
D730*
X016709Y012083D03*
D731*
X016703Y012085D03*
D732*
X016693Y012088D03*
D733*
X016680Y012090D03*
D734*
X016665Y012095D03*
D735*
X016553Y012170D03*
D736*
X015273Y012180D03*
D737*
X016538Y012185D03*
D738*
X016530Y012190D03*
X015905Y012845D03*
D739*
X015293Y012198D03*
D740*
X015305Y012205D03*
D741*
X015311Y012208D03*
X016499Y012208D03*
D742*
X015316Y012210D03*
D743*
X016495Y012210D03*
D744*
X016493Y012213D03*
D745*
X015323Y012215D03*
D746*
X016489Y012215D03*
D747*
X015325Y012218D03*
D748*
X015331Y012220D03*
X016481Y012220D03*
D749*
X015358Y012225D03*
D750*
X015904Y012815D03*
X016449Y012225D03*
D751*
X015366Y012228D03*
D752*
X016439Y012228D03*
D753*
X015906Y012230D03*
D754*
X015905Y012233D03*
D755*
X015906Y012235D03*
X015901Y012535D03*
D756*
X015906Y012238D03*
D757*
X015905Y012240D03*
D758*
X015905Y012243D03*
D759*
X015904Y012245D03*
D760*
X015905Y012248D03*
D761*
X015905Y012250D03*
D762*
X015905Y012253D03*
D763*
X015906Y012255D03*
X015901Y012520D03*
D764*
X015905Y012258D03*
D765*
X015906Y012260D03*
X015906Y012265D03*
D766*
X015906Y012263D03*
X015901Y012518D03*
D767*
X015901Y012513D03*
X015906Y012273D03*
X015906Y012268D03*
D768*
X015906Y012270D03*
X015901Y012515D03*
D769*
X015901Y012510D03*
X015906Y012275D03*
D770*
X015905Y012278D03*
X015900Y012508D03*
D771*
X015906Y012280D03*
D772*
X015906Y012283D03*
X015901Y012503D03*
D773*
X015900Y012500D03*
X015905Y012285D03*
D774*
X015906Y012288D03*
X015901Y012498D03*
D775*
X015901Y012495D03*
X015906Y012290D03*
D776*
X015906Y012293D03*
D777*
X015906Y012295D03*
X015906Y012300D03*
D778*
X015906Y012298D03*
X015901Y012493D03*
D779*
X015905Y012303D03*
D780*
X015906Y012305D03*
D781*
X015905Y012308D03*
X015900Y012488D03*
D782*
X015906Y012310D03*
D783*
X015905Y012313D03*
D784*
X015905Y012315D03*
X015900Y012480D03*
D785*
X015905Y012318D03*
D786*
X015905Y012320D03*
X015900Y012475D03*
D787*
X015906Y012323D03*
D788*
X015905Y012325D03*
D789*
X015906Y012328D03*
D790*
X015906Y012330D03*
D791*
X015906Y012333D03*
D792*
X015906Y012335D03*
D793*
X015905Y012338D03*
X015900Y012468D03*
D794*
X015906Y012340D03*
D795*
X015905Y012343D03*
X015900Y012463D03*
D796*
X015900Y012460D03*
X015905Y012345D03*
D797*
X015904Y012348D03*
X015899Y012458D03*
D798*
X015900Y012455D03*
X015905Y012350D03*
D799*
X015905Y012353D03*
D800*
X015906Y012355D03*
D801*
X015905Y012358D03*
X015900Y012448D03*
D802*
X015906Y012360D03*
D803*
X015906Y012363D03*
D804*
X015906Y012365D03*
D805*
X015906Y012368D03*
X015899Y012443D03*
D806*
X015899Y012440D03*
X015906Y012370D03*
D807*
X015905Y012373D03*
D808*
X015905Y012375D03*
D809*
X015905Y012378D03*
D810*
X015906Y012380D03*
D811*
X015905Y012383D03*
D812*
X015906Y012385D03*
D813*
X015906Y012388D03*
D814*
X015906Y012390D03*
D815*
X015905Y012393D03*
D816*
X015905Y012395D03*
D817*
X015905Y012398D03*
X015900Y012418D03*
D818*
X015905Y012400D03*
D819*
X015904Y012403D03*
X015901Y012408D03*
D820*
X015901Y012405D03*
X015899Y012415D03*
D821*
X015900Y012410D03*
D822*
X015900Y012413D03*
D823*
X015899Y012420D03*
D824*
X015900Y012423D03*
D825*
X015900Y012425D03*
D826*
X015899Y012428D03*
D827*
X015899Y012430D03*
D828*
X015899Y012433D03*
D829*
X015899Y012435D03*
D830*
X015899Y012438D03*
D831*
X015900Y012445D03*
D832*
X015900Y012450D03*
D833*
X015899Y012453D03*
D834*
X015900Y012465D03*
D835*
X015900Y012470D03*
D836*
X015900Y012473D03*
D837*
X015899Y012478D03*
D838*
X015899Y012483D03*
D839*
X015900Y012485D03*
D840*
X015900Y012490D03*
D841*
X015900Y012505D03*
D842*
X015901Y012523D03*
D843*
X015900Y012525D03*
D844*
X015901Y012528D03*
D845*
X015900Y012530D03*
D846*
X015901Y012533D03*
D847*
X015903Y012538D03*
D848*
X015903Y012540D03*
D849*
X015903Y012543D03*
D850*
X015901Y012545D03*
D851*
X015901Y012548D03*
D852*
X015900Y012550D03*
D853*
X015901Y012553D03*
D854*
X015901Y012555D03*
D855*
X015903Y012558D03*
D856*
X015903Y012560D03*
D857*
X015904Y012563D03*
D858*
X015903Y012565D03*
D859*
X015903Y012568D03*
D860*
X015901Y012570D03*
D861*
X015901Y012573D03*
D862*
X015903Y012575D03*
D863*
X015901Y012578D03*
D864*
X015903Y012580D03*
D865*
X015903Y012583D03*
D866*
X015904Y012585D03*
D867*
X015904Y012588D03*
D868*
X015903Y012590D03*
D869*
X015903Y012593D03*
D870*
X015901Y012595D03*
D871*
X015901Y012598D03*
D872*
X015901Y012600D03*
D873*
X015901Y012603D03*
D874*
X015904Y012605D03*
D875*
X015904Y012608D03*
D876*
X015904Y012610D03*
D877*
X015904Y012613D03*
D878*
X015904Y012615D03*
D879*
X015903Y012618D03*
D880*
X015903Y012620D03*
D881*
X015903Y012623D03*
D882*
X015903Y012625D03*
D883*
X015903Y012628D03*
D884*
X015904Y012630D03*
D885*
X015904Y012633D03*
D886*
X015904Y012635D03*
D887*
X015904Y012638D03*
D888*
X015904Y012640D03*
D889*
X015903Y012643D03*
D890*
X015903Y012645D03*
D891*
X015903Y012648D03*
D892*
X015903Y012650D03*
D893*
X015904Y012653D03*
D894*
X015904Y012655D03*
D895*
X015905Y012658D03*
D896*
X015905Y012660D03*
D897*
X015904Y012663D03*
D898*
X015904Y012665D03*
D899*
X015903Y012668D03*
D900*
X015904Y012670D03*
D901*
X015904Y012673D03*
D902*
X015904Y012675D03*
D903*
X015905Y012678D03*
D904*
X015905Y012680D03*
D905*
X015905Y012683D03*
D906*
X015905Y012685D03*
D907*
X015904Y012688D03*
D908*
X015904Y012690D03*
D909*
X015904Y012693D03*
X015906Y012783D03*
D910*
X015905Y012695D03*
D911*
X015905Y012698D03*
D912*
X015906Y012700D03*
D913*
X015905Y012703D03*
D914*
X015905Y012705D03*
D915*
X015905Y012708D03*
D916*
X015905Y012710D03*
D917*
X015904Y012713D03*
X015906Y012768D03*
D918*
X015904Y012715D03*
D919*
X015905Y012718D03*
D920*
X015904Y012720D03*
X015906Y012760D03*
D921*
X015905Y012723D03*
D922*
X015905Y012725D03*
D923*
X015906Y012728D03*
X015906Y012733D03*
X015906Y012753D03*
D924*
X015906Y012750D03*
X015906Y012735D03*
X015906Y012730D03*
D925*
X015908Y012738D03*
X015908Y012743D03*
X015908Y012748D03*
D926*
X015908Y012745D03*
X015908Y012740D03*
D927*
X015908Y012755D03*
D928*
X015906Y012758D03*
D929*
X015908Y012763D03*
D930*
X015908Y012765D03*
D931*
X015906Y012770D03*
D932*
X015906Y012773D03*
D933*
X015908Y012775D03*
D934*
X015908Y012778D03*
D935*
X015906Y012780D03*
D936*
X016770Y012800D03*
X015030Y012785D03*
D937*
X016201Y012785D03*
D938*
X015029Y012788D03*
D939*
X016203Y012788D03*
D940*
X015028Y012790D03*
D941*
X016205Y012790D03*
D942*
X016766Y012793D03*
D943*
X015904Y012795D03*
D944*
X016770Y012795D03*
D945*
X016774Y012813D03*
X015904Y012913D03*
X015026Y012798D03*
D946*
X015904Y012798D03*
D947*
X016770Y012798D03*
D948*
X015025Y012800D03*
D949*
X015905Y012800D03*
D950*
X015901Y012938D03*
X015026Y012803D03*
D951*
X015904Y012803D03*
D952*
X016770Y012803D03*
D953*
X015905Y012805D03*
D954*
X016771Y012805D03*
D955*
X015024Y012808D03*
D956*
X015905Y012808D03*
D957*
X016773Y012808D03*
D958*
X015905Y012810D03*
D959*
X015023Y012813D03*
D960*
X015023Y012815D03*
D961*
X015904Y012915D03*
X016774Y012815D03*
D962*
X015023Y012818D03*
D963*
X015905Y012818D03*
D964*
X016775Y012818D03*
D965*
X016779Y012835D03*
X015904Y013050D03*
X015021Y012820D03*
D966*
X015905Y012820D03*
D967*
X016775Y012820D03*
D968*
X016780Y012838D03*
X015905Y013068D03*
X015905Y013073D03*
X015020Y012823D03*
D969*
X015905Y012823D03*
D970*
X015906Y013118D03*
X015906Y013123D03*
X015019Y012828D03*
D971*
X015905Y012828D03*
D972*
X015906Y013130D03*
X015019Y012830D03*
D973*
X015904Y013030D03*
X016779Y012830D03*
D974*
X015018Y012833D03*
D975*
X015904Y013038D03*
X015904Y013043D03*
X016779Y012833D03*
D976*
X015905Y012835D03*
D977*
X015906Y013163D03*
X015906Y013168D03*
X016784Y012853D03*
X015016Y012838D03*
D978*
X015905Y012838D03*
D979*
X015906Y013223D03*
X015016Y012843D03*
D980*
X016783Y012843D03*
D981*
X015015Y012845D03*
D982*
X016783Y012845D03*
D983*
X015015Y012848D03*
D984*
X016783Y012848D03*
D985*
X015015Y012850D03*
D986*
X015906Y013150D03*
X015906Y013155D03*
X016784Y012850D03*
D987*
X015909Y013268D03*
X015014Y012853D03*
D988*
X015013Y012855D03*
X015908Y013290D03*
D989*
X016785Y012855D03*
D990*
X015013Y012858D03*
D991*
X015011Y012860D03*
X015909Y013300D03*
D992*
X015909Y013303D03*
X015011Y012863D03*
D993*
X015905Y012863D03*
D994*
X015908Y013248D03*
X016788Y012863D03*
D995*
X015011Y012865D03*
D996*
X015908Y013255D03*
X015908Y013260D03*
X015908Y013265D03*
X016788Y012865D03*
D997*
X015010Y012868D03*
D998*
X015908Y013273D03*
X015908Y013278D03*
X015908Y013283D03*
X016788Y012868D03*
D999*
X015009Y012875D03*
D1000*
X015906Y012875D03*
D1001*
X016791Y012875D03*
D1002*
X015008Y012878D03*
D1003*
X015905Y012878D03*
D1004*
X015006Y012880D03*
D1005*
X015906Y012880D03*
D1006*
X016791Y012880D03*
D1007*
X015006Y012883D03*
D1008*
X015906Y012883D03*
D1009*
X015909Y013308D03*
X016791Y012883D03*
D1010*
X015906Y012885D03*
D1011*
X016793Y012885D03*
D1012*
X015905Y012888D03*
D1013*
X016794Y012888D03*
D1014*
X015005Y012890D03*
D1015*
X015908Y012890D03*
D1016*
X016795Y012890D03*
D1017*
X015005Y012893D03*
D1018*
X015908Y012893D03*
D1019*
X015005Y012895D03*
D1020*
X015908Y012895D03*
D1021*
X016795Y012895D03*
D1022*
X015908Y012898D03*
D1023*
X016795Y012898D03*
D1024*
X015908Y012900D03*
D1025*
X016796Y012900D03*
D1026*
X015906Y012903D03*
D1027*
X016796Y012903D03*
D1028*
X016798Y012905D03*
D1029*
X015003Y012908D03*
D1030*
X015905Y012908D03*
D1031*
X015001Y012910D03*
D1032*
X015905Y012910D03*
D1033*
X016799Y012918D03*
D1034*
X015904Y012920D03*
X015904Y012925D03*
D1035*
X016799Y012920D03*
D1036*
X016800Y012923D03*
D1037*
X016800Y012925D03*
D1038*
X015903Y012928D03*
X015903Y012933D03*
D1039*
X015903Y012935D03*
X015903Y012930D03*
D1040*
X015903Y012940D03*
X015903Y012945D03*
X015903Y012950D03*
D1041*
X015903Y012948D03*
X015903Y012943D03*
D1042*
X015903Y012955D03*
D1043*
X015903Y012958D03*
D1044*
X015904Y012960D03*
X015904Y012965D03*
D1045*
X015904Y012963D03*
D1046*
X014995Y012970D03*
D1047*
X015905Y012970D03*
X015905Y012975D03*
D1048*
X015905Y012980D03*
X015905Y012985D03*
X015905Y012990D03*
D1049*
X015905Y012993D03*
X015905Y012988D03*
X015905Y012983D03*
D1050*
X015906Y012998D03*
D1051*
X015905Y013003D03*
X015905Y013008D03*
X015905Y013013D03*
D1052*
X015905Y013015D03*
X015905Y013010D03*
X015905Y013005D03*
D1053*
X015904Y013018D03*
D1054*
X015905Y013020D03*
X015905Y013025D03*
D1055*
X015905Y013023D03*
D1056*
X015904Y013028D03*
X015904Y013033D03*
D1057*
X015905Y013045D03*
D1058*
X015905Y013055D03*
X015905Y013060D03*
D1059*
X015905Y013058D03*
D1060*
X015906Y013063D03*
D1061*
X015906Y013075D03*
X015906Y013080D03*
X015906Y013085D03*
X015906Y013090D03*
D1062*
X015906Y013093D03*
X015906Y013088D03*
X015906Y013083D03*
X015906Y013078D03*
D1063*
X015906Y013098D03*
X015906Y013103D03*
X015906Y013108D03*
D1064*
X015905Y013113D03*
D1065*
X015905Y013115D03*
D1066*
X015906Y013120D03*
D1067*
X015905Y013125D03*
D1068*
X015905Y013128D03*
D1069*
X015905Y013135D03*
D1070*
X015905Y013138D03*
D1071*
X015906Y013140D03*
D1072*
X015905Y013145D03*
D1073*
X015906Y013148D03*
X015906Y013153D03*
D1074*
X015906Y013160D03*
X015906Y013165D03*
D1075*
X015908Y013173D03*
X015908Y013178D03*
D1076*
X015906Y013185D03*
X015906Y013190D03*
D1077*
X015908Y013195D03*
X015908Y013200D03*
X015908Y013205D03*
D1078*
X015908Y013203D03*
X015908Y013198D03*
D1079*
X015906Y013208D03*
D1080*
X015908Y013215D03*
X015908Y013220D03*
D1081*
X015908Y013228D03*
D1082*
X015909Y013233D03*
D1083*
X015908Y013235D03*
X015908Y013240D03*
D1084*
X015908Y013238D03*
D1085*
X015908Y013245D03*
X015908Y013250D03*
D1086*
X015909Y013253D03*
D1087*
X015908Y013288D03*
D1088*
X015908Y013305D03*
D1089*
X015910Y013310D03*
D1090*
X015910Y013313D03*
D1091*
X015911Y013315D03*
D1092*
X015908Y013318D03*
M02*
