%
M48
M72
T01C0.0236
T02C0.0360
T03C0.0400
T04C0.0433
%
T01
X14650Y9350
X15300Y8700
X17850Y12100
X17500Y12700
X15000Y15650
X15450Y16250
X17300Y18050
X18350Y18050
X20288Y21187
X11450Y18100
X7200Y17850
T02
X9500Y14450
X10500Y14450
X10500Y15450
X9500Y15450
X11500Y15450
X12500Y15450
X13500Y15450
X13500Y14450
X12500Y14450
X11500Y14450
X18400Y14450
X19400Y14450
X20400Y14450
X21400Y14450
X22400Y14450
X22400Y15450
X21400Y15450
X20400Y15450
X19400Y15450
X18400Y15450
T03
X9500Y8600
X10500Y8600
X11500Y8600
X14900Y6675
X15900Y6675
X16900Y6675
X12875Y11875
X11875Y11875
X10875Y11875
X9875Y11875
X8875Y11875
X800Y800
X800Y1800
X1800Y1800
X1800Y800
X2800Y800
X2800Y1800
X3800Y1800
X3800Y800
X4800Y800
X4800Y1800
X5800Y1800
X5800Y800
X24125Y10500
X25125Y10500
X26125Y10500
X22939Y17236
X23625Y17850
X22918Y18557
X22232Y17943
X21525Y18650
X22211Y19264
X17600Y20350
X17600Y21350
X16600Y21350
X16600Y20350
X15600Y20350
X15600Y21350
X14600Y21350
X14600Y20350
X10100Y20500
X10100Y19500
X10100Y18500
X8750Y21250
X8750Y22250
X7750Y22250
X6750Y22250
X6750Y21250
X7750Y21250
X19925Y24950
X19925Y25950
X19925Y26950
T04
X5550Y3300
X5550Y6300
M30
